<svg width="52" height="45" viewBox="0 0 52 45" fill="none" xmlns="http://www.w3.org/2000/svg">
<path d="M51.0577 10.3846H45.8654C45.6359 10.3846 45.4158 10.4758 45.2535 10.6381C45.0912 10.8004 45 11.0205 45 11.25V44.1346C45 44.3641 45.0912 44.5842 45.2535 44.7465C45.4158 44.9088 45.6359 45 45.8654 45H51.0577C51.2872 45 51.5073 44.9088 51.6696 44.7465C51.8319 44.5842 51.9231 44.3641 51.9231 44.1346V11.25C51.9231 11.0205 51.8319 10.8004 51.6696 10.6381C51.5073 10.4758 51.2872 10.3846 51.0577 10.3846ZM50.1923 43.2692H46.7308V12.1154H50.1923V43.2692Z" fill="#0B4DF5"/>
<path d="M42.4039 45C42.6334 45 42.8535 44.9088 43.0158 44.7465C43.1781 44.5842 43.2693 44.3641 43.2693 44.1346V18.1731C43.2693 17.9436 43.1781 17.7234 43.0158 17.5612C42.8535 17.3989 42.6334 17.3077 42.4039 17.3077H37.2116C36.982 17.3077 36.7619 17.3989 36.5996 17.5612C36.4373 17.7234 36.3462 17.9436 36.3462 18.1731V44.1346C36.3462 44.3641 36.4373 44.5842 36.5996 44.7465C36.7619 44.9088 36.982 45 37.2116 45H42.4039ZM38.0769 19.0385H41.5385V43.2692H38.0769V19.0385Z" fill="#0B4DF5"/>
<path d="M33.75 45C33.9795 45 34.1997 44.9088 34.3619 44.7465C34.5242 44.5842 34.6154 44.3641 34.6154 44.1346V24.2308C34.6154 24.0013 34.5242 23.7811 34.3619 23.6189C34.1997 23.4566 33.9795 23.3654 33.75 23.3654H28.5577C28.3282 23.3654 28.1081 23.4566 27.9458 23.6189C27.7835 23.7811 27.6923 24.0013 27.6923 24.2308V44.1346C27.6923 44.3641 27.7835 44.5842 27.9458 44.7465C28.1081 44.9088 28.3282 45 28.5577 45H33.75ZM29.4231 25.0962H32.8846V43.2692H29.4231V25.0962Z" fill="#0B4DF5"/>
<path d="M25.0962 45C25.3257 45 25.5458 44.9088 25.7081 44.7465C25.8704 44.5842 25.9616 44.3641 25.9616 44.1346V31.1538C25.9616 30.9243 25.8704 30.7042 25.7081 30.5419C25.5458 30.3796 25.3257 30.2885 25.0962 30.2885H19.9039C19.6744 30.2885 19.4542 30.3796 19.2919 30.5419C19.1297 30.7042 19.0385 30.9243 19.0385 31.1538V44.1346C19.0385 44.3641 19.1297 44.5842 19.2919 44.7465C19.4542 44.9088 19.6744 45 19.9039 45H25.0962ZM20.7693 32.0192H24.2308V43.2692H20.7693V32.0192Z" fill="#0B4DF5"/>
<path d="M16.4423 45C16.6718 45 16.892 44.9088 17.0543 44.7465C17.2165 44.5842 17.3077 44.3641 17.3077 44.1346V34.6154C17.3077 34.3859 17.2165 34.1658 17.0543 34.0035C16.892 33.8412 16.6718 33.75 16.4423 33.75H11.25C11.0205 33.75 10.8004 33.8412 10.6381 34.0035C10.4758 34.1658 10.3846 34.3859 10.3846 34.6154V44.1346C10.3846 44.3641 10.4758 44.5842 10.6381 44.7465C10.8004 44.9088 11.0205 45 11.25 45H16.4423ZM12.1154 35.4808H15.5769V43.2692H12.1154V35.4808Z" fill="#0B4DF5"/>
<path d="M7.78848 45C8.018 45 8.23811 44.9088 8.4004 44.7465C8.56269 44.5842 8.65387 44.3641 8.65387 44.1346V38.9423C8.65387 38.7128 8.56269 38.4927 8.4004 38.3304C8.23811 38.1681 8.018 38.0769 7.78848 38.0769H2.59618C2.36666 38.0769 2.14655 38.1681 1.98426 38.3304C1.82197 38.4927 1.73079 38.7128 1.73079 38.9423V44.1346C1.73079 44.3641 1.82197 44.5842 1.98426 44.7465C2.14655 44.9088 2.36666 45 2.59618 45H7.78848ZM3.46156 39.8077H6.9231V43.2692H3.46156V39.8077Z" fill="#0B4DF5"/>
<path d="M21.6346 10.3846H23.3654C23.5949 10.3846 23.815 10.2934 23.9773 10.1312C24.1396 9.96886 24.2308 9.74875 24.2308 9.51923C24.2308 9.28972 24.1396 9.0696 23.9773 8.90731C23.815 8.74502 23.5949 8.65385 23.3654 8.65385H22.5V7.78846C22.5 7.55895 22.4088 7.33883 22.2466 7.17654C22.0843 7.01425 21.8642 6.92308 21.6346 6.92308C21.4051 6.92308 21.185 7.01425 21.0227 7.17654C20.8604 7.33883 20.7693 7.55895 20.7693 7.78846V8.80269C20.1921 9.00702 19.7058 9.40873 19.3961 9.93688C19.0864 10.465 18.9734 11.0856 19.0769 11.689C19.1805 12.2925 19.4939 12.8399 19.9619 13.2346C20.4299 13.6293 21.0224 13.8459 21.6346 13.8462C21.8642 13.8462 22.0843 13.9373 22.2466 14.0996C22.4088 14.2619 22.5 14.482 22.5 14.7115C22.5 14.9411 22.4088 15.1612 22.2466 15.3235C22.0843 15.4857 21.8642 15.5769 21.6346 15.5769H19.9039C19.6744 15.5769 19.4542 15.6681 19.2919 15.8304C19.1297 15.9927 19.0385 16.2128 19.0385 16.4423C19.0385 16.6718 19.1297 16.8919 19.2919 17.0542C19.4542 17.2165 19.6744 17.3077 19.9039 17.3077H20.7693V18.1731C20.7693 18.4026 20.8604 18.6227 21.0227 18.785C21.185 18.9473 21.4051 19.0385 21.6346 19.0385C21.8642 19.0385 22.0843 18.9473 22.2466 18.785C22.4088 18.6227 22.5 18.4026 22.5 18.1731V17.1588C23.0772 16.9545 23.5635 16.5528 23.8732 16.0247C24.1828 15.4965 24.2959 14.8759 24.1924 14.2725C24.0888 13.6691 23.7754 13.1217 23.3073 12.727C22.8393 12.3322 22.2469 12.1156 21.6346 12.1154C21.4051 12.1154 21.185 12.0242 21.0227 11.8619C20.8604 11.6996 20.7693 11.4795 20.7693 11.25C20.7693 11.0205 20.8604 10.8004 21.0227 10.6381C21.185 10.4758 21.4051 10.3846 21.6346 10.3846Z" fill="#0B4DF5"/>
<path d="M51.0577 0H45.8654C45.6359 0 45.4158 0.0911743 45.2535 0.253465C45.0912 0.415757 45 0.63587 45 0.865385C45 1.0949 45.0912 1.31501 45.2535 1.4773C45.4158 1.63959 45.6359 1.73077 45.8654 1.73077H48.9685L36.8531 13.8462H31.9829C32.0066 13.5607 32.0193 13.2722 32.0193 12.9808C32.0192 11.0087 31.4576 9.07747 30.4002 7.41289C29.3428 5.74831 27.8332 4.41923 26.0482 3.5811C24.2631 2.74297 22.2763 2.43044 20.3201 2.68007C18.3639 2.9297 16.5193 3.73117 15.0019 4.99073C13.4845 6.25029 12.3571 7.91588 11.7516 9.79266C11.1461 11.6694 11.0876 13.6798 11.5827 15.5887C12.0779 17.4976 13.1064 19.226 14.5478 20.5718C15.9893 21.9175 17.7841 22.8251 19.7225 23.1882L16.084 26.8269H9.51925C9.40561 26.8269 9.29307 26.8493 9.18808 26.8928C9.08308 26.9363 8.98768 27 8.90732 27.0804L0.253472 35.7342C0.0911765 35.8965 0 36.1166 0 36.3462C0 36.5757 0.0911765 36.7958 0.253472 36.9581C0.415767 37.1204 0.635887 37.2116 0.865407 37.2116C1.09493 37.2116 1.31505 37.1204 1.47734 36.9581L9.87763 28.5577H16.4423C16.556 28.5577 16.6685 28.5353 16.7735 28.4918C16.8785 28.4483 16.9739 28.3846 17.0543 28.3042L22.0003 23.3582C24.2377 23.2764 26.3891 22.4751 28.1348 21.0733C29.8806 19.6714 31.1276 17.7439 31.6907 15.5769H37.2116C37.3252 15.5769 37.4377 15.5545 37.5427 15.5111C37.6477 15.4676 37.7431 15.4038 37.8235 15.3235L50.1923 2.95464V6.05769C50.1923 6.28721 50.2835 6.50732 50.4458 6.66961C50.6081 6.8319 50.8282 6.92308 51.0577 6.92308C51.2872 6.92308 51.5073 6.8319 51.6696 6.66961C51.8319 6.50732 51.9231 6.28721 51.9231 6.05769V0.865385C51.9231 0.63587 51.8319 0.415757 51.6696 0.253465C51.5073 0.0911743 51.2872 0 51.0577 0ZM21.6346 21.6346C19.9231 21.6346 18.2499 21.1271 16.8268 20.1762C15.4037 19.2253 14.2945 17.8737 13.6395 16.2925C12.9845 14.7112 12.8132 12.9712 13.1471 11.2925C13.481 9.61381 14.3052 8.07184 15.5154 6.86158C16.7257 5.65131 18.2677 4.82712 19.9464 4.4932C21.625 4.15929 23.365 4.33067 24.9463 4.98566C26.5276 5.64065 27.8792 6.74983 28.83 8.17295C29.7809 9.59607 30.2885 11.2692 30.2885 12.9808C30.2859 15.2751 29.3733 17.4747 27.751 19.0971C26.1286 20.7194 23.929 21.632 21.6346 21.6346Z" fill="#0B4DF5"/>
</svg>
