<svg width="48" height="65" viewBox="0 0 48 65" fill="none" xmlns="http://www.w3.org/2000/svg">
<path d="M3.27284 28.9306C2.13552 30.8397 2.0949 33.2362 3.24238 35.2367C4.3797 37.1965 6.4411 38.344 8.63451 38.344H8.70559C8.69543 39.8469 9.22348 41.3396 10.2288 42.4973C10.4725 42.7816 10.7467 43.0456 11.0615 43.3096C11.295 43.5026 11.5387 43.665 11.8332 43.8377C13.8337 44.975 16.2403 44.9242 18.1291 43.8072C18.8196 45.0258 19.9163 45.9905 21.2466 46.5185C21.4192 46.5896 21.5919 46.6505 21.734 46.6911C21.7848 46.7114 21.8559 46.7318 21.8762 46.7318C22.2824 46.8638 22.7292 46.945 23.1658 46.9653C23.2978 46.9856 23.4298 46.9856 23.5619 46.9856C25.8467 46.9856 27.9081 45.7468 29.0149 43.7971C30.4467 44.6399 32.2035 44.8938 33.8282 44.447C34.0719 44.3759 34.3156 44.2946 34.5391 44.2033C34.7929 44.1017 35.0468 43.9798 35.3311 43.8377C37.3113 42.68 38.4791 40.578 38.4486 38.3542H38.5197C40.7131 38.3542 42.7745 37.1965 43.9118 35.2367C45.0593 33.2362 45.0085 30.8194 43.8813 28.9306C45.8209 27.8339 47.0496 25.7725 47.0496 23.4877C47.0496 21.2029 45.8107 19.1415 43.8712 18.0448C45.0085 16.1358 45.0491 13.7393 43.9016 11.7489C42.744 9.75863 40.6217 8.59084 38.4384 8.62131C38.4689 6.40759 37.3011 4.30558 35.321 3.14795C33.351 1.99031 30.9443 2.03093 29.0352 3.17841C27.9284 1.23887 25.867 0 23.5822 0C21.3075 0 19.2461 1.23887 18.1393 3.17841C16.22 2.03093 13.8134 1.99031 11.8332 3.14795C9.84291 4.30558 8.68528 6.40759 8.71574 8.62131C6.48172 8.59084 4.41017 9.75863 3.25253 11.7489C2.11521 13.7189 2.15583 16.1053 3.29315 18.0347C1.35361 19.1314 0.114743 21.1928 0.114743 23.4776C0.104589 25.7725 1.34346 27.8339 3.27284 28.9306ZM5.04991 19.4665C5.41548 19.3446 5.68965 19.04 5.78105 18.6643L5.87244 18.055L5.51702 17.659C4.29846 16.3084 4.09537 14.3282 5.00929 12.7543C5.93337 11.16 7.7409 10.3476 9.50781 10.7335C9.91399 10.835 10.3303 10.703 10.6045 10.3882L11.0615 9.7891L10.8178 9.30167C10.503 7.58553 11.3255 5.78816 12.8588 4.89455C14.4328 3.98063 16.413 4.18372 17.7737 5.40228L17.8854 5.49367C18.2104 5.70692 18.6165 5.74754 18.9618 5.59522L19.5203 5.31089L19.5914 4.85393C20.2007 3.16826 21.7949 2.03093 23.5822 2.03093C25.3999 2.03093 27.0043 3.18856 27.5933 4.92501L27.705 5.40228L28.2127 5.61553C28.5681 5.76785 28.9641 5.72723 29.2891 5.51398L29.4008 5.42259C30.7615 4.19388 32.7315 3.98063 34.3156 4.9047C35.8693 5.80847 36.6918 7.63631 36.3466 9.38291C36.245 9.73832 36.3263 10.1242 36.57 10.4085L37.1082 10.9467L37.6972 10.7436C39.4539 10.3781 41.2513 11.1904 42.1652 12.7644C43.0791 14.3485 42.876 16.3185 41.6981 17.6285C41.4239 17.9027 41.3122 18.2885 41.3934 18.6643L41.5864 19.2939L42.1246 19.4766C43.861 20.0453 45.0288 21.6599 45.0288 23.4877C45.0288 25.3054 43.8712 26.92 42.155 27.4988L41.6372 27.6105L41.4341 28.1589C41.2919 28.5346 41.3731 28.9611 41.6575 29.3064C42.876 30.6569 43.0791 32.6269 42.1652 34.2212C41.2513 35.7952 39.4438 36.6076 37.6667 36.2318C37.2707 36.1303 36.8442 36.2623 36.57 36.5771L36.113 37.1661L36.3567 37.6535C36.6817 39.4103 35.8693 41.1772 34.3563 42.0606C34.1735 42.1622 33.9907 42.2434 33.7876 42.3246C33.6353 42.3856 33.4627 42.4465 33.3103 42.4871C31.9496 42.8628 30.4569 42.5074 29.3805 41.5326C29.0758 41.2787 28.6595 41.1975 28.2939 41.3295L27.6948 41.5732L27.5933 42.0708C26.9941 43.7869 25.3897 44.9445 23.5923 44.9445C23.5415 44.9445 23.5009 44.9445 23.3791 44.9344C23.044 44.9141 22.7698 44.8633 22.5261 44.7922L22.3636 44.7516C22.2316 44.711 22.1199 44.6704 22.0082 44.6297C20.8709 44.1728 19.9874 43.2487 19.5914 42.0809L19.4695 41.563L18.9212 41.3599C18.5455 41.2178 18.119 41.299 17.7839 41.5732C16.4333 42.7816 14.4531 42.9847 12.8792 42.0911C12.6964 41.9794 12.5339 41.8778 12.3816 41.7458C12.1582 41.5529 11.9551 41.3701 11.7926 41.1772C10.9396 40.182 10.5842 38.8517 10.8381 37.5824C10.9396 37.227 10.8584 36.8513 10.6147 36.5669L10.0765 36.0287L9.4875 36.2217C7.71043 36.5771 5.92321 35.7749 5.01945 34.2111C4.10553 32.6168 4.30862 30.6366 5.54749 29.2657C5.81151 28.9509 5.88259 28.5244 5.74043 28.1487L5.47641 27.5496L4.97883 27.4684C3.283 26.8692 2.14568 25.275 2.14568 23.4674C2.13552 21.6497 3.30331 20.0453 5.04991 19.4665Z" fill="#0B4DF5"/>
<path d="M23.5822 38.7908C32.0207 38.7908 38.8852 31.9263 38.8852 23.4877C38.8852 15.0492 32.0207 8.1745 23.5822 8.1745C15.1436 8.1745 8.27909 15.0391 8.27909 23.4776C8.27909 31.9161 15.1436 38.7908 23.5822 38.7908ZM23.5822 10.2054C30.9037 10.2054 36.8543 16.1561 36.8543 23.4776C36.8543 30.7991 30.8935 36.7497 23.5822 36.7497C16.2708 36.7497 10.31 30.7991 10.31 23.4776C10.31 16.1662 16.2607 10.2054 23.5822 10.2054Z" fill="#0B4DF5"/>
<path d="M1.01851 61.7404L1.63794 61.3849C3.45563 60.3289 5.53734 59.2525 7.91353 58.1253C8.38064 60.3796 8.88837 62.3395 9.46719 64.1978L9.72106 64.9188L10.4116 64.9898C10.4522 64.9898 10.4827 65 10.5233 65C10.9396 65 11.3255 64.7664 11.5083 64.4009L11.5489 64.2993C13.2447 59.7297 16.1693 55.4648 19.0024 51.3318C19.5914 50.4687 20.1905 49.6055 20.7693 48.7322L19.0837 47.6051C18.5048 48.4682 17.9159 49.3212 17.3269 50.1843C14.9304 53.6775 12.473 57.2621 10.6857 61.1108C10.3202 59.7196 9.99523 58.2471 9.67028 56.6122C9.62966 56.3178 9.45703 56.0436 9.21332 55.871L8.65482 55.546L8.13693 55.7897C6.24816 56.663 4.55233 57.5059 2.99867 58.3284C4.70465 54.693 7.07069 51.2404 9.3758 47.8792C9.88353 47.138 10.3913 46.4068 10.8888 45.6655L9.20317 44.5282C8.70559 45.2695 8.20801 46.0006 7.70028 46.7318C4.82651 50.9358 1.85119 55.282 0.0842805 60.0445C-0.0985035 60.4812 0.0233525 60.9889 0.378766 61.2935L1.01851 61.7404Z" fill="#0B4DF5"/>
<path d="M35.5139 55.8303L35.0062 56.1858V56.6529C34.7117 58.1964 34.3766 59.6688 34.011 61.0803C32.2035 57.2012 29.7257 53.5963 27.3089 50.0828C26.8926 49.4837 26.4864 48.8845 26.0802 48.2854L24.4047 49.4329C24.8109 50.032 25.2272 50.6413 25.6436 51.2404C28.497 55.3937 31.452 59.6891 33.1479 64.2587C33.2697 64.6954 33.6861 64.9898 34.1633 64.9898H34.1836L34.996 64.9188L35.2093 64.2181C35.8084 62.2785 36.3263 60.2679 36.7731 58.1151C39.1493 59.2423 41.2005 60.3085 43.0182 61.3545L43.597 61.781L44.2368 61.324C44.6429 61.0295 44.8054 60.5015 44.6226 60.0344C42.8151 55.2312 39.8093 50.8342 36.8949 46.5896L36.1536 45.503L34.4781 46.6505L35.2296 47.7472C37.555 51.149 39.9515 54.6321 41.6778 58.2979C40.1343 57.4754 38.4384 56.6427 36.57 55.7796C36.245 55.6069 35.8388 55.6272 35.5139 55.8303Z" fill="#0B4DF5"/>
<path d="M16.9309 32.0278C16.8598 32.434 17.0324 32.8503 17.3675 33.0839L17.9463 33.4596L23.6431 30.4234L28.8118 33.1042C29.1774 33.2971 29.614 33.2565 29.9491 33.0128L30.4873 32.5762L29.3602 26.2193L33.5033 22.1372C33.7978 21.8528 33.9095 21.4162 33.7775 21.0202L33.5337 20.3703L27.1363 19.4766L24.5266 14.2571C24.3438 13.8916 23.9782 13.6682 23.5619 13.6682H23.5517L22.8713 13.7088L20.0483 19.5173L14.2805 20.3906C13.8743 20.4515 13.5494 20.7358 13.4174 21.1217L13.2346 21.7919L17.8854 26.2701L16.9309 32.0278ZM16.4739 22.1169L20.8099 21.4568L21.3888 21.3451L23.5517 16.9075L25.5116 20.8171L25.7959 21.3451L30.6904 22.0255L27.5628 25.1023L27.1566 25.5288L28.0198 30.3929L24.1204 28.3721L23.5822 28.1183L19.2461 30.464L19.9671 26.1076L20.028 25.539L16.4739 22.1169Z" fill="#0B4DF5"/>
</svg>
