<svg width="43" height="50" viewBox="0 0 43 50" fill="none" xmlns="http://www.w3.org/2000/svg">
<path d="M14.2078 13.5505C13.8764 13.3186 13.4197 13.3994 13.1879 13.7311L10.8604 17.0601L9.35168 15.7192C9.04933 15.4503 8.58634 15.4777 8.31769 15.78C8.04894 16.0824 8.07619 16.5452 8.37853 16.814L9.9841 18.2411C10.5901 18.7798 11.5261 18.6644 11.9865 18.0059L14.3885 14.5705C14.6202 14.239 14.5394 13.7823 14.2078 13.5505Z" fill="#5264F3"/>
<path d="M14.2078 24.2497C13.8764 24.0178 13.4197 24.0986 13.1879 24.4302L10.8604 27.7593L9.35178 26.4183C9.04943 26.1494 8.58644 26.1768 8.31779 26.4792C8.04904 26.7815 8.07629 27.2444 8.37863 27.5131L9.9843 28.9405C10.5905 29.4792 11.5263 29.3632 11.9865 28.7051L14.3885 25.2697C14.6202 24.938 14.5394 24.4814 14.2078 24.2497Z" fill="#5264F3"/>
<path d="M14.2078 34.8052C13.8764 34.5734 13.4197 34.6542 13.1879 34.9858L10.8604 38.3148L9.35168 36.9739C9.04933 36.7051 8.58634 36.7324 8.31769 37.0347C8.04894 37.3371 8.07619 37.8 8.37853 38.0687L9.9841 39.4959C10.5901 40.0346 11.5261 39.919 11.9865 39.2606L14.3885 35.8253C14.6202 35.4937 14.5394 35.037 14.2078 34.8052Z" fill="#5264F3"/>
<path d="M28.3867 13.8032H18.0359C17.6314 13.8032 17.3035 14.131 17.3035 14.5356C17.3035 14.9402 17.6314 15.268 18.0359 15.268H28.3866C28.7912 15.268 29.119 14.9402 29.119 14.5356C29.119 14.131 28.7912 13.8032 28.3867 13.8032Z" fill="#5264F3"/>
<path d="M28.3867 17.0581H18.0359C17.6314 17.0581 17.3035 17.386 17.3035 17.7906C17.3035 18.1952 17.6314 18.523 18.0359 18.523H28.3866C28.7912 18.523 29.119 18.1952 29.119 17.7906C29.119 17.386 28.7912 17.0581 28.3867 17.0581Z" fill="#5264F3"/>
<path d="M29.1191 25C29.1191 24.5955 28.7913 24.2676 28.3867 24.2676H18.0359C17.6314 24.2676 17.3035 24.5955 17.3035 25C17.3035 25.4046 17.6314 25.7325 18.0359 25.7325H28.3866C28.7912 25.7325 29.1191 25.4046 29.1191 25Z" fill="#5264F3"/>
<path d="M18.0359 27.5226C17.6314 27.5226 17.3035 27.8504 17.3035 28.255C17.3035 28.6596 17.6314 28.9875 18.0359 28.9875H23.2112C23.6158 28.9875 23.9436 28.6596 23.9436 28.255C23.9436 27.8504 23.6158 27.5226 23.2112 27.5226H18.0359Z" fill="#5264F3"/>
<path d="M41.7522 15.0364C40.4632 14.0033 38.5844 14.2107 37.5517 15.4993C36.812 16.4222 19.6022 37.8948 18.2559 39.5745C18.163 39.6902 18.3038 39.4539 15.7413 44.5865H5.28185C5.09981 44.5865 4.95177 44.4385 4.95177 44.2565V7.28117H9.78703V7.77511C9.78703 8.78996 10.6127 9.61555 11.6275 9.61555H25.6242C26.6391 9.61555 27.4647 8.78996 27.4647 7.77511V7.28117H32.3V18.4724C32.3 18.877 32.6278 19.2048 33.0324 19.2048C33.437 19.2048 33.7648 18.877 33.7648 18.4724V7.28117H34.9085C35.3927 7.28117 35.7868 7.67521 35.7868 8.15949V14.1114C35.7868 14.5159 36.1146 14.8438 36.5192 14.8438C36.9238 14.8438 37.2516 14.5159 37.2516 14.1114V8.15949C37.2516 6.86749 36.2005 5.81632 34.9085 5.81632H27.3756C27.0463 4.47784 25.8365 3.48194 24.3979 3.48194H22.9884C22.7461 3.48194 22.549 3.28477 22.549 3.04249C22.549 1.36485 21.1842 0 19.5066 0H17.7452C16.0676 0 14.7028 1.36485 14.7028 3.04239C14.7028 3.28467 14.5056 3.48184 14.2633 3.48184H12.8538C11.4152 3.48184 10.2054 4.47774 9.87609 5.81622H2.34317C1.05117 5.81622 0 6.8674 0 8.15939V47.6568C0 48.9488 1.05117 50 2.34317 50H34.9084C36.2004 50 37.2515 48.9488 37.2515 47.6568V28.9959C37.2515 28.5913 36.9237 28.2634 36.5191 28.2634C36.1145 28.2634 35.7867 28.5913 35.7867 28.9959V47.6569C35.7867 48.1412 35.3926 48.5353 34.9084 48.5353H2.34317C1.85889 48.5353 1.46485 48.1412 1.46485 47.6569V8.15949C1.46485 7.67521 1.85889 7.28117 2.34317 7.28117H3.48692V44.2566C3.48692 45.2463 4.2921 46.0515 5.28185 46.0515H15.3691C15.4333 46.478 15.6512 46.8799 16.0038 47.1625C16.6428 47.6746 17.5695 47.6734 18.2074 47.156L19.5688 46.0515H31.9699C32.9596 46.0515 33.7648 45.2463 33.7648 44.2566V33.3375C33.7648 32.9329 33.437 32.605 33.0324 32.605C32.6278 32.605 32.3 32.9329 32.3 33.3375V44.2566C32.3 44.4386 32.1518 44.5866 31.9699 44.5866H21.3752C22.8871 43.3524 22.8326 43.42 22.9192 43.3121C24.2661 41.6316 41.476 20.1589 42.2151 19.2368C43.2455 17.9509 43.0379 16.0666 41.7522 15.0364ZM11.2519 6.54874C11.2519 5.66544 11.9705 4.94679 12.8538 4.94679H14.2633C15.3133 4.94679 16.1676 4.09249 16.1676 3.04249C16.1676 2.17266 16.8753 1.46494 17.7452 1.46494H19.5066C20.3765 1.46494 21.0841 2.17266 21.0841 3.04249C21.0841 4.09249 21.9384 4.94679 22.9884 4.94679H24.3979C25.2812 4.94679 25.9999 5.66544 25.9999 6.54874V7.77511C25.9999 7.98214 25.8313 8.1507 25.6242 8.1507H11.6275C11.4203 8.1507 11.2519 7.98214 11.2519 7.77511V6.54874ZM17.2845 46.0184C17.179 46.1039 17.0258 46.1041 16.92 46.0195C16.8141 45.9346 16.7811 45.7848 16.8415 45.6634L19.0948 41.1388L21.2098 42.834L17.2845 46.0184ZM22.2571 41.7959L19.8799 39.8906L35.5577 20.3295L37.9348 22.2348L22.2571 41.7959ZM41.0721 18.3206L38.851 21.0918L36.4738 19.1865L38.6948 16.4154C39.222 15.7576 40.1805 15.6539 40.8361 16.1794C41.4915 16.7046 41.5973 17.6652 41.0721 18.3206Z" fill="#5264F3"/>
</svg>
