<svg width="65" height="66" viewBox="0 0 65 66" fill="none" xmlns="http://www.w3.org/2000/svg">
<path d="M20.8281 29.7506H25.7875C27.0792 29.7506 28.13 28.6987 28.13 27.4056V25.6787C28.13 24.3857 27.0792 23.3338 25.7875 23.3338H20.8281C19.5364 23.3338 18.4856 24.3857 18.4856 25.6787V27.4056C18.4855 28.6987 19.5364 29.7506 20.8281 29.7506ZM20.5168 25.6787C20.5168 25.5098 20.6592 25.3672 20.8279 25.3672H25.7874C25.9561 25.3672 26.0986 25.5098 26.0986 25.6787V27.4056C26.0986 27.5745 25.9561 27.7172 25.7874 27.7172H20.8279C20.6592 27.7172 20.5168 27.5745 20.5168 27.4056V25.6787ZM14.8902 41.9634H9.93078C8.63916 41.9634 7.58837 43.0153 7.58837 44.3084V46.0353C7.58837 47.3284 8.63916 48.3803 9.93078 48.3803H14.8902C16.1818 48.3803 17.2326 47.3284 17.2326 46.0353V44.3084C17.2326 43.0153 16.1818 41.9634 14.8902 41.9634ZM15.2014 46.0353C15.2014 46.2042 15.0589 46.3469 14.8902 46.3469H9.93078C9.76206 46.3469 9.61962 46.2042 9.61962 46.0353V44.3084C9.61962 44.1395 9.76206 43.9968 9.93078 43.9968H14.8902C15.0589 43.9968 15.2014 44.1395 15.2014 44.3084V46.0353ZM14.8902 32.6486H9.93078C8.63916 32.6486 7.58837 33.7005 7.58837 34.9936V36.7204C7.58837 38.0135 8.63916 39.0655 9.93078 39.0655H14.8902C16.1818 39.0655 17.2326 38.0135 17.2326 36.7204V34.9936C17.2326 33.7005 16.1818 32.6486 14.8902 32.6486ZM15.2014 36.7204C15.2014 36.8893 15.0589 37.0321 14.8902 37.0321H9.93078C9.76206 37.0321 9.61962 36.8893 9.61962 36.7204V34.9936C9.61962 34.8247 9.76206 34.682 9.93078 34.682H14.8902C15.0589 34.682 15.2014 34.8247 15.2014 34.9936V36.7204ZM28.13 44.3084C28.13 43.0153 27.0792 41.9634 25.7875 41.9634H20.8281C19.5364 41.9634 18.4856 43.0153 18.4856 44.3084V46.0353C18.4856 47.3284 19.5364 48.3803 20.8281 48.3803H25.7875C27.0792 48.3803 28.13 47.3284 28.13 46.0353V44.3084ZM26.0988 46.0353C26.0988 46.2042 25.9562 46.3469 25.7875 46.3469H20.8281C20.6593 46.3469 20.5169 46.2042 20.5169 46.0353V44.3084C20.5169 44.1395 20.6593 43.9968 20.8281 43.9968H25.7875C25.9562 43.9968 26.0988 44.1395 26.0988 44.3084V46.0353ZM14.8902 23.3338H9.93078C8.63916 23.3338 7.58837 24.3857 7.58837 25.6787V27.4056C7.58837 28.6987 8.63916 29.7506 9.93078 29.7506H14.8902C16.1818 29.7506 17.2326 28.6987 17.2326 27.4056V25.6787C17.2326 24.3857 16.1818 23.3338 14.8902 23.3338ZM15.2014 27.4056C15.2014 27.5745 15.0589 27.7172 14.8902 27.7172H9.93078C9.76206 27.7172 9.61962 27.5745 9.61962 27.4056V25.6787C9.61962 25.5098 9.76206 25.3672 9.93078 25.3672H14.8902C15.0589 25.3672 15.2014 25.5098 15.2014 25.6787V27.4056ZM20.8281 39.0655H25.7875C27.0792 39.0655 28.13 38.0135 28.13 36.7204V34.9936C28.13 33.7005 27.0792 32.6486 25.7875 32.6486H20.8281C19.5364 32.6486 18.4856 33.7005 18.4856 34.9936V36.7204C18.4855 38.0135 19.5364 39.0655 20.8281 39.0655ZM20.5168 34.9936C20.5168 34.8247 20.6592 34.682 20.8279 34.682H25.7874C25.9561 34.682 26.0986 34.8247 26.0986 34.9936V36.7204C26.0986 36.8893 25.9561 37.0321 25.7874 37.0321H20.8279C20.6592 37.0321 20.5168 36.8893 20.5168 36.7204V34.9936ZM62.6889 41.1624C60.8349 37.9037 58.0078 34.2206 53.8508 29.6564C55.0042 29.0533 55.7937 27.8448 55.7937 26.4545C55.7937 24.6018 54.3922 23.0712 52.595 22.8674L55.1276 20.332C56.5619 18.8961 56.5619 16.5598 55.1275 15.124C53.9134 13.9089 51.983 13.7014 50.5375 14.6302C50.4284 14.7006 50.3312 14.7093 50.2111 14.6593C50.0915 14.6097 50.0285 14.5343 50.0009 14.4076C49.6495 12.7962 48.2442 11.6117 46.6157 11.5169V7.63872C46.6155 3.89193 43.5706 0.84375 39.8279 0.84375H6.78768C3.04484 0.84375 0 3.89193 0 7.63872V49.879C0 53.6257 3.04484 56.6739 6.78768 56.6739H29.6543C29.7502 56.8508 29.8487 57.0269 29.9522 57.2015C33.1461 62.5965 39.2991 65.9126 46.0726 65.9123H46.7398C53.5129 65.9123 59.6666 62.5961 62.8602 57.2015C65.7618 52.3 65.6995 46.4539 62.6889 41.1624ZM53.7624 26.4545C53.7624 27.3243 53.0555 28.0319 52.1866 28.0319H40.6258C39.7568 28.0319 39.0499 27.3243 39.0499 26.4543C39.0499 25.5846 39.7568 24.8771 40.6258 24.8771H52.1866C53.0555 24.8771 53.7624 25.5848 53.7624 26.4545ZM48.0163 14.8416C48.1856 15.6166 48.7021 16.2349 49.4335 16.538C50.1653 16.8421 50.9677 16.7702 51.6346 16.3415C52.2825 15.9256 53.1477 16.018 53.6913 16.5621C54.0004 16.8716 54.1705 17.2855 54.1705 17.7282C54.1705 18.1708 54.0003 18.5849 53.6911 18.8943L49.7461 22.8438H43.0666L39.1212 18.8943C38.812 18.5849 38.6419 18.1708 38.6419 17.7282C38.6419 17.2855 38.8121 16.8716 39.1212 16.5621C39.6646 16.0178 40.5295 15.9249 41.178 16.3415C41.8449 16.7699 42.647 16.8415 43.3787 16.5382C44.1106 16.2348 44.6272 15.6164 44.7962 14.8414C44.9606 14.0881 45.6377 13.5414 46.4063 13.5413C47.1749 13.5412 47.8519 14.088 48.0163 14.8416ZM36.6802 17.0077H8.71165C8.54293 17.0077 8.40036 16.865 8.40036 16.6961V11.4823C8.40036 11.3134 8.54293 11.1708 8.71165 11.1708H37.9038C38.0725 11.1708 38.215 11.3134 38.215 11.4823V14.6881C38.0274 14.8153 37.8492 14.9597 37.6848 15.1243C37.1641 15.6453 36.8193 16.2973 36.6802 17.0077ZM6.78768 54.6405C4.16495 54.6405 2.03125 52.5045 2.03125 49.879V7.63872C2.03125 5.01322 4.16495 2.87714 6.78768 2.87714H39.8279C42.4506 2.87714 44.5843 5.01322 44.5843 7.63872V11.9991C43.7039 12.5063 43.0384 13.3684 42.8118 14.4078C42.784 14.5346 42.7211 14.61 42.6017 14.6594C42.4819 14.7095 42.3843 14.7003 42.275 14.6303C41.6562 14.2328 40.9487 14.045 40.2464 14.0537V11.4823C40.2464 10.1894 39.1956 9.13745 37.9039 9.13745H8.71165C7.4199 9.13745 6.36911 10.1894 6.36911 11.4823V16.696C6.36911 17.9891 7.4199 19.041 8.71165 19.041H36.8501C37.0317 19.5203 37.3129 19.9597 37.6848 20.332L40.2176 22.8674C39.4159 22.9583 38.6933 23.3133 38.1384 23.8432C37.7386 23.5252 37.234 23.3337 36.6848 23.3337H31.7255C30.4337 23.3337 29.3829 24.3856 29.3829 25.6786V27.4055C29.3829 28.6986 30.4337 29.7505 31.7255 29.7505H36.6848C37.2805 29.7505 37.8234 29.5249 38.2373 29.1569C38.4566 29.3514 38.6996 29.5193 38.9615 29.6563C38.0129 30.6978 37.1339 31.6933 36.3195 32.6484H31.7253C30.4336 32.6484 29.3828 33.7003 29.3828 34.9935V36.7204C29.3828 37.912 30.2759 38.8968 31.4269 39.0442C30.9472 39.7718 30.5134 40.4766 30.1233 41.1624C27.6218 45.5591 27.1579 50.3381 28.7362 54.6405H6.78768ZM36.996 25.6787V27.4056C36.996 27.5745 36.8535 27.7172 36.6848 27.7172H31.7255C31.5567 27.7172 31.4142 27.5745 31.4142 27.4056V25.6787C31.4142 25.5098 31.5567 25.3672 31.7255 25.3672H36.6848C36.8535 25.3672 36.996 25.5098 36.996 25.6787ZM32.8289 37.0321H31.7255C31.5567 37.0321 31.4142 36.8893 31.4142 36.7204V34.9936C31.4142 34.8247 31.5567 34.682 31.7255 34.682H34.6352C33.9836 35.4937 33.3826 36.2758 32.8289 37.0321ZM61.1128 56.1649C58.2844 60.9427 52.7985 63.879 46.7402 63.879C46.6289 63.879 46.1835 63.879 46.0722 63.879C40.0144 63.879 34.5278 60.9425 31.6996 56.1649C29.1431 51.8466 29.2103 46.8761 31.8882 42.1687C33.7935 38.82 36.8035 34.9669 41.345 30.0654H51.4671C56.0085 34.9669 59.0185 38.8202 60.9238 42.1687C63.602 46.876 63.6692 51.8466 61.1128 56.1649ZM51.8385 50.1341C51.9737 51.2493 51.6746 52.2678 50.9736 53.0792C50.1758 54.0026 48.8658 54.6285 47.3724 54.8226V55.8533C47.3724 56.4147 46.9177 56.87 46.3568 56.87C45.7959 56.87 45.3412 56.4147 45.3412 55.8533V54.8073C43.109 54.4643 41.3802 53.0289 40.8731 50.9927C40.7375 50.4479 41.0686 49.8961 41.6128 49.7602C42.1571 49.6251 42.7083 49.9559 42.844 50.5007C43.2718 52.2188 44.9587 52.8361 46.3451 52.8526C46.3582 52.8521 46.3714 52.8525 46.3845 52.8529C46.4296 52.8529 46.4725 52.8527 46.5158 52.8515C47.7372 52.8224 48.8838 52.3895 49.4373 51.749C49.7625 51.3727 49.8884 50.9247 49.8222 50.3793C49.6629 49.0661 48.5474 48.3086 46.2051 47.9237C42.2982 47.2816 41.3876 45.2827 41.3118 43.7186C41.2067 41.5527 42.7167 39.7385 45.0692 39.2044C45.1587 39.184 45.2495 39.1657 45.3413 39.1495V38.0885C45.3413 37.5271 45.7961 37.0718 46.3569 37.0718C46.9178 37.0718 47.3726 37.5271 47.3726 38.0885V39.1407C49.011 39.413 50.6125 40.3846 51.4215 42.3132C51.6387 42.8308 51.3955 43.4268 50.8782 43.6441C50.3619 43.8613 49.7659 43.6182 49.5487 43.1003C48.9492 41.6714 47.6651 41.0905 46.4238 41.0872C46.3874 41.0896 46.3503 41.0899 46.3131 41.0883C46.0427 41.0952 45.7755 41.129 45.5187 41.1873C44.4209 41.4365 43.2722 42.2065 43.3408 43.62C43.3645 44.1086 43.4275 45.4066 46.5343 45.917C47.7436 46.1159 51.4245 46.7209 51.8385 50.1341Z" fill="#5264F3"/>
</svg>
