<svg xmlns="http://www.w3.org/2000/svg" xmlns:xlink="http://www.w3.org/1999/xlink" xmlns:svgjs="http://svgjs.com/svgjs" width="512" height="512" x="0" y="0" viewBox="0 0 682.667 682.667" style="enable-background:new 0 0 512 512" xml:space="preserve" class=""><g><defs><clipPath id="a" clipPathUnits="userSpaceOnUse"><path d="M0 512h512V0H0Z" fill="#0b4df5" data-original="#000000"></path></clipPath></defs><path d="m0 0-32.789 32.972" style="stroke-width:15;stroke-linecap:round;stroke-linejoin:round;stroke-miterlimit:10;stroke-dasharray:none;stroke-opacity:1" transform="matrix(1.33333 0 0 -1.33333 179.05 509.55)" fill="none" stroke="#0b4df5" stroke-width="15" stroke-linecap="round" stroke-linejoin="round" stroke-miterlimit="10" stroke-dasharray="none" stroke-opacity="" data-original="#000000"></path><path d="m0 0 32.789 32.972" style="stroke-width:15;stroke-linecap:round;stroke-linejoin:round;stroke-miterlimit:10;stroke-dasharray:none;stroke-opacity:1" transform="matrix(1.33333 0 0 -1.33333 503.616 509.55)" fill="none" stroke="#0b4df5" stroke-width="15" stroke-linecap="round" stroke-linejoin="round" stroke-miterlimit="10" stroke-dasharray="none" stroke-opacity="" data-original="#000000"></path><g clip-path="url(#a)" transform="matrix(1.33333 0 0 -1.33333 0 682.667)"><path d="M0 0c38.792 34.877 93.399 50.935 148.094 38.337 89.178-20.542 144.82-109.487 124.278-198.666-20.541-89.178-109.486-144.819-198.665-124.278C-15.472-264.066-71.113-175.12-50.571-85.942c5.503 23.893 15.917 45.379 29.929 63.636" style="stroke-width:15;stroke-linecap:round;stroke-linejoin:round;stroke-miterlimit:10;stroke-dasharray:none;stroke-opacity:1" transform="translate(145.1 461.898)" fill="none" stroke="#0b4df5" stroke-width="15" stroke-linecap="round" stroke-linejoin="round" stroke-miterlimit="10" stroke-dasharray="none" stroke-opacity="" data-original="#000000"></path><path d="M0 0c10.46 15.396 29.204 28.609 38.537 32.744 16.079 7.125 48.032 5.032 55.878 39.093 3.729 16.186-19.341 28.47-38.466 33.346-19.124 4.877-32.037 66.165-73.769 55.808-13.358-3.314-49.798 26.948-45.963 35.628 9.307 21.066-9.752 28.42.138 40.804 5.38 6.735 12.055 14.175 20.726 6.842 8.67-7.334 5.481-22.583 13.245-24.058 7.764-1.474 13.059 16.555 17.719 26.742 16.782 36.689 64.102 24.79 79.508 39.441 11.714 11.14 16.489 24.629 14.598 34.539" style="stroke-width:15;stroke-linecap:round;stroke-linejoin:round;stroke-miterlimit:10;stroke-dasharray:none;stroke-opacity:1" transform="translate(210.561 179.411)" fill="none" stroke="#0b4df5" stroke-width="15" stroke-linecap="round" stroke-linejoin="round" stroke-miterlimit="10" stroke-dasharray="none" stroke-opacity="" data-original="#000000"></path><path d="M0 0c14.822-24.436 49.335-44.906 60.463-52.509 3.64-2.486 4.756-7.354 2.518-11.152-6.341-10.769-15.058-32.38 4.373-48.418 26.904-22.207 26.886-32.501 15.946-55.47-2.764-5.804-4.841-10.679-6.422-14.809" style="stroke-width:15;stroke-linecap:round;stroke-linejoin:round;stroke-miterlimit:10;stroke-dasharray:none;stroke-opacity:1" transform="translate(95.09 378.265)" fill="none" stroke="#0b4df5" stroke-width="15" stroke-linecap="round" stroke-linejoin="round" stroke-miterlimit="10" stroke-dasharray="none" stroke-opacity="" data-original="#000000"></path><path d="M0 0c-10.298-26.12 21.303-36.866 17.951-45.47-1.386-3.557-.513-8.087.938-12.101 2.16-5.981.439-12.674-4.499-16.68-8.502-6.895-20.028-18.136-22.268-29.826-5.497-28.7 4.319-40.722 14.967-49.51 16.493-13.613 28.978-8.845 35.699-18.84 14.559-21.654-52.926-78.993-30.216-105.94" style="stroke-width:15;stroke-linecap:round;stroke-linejoin:round;stroke-miterlimit:10;stroke-dasharray:none;stroke-opacity:1" transform="translate(339.344 482.025)" fill="none" stroke="#0b4df5" stroke-width="15" stroke-linecap="round" stroke-linejoin="round" stroke-miterlimit="10" stroke-dasharray="none" stroke-opacity="" data-original="#000000"></path><path d="m0 0-.66 7.177a49.848 49.848 0 0 1-27.86 40.271l-46.793 22.731-41.593 43.956c-3.953 4.089-10.275 5.074-15.095 2.056a11.91 11.91 0 0 1-4.151-15.803l13.316-20.693a142.928 142.928 0 0 0-50.266 40.832 43.306 43.306 0 0 0-5.207 8.621l-12.838 28.248c-2.235 4.916-7.576 7.84-12.845 6.665-6.287-1.404-10.112-7.787-8.389-13.991l10.283-37.018c4.345-13.692 20.702-45.75 30.929-55.836 22.356-22.049 62.771-44.012 74.497-56.688.499-.54.977-1.129 1.434-1.761" style="stroke-width:15;stroke-linecap:round;stroke-linejoin:round;stroke-miterlimit:10;stroke-dasharray:none;stroke-opacity:1" transform="translate(224.335 83.113)" fill="none" stroke="#0b4df5" stroke-width="15" stroke-linecap="round" stroke-linejoin="round" stroke-miterlimit="10" stroke-dasharray="none" stroke-opacity="" data-original="#000000"></path><path d="M0 0c.442.607.903 1.173 1.385 1.693 11.726 12.676 52.141 34.639 74.497 56.688 10.227 10.086 26.584 42.144 30.929 55.836l10.186 36.669c1.615 5.816-1.415 12.097-7.138 14.018a11.25 11.25 0 0 1-13.844-6.003l-12.994-28.588a43.24 43.24 0 0 0-5.207-8.621A142.916 142.916 0 0 0 27.549 80.86l13.316 20.693a11.91 11.91 0 0 1-4.151 15.803c-4.82 3.018-11.142 2.033-15.095-2.056l-41.593-43.956-46.794-22.731A49.85 49.85 0 0 1-94.627 8.341l-.688-7.488" style="stroke-width:15;stroke-linecap:round;stroke-linejoin:round;stroke-miterlimit:10;stroke-dasharray:none;stroke-opacity:1" transform="translate(382.952 81.948)" fill="none" stroke="#0b4df5" stroke-width="15" stroke-linecap="round" stroke-linejoin="round" stroke-miterlimit="10" stroke-dasharray="none" stroke-opacity="" data-original="#000000"></path><path d="M0 0h91.847c5.459 0 9.885-4.426 9.885-9.886v-25.492c0-5.46-4.426-9.886-9.885-9.886H0c-5.46 0-9.886 4.426-9.886 9.886v25.492C-9.886-4.426-5.46 0 0 0Z" style="stroke-width:15;stroke-linecap:round;stroke-linejoin:round;stroke-miterlimit:10;stroke-dasharray:none;stroke-opacity:1" transform="translate(137.655 52.764)" fill="none" stroke="#0b4df5" stroke-width="15" stroke-linecap="round" stroke-linejoin="round" stroke-miterlimit="10" stroke-dasharray="none" stroke-opacity="" data-original="#000000"></path><path d="M0 0h-91.847c-5.459 0-9.885-4.426-9.885-9.886v-25.492c0-5.46 4.426-9.886 9.885-9.886H0c5.46 0 9.886 4.426 9.886 9.886v25.492C9.886-4.426 5.46 0 0 0Z" style="stroke-width:15;stroke-linecap:round;stroke-linejoin:round;stroke-miterlimit:10;stroke-dasharray:none;stroke-opacity:1" transform="translate(374.345 52.764)" fill="none" stroke="#0b4df5" stroke-width="15" stroke-linecap="round" stroke-linejoin="round" stroke-miterlimit="10" stroke-dasharray="none" stroke-opacity="" data-original="#000000"></path></g></g></svg>