<svg xmlns="http://www.w3.org/2000/svg" xmlns:xlink="http://www.w3.org/1999/xlink" xmlns:svgjs="http://svgjs.com/svgjs" width="512" height="512" x="0" y="0" viewBox="0 0 512 512" style="enable-background:new 0 0 512 512" xml:space="preserve" class=""><g><path d="M185.45 20.05c-1.78-5.151-7.553-7.957-12.7-6.21a255.912 255.912 0 0 0-43.44 19.66c-27.117 15.474-51.747 36.286-71.63 60.6a258.408 258.408 0 0 0-26.39 39.15c-2.64 4.84-.86 10.929 3.98 13.57 4.782 2.608 10.957.794 13.57-3.97 28.37-51.84 74.69-90.94 130.41-110.09 5.21-1.79 8-7.5 6.2-12.71zM23.81 164.54c-4.24 0-8.04 2.69-9.44 6.69-1.82 5.2.92 10.92 6.13 12.75 5.011 1.76 10.941-.993 12.739-6.13 2.211-6.315-2.755-13.31-9.429-13.31zM476.73 365.18c-4.782-2.606-10.956-.796-13.57 3.97-28.369 51.84-74.689 90.94-130.409 110.09-5.084 1.747-7.941 7.652-6.201 12.71 1.77 5.145 7.572 7.957 12.71 6.21a256.169 256.169 0 0 0 43.43-19.66 257.083 257.083 0 0 0 38.66-27.05 258.702 258.702 0 0 0 32.97-33.55 257.65 257.65 0 0 0 26.38-39.149c2.612-4.776.802-10.971-3.97-13.571zM497.21 333.13a9.978 9.978 0 0 0-5.71-5.11c-8.041-2.839-16.094 5.927-12.32 13.77a9.91 9.91 0 0 0 5.7 5.1c8.142 2.867 16.055-5.985 12.33-13.76zM502 246h-30.234c-2.442-53.941-24.6-104.304-63.031-142.735C370.304 64.834 319.941 42.676 266 40.234V10c0-5.523-4.477-10-10-10s-10 4.477-10 10v30.234c-53.941 2.442-104.304 24.6-142.735 63.031C64.834 141.696 42.676 192.059 40.234 246H10c-5.523 0-10 4.477-10 10s4.477 10 10 10h30.234c2.442 53.941 24.6 104.304 63.031 142.735 38.431 38.431 88.794 60.589 142.735 63.031V502c0 5.523 4.477 10 10 10s10-4.477 10-10v-30.234c53.941-2.442 104.304-24.6 142.735-63.031 38.431-38.431 60.589-88.794 63.031-142.735H502c5.523 0 10-4.477 10-10s-4.477-10-10-10zm-80 20h29.747C446.69 366.134 366.134 446.69 266 451.747V422c0-5.523-4.477-10-10-10s-10 4.477-10 10v29.747C145.866 446.69 65.31 366.134 60.253 266H90c5.523 0 10-4.477 10-10s-4.477-10-10-10H60.253C65.31 145.866 145.866 65.31 246 60.253V90c0 5.523 4.477 10 10 10s10-4.477 10-10V60.253C366.134 65.31 446.69 145.866 451.747 246H422c-5.523 0-10 4.477-10 10s4.477 10 10 10z" fill="#0b4df5" data-original="#000000" class=""></path><path d="M308.35 265.529c10.969-14.128 17.65-32.7 17.65-53.029 0-44.112-31.402-80-70-80s-70 35.888-70 80c0 20.33 6.681 38.902 17.651 53.03C172.212 286.286 151 325.107 151 369.5c0 5.523 4.477 10 10 10h190c5.523 0 10-4.477 10-10 0-44.392-21.211-83.215-52.65-103.971zM256 152.5c27.57 0 50 26.916 50 60s-22.43 60-50 60-50-26.916-50-60 22.43-60 50-60zm-84.578 207c2.965-34.958 21.303-64.66 46.916-79.619C229.221 287.854 242.141 292.5 256 292.5c13.858 0 26.776-4.645 37.659-12.617 25.615 14.959 43.955 44.658 46.919 79.617H171.422z" fill="#0b4df5" data-original="#000000" class=""></path></g></svg>