<svg xmlns="http://www.w3.org/2000/svg" xmlns:xlink="http://www.w3.org/1999/xlink" xmlns:svgjs="http://svgjs.com/svgjs" width="512" height="512" x="0" y="0" viewBox="0 0 512 512" style="enable-background:new 0 0 512 512" xml:space="preserve" class=""><g><path d="M256 40c-44.112 0-80 35.888-80 80v32c0 44.112 35.888 80 80 80s80-35.888 80-80v-32c0-44.112-35.888-80-80-80zm64 112c0 35.288-28.712 64-64 64s-64-28.712-64-64v-32c0-35.288 28.712-64 64-64s64 28.712 64 64v32zM248 392h16v16h-16zM248 424h16v16h-16zM248 456h16v16h-16z" fill="#0b4df5" data-original="#000000" class=""></path><path d="M256 0C114.84 0 0 114.84 0 256s114.84 256 256 256c11.048 0 22.16-.712 33.024-2.112l-2.048-15.864A243.527 243.527 0 0 1 256 496c-34.12 0-66.584-7.208-96-20.096V344h-16v124.176a241.103 241.103 0 0 1-48-33.48V352c0-48.52 39.48-88 88-88h11.832L248 338.52V376h16v-37.48L316.168 264H328c18.56 0 36.304 5.704 51.312 16.504l9.344-12.992C370.904 254.744 349.936 248 328 248H184c-57.344 0-104 46.656-104 104v66.944C40.32 376.112 16 318.856 16 256 16 123.664 123.664 16 256 16s240 107.664 240 240c0 21-2.712 41.848-8.064 61.944l15.464 4.12c5.704-21.44 8.6-43.672 8.6-66.064C512 114.84 397.16 0 256 0zm40.64 264L256 322.048 215.368 264h81.272z" fill="#0b4df5" data-original="#000000" class=""></path><path d="M392 288c-61.76 0-112 50.24-112 112s50.24 112 112 112 112-50.24 112-112-50.24-112-112-112zm0 208c-52.936 0-96-43.064-96-96s43.064-96 96-96 96 43.064 96 96-43.064 96-96 96z" fill="#0b4df5" data-original="#000000" class=""></path><path d="M400 392v-56h-16v56h-56v16h56v56h16v-56h56v-16z" fill="#0b4df5" data-original="#000000" class=""></path></g></svg>