<svg width="60" height="60" viewBox="0 0 60 60" fill="none" xmlns="http://www.w3.org/2000/svg">
<circle opacity="0.1" cx="30" cy="30" r="30" fill="#5264F3"/>
<path d="M12.5471 48H34.1043C34.2493 48 34.3884 47.9424 34.491 47.8398C34.5936 47.7372 34.6512 47.5981 34.6512 47.4531V42.2226C34.6596 41.4281 34.4137 40.6518 33.9495 40.0069C33.4852 39.3621 32.8269 38.8827 32.0708 38.6386L26.5469 36.7973V35.053C26.5469 35.0341 26.5459 35.0154 26.5441 34.997C27.2432 34.446 27.791 33.7264 28.1362 32.9059C28.5357 32.9048 28.9267 32.7901 29.2635 32.5751C29.6003 32.3601 29.869 32.0538 30.0382 31.6918C30.2073 31.3298 30.27 30.9272 30.2189 30.5309C30.1678 30.1347 30.0051 29.7611 29.7496 29.4539C29.8311 29.0771 29.9677 28.3816 30.0267 27.9814C30.0447 27.8588 30.0625 27.7437 30.0794 27.6349C30.2381 26.6125 30.3337 25.9954 29.7188 24.8376C29.0507 23.5807 28.0295 22.5468 26.7811 21.8631C25.5326 21.1795 24.1113 20.8761 22.6925 20.9902C21.2737 21.1044 19.9193 21.6312 18.7962 22.5056C17.673 23.3801 16.8303 24.564 16.3718 25.9116C16.3621 25.9402 16.3547 25.9695 16.3498 25.9994C16.1675 27.1121 16.3225 28.2737 16.8095 29.4549C16.5545 29.7619 16.392 30.1351 16.341 30.5309C16.29 30.9267 16.3525 31.3289 16.5212 31.6906C16.69 32.0522 16.9581 32.3585 17.2942 32.5736C17.6303 32.7888 18.0207 32.904 18.4197 32.9058C18.7747 33.7456 19.3405 34.4796 20.0622 35.0367C20.0759 35.0474 20.0903 35.0572 20.1043 35.0677V36.7973L14.5803 38.6386C13.8243 38.8827 13.166 39.3622 12.7018 40.007C12.2377 40.6518 11.9918 41.4282 12.0002 42.2226V47.4531C12.0002 47.5981 12.0578 47.7372 12.1604 47.8398C12.263 47.9424 12.4021 48 12.5471 48ZM24.6696 40.7169L24.4496 41.9741H22.2017L22.0051 40.8497C21.9951 40.7927 21.976 40.7377 21.9487 40.6867L23.3257 39.7091L24.6801 40.6709C24.6762 40.6858 24.6724 40.7011 24.6696 40.7169ZM22.3508 43.068H24.3013L24.9723 46.9061H21.6791L22.3508 43.068ZM33.5577 42.2226V46.9061H30.942V44.5129C30.942 44.3679 30.8843 44.2288 30.7818 44.1262C30.6792 44.0236 30.5401 43.966 30.395 43.966C30.25 43.966 30.1109 44.0236 30.0083 44.1262C29.9057 44.2288 29.8481 44.3679 29.8481 44.5129V46.9061H26.0827L25.39 42.9463L25.6657 41.3705L27.2313 42.4823C27.3131 42.5404 27.4093 42.5749 27.5094 42.5819C27.6096 42.589 27.7097 42.5684 27.7989 42.5223C27.888 42.4763 27.9628 42.4066 28.015 42.3209C28.0672 42.2352 28.0949 42.1368 28.0949 42.0364V38.4661L31.7251 39.6762C32.2622 39.8497 32.7297 40.1904 33.0593 40.6486C33.389 41.1067 33.5635 41.6582 33.5574 42.2226H33.5577ZM27.0014 38.1015V40.9771L24.2708 39.038L26.0406 37.7812L27.0014 38.1015ZM28.4754 31.7503C28.5849 31.1177 28.5778 30.4705 28.4545 29.8404C28.6533 29.9076 28.8262 30.0348 28.9495 30.2046C29.0727 30.3743 29.1401 30.5782 29.1424 30.788C29.1447 30.9977 29.0818 31.203 28.9623 31.3754C28.8427 31.5478 28.6726 31.6788 28.4754 31.7503ZM17.4222 26.2207C17.8191 25.0819 18.5396 24.0835 19.4952 23.3479C20.4509 22.6123 21.6004 22.1713 22.8028 22.0789C24.0053 21.9866 25.2086 22.247 26.2654 22.8281C27.3222 23.4092 28.1866 24.2859 28.7527 25.3508C29.1971 26.1872 29.1469 26.5098 28.9985 27.4672C28.9812 27.5787 28.9629 27.6965 28.9444 27.8221C28.907 28.0757 28.8358 28.4587 28.7694 28.7919C28.5625 28.7257 28.3466 28.692 28.1293 28.6922H28.1098C27.4915 26.6516 26.793 25.5952 25.9184 25.374C25.535 25.2768 24.9375 25.3029 24.2701 25.9778C24.2385 26.0097 24.2109 26.0453 24.188 26.0839C23.1878 27.7739 21.4016 28.5811 18.8801 28.4835C18.7938 28.4802 18.7081 28.4973 18.6298 28.5335C18.5515 28.5698 18.4829 28.624 18.4296 28.6919C18.1917 28.6919 17.9556 28.7324 17.7313 28.8116C17.3995 27.9167 17.2954 27.047 17.4222 26.2207ZM17.4174 30.7991C17.4178 30.5949 17.4798 30.3955 17.5953 30.2271C17.7108 30.0587 17.8745 29.9291 18.0649 29.8553C17.9566 30.4811 17.9593 31.121 18.0728 31.7458C17.8805 31.6731 17.7148 31.5436 17.5977 31.3745C17.4807 31.2055 17.4178 31.0048 17.4174 30.7992V30.7991ZM19.2477 29.5856H19.2912C21.9804 29.5856 23.9304 28.6172 25.0923 26.7031C25.2564 26.5459 25.4727 26.389 25.6502 26.4344C25.8177 26.4767 26.4183 26.8001 27.1151 29.1837C27.1208 29.2033 27.1277 29.2226 27.1356 29.2414C27.4917 30.0921 27.5565 31.0366 27.32 31.928C27.0836 32.8193 26.559 33.6075 25.8281 34.1698C25.0971 34.7321 24.2008 35.0369 23.2786 35.0369C22.3564 35.0369 21.4601 34.7319 20.7292 34.1696C20.0523 33.6412 19.5493 32.9221 19.2852 32.1049C19.0211 31.2878 19.008 30.4102 19.2477 29.5856ZM23.2786 36.1293C24.0286 36.1292 24.7699 35.9693 25.4533 35.6603V36.8564L23.3257 38.3673L21.1981 36.8564V35.7031C21.8556 35.9845 22.5634 36.1295 23.2786 36.1293ZM20.6113 37.7812L22.3811 39.038L19.6503 40.9771V38.1015L20.6113 37.7812ZM13.0941 42.2226C13.0879 41.6583 13.2624 41.1067 13.5921 40.6486C13.9217 40.1905 14.3892 39.8498 14.9263 39.6763L18.5565 38.4662V42.0365C18.5565 42.1368 18.5841 42.2352 18.6363 42.3209C18.6885 42.4067 18.7633 42.4763 18.8525 42.5224C18.9417 42.5684 19.0418 42.5891 19.1419 42.582C19.242 42.5749 19.3383 42.5404 19.4201 42.4823L20.9857 41.3706L21.2612 42.9463L20.5687 46.9061H16.8032V44.5129C16.8032 44.3679 16.7456 44.2288 16.6431 44.1262C16.5405 44.0236 16.4014 43.966 16.2563 43.966C16.1113 43.966 15.9721 44.0236 15.8696 44.1262C15.767 44.2288 15.7094 44.3679 15.7094 44.5129V46.9061H13.0941V42.2226ZM47.0035 25.1071C47.0035 25.2521 46.9458 25.3912 46.8433 25.4938C46.7407 25.5964 46.6016 25.654 46.4565 25.654H32.0529C31.9078 25.654 31.7687 25.5964 31.6662 25.4938C31.5636 25.3912 31.506 25.2521 31.506 25.1071C31.506 24.962 31.5636 24.8229 31.6662 24.7203C31.7687 24.6178 31.9078 24.5601 32.0529 24.5601H34.1287V21.1555C34.1287 21.0105 34.1863 20.8714 34.2889 20.7688C34.3914 20.6662 34.5306 20.6086 34.6756 20.6086C34.8207 20.6086 34.9598 20.6662 35.0623 20.7688C35.1649 20.8714 35.2225 21.0105 35.2225 21.1555V24.5601H37.1814V18.3781C37.1814 18.233 37.239 18.0939 37.3416 17.9914C37.4442 17.8888 37.5833 17.8312 37.7283 17.8312C37.8734 17.8312 38.0125 17.8888 38.1151 17.9914C38.2176 18.0939 38.2753 18.233 38.2753 18.3781V24.5601H40.2342V19.6167C40.2342 19.4716 40.2918 19.3325 40.3943 19.2299C40.4969 19.1274 40.636 19.0697 40.7811 19.0697C40.9261 19.0697 41.0652 19.1274 41.1678 19.2299C41.2704 19.3325 41.328 19.4716 41.328 19.6167V24.5601H43.287V16.8016C43.287 16.6566 43.3446 16.5175 43.4471 16.4149C43.5497 16.3123 43.6888 16.2547 43.8339 16.2547C43.9789 16.2547 44.118 16.3123 44.2206 16.4149C44.3232 16.5175 44.3808 16.6566 44.3808 16.8016V24.5601H46.4565C46.6016 24.5601 46.7407 24.6178 46.8433 24.7203C46.9458 24.8229 47.0035 24.962 47.0035 25.1071ZM43.4631 13.1416C43.5699 13.0448 43.7108 12.9941 43.8548 13.0006C43.9989 13.007 44.1346 13.0701 44.2324 13.1762C44.3301 13.2822 44.3821 13.4225 44.3769 13.5667C44.3717 13.7108 44.3097 13.847 44.2046 13.9457L41.1518 16.7608C41.0756 16.8311 40.9809 16.8782 40.8789 16.8968C40.7768 16.9153 40.6716 16.9045 40.5755 16.8655L37.8418 15.7563L35.0437 18.3019C34.9363 18.3987 34.7949 18.449 34.6505 18.4418C34.5061 18.4346 34.3704 18.3706 34.2731 18.2636C34.1758 18.1567 34.1248 18.0156 34.1313 17.8712C34.1377 17.7267 34.2011 17.5907 34.3075 17.4929L37.3603 14.7154C37.4365 14.646 37.5308 14.5995 37.6323 14.5813C37.7338 14.5632 37.8384 14.5741 37.934 14.6129L40.6653 15.721L43.4631 13.1416ZM31.9341 30.2454C31.8126 30.2724 31.704 30.3401 31.6262 30.4371C31.5483 30.5342 31.5059 30.6549 31.5059 30.7793V32.1597C31.5059 32.2841 31.5483 32.4048 31.6262 32.5018C31.704 32.5989 31.8126 32.6665 31.9341 32.6935L32.3535 32.7868C32.4227 33.0004 32.5089 33.2081 32.611 33.408L32.3803 33.7707C32.3135 33.8757 32.2845 34.0003 32.2981 34.124C32.3117 34.2477 32.367 34.3631 32.455 34.4511L33.4311 35.4269C33.5191 35.5149 33.6344 35.5702 33.7581 35.5838C33.8817 35.5974 34.0063 35.5684 34.1113 35.5017L34.474 35.271C34.6739 35.3732 34.8817 35.4593 35.0952 35.5285L35.1885 35.9479C35.2155 36.0693 35.2831 36.1779 35.3802 36.2558C35.4772 36.3336 35.5979 36.376 35.7224 36.3761H37.1025C37.2269 36.376 37.3476 36.3336 37.4447 36.2558C37.5418 36.1779 37.6094 36.0693 37.6364 35.9479L37.7296 35.5285C37.9433 35.4593 38.151 35.3732 38.351 35.271L38.7133 35.5017C38.8183 35.5684 38.9429 35.5974 39.0665 35.5838C39.1902 35.5702 39.3056 35.5149 39.3935 35.4269L40.3696 34.4511C40.4576 34.3631 40.513 34.2477 40.5265 34.124C40.5401 34.0003 40.5111 33.8757 40.4443 33.7707L40.2136 33.408C40.3158 33.2081 40.4019 33.0004 40.4712 32.7868L40.8905 32.6935C41.012 32.6665 41.1206 32.5989 41.1984 32.5018C41.2763 32.4048 41.3187 32.2841 41.3187 32.1597V30.7792C41.3187 30.6547 41.2763 30.534 41.1984 30.437C41.1206 30.3399 41.012 30.2723 40.8905 30.2453L40.4711 30.152C40.4019 29.9385 40.3158 29.7308 40.2136 29.5309L40.4443 29.1681C40.5111 29.0631 40.5401 28.9385 40.5265 28.8148C40.5129 28.6911 40.4575 28.5758 40.3695 28.4878L39.3936 27.5119C39.3056 27.4239 39.1902 27.3686 39.0666 27.355C38.9429 27.3414 38.8183 27.3704 38.7133 27.4372L38.351 27.6679C38.151 27.5657 37.9432 27.4796 37.7296 27.4103L37.6364 26.9909C37.6094 26.8695 37.5417 26.7609 37.4447 26.6831C37.3476 26.6052 37.2269 26.5628 37.1025 26.5628H35.7224C35.598 26.5628 35.4773 26.6052 35.3802 26.6831C35.2831 26.7609 35.2155 26.8695 35.1885 26.9909L35.0952 27.4103C34.8817 27.4795 34.6739 27.5657 34.474 27.6679L34.1113 27.4372C34.0063 27.3704 33.8817 27.3414 33.758 27.355C33.6344 27.3686 33.519 27.4239 33.431 27.5119L32.4552 28.4878C32.3672 28.5758 32.3119 28.6911 32.2983 28.8148C32.2847 28.9385 32.3137 29.0631 32.3804 29.1681L32.6112 29.5309C32.509 29.7308 32.4228 29.9385 32.3536 30.1521L31.9341 30.2454ZM32.5998 31.2179L32.9103 31.1489C33.0107 31.1266 33.1028 31.0764 33.176 31.0041C33.2491 30.9318 33.3004 30.8403 33.324 30.7402C33.4021 30.4084 33.5335 30.0914 33.7132 29.8017C33.7674 29.7143 33.7958 29.6133 33.7952 29.5104C33.7946 29.4076 33.765 29.3069 33.7097 29.2201L33.5388 28.9513L33.8943 28.5958L34.1632 28.7667C34.25 28.8218 34.3505 28.8514 34.4533 28.852C34.556 28.8526 34.6569 28.8242 34.7443 28.7702C35.034 28.5905 35.351 28.459 35.6829 28.381C35.783 28.3574 35.8745 28.3062 35.9468 28.233C36.0191 28.1599 36.0693 28.0678 36.0917 27.9674L36.1607 27.6568H36.6636L36.7326 27.9674C36.7549 28.0678 36.8052 28.1599 36.8775 28.233C36.9498 28.3062 37.0412 28.3575 37.1414 28.381C37.4732 28.459 37.7902 28.5905 38.08 28.7702C38.1674 28.8243 38.2682 28.8526 38.371 28.852C38.4738 28.8514 38.5743 28.8218 38.6611 28.7667L38.9299 28.5958L39.2854 28.9513L39.1145 29.2201C39.0593 29.3069 39.0297 29.4076 39.0291 29.5104C39.0285 29.6133 39.0569 29.7143 39.111 29.8017C39.2908 30.0915 39.4222 30.4084 39.5003 30.7403C39.5239 30.8404 39.5752 30.9319 39.6483 31.0041C39.7215 31.0764 39.8135 31.1266 39.9139 31.1489L40.2245 31.2179V31.7209L39.9139 31.7899C39.8135 31.8123 39.7215 31.8625 39.6483 31.9348C39.5752 32.0071 39.5239 32.0985 39.5003 32.1986C39.4222 32.5305 39.2907 32.8474 39.111 33.1372C39.0569 33.2246 39.0285 33.3256 39.0291 33.4285C39.0297 33.5313 39.0593 33.6319 39.1145 33.7187L39.2854 33.9876L38.9299 34.3431L38.6611 34.1721C38.5743 34.117 38.4738 34.0875 38.371 34.0869C38.2682 34.0863 38.1673 34.1146 38.08 34.1687C37.7902 34.3484 37.4732 34.4798 37.1414 34.5579C37.0412 34.5814 36.9498 34.6327 36.8775 34.7059C36.8052 34.779 36.755 34.8711 36.7327 34.9715L36.6636 35.2821H36.1607L36.0917 34.9715C36.0694 34.8711 36.0192 34.779 35.9469 34.7058C35.8746 34.6326 35.7831 34.5813 35.6829 34.5578C35.3511 34.4798 35.0341 34.3484 34.7444 34.1687C34.657 34.1146 34.5561 34.0862 34.4533 34.0868C34.3506 34.0875 34.25 34.117 34.1633 34.1721L33.8944 34.3431L33.5389 33.9876L33.7098 33.7187C33.765 33.6319 33.7946 33.5313 33.7953 33.4285C33.7959 33.3256 33.7675 33.2246 33.7133 33.1372C33.5336 32.8474 33.4021 32.5304 33.324 32.1985C33.3005 32.0984 33.2492 32.007 33.176 31.9347C33.1028 31.8624 33.0108 31.8123 32.9104 31.7899L32.5998 31.7209L32.5998 31.2179ZM36.4124 33.7868C36.8708 33.7868 37.3189 33.6508 37.7 33.3962C38.0812 33.1415 38.3782 32.7796 38.5536 32.3561C38.729 31.9326 38.7749 31.4666 38.6855 31.017C38.5961 30.5675 38.3754 30.1545 38.0512 29.8304C37.7271 29.5063 37.3142 29.2855 36.8646 29.1961C36.415 29.1067 35.949 29.1526 35.5255 29.328C35.1021 29.5034 34.7401 29.8005 34.4854 30.1816C34.2308 30.5627 34.0948 31.0108 34.0948 31.4692C34.0955 32.0836 34.3399 32.6727 34.7744 33.1072C35.2089 33.5417 35.798 33.7861 36.4124 33.7868ZM36.4124 30.2454C36.6545 30.2454 36.8911 30.3172 37.0923 30.4517C37.2936 30.5861 37.4504 30.7773 37.543 31.0009C37.6357 31.2245 37.6599 31.4705 37.6127 31.7079C37.5655 31.9453 37.4489 32.1633 37.2778 32.3345C37.1066 32.5056 36.8886 32.6222 36.6512 32.6694C36.4138 32.7166 36.1677 32.6924 35.9441 32.5998C35.7205 32.5071 35.5294 32.3503 35.3949 32.149C35.2605 31.9478 35.1887 31.7112 35.1887 31.4692C35.189 31.1447 35.3181 30.8337 35.5475 30.6042C35.7769 30.3748 36.088 30.2458 36.4124 30.2454Z" fill="#5264F3"/>
</svg>
