<svg width="60" height="60" viewBox="0 0 60 60" fill="none" xmlns="http://www.w3.org/2000/svg">
<circle opacity="0.1" cx="30" cy="30" r="30" fill="#5264F3"/>
<path d="M43.2911 41.5759C44.0665 40.9514 44.565 39.9957 44.565 38.9249C44.565 37.048 43.0387 35.5217 41.1618 35.5217C39.285 35.5217 37.7587 37.048 37.7587 38.9249C37.7587 39.9957 38.2572 40.9514 39.0326 41.5759C37.8222 42.0172 36.7859 42.8198 36.0571 43.8572V43.4624C36.0571 40.7705 34.3402 38.4785 31.9472 37.6056C32.4684 37.1864 32.8649 36.6181 33.068 35.9647C33.2988 36.0418 33.5404 36.0889 33.7883 36.0889C35.0395 36.0889 36.0571 35.0713 36.0571 33.8201V32.4906L37.812 34.2455C38.1699 34.604 38.5953 34.8365 39.0411 34.9165C39.1835 34.942 39.3253 34.955 39.4659 34.955C40.0655 34.955 40.6321 34.7231 41.0649 34.2903C41.4925 33.8615 41.729 33.292 41.729 32.6857C41.729 32.0794 41.4925 31.5099 41.0978 31.118L36.8103 26.0047C36.1858 25.26 35.4541 24.6151 34.6357 24.0887L28.9745 20.449C28.1691 19.9311 27.2406 19.6016 26.29 19.4967L23.6797 19.2068L24.3808 18.5058L19.6084 13.7334L12 21.3418L16.7724 26.1142L17.1842 25.7024L17.8087 26.9508C18.3174 27.9683 18.9833 28.8917 19.7876 29.696C20.1761 30.0845 20.5987 30.4458 21.0434 30.7697L26.1323 34.4707C26.2281 34.5404 26.3291 34.6 26.4318 34.655C26.4232 34.7543 26.4147 34.8541 26.4147 34.9545C26.4147 36.0253 26.9133 36.9811 27.6887 37.6056C25.2957 38.4785 23.5788 40.7705 23.5788 43.4624V43.8566C22.8499 42.8192 21.8136 42.0172 20.6032 41.5754C21.3786 40.9515 21.8772 39.9957 21.8772 38.9249C21.8772 37.048 20.3508 35.5217 18.474 35.5217C16.5971 35.5217 15.0708 37.048 15.0708 38.9249C15.0708 39.9957 15.5694 40.9514 16.3447 41.5759C13.9517 42.4488 12.2348 44.7409 12.2348 47.4328V48H24.7131V47.4328C24.7131 46.177 24.3371 45.0092 23.6967 44.0296H35.9397C35.2987 45.0092 34.9227 46.177 34.9227 47.4328V48H47.401V47.4328C47.401 44.7409 45.6841 42.4488 43.2911 41.5759ZM16.2052 38.9249C16.2052 37.6736 17.2227 36.6561 18.474 36.6561C19.7252 36.6561 20.7428 37.6736 20.7428 38.9249C20.7428 40.1761 19.7252 41.1936 18.474 41.1936C17.2227 41.1936 16.2052 40.1761 16.2052 38.9249ZM20.0536 42.5833L18.474 44.3206L16.8943 42.5833C17.3929 42.4205 17.9221 42.328 18.474 42.328C19.0259 42.328 19.5551 42.4205 20.0536 42.5833ZM13.4004 46.8656C13.5785 45.2638 14.5008 43.8844 15.8121 43.0796L18.474 46.0074L21.1353 43.0796C22.4466 43.8844 23.3695 45.2638 23.547 46.8656H13.4004ZM30.2252 31.578C30.0856 31.1872 29.8622 30.8281 29.5479 30.5451L25.3955 26.8078L29.7771 28.0029C30.0227 28.0698 30.2547 28.1753 30.4668 28.3166C31.1259 28.7567 31.5195 29.4924 31.5195 30.2847V32.0119C31.1298 31.7856 30.6925 31.6341 30.2252 31.578ZM40.2623 31.8837C40.4767 32.0981 40.5947 32.3828 40.5947 32.6857C40.5947 32.9886 40.4767 33.2733 40.2623 33.4877C39.9951 33.7554 39.6247 33.8677 39.2425 33.8002C38.9685 33.7509 38.7496 33.579 38.6146 33.4435L36.0571 30.8865V26.8714L40.2623 31.8837ZM13.604 21.3418L19.6084 15.3374L22.7767 18.5058L16.7724 24.5101L13.604 21.3418ZM21.711 29.8525C21.3139 29.5633 20.9362 29.2411 20.5896 28.8946C19.8716 28.1765 19.2777 27.3523 18.8234 26.4437L18.0299 24.8572L22.6531 20.234L26.1652 20.6248C26.9434 20.711 27.7028 20.9805 28.3619 21.4042L34.0231 25.0439C34.339 25.2469 34.638 25.4738 34.9233 25.716V33.8201C34.9233 34.4457 34.4145 34.9545 33.7889 34.9545C33.5841 34.9545 33.3867 34.8983 33.2137 34.7962C33.1842 34.1632 32.9846 33.5745 32.6545 33.0771V30.2842C32.6545 29.1118 32.072 28.0233 31.0964 27.3728C30.7822 27.1635 30.439 27.0069 30.076 26.9082L24.2963 25.332C24.1255 25.286 23.9435 25.3212 23.8028 25.4284C23.6616 25.5362 23.5788 25.7024 23.5788 25.8793V26.4465C23.5788 26.6076 23.6468 26.7608 23.7665 26.868L28.789 31.3879C29.0823 31.6523 29.2507 32.03 29.2507 32.4254C29.2507 33.1939 28.6245 33.8201 27.856 33.8201H27.62C27.3234 33.8201 27.0398 33.7276 26.7999 33.5535L21.711 29.8525ZM27.5491 34.9545C27.5491 34.9528 27.5497 34.9511 27.5497 34.9488C27.5735 34.9494 27.5962 34.9545 27.62 34.9545H27.856C29.1373 34.9545 30.1877 33.9931 30.3522 32.756C31.3448 32.9977 32.0867 33.8881 32.0867 34.9545C32.0867 36.2057 31.0691 37.2233 29.8179 37.2233C28.5667 37.2233 27.5491 36.2057 27.5491 34.9545ZM31.3976 38.6129L29.8179 40.3502L28.2383 38.6129C28.7368 38.4501 29.266 38.3577 29.8179 38.3577C30.3698 38.3577 30.899 38.4501 31.3976 38.6129ZM24.7443 42.8952C24.9224 41.2935 25.8447 39.914 27.1561 39.1092L29.8179 42.0371L32.4792 39.1092C33.7906 39.914 34.7134 41.2935 34.8909 42.8952H24.7443ZM38.8931 38.9249C38.8931 37.6736 39.9106 36.6561 41.1618 36.6561C42.4131 36.6561 43.4306 37.6736 43.4306 38.9249C43.4306 40.1761 42.4131 41.1936 41.1618 41.1936C39.9106 41.1936 38.8931 40.1761 38.8931 38.9249ZM42.7415 42.5833L41.1618 44.3206L39.5822 42.5833C40.0808 42.4205 40.61 42.328 41.1618 42.328C41.7137 42.328 42.2429 42.4205 42.7415 42.5833ZM36.0883 46.8656C36.2664 45.2638 37.1886 43.8844 38.5 43.0796L41.1618 46.0074L43.8231 43.0796C45.1345 43.8844 46.0573 45.2638 46.2349 46.8656H36.0883Z" fill="#5264F3"/>
<path d="M47.2348 13.802L46.4328 13L42.2962 17.1366L41.5629 16.4032L40.7608 17.2052L42.2962 18.7406L47.2348 13.802Z" fill="#5264F3"/>
<path d="M42.2962 23.6105C43.2344 23.6105 43.9978 22.8471 43.9978 21.909C43.9978 20.9708 43.2344 20.2074 42.2962 20.2074C41.3581 20.2074 40.5947 20.9708 40.5947 21.909C40.5947 22.8471 41.3581 23.6105 42.2962 23.6105ZM42.2962 21.3418C42.6088 21.3418 42.8634 21.5964 42.8634 21.909C42.8634 22.2215 42.6088 22.4762 42.2962 22.4762C41.9837 22.4762 41.729 22.2215 41.729 21.909C41.729 21.5964 41.9837 21.3418 42.2962 21.3418Z" fill="#5264F3"/>
<path d="M32.6539 16.8042H39.4603V17.9386H32.6539V16.8042Z" fill="#5264F3"/>
<path d="M32.6539 21.3418H37.1915V22.4762H32.6539V21.3418Z" fill="#5264F3"/>
<path d="M38.3259 21.3418H39.4603V22.4762H38.3259V21.3418Z" fill="#5264F3"/>
<path d="M32.6539 19.073H39.4603V20.2074H32.6539V19.073Z" fill="#5264F3"/>
</svg>
