<svg width="44" height="38" viewBox="0 0 44 38" fill="none" xmlns="http://www.w3.org/2000/svg">
<path d="M43.2667 8.76923H38.8667C38.6722 8.76923 38.4856 8.84622 38.3481 8.98327C38.2106 9.12031 38.1333 9.30619 38.1333 9.5V37.2692C38.1333 37.463 38.2106 37.6489 38.3481 37.786C38.4856 37.923 38.6722 38 38.8667 38H43.2667C43.4612 38 43.6477 37.923 43.7852 37.786C43.9227 37.6489 44 37.463 44 37.2692V9.5C44 9.30619 43.9227 9.12031 43.7852 8.98327C43.6477 8.84622 43.4612 8.76923 43.2667 8.76923ZM42.5333 36.5385H39.6V10.2308H42.5333V36.5385Z" fill="#B00F0F"/>
<path d="M35.9333 38C36.1278 38 36.3144 37.923 36.4519 37.786C36.5894 37.6489 36.6667 37.463 36.6667 37.2692V15.3462C36.6667 15.1523 36.5894 14.9665 36.4519 14.8294C36.3144 14.6924 36.1278 14.6154 35.9333 14.6154H31.5333C31.3388 14.6154 31.1523 14.6924 31.0148 14.8294C30.8773 14.9665 30.8 15.1523 30.8 15.3462V37.2692C30.8 37.463 30.8773 37.6489 31.0148 37.786C31.1523 37.923 31.3388 38 31.5333 38H35.9333ZM32.2667 16.0769H35.2V36.5385H32.2667V16.0769Z" fill="#B00F0F"/>
<path d="M28.6 38C28.7945 38 28.981 37.923 29.1186 37.786C29.2561 37.6489 29.3333 37.463 29.3333 37.2692V20.4615C29.3333 20.2677 29.2561 20.0819 29.1186 19.9448C28.981 19.8078 28.7945 19.7308 28.6 19.7308H24.2C24.0055 19.7308 23.819 19.8078 23.6815 19.9448C23.5439 20.0819 23.4667 20.2677 23.4667 20.4615V37.2692C23.4667 37.463 23.5439 37.6489 23.6815 37.786C23.819 37.923 24.0055 38 24.2 38H28.6ZM24.9333 21.1923H27.8667V36.5385H24.9333V21.1923Z" fill="#B00F0F"/>
<path d="M21.2667 38C21.4612 38 21.6477 37.923 21.7852 37.786C21.9227 37.6489 22 37.463 22 37.2692V26.3077C22 26.1139 21.9227 25.928 21.7852 25.791C21.6477 25.6539 21.4612 25.5769 21.2667 25.5769H16.8667C16.6722 25.5769 16.4857 25.6539 16.3481 25.791C16.2106 25.928 16.1333 26.1139 16.1333 26.3077V37.2692C16.1333 37.463 16.2106 37.6489 16.3481 37.786C16.4857 37.923 16.6722 38 16.8667 38H21.2667ZM17.6 27.0385H20.5333V36.5385H17.6V27.0385Z" fill="#B00F0F"/>
<path d="M13.9333 38C14.1278 38 14.3144 37.923 14.4519 37.786C14.5894 37.6489 14.6667 37.463 14.6667 37.2692V29.2308C14.6667 29.037 14.5894 28.8511 14.4519 28.714C14.3144 28.577 14.1278 28.5 13.9333 28.5H9.53335C9.33886 28.5 9.15233 28.577 9.0148 28.714C8.87728 28.8511 8.80001 29.037 8.80001 29.2308V37.2692C8.80001 37.463 8.87728 37.6489 9.0148 37.786C9.15233 37.923 9.33886 38 9.53335 38H13.9333ZM10.2667 29.9615H13.2V36.5385H10.2667V29.9615Z" fill="#B00F0F"/>
<path d="M6.60002 38C6.79451 38 6.98103 37.923 7.11856 37.786C7.25609 37.6489 7.33335 37.463 7.33335 37.2692V32.8846C7.33335 32.6908 7.25609 32.5049 7.11856 32.3679C6.98103 32.2308 6.79451 32.1538 6.60002 32.1538H2.20002C2.00553 32.1538 1.819 32.2308 1.68147 32.3679C1.54395 32.5049 1.46668 32.6908 1.46668 32.8846V37.2692C1.46668 37.463 1.54395 37.6489 1.68147 37.786C1.819 37.923 2.00553 38 2.20002 38H6.60002ZM2.93335 33.6154H5.86668V36.5385H2.93335V33.6154Z" fill="#B00F0F"/>
<path d="M18.3333 8.76923H19.8C19.9945 8.76923 20.181 8.69224 20.3186 8.55519C20.4561 8.41815 20.5333 8.23227 20.5333 8.03846C20.5333 7.84465 20.4561 7.65877 20.3186 7.52173C20.181 7.38468 19.9945 7.30769 19.8 7.30769H19.0667V6.57692C19.0667 6.38311 18.9894 6.19724 18.8519 6.06019C18.7144 5.92315 18.5278 5.84615 18.3333 5.84615C18.1389 5.84615 17.9523 5.92315 17.8148 6.06019C17.6773 6.19724 17.6 6.38311 17.6 6.57692V7.43338C17.1109 7.60593 16.6988 7.94515 16.4364 8.39115C16.174 8.83714 16.0782 9.3612 16.1659 9.87075C16.2537 10.3803 16.5193 10.8426 16.9159 11.1759C17.3125 11.5092 17.8145 11.6921 18.3333 11.6923C18.5278 11.6923 18.7144 11.7693 18.8519 11.9063C18.9894 12.0434 19.0667 12.2293 19.0667 12.4231C19.0667 12.6169 18.9894 12.8028 18.8519 12.9398C18.7144 13.0769 18.5278 13.1538 18.3333 13.1538H16.8667C16.6722 13.1538 16.4857 13.2308 16.3481 13.3679C16.2106 13.5049 16.1333 13.6908 16.1333 13.8846C16.1333 14.0784 16.2106 14.2643 16.3481 14.4013C16.4857 14.5384 16.6722 14.6154 16.8667 14.6154H17.6V15.3462C17.6 15.54 17.6773 15.7258 17.8148 15.8629C17.9523 15.9999 18.1389 16.0769 18.3333 16.0769C18.5278 16.0769 18.7144 15.9999 18.8519 15.8629C18.9894 15.7258 19.0667 15.54 19.0667 15.3462V14.4897C19.5557 14.3172 19.9679 13.9779 20.2303 13.5319C20.4927 13.0859 20.5885 12.5619 20.5008 12.0523C20.413 11.5428 20.1474 11.0805 19.7508 10.7472C19.3542 10.4139 18.8522 10.231 18.3333 10.2308C18.1389 10.2308 17.9523 10.1538 17.8148 10.0167C17.6773 9.87969 17.6 9.69381 17.6 9.5C17.6 9.30619 17.6773 9.12031 17.8148 8.98327C17.9523 8.84622 18.1389 8.76923 18.3333 8.76923Z" fill="#B00F0F"/>
<path d="M43.2667 0H38.8667C38.6722 0 38.4856 0.0769917 38.3481 0.214037C38.2106 0.351083 38.1333 0.536957 38.1333 0.730769C38.1333 0.924581 38.2106 1.11046 38.3481 1.2475C38.4856 1.38455 38.6722 1.46154 38.8667 1.46154H41.4962L31.2296 11.6923H27.1025C27.1226 11.4512 27.1333 11.2076 27.1333 10.9615C27.1333 9.29626 26.6574 7.66542 25.7613 6.25978C24.8653 4.85413 23.5861 3.73179 22.0734 3.02404C20.5607 2.31628 18.8771 2.05237 17.2194 2.26317C15.5617 2.47397 13.9985 3.15076 12.7127 4.2144C11.4269 5.27803 10.4715 6.68452 9.95842 8.26936C9.44532 9.8542 9.39567 11.5519 9.81528 13.1638C10.2349 14.7757 11.1064 16.2353 12.3279 17.3717C13.5494 18.5081 15.0704 19.2745 16.713 19.5811L13.6297 22.6538H8.06668C7.97038 22.6538 7.87502 22.6727 7.78604 22.7095C7.69707 22.7462 7.61622 22.8 7.54812 22.8679L0.214794 30.1756C0.0772637 30.3126 0 30.4985 0 30.6923C0 30.8861 0.0772637 31.072 0.214794 31.2091C0.352324 31.3461 0.538855 31.4231 0.733352 31.4231C0.927849 31.4231 1.11438 31.3461 1.25191 31.2091L8.37037 24.1154H13.9333C14.0297 24.1154 14.125 24.0965 14.214 24.0598C14.303 24.023 14.3838 23.9692 14.4519 23.9014L18.6432 19.7247C20.5392 19.6556 22.3623 18.979 23.8417 17.7952C25.321 16.6114 26.3778 14.9837 26.8549 13.1538H31.5333C31.6296 13.1538 31.725 13.135 31.814 13.0982C31.903 13.0615 31.9838 13.0077 32.0519 12.9398L42.5333 2.49503V5.11538C42.5333 5.3092 42.6106 5.49507 42.7481 5.63212C42.8856 5.76916 43.0722 5.84615 43.2667 5.84615C43.4612 5.84615 43.6477 5.76916 43.7852 5.63212C43.9227 5.49507 44 5.3092 44 5.11538V0.730769C44 0.536957 43.9227 0.351083 43.7852 0.214037C43.6477 0.0769917 43.4612 0 43.2667 0ZM18.3333 18.2692C16.8829 18.2692 15.4651 17.8406 14.2592 17.0377C13.0532 16.2347 12.1133 15.0934 11.5582 13.7581C11.0032 12.4228 10.858 10.9534 11.1409 9.53588C11.4239 8.11833 12.1223 6.81622 13.1479 5.79422C14.1735 4.77222 15.4802 4.07623 16.9027 3.79426C18.3252 3.51229 19.7997 3.65701 21.1397 4.21011C22.4797 4.76321 23.625 5.69986 24.4308 6.9016C25.2366 8.10335 25.6667 9.51621 25.6667 10.9615C25.6645 12.899 24.8911 14.7564 23.5164 16.1264C22.1416 17.4964 20.2776 18.267 18.3333 18.2692Z" fill="#B00F0F"/>
</svg>
