<svg width="24" height="32" viewBox="0 0 24 32" fill="none" xmlns="http://www.w3.org/2000/svg">
<path d="M24 28C24 30.25 22.1875 32 20 32H4C1.75 32 0 30.25 0 28H2C2 29.125 2.875 30 4 30H20C21.0625 30 22 29.125 22 28H24ZM15 12C13.3125 12 12 10.6875 12 9V2H4C2.875 2 2 2.9375 2 4V14H0V4C0 1.8125 1.75 0 4 0H13.75C14.5 0 15.3125 0.375 15.875 0.9375L23.0625 8.125C23.625 8.6875 24 9.5 24 10.25V14H22V12H15ZM21.6875 9.5625L14.4375 2.3125C14.3125 2.1875 14.125 2.125 14 2.0625V9C14 9.5625 14.4375 10 15 10H21.9375C21.875 9.875 21.8125 9.6875 21.6875 9.5625ZM5.5 16C7.375 16 9 17.625 9 19.5C9 21.4375 7.375 23 5.5 23H5V25C5 25.5625 4.5 26 4 26C3.4375 26 3 25.5625 3 25V17C3 16.5 3.4375 16 4 16H5.5ZM7 19.5C7 18.6875 6.3125 18 5.5 18H5V21H5.5C6.3125 21 7 20.375 7 19.5ZM10 17C10 16.5 10.4375 16 11 16H12.5C14.125 16 15.5 17.375 15.5 19V23C15.5 24.6875 14.125 26 12.5 26H11C10.4375 26 10 25.5625 10 25V17ZM12 24H12.5C13 24 13.5 23.5625 13.5 23V19C13.5 18.5 13 18 12.5 18H12V24ZM21 16C21.5 16 22 16.5 22 17C22 17.5625 21.5 18 21 18H19V20H21C21.5 20 22 20.5 22 21C22 21.5625 21.5 22 21 22H19V25C19 25.5625 18.5 26 18 26C17.4375 26 17 25.5625 17 25V17C17 16.5 17.4375 16 18 16H21Z" fill="white"/>
</svg>
