<svg width="24" height="32" viewBox="0 0 24 32" fill="none" xmlns="http://www.w3.org/2000/svg">
<path d="M22.8125 7.875L16.125 1.1875C15.375 0.4375 14.375 0 13.3125 0H4C1.75 0 0 1.8125 0 4V28C0 30.25 1.75 32 4 32H20C22.1875 32 24 30.25 24 28V10.6875C24 9.625 23.5625 8.625 22.8125 7.875ZM14 2.1875C14.25 2.25 14.5 2.375 14.75 2.625L21.375 9.25C21.625 9.5 21.75 9.75 21.8125 10H15C14.4375 10 14 9.5625 14 9V2.1875ZM22 28C22 29.125 21.0625 30 20 30H4C2.875 30 2 29.125 2 28V4C2 2.9375 2.875 2 4 2H12V9C12 10.6875 13.3125 12 15 12H22V28ZM6 17C6 17.5625 6.4375 18 7 18H17C17.5 18 18 17.5625 18 17C18 16.5 17.5 16 17 16H7C6.4375 16 6 16.5 6 17ZM17 20H7C6.4375 20 6 20.5 6 21C6 21.5625 6.4375 22 7 22H17C17.5 22 18 21.5625 18 21C18 20.5 17.5 20 17 20ZM17 24H7C6.4375 24 6 24.5 6 25C6 25.5625 6.4375 26 7 26H17C17.5 26 18 25.5625 18 25C18 24.5 17.5 24 17 24Z" fill="white"/>
</svg>
