<svg width="50" height="35" viewBox="0 0 50 35" fill="none" xmlns="http://www.w3.org/2000/svg">
<path d="M12.4219 16.1716L8.4375 15.3122C7.34375 15.0779 6.32812 15.9372 6.32812 17.031V18.6716C6.32812 19.9997 7.34375 20.3122 8.59375 20.3122H12.9688C13.8281 20.3122 14.6875 20.156 14.6875 19.2185V18.9841C14.6875 17.5779 13.75 16.406 12.4219 16.1716ZM7.8125 18.6716C7.8125 18.5935 7.8125 18.5935 7.8125 16.9529C7.8125 16.7966 7.96875 16.6404 8.125 16.7185L12.1094 17.5779C12.6562 17.7341 13.0469 18.2029 13.125 18.7497C10.3906 18.7497 8.04687 18.7497 7.8125 18.6716Z" fill="#DF0A0A"/>
<path d="M47.8906 7.8125L42.2656 5.15625C40.3906 4.29687 38.3594 3.98438 36.4062 4.375L35.5469 2.65625C34.9219 1.09375 33.4375 0 31.7187 0H13.4375C11.7188 0 10.2344 1.01563 9.60938 2.57813L6.5625 8.90625C5.85937 7.89063 4.6875 7.26562 3.4375 7.26562H2.10938C0.9375 7.26562 0 8.20313 0 9.375V10.2344C0 11.4062 0.9375 12.3438 2.10938 12.3438H4.14062C3.28125 13.4375 2.89062 14.8437 2.89062 16.25V20.9375C2.89062 22.7344 3.51562 24.4531 4.76562 25.9375V29.4531C4.76562 31.0156 6.01562 32.2656 7.57812 32.2656H10.4688C12.0312 32.2656 13.2812 31.0156 13.2812 29.4531V28.0469H28.9062C32.3438 32.7344 37.7344 34.7656 37.8125 34.7656C37.9688 34.8438 38.125 34.8438 38.3594 34.7656C38.4375 34.6875 50 30.4688 50 19.9219V11.1719C50 9.76562 49.1406 8.4375 47.8906 7.8125ZM11.0156 3.20313C11.4062 2.1875 12.3438 1.5625 13.4375 1.5625H31.7187C32.8125 1.5625 33.75 2.1875 34.2188 3.28125L34.9219 4.76563C34.6094 4.84375 34.2969 5 33.9844 5.15625L28.3594 7.8125C27.1094 8.4375 26.25 9.6875 26.25 11.0938H7.10938C7.42188 10.625 7.10938 11.4062 11.0156 3.20313ZM1.5625 10.2344V9.375C1.5625 9.0625 1.79688 8.82812 2.10938 8.82812H3.4375C5 8.82812 5.54688 10.2344 5.70312 10.4688C5.625 10.625 5.54688 10.7031 5.39062 10.8594H2.10938C1.79688 10.7812 1.5625 10.5469 1.5625 10.2344ZM11.7188 29.375C11.7188 30.0781 11.1719 30.625 10.4688 30.625H7.5C6.79688 30.7031 6.25 30.0781 6.25 29.375V27.1094C7.1875 27.6562 8.28125 27.9688 9.375 27.9688H11.7188V29.375ZM9.29688 26.4844C6.48438 26.4844 4.29688 23.75 4.29688 20.8594V16.1719C4.29688 14.8438 4.84375 13.5937 5.78125 12.5781H26.25V19.4531H17.6562C17.2656 19.4531 16.875 19.7656 16.875 20.2344C16.875 20.7031 17.1875 21.0156 17.6562 21.0156H26.3281C26.4062 21.5625 26.4062 22.0312 26.5625 22.5H17.6562C17.2656 22.5 16.875 22.8125 16.875 23.2812C16.875 23.75 17.1875 24.0625 17.6562 24.0625H26.875C27.1875 24.9219 27.5 25.7812 27.9688 26.4844H9.29688ZM48.4375 19.9219C48.4375 28.5938 39.6875 32.5781 38.125 33.2031C32.5 30.9375 27.8125 26.0938 27.8125 19.9219C27.8125 17.0312 27.8125 15.4688 27.8125 11.1719C27.8125 10.3125 28.2812 9.60938 29.0625 9.21875L34.6875 6.5625C36.9531 5.46875 39.4531 5.46875 41.7188 6.5625L47.3438 9.21875C48.0469 9.60938 48.5938 10.3125 48.5938 11.1719V19.9219H48.4375Z" fill="#DF0A0A"/>
<path d="M45.7812 11.0156L40.625 8.59375C39.0625 7.8125 37.1094 7.8125 35.5469 8.59375L30.4687 11.0156C30.2344 11.1719 30 11.4062 30 11.7188V19.9219C30 26.0938 35.3906 29.4531 37.7344 30.625C37.9687 30.7031 38.2031 30.7031 38.4375 30.625C40.7812 29.4531 46.1719 26.0938 46.1719 19.9219V11.7188C46.1719 11.4062 46.0156 11.1719 45.7812 11.0156ZM44.6875 19.9219C44.6875 24.9219 40.3125 27.8906 38.125 29.0625C35.5469 27.6562 31.5625 24.8438 31.5625 19.9219V12.1875L36.25 9.92187C37.4219 9.375 38.8281 9.375 40 9.92187L44.6875 12.1875V19.9219Z" fill="#DF0A0A"/>
<path d="M35.0785 19.6871C34.766 19.4527 34.2973 19.5308 33.9848 19.8433C33.6723 20.1558 33.8285 20.6246 34.141 20.9371L37.1098 23.2027C37.4223 23.4371 37.891 23.3589 38.2035 23.0464L42.5785 17.3433C42.8129 17.0308 42.7348 16.5621 42.4223 16.2496C42.1098 16.0152 41.641 16.0933 41.3285 16.4058L37.4223 21.4839L35.0785 19.6871Z" fill="#DF0A0A"/>
</svg>
