<svg width="45" height="53" viewBox="0 0 45 53" fill="none" xmlns="http://www.w3.org/2000/svg">
<path d="M44.2832 4.97374C43.6841 4.13266 42.7903 3.57477 41.7662 3.40267C40.7423 3.23046 39.715 3.46566 38.874 4.06471L20.991 16.8022L18.9888 9.26041L18.886 8.90689C18.2051 6.56353 17.4332 3.9075 14.5484 3.82434L10.6348 3.7115L10.991 8.44995L12.538 8.33359L12.3109 5.31184L14.5036 5.37504C16.1773 5.42323 16.6698 6.83999 17.3962 9.33974L17.4916 9.6675L19.641 17.7637L18.183 18.8021L19.0831 20.0658L39.7738 5.32849C40.2773 4.96981 40.8936 4.82925 41.5089 4.93268C42.1243 5.0361 42.6607 5.37028 43.0194 5.87387C43.3781 6.37746 43.5186 6.99358 43.4152 7.60897C43.3118 8.22437 42.9776 8.76075 42.474 9.11944L29.9013 18.0745L30.8013 19.3382L33.2611 17.5862C33.7625 17.234 34.3738 17.0966 34.984 17.1991C35.5993 17.3025 36.1357 17.6367 36.4944 18.1403C37.2389 19.1854 36.9943 20.6415 35.9491 21.3859L32.3025 23.9833L33.2025 25.2469L35.5173 23.5982C36.0209 23.2396 36.6369 23.0991 37.2524 23.2024C37.8678 23.3058 38.4042 23.6401 38.7629 24.1436C39.5073 25.1887 39.2627 26.6447 38.2175 27.3891L35.2709 29.4879L36.1709 30.7516L37.8539 29.5528C38.3574 29.1943 38.9737 29.0539 39.589 29.157C40.2044 29.2605 40.7407 29.5947 41.0994 30.0982C41.8439 31.1434 41.5993 32.5994 40.5542 33.3438L36.4474 36.2689L37.3474 37.5326L41.4542 34.6075C43.1961 33.3667 43.6038 30.9401 42.3631 29.1982C41.8094 28.4207 41.0038 27.8852 40.0762 27.6727C40.9592 26.3694 40.9921 24.5992 40.0266 23.2435C39.4786 22.4741 38.6835 21.9426 37.7679 21.7257C38.6889 20.4175 38.7378 18.6157 37.7582 17.2403C37.2656 16.5486 36.5734 16.0484 35.7736 15.7968L43.3742 10.3831C44.2153 9.78406 44.7732 8.89014 44.9453 7.8662C45.1174 6.84195 44.8822 5.81481 44.2832 4.97374Z" fill="#DF0A0A"/>
<path d="M28.6612 41.815L19.9123 44.2377L16.8377 46.4123L6.94242 32.421L10.0894 30.1917L13.2315 17.5538L12.6546 9.88086L11.1076 9.99711L11.6657 17.4214L8.72262 29.2586L0.982286 34.7418C0.476111 35.0997 0.139556 35.6349 0.0342668 36.2487C-0.0710227 36.8626 0.0681913 37.4793 0.426155 37.9854L10.3191 51.9728C10.677 52.4789 11.2122 52.8155 11.8261 52.9208C11.9598 52.9438 12.0935 52.9551 12.2264 52.955C12.7033 52.955 13.167 52.8089 13.5628 52.5289L18.6293 48.9456L17.7335 47.6789L20.587 45.6606L29.3386 43.2372L33.5567 40.2327L32.6567 38.9692L28.6612 41.815ZM12.667 51.2624C12.4993 51.3811 12.2938 51.4271 12.0884 51.3918C11.883 51.3567 11.7045 51.2449 11.5859 51.0771L1.69294 37.0897C1.57431 36.922 1.52839 36.7165 1.56355 36.511C1.59872 36.3056 1.71052 36.1272 1.8788 36.0082L5.67656 33.3179L16.467 48.5749L12.667 51.2624Z" fill="#DF0A0A"/>
<path d="M33.9336 38.0938L35.198 37.1939L36.0978 38.4583L34.8334 39.3582L33.9336 38.0938Z" fill="#DF0A0A"/>
<path d="M20.1836 1.07812L21.6094 0.466862L23.937 5.89598L22.5112 6.50724L20.1836 1.07812Z" fill="#DF0A0A"/>
<path d="M25.5547 0H27.1061V5.43H25.5547V0Z" fill="#DF0A0A"/>
<path d="M28.7246 5.90625L31.0522 0.47713L32.478 1.08839L30.1504 6.51751L28.7246 5.90625Z" fill="#DF0A0A"/>
<path d="M26.1211 26.2402L27.3871 25.3435L28.2838 26.6095L27.0178 27.5062L26.1211 26.2402Z" fill="#DF0A0A"/>
<path d="M27.8867 28.8008L29.1526 27.9057L30.0478 29.1716L28.7819 30.0667L27.8867 28.8008Z" fill="#DF0A0A"/>
</svg>
