<svg width="50" height="50" viewBox="0 0 50 50" fill="none" xmlns="http://www.w3.org/2000/svg">
<path d="M12.9034 20.9669H11.2904C10.8461 20.9669 10.484 20.6056 10.484 20.1604H8.87109C8.87109 21.4943 9.95658 22.5798 11.2904 22.5798V24.1927H12.9034V22.5798C14.2372 22.5798 15.3227 21.4943 15.3227 20.1604C15.3227 18.8265 14.2372 17.7411 12.9034 17.7411H11.2904C10.8461 17.7411 10.484 17.3798 10.484 16.9346C10.484 16.4894 10.8461 16.1282 11.2904 16.1282H12.9034C13.3477 16.1282 13.7098 16.4894 13.7098 16.9346H15.3227C15.3227 15.6007 14.2372 14.5152 12.9034 14.5152V12.9023H11.2904V14.5152C9.95658 14.5152 8.87109 15.6007 8.87109 16.9346C8.87109 18.2685 9.95658 19.354 11.2904 19.354H12.9034C13.3477 19.354 13.7098 19.7152 13.7098 20.1604C13.7098 20.6056 13.3477 20.9669 12.9034 20.9669Z" fill="#DF0A0A"/>
<path d="M33.8705 38.7102H35.4834C35.9278 38.7102 36.2899 39.0715 36.2899 39.5166H37.9028C37.9028 38.1828 36.8173 37.0973 35.4834 37.0973V35.4844H33.8705V37.0973C32.5367 37.0973 31.4512 38.1828 31.4512 39.5166C31.4512 40.8505 32.5367 41.936 33.8705 41.936H35.4834C35.9278 41.936 36.2899 42.2973 36.2899 42.7424C36.2899 43.1876 35.9278 43.5489 35.4834 43.5489H33.8705C33.4262 43.5489 33.0641 43.1876 33.0641 42.7424H31.4512C31.4512 44.0763 32.5367 45.1618 33.8705 45.1618V46.7747H35.4834V45.1618C36.8173 45.1618 37.9028 44.0763 37.9028 42.7424C37.9028 41.4086 36.8173 40.3231 35.4834 40.3231H33.8705C33.4262 40.3231 33.0641 39.9618 33.0641 39.5166C33.0641 39.0715 33.4262 38.7102 33.8705 38.7102Z" fill="#DF0A0A"/>
<path d="M6.45237 29.0312H4.83947C3.94995 29.0312 3.22656 29.7546 3.22656 30.6442V32.2571C3.22656 33.1466 3.94995 33.87 4.83947 33.87H6.45237C7.34189 33.87 8.06527 33.1466 8.06527 32.2571V30.6442C8.06527 29.7546 7.34189 29.0312 6.45237 29.0312ZM4.83947 32.2571V30.6442H6.45237L6.45318 32.2571H4.83947Z" fill="#DF0A0A"/>
<path d="M12.9035 29.0312H11.2906C10.4011 29.0312 9.67773 29.7546 9.67773 30.6442V32.2571C9.67773 33.1466 10.4011 33.87 11.2906 33.87H12.9035C13.7931 33.87 14.5164 33.1466 14.5164 32.2571V30.6442C14.5164 29.7546 13.7931 29.0312 12.9035 29.0312ZM11.2906 32.2571V30.6442H12.9035L12.9043 32.2571H11.2906Z" fill="#DF0A0A"/>
<path d="M19.3547 29.0312H17.7418C16.8523 29.0312 16.1289 29.7546 16.1289 30.6442V32.2571C16.1289 33.1466 16.8523 33.87 17.7418 33.87H19.3547C20.2442 33.87 20.9676 33.1466 20.9676 32.2571V30.6442C20.9676 29.7546 20.2442 29.0312 19.3547 29.0312ZM17.7418 32.2571V30.6442H19.3547L19.3555 32.2571H17.7418Z" fill="#DF0A0A"/>
<path d="M6.45237 35.4844H4.83947C3.94995 35.4844 3.22656 36.2078 3.22656 37.0973V38.7102C3.22656 39.5997 3.94995 40.3231 4.83947 40.3231H6.45237C7.34189 40.3231 8.06527 39.5997 8.06527 38.7102V37.0973C8.06527 36.2078 7.34189 35.4844 6.45237 35.4844ZM4.83947 38.7102V37.0973H6.45237L6.45318 38.7102H4.83947Z" fill="#DF0A0A"/>
<path d="M12.9035 35.4844H11.2906C10.4011 35.4844 9.67773 36.2078 9.67773 37.0973V38.7102C9.67773 39.5997 10.4011 40.3231 11.2906 40.3231H12.9035C13.7931 40.3231 14.5164 39.5997 14.5164 38.7102V37.0973C14.5164 36.2078 13.7931 35.4844 12.9035 35.4844ZM11.2906 38.7102V37.0973H12.9035L12.9043 38.7102H11.2906Z" fill="#DF0A0A"/>
<path d="M19.3547 35.4844H17.7418C16.8523 35.4844 16.1289 36.2078 16.1289 37.0973V38.7102C16.1289 39.5997 16.8523 40.3231 17.7418 40.3231H19.3547C20.2442 40.3231 20.9676 39.5997 20.9676 38.7102V37.0973C20.9676 36.2078 20.2442 35.4844 19.3547 35.4844ZM17.7418 38.7102V37.0973H19.3547L19.3555 38.7102H17.7418Z" fill="#DF0A0A"/>
<path d="M6.45237 41.9355H4.83947C3.94995 41.9355 3.22656 42.6589 3.22656 43.5485V45.1614C3.22656 46.0509 3.94995 46.7743 4.83947 46.7743H6.45237C7.34189 46.7743 8.06527 46.0509 8.06527 45.1614V43.5485C8.06527 42.6589 7.34189 41.9355 6.45237 41.9355ZM4.83947 45.1614V43.5485H6.45237L6.45318 45.1614H4.83947Z" fill="#DF0A0A"/>
<path d="M12.9035 41.9355H11.2906C10.4011 41.9355 9.67773 42.6589 9.67773 43.5485V45.1614C9.67773 46.0509 10.4011 46.7743 11.2906 46.7743H12.9035C13.7931 46.7743 14.5164 46.0509 14.5164 45.1614V43.5485C14.5164 42.6589 13.7931 41.9355 12.9035 41.9355ZM11.2906 45.1614V43.5485H12.9035L12.9043 45.1614H11.2906Z" fill="#DF0A0A"/>
<path d="M19.3547 41.9355H17.7418C16.8523 41.9355 16.1289 42.6589 16.1289 43.5485V45.1614C16.1289 46.0509 16.8523 46.7743 17.7418 46.7743H19.3547C20.2442 46.7743 20.9676 46.0509 20.9676 45.1614V43.5485C20.9676 42.6589 20.2442 41.9355 19.3547 41.9355ZM17.7418 45.1614V43.5485H19.3547L19.3555 45.1614H17.7418Z" fill="#DF0A0A"/>
<path d="M35.4844 25.8066H46.7747V27.4195H35.4844V25.8066Z" fill="#DF0A0A"/>
<path d="M45.1621 29.0312H46.775V30.6442H45.1621V29.0312Z" fill="#DF0A0A"/>
<path d="M35.4844 29.0312H43.5489V30.6442H35.4844V29.0312Z" fill="#DF0A0A"/>
<path d="M50 0H17.7419V11.7105C16.2073 10.4411 14.2395 9.67742 12.0968 9.67742C8.02742 9.67742 4.59839 12.4347 3.55726 16.1774C1.55968 16.4153 0 18.1008 0 20.1613V45.9677C0 48.1911 1.80887 50 4.03226 50H20.1613C22.3847 50 24.1935 48.1911 24.1935 45.9677V41.9355H25.8476C26.2565 46.45 30.0581 50 34.6774 50C39.2968 50 43.0984 46.45 43.5073 41.9355H50V0ZM12.0968 11.2903C16.0984 11.2903 19.3548 14.546 19.3548 18.5484C19.3548 22.5508 16.0984 25.8065 12.0968 25.8065C8.09516 25.8065 4.83871 22.5508 4.83871 18.5484C4.83871 14.546 8.09516 11.2903 12.0968 11.2903ZM19.3548 23.6331V25.8065H17.1815C18.0258 25.2129 18.7613 24.4774 19.3548 23.6331ZM4.83871 23.6331C5.43226 24.4774 6.16774 25.2129 7.0121 25.8065H4.83871V23.6331ZM22.5806 45.9677C22.5806 47.3016 21.4952 48.3871 20.1613 48.3871H4.03226C2.69839 48.3871 1.6129 47.3016 1.6129 45.9677V20.1613C1.6129 19.0992 2.30564 18.204 3.25968 17.8798C3.24274 18.1016 3.22581 18.3226 3.22581 18.5484V27.4194H20.9677V18.5484C20.9677 18.3226 20.9508 18.1016 20.9339 17.8798C21.8879 18.204 22.5806 19.0992 22.5806 20.1613V26.6129V45.9677ZM27.4194 22.5806H24.1935V20.1613V14.5161H27.4194V22.5806ZM34.6774 48.3871C30.6758 48.3871 27.4194 45.1315 27.4194 41.129C27.4194 37.1266 30.6758 33.871 34.6774 33.871C38.679 33.871 41.9355 37.1266 41.9355 41.129C41.9355 45.1315 38.679 48.3871 34.6774 48.3871ZM48.3871 40.3226H43.5073C43.0984 35.8081 39.2968 32.2581 34.6774 32.2581C30.0581 32.2581 26.2565 35.8081 25.8476 40.3226H24.1935V26.6129V24.1935H46.7742V22.5806H45.1613V3.22581H38.7097V22.5806H37.0968V8.06452H30.6452V22.5806H29.0323V12.9032H22.5806V16.9565C22.025 16.5363 21.3621 16.2637 20.6363 16.1774C20.3629 15.1935 19.9274 14.279 19.3548 13.4637V1.6129H48.3871V40.3226ZM35.4839 22.5806H32.2581V9.67742H35.4839V22.5806ZM43.5484 22.5806H40.3226V4.83871H43.5484V22.5806Z" fill="#DF0A0A"/>
</svg>
