<svg width="85" height="85" viewBox="0 0 85 85" fill="none" xmlns="http://www.w3.org/2000/svg">
<rect x="10" y="10" width="75" height="75" fill="#DF0A0A"/>
<rect width="80" height="80" fill="white"/>
<path d="M40.8065 40.725C42.6444 40.35 44.0323 38.7218 44.0323 36.7742C44.0323 34.8266 42.6444 33.1984 40.8065 32.8234V27.9032C40.8065 26.5694 39.721 25.4839 38.3871 25.4839C37.2008 25.4839 36.2161 26.3435 36.0113 27.4718C33.075 29.8266 29.4073 31.129 25.6371 31.129H23.871C21.6476 31.129 19.8387 32.9379 19.8387 35.1613V38.3871C19.8387 40.0371 20.8371 41.4548 22.2597 42.0782L15 47.6677V65H42.4194V47.6677L40.6927 46.3387C40.7597 46.1177 40.8065 45.8879 40.8065 45.6452V40.725ZM42.4194 36.7742C42.4194 37.8242 41.7427 38.7113 40.8065 39.0452V34.504C41.7427 34.8371 42.4194 35.7242 42.4194 36.7742ZM23.354 56.129L16.6129 62.3516V49.9065L23.354 56.129ZM26.6056 55.3226H30.8137L39.55 63.3871H17.8694L26.6056 55.3226ZM34.0653 56.129L40.8065 49.9065V62.3516L34.0653 56.129ZM32.8766 55.0315L31.4444 53.7097H25.975L24.5427 55.0315L17.0556 48.1202L23.3766 43.2532L24.8226 50.4839H29.5161V42.8935C31.8766 43.4629 34.0992 44.5427 36.0113 46.0766C36.2161 47.2048 37.2008 48.0645 38.3871 48.0645C38.8911 48.0645 39.3581 47.9089 39.746 47.6452L40.3637 48.121L32.8766 55.0315ZM35.9677 44.0258C33.121 42.0645 29.7556 40.9605 26.2903 40.8347V32.7129C29.7556 32.5871 33.121 31.4831 35.9677 29.5218V44.0258ZM27.9032 42.5911V48.871H26.1452L24.8548 42.4194H25.6371C26.3992 42.4194 27.154 42.4871 27.9032 42.5911ZM37.5806 27.9032C37.5806 27.4589 37.9427 27.0968 38.3871 27.0968C38.8315 27.0968 39.1935 27.4589 39.1935 27.9032V45.6452C39.1935 46.0895 38.8315 46.4516 38.3871 46.4516C37.9427 46.4516 37.5806 46.0895 37.5806 45.6452V27.9032ZM21.6 39.1935H23.0645V37.5806H21.4516V35.9677H23.0645V34.3548H21.6C21.9339 33.4185 22.821 32.7419 23.871 32.7419H24.6774V40.8065H23.871C22.821 40.8065 21.9339 40.1298 21.6 39.1935Z" fill="#DF0A0A"/>
<path d="M45.6452 35.9677H48.871V37.5806H45.6452V35.9677Z" fill="#DF0A0A"/>
<path d="M43.4169 32.2134L46.8384 28.7919L47.9789 29.9324L44.5574 33.3539L43.4169 32.2134Z" fill="#DF0A0A"/>
<path d="M43.4156 41.3371L44.5561 40.1966L47.9776 43.6181L46.8371 44.7586L43.4156 41.3371Z" fill="#DF0A0A"/>
<path d="M56.129 47.2581C51.2379 47.2581 47.2581 51.2379 47.2581 56.129C47.2581 61.0202 51.2379 65 56.129 65C61.0202 65 65 61.0202 65 56.129C65 51.2379 61.0202 47.2581 56.129 47.2581ZM56.129 63.3871C52.1274 63.3871 48.871 60.1306 48.871 56.129C48.871 52.1274 52.1274 48.871 56.129 48.871C60.1306 48.871 63.3871 52.1274 63.3871 56.129C63.3871 60.1306 60.1306 63.3871 56.129 63.3871Z" fill="#DF0A0A"/>
<path d="M61.7742 32.7419H50.4839V44.0323H61.7742V32.7419ZM60.1613 42.4194H52.0968V34.3548H60.1613V42.4194Z" fill="#DF0A0A"/>
<path d="M53.7097 35.9677H58.5484V37.5806H53.7097V35.9677Z" fill="#DF0A0A"/>
<path d="M53.7097 39.1935H58.5484V40.8065H53.7097V39.1935Z" fill="#DF0A0A"/>
<path d="M56.129 29.5161V27.9032C53.9056 27.9032 52.0968 26.0944 52.0968 23.871V20.6452C52.0968 18.4218 53.9056 16.6129 56.129 16.6129C58.3524 16.6129 60.1613 18.4218 60.1613 20.6452V26.2903C60.1613 26.7347 59.7992 27.0968 59.3548 27.0968C58.9105 27.0968 58.5484 26.7347 58.5484 26.2903V20.6452C58.5484 19.3113 57.4629 18.2258 56.129 18.2258C54.7952 18.2258 53.7097 19.3113 53.7097 20.6452V23.871C53.7097 25.2048 54.7952 26.2903 56.129 26.2903C56.4129 26.2903 56.6823 26.2323 56.9355 26.1419V26.2903C56.9355 27.6242 58.021 28.7097 59.3548 28.7097C60.6887 28.7097 61.7742 27.6242 61.7742 26.2903V20.6452C61.7742 17.5323 59.2419 15 56.129 15C53.0161 15 50.4839 17.5323 50.4839 20.6452V23.871C50.4839 26.9839 53.0161 29.5161 56.129 29.5161ZM56.129 24.6774C55.6847 24.6774 55.3226 24.3153 55.3226 23.871V20.6452C55.3226 20.2008 55.6847 19.8387 56.129 19.8387C56.5734 19.8387 56.9355 20.2008 56.9355 20.6452V23.871C56.9355 24.3153 56.5734 24.6774 56.129 24.6774Z" fill="#DF0A0A"/>
<path d="M58.9944 54.2403L55.1524 52.3194C54.8605 52.1742 54.5339 52.0968 54.2081 52.0968C53.0435 52.0968 52.0968 53.0435 52.0968 54.2081V58.05C52.0968 59.2145 53.0435 60.1613 54.2081 60.1613C54.5339 60.1613 54.8605 60.0839 55.1524 59.9387L58.9935 58.0177C59.7137 57.6581 60.1613 56.9347 60.1613 56.129C60.1613 55.3234 59.7137 54.6 58.9944 54.2403ZM58.2726 56.575L54.4306 58.496C54.1145 58.654 53.7097 58.4016 53.7097 58.05V54.2081C53.7097 53.9331 53.9331 53.7097 54.2081 53.7097C54.2847 53.7097 54.3621 53.7274 54.4306 53.7621L58.2726 55.6831C58.4427 55.7685 58.5484 55.9387 58.5484 56.129C58.5484 56.3194 58.4427 56.4895 58.2726 56.575Z" fill="#DF0A0A"/>
</svg>
