<svg width="85" height="85" viewBox="0 0 85 85" fill="none" xmlns="http://www.w3.org/2000/svg">
<rect x="10" y="10" width="75" height="75" fill="#F64A00"/>
<rect width="80" height="80" fill="white"/>
<path d="M58.275 47.0325C59.014 46.4561 59.5546 45.6634 59.8214 44.7649C60.0881 43.8665 60.0677 42.9071 59.7629 42.0209C59.4582 41.1346 58.8843 40.3656 58.1214 39.8212C57.3585 39.2768 56.4447 38.9841 55.5075 38.9841C54.5703 38.9841 53.6565 39.2768 52.8936 39.8212C52.1307 40.3656 51.5568 41.1346 51.2521 42.0209C50.9473 42.9071 50.9269 43.8665 51.1936 44.7649C51.4604 45.6634 52.001 46.4561 52.74 47.0325C51.6688 47.4576 50.7074 48.1191 49.9275 48.9675L49.5 44.9175C49.4796 44.7332 49.3917 44.563 49.2532 44.4397C49.1147 44.3165 48.9354 44.2489 48.75 44.25H48V42C47.9985 40.5005 47.5474 39.0358 46.7052 37.7952C45.8629 36.5545 44.6681 35.5948 43.275 35.04C44.0122 34.4626 44.5508 33.6695 44.8159 32.7714C45.081 31.8733 45.0593 30.9149 44.7539 30.0297C44.4485 29.1445 43.8745 28.3767 43.112 27.8331C42.3495 27.2896 41.4364 26.9975 40.5 26.9975C39.5636 26.9975 38.6505 27.2896 37.888 27.8331C37.1255 28.3767 36.5515 29.1445 36.2461 30.0297C35.9407 30.9149 35.919 31.8733 36.1841 32.7714C36.4492 33.6695 36.9878 34.4626 37.725 35.04C36.3319 35.5948 35.1371 36.5545 34.2948 37.7952C33.4526 39.0358 33.0015 40.5005 33 42V44.25H32.25C32.0634 44.2491 31.8832 44.3177 31.7445 44.4425C31.6058 44.5673 31.5187 44.7394 31.5 44.925L31.095 49.005C30.3214 48.1354 29.3523 47.4619 28.2675 47.04C29.0056 46.4631 29.5452 45.6702 29.8111 44.7719C30.0771 43.8736 30.056 42.9148 29.7509 42.029C29.4458 41.1433 28.8719 40.3749 28.1092 39.8309C27.3465 39.2869 26.4331 38.9946 25.4963 38.9946C24.5594 38.9946 23.646 39.2869 22.8833 39.8309C22.1206 40.3749 21.5467 41.1433 21.2416 42.029C20.9365 42.9148 20.9154 43.8736 21.1814 44.7719C21.4473 45.6702 21.9869 46.4631 22.725 47.04C21.3319 47.5948 20.1371 48.5545 19.2948 49.7952C18.4526 51.0358 18.0015 52.5005 18 54V62.25C18 62.4489 18.079 62.6397 18.2197 62.7803C18.3603 62.921 18.5511 63 18.75 63H62.25C62.4489 63 62.6397 62.921 62.7803 62.7803C62.921 62.6397 63 62.4489 63 62.25V54C63 52.4992 62.5496 51.0329 61.7073 49.7908C60.8649 48.5486 59.6693 47.5878 58.275 47.0325ZM52.5 43.5C52.5 42.9067 52.6759 42.3266 53.0056 41.8333C53.3352 41.3399 53.8038 40.9554 54.3519 40.7284C54.9001 40.5013 55.5033 40.4419 56.0853 40.5576C56.6672 40.6734 57.2018 40.9591 57.6213 41.3787C58.0409 41.7982 58.3266 42.3328 58.4424 42.9147C58.5581 43.4967 58.4987 44.0999 58.2716 44.6481C58.0446 45.1962 57.6601 45.6648 57.1667 45.9944C56.6734 46.3241 56.0933 46.5 55.5 46.5C54.7043 46.5 53.9413 46.1839 53.3787 45.6213C52.8161 45.0587 52.5 44.2956 52.5 43.5ZM37.5 31.5C37.5 30.9067 37.6759 30.3266 38.0056 29.8333C38.3352 29.3399 38.8038 28.9554 39.3519 28.7284C39.9001 28.5013 40.5033 28.4419 41.0853 28.5576C41.6672 28.6734 42.2018 28.9591 42.6213 29.3787C43.0409 29.7982 43.3266 30.3328 43.4424 30.9147C43.5581 31.4967 43.4987 32.0999 43.2716 32.6481C43.0446 33.1962 42.6601 33.6648 42.1667 33.9944C41.6734 34.3241 41.0933 34.5 40.5 34.5C39.7044 34.5 38.9413 34.1839 38.3787 33.6213C37.8161 33.0587 37.5 32.2956 37.5 31.5ZM34.5 42C34.5 40.4087 35.1321 38.8826 36.2574 37.7574C37.3826 36.6321 38.9087 36 40.5 36C42.0913 36 43.6174 36.6321 44.7426 37.7574C45.8679 38.8826 46.5 40.4087 46.5 42V44.25H45.195L45.75 40.6125C45.7663 40.505 45.7591 40.3953 45.7288 40.2908C45.6984 40.1864 45.6458 40.0899 45.5744 40.0078C45.5031 39.9258 45.4148 39.8602 45.3156 39.8157C45.2164 39.7712 45.1087 39.7488 45 39.75H36C35.8913 39.7488 35.7836 39.7712 35.6844 39.8157C35.5852 39.8602 35.4969 39.9258 35.4256 40.0078C35.3542 40.0899 35.3016 40.1864 35.2712 40.2908C35.2409 40.3953 35.2337 40.505 35.25 40.6125L35.805 44.25H34.5V42ZM44.13 41.25L43.455 45.75H37.545L36.87 41.25H44.13ZM36 45.75L36.1275 46.6125C36.1546 46.7913 36.2455 46.9544 36.3833 47.0715C36.5211 47.1887 36.6966 47.252 36.8775 47.25H44.0775C44.2584 47.252 44.4339 47.1887 44.5717 47.0715C44.7095 46.9544 44.8004 46.7913 44.8275 46.6125L45 45.75H48.075L48.6525 51.1725L48.915 54.1725L45.4725 55.5525C45.333 55.6081 45.2133 55.7043 45.1291 55.8286C45.0448 55.953 44.9999 56.0998 45 56.25V58.5C45 58.6083 45.0235 58.7154 45.0688 58.8138C45.1141 58.9122 45.1802 58.9996 45.2625 59.07C45.3984 59.1862 45.5712 59.25 45.75 59.25H45.8625L49.3125 58.7175L49.5525 61.5H31.4475L31.6875 58.71L35.1375 59.2425H35.25C35.4288 59.2425 35.6016 59.1787 35.7375 59.0625C35.8189 58.9929 35.8844 58.9067 35.9297 58.8097C35.975 58.7127 35.9989 58.6071 36 58.5V56.25C36.0001 56.0998 35.9552 55.953 35.8709 55.8286C35.7867 55.7043 35.667 55.6081 35.5275 55.5525L32.0925 54.18L32.9325 45.75H36ZM22.5 43.5C22.5 42.9067 22.6759 42.3266 23.0056 41.8333C23.3352 41.3399 23.8038 40.9554 24.3519 40.7284C24.9001 40.5013 25.5033 40.4419 26.0853 40.5576C26.6672 40.6734 27.2018 40.9591 27.6213 41.3787C28.0409 41.7982 28.3266 42.3328 28.4424 42.9147C28.5581 43.4967 28.4987 44.0999 28.2716 44.6481C28.0446 45.1962 27.6601 45.6648 27.1667 45.9944C26.6734 46.3241 26.0933 46.5 25.5 46.5C24.7044 46.5 23.9413 46.1839 23.3787 45.6213C22.8161 45.0587 22.5 44.2956 22.5 43.5ZM19.5 54C19.5 52.4087 20.1321 50.8826 21.2574 49.7574C22.3826 48.6321 23.9087 48 25.5 48C26.6155 47.9999 27.7089 48.3107 28.6575 48.8976C29.606 49.4846 30.3722 50.3243 30.87 51.3225L30.645 53.5725L28.5 52.74V51H27V53.25C26.9999 53.4002 27.0448 53.547 27.1291 53.6714C27.2133 53.7957 27.333 53.8919 27.4725 53.9475L34.5 56.76V57.6225L25.995 56.3175L24.6675 53.6625L23.3325 54.3375L24.8325 57.3375C24.886 57.4443 24.9644 57.5368 25.0609 57.6073C25.1574 57.6777 25.2694 57.7241 25.3875 57.7425L30.2025 58.4925L29.94 61.4925H19.5V54ZM61.5 61.5H51.06L50.7975 58.5L55.6125 57.75C55.7306 57.7316 55.8426 57.6852 55.9391 57.6148C56.0356 57.5443 56.1139 57.4518 56.1675 57.345L57.6675 54.345L56.3325 53.67L55.005 56.325L46.5 57.6225V56.76L53.5275 53.9475C53.667 53.8919 53.7867 53.7957 53.8709 53.6714C53.9552 53.547 54.0001 53.4002 54 53.25V51H52.5V52.74L50.37 53.595L50.1675 51.27C50.6696 50.2872 51.4331 49.462 52.3739 48.8851C53.3147 48.3082 54.3964 48.0019 55.5 48C57.0913 48 58.6174 48.6321 59.7426 49.7574C60.8679 50.8826 61.5 52.4087 61.5 54V61.5Z" fill="#F64A00"/>
<path d="M18.75 34.5H22.875L24.9 37.2C24.9699 37.2931 25.0604 37.3687 25.1646 37.4208C25.2687 37.4729 25.3836 37.5 25.5 37.5C25.6164 37.5 25.7313 37.4729 25.8354 37.4208C25.9396 37.3687 26.0301 37.2931 26.1 37.2L28.125 34.5H32.25C32.4489 34.5 32.6397 34.421 32.7803 34.2803C32.921 34.1397 33 33.9489 33 33.75V18.75C33 18.5511 32.921 18.3603 32.7803 18.2197C32.6397 18.079 32.4489 18 32.25 18H18.75C18.5511 18 18.3603 18.079 18.2197 18.2197C18.079 18.3603 18 18.5511 18 18.75V33.75C18 33.9489 18.079 34.1397 18.2197 34.2803C18.3603 34.421 18.5511 34.5 18.75 34.5ZM19.5 19.5H31.5V33H27.75C27.6336 33 27.5187 33.0271 27.4146 33.0792C27.3104 33.1313 27.2199 33.2069 27.15 33.3L25.5 35.4975L23.85 33.3C23.7801 33.2069 23.6896 33.1313 23.5854 33.0792C23.4813 33.0271 23.3664 33 23.25 33H19.5V19.5Z" fill="#F64A00"/>
<path d="M21 30H30V31.5H21V30Z" fill="#F64A00"/>
<path d="M21 27H30V28.5H21V27Z" fill="#F64A00"/>
<path d="M21 24H30V25.5H21V24Z" fill="#F64A00"/>
<path d="M28.5 21H30V22.5H28.5V21Z" fill="#F64A00"/>
<path d="M24 21H27V22.5H24V21Z" fill="#F64A00"/>
<path d="M21 21H22.5V22.5H21V21Z" fill="#F64A00"/>
<path d="M62.25 18H48.75C48.5511 18 48.3603 18.079 48.2197 18.2197C48.079 18.3603 48 18.5511 48 18.75V33.75C48 33.9489 48.079 34.1397 48.2197 34.2803C48.3603 34.421 48.5511 34.5 48.75 34.5H52.875L54.9 37.2C54.9699 37.2931 55.0604 37.3687 55.1646 37.4208C55.2687 37.4729 55.3836 37.5 55.5 37.5C55.6164 37.5 55.7313 37.4729 55.8354 37.4208C55.9396 37.3687 56.0301 37.2931 56.1 37.2L58.125 34.5H62.25C62.4489 34.5 62.6397 34.421 62.7803 34.2803C62.921 34.1397 63 33.9489 63 33.75V18.75C63 18.5511 62.921 18.3603 62.7803 18.2197C62.6397 18.079 62.4489 18 62.25 18ZM61.5 33H57.75C57.6336 33 57.5187 33.0271 57.4146 33.0792C57.3104 33.1313 57.2199 33.2069 57.15 33.3L55.5 35.4975L53.85 33.3C53.7801 33.2069 53.6896 33.1313 53.5854 33.0792C53.4813 33.0271 53.3664 33 53.25 33H49.5V19.5H61.5V33Z" fill="#F64A00"/>
<path d="M51 21H60V22.5H51V21Z" fill="#F64A00"/>
<path d="M51 24H60V25.5H51V24Z" fill="#F64A00"/>
<path d="M51 27H60V28.5H51V27Z" fill="#F64A00"/>
<path d="M51 30H52.5V31.5H51V30Z" fill="#F64A00"/>
<path d="M54 30H57V31.5H54V30Z" fill="#F64A00"/>
<path d="M58.5 30H60V31.5H58.5V30Z" fill="#F64A00"/>
</svg>
