<svg width="85" height="85" viewBox="0 0 85 85" fill="none" xmlns="http://www.w3.org/2000/svg">
<rect x="10" y="10" width="75" height="75" fill="#F64A00"/>
<rect width="80" height="80" fill="white"/>
<path d="M59.3548 41.9587V26.7768C61.977 26.399 64 24.1437 64 21.4194C64 18.4317 61.569 16 58.5806 16C55.5923 16 53.1613 18.4317 53.1613 21.4194H16V52.3871H39.2653C39.6679 58.8563 45.0446 64 51.6129 64C58.4428 64 64 58.4428 64 51.6129C64 47.7117 62.183 44.231 59.3548 41.9587ZM58.5806 17.5484C60.7151 17.5484 62.4516 19.2849 62.4516 21.4194C62.4516 23.5538 60.7151 25.2903 58.5806 25.2903C56.4462 25.2903 54.7097 23.5538 54.7097 21.4194C54.7097 19.2849 56.4462 17.5484 58.5806 17.5484ZM17.5484 22.9677H53.3897C53.5747 23.5855 53.8689 24.1546 54.2467 24.6594L49.5117 29.3943C49.2083 29.2488 48.8738 29.1613 48.5161 29.1613C48.1585 29.1613 47.824 29.2488 47.5213 29.3943L45.9613 27.8343C46.1061 27.5308 46.1935 27.1964 46.1935 26.8387C46.1935 25.5582 45.1515 24.5161 43.871 24.5161C42.5905 24.5161 41.5484 25.5582 41.5484 26.8387C41.5484 27.1964 41.6359 27.5308 41.7814 27.8335L37.8988 31.7161C37.5954 31.5714 37.2609 31.4839 36.9032 31.4839C35.6227 31.4839 34.5806 32.5259 34.5806 33.8065C34.5806 35.087 35.6227 36.129 36.9032 36.129C38.1837 36.129 39.2258 35.087 39.2258 33.8065C39.2258 33.4488 39.1383 33.1143 38.9928 32.8116L42.8754 28.929C43.1788 29.0738 43.5133 29.1613 43.871 29.1613C44.2286 29.1613 44.5631 29.0738 44.8658 28.9283L46.4258 30.4883C46.281 30.7917 46.1935 31.1262 46.1935 31.4839C46.1935 32.7644 47.2356 33.8065 48.5161 33.8065C49.7966 33.8065 50.8387 32.7644 50.8387 31.4839C50.8387 31.1262 50.7512 30.7917 50.6057 30.489L55.3414 25.7541C56.0498 26.2852 56.8906 26.6452 57.8064 26.7775V40.9027C55.9817 39.8428 53.8704 39.2258 51.6129 39.2258C47.9123 39.2258 44.5941 40.8655 42.3226 43.4475V40H37.6774V49.2903H39.4519C39.3559 49.7959 39.2978 50.3138 39.2653 50.8387H17.5484V22.9677ZM48.5161 30.7097C48.9427 30.7097 49.2903 31.0565 49.2903 31.4839C49.2903 31.9112 48.9427 32.2581 48.5161 32.2581C48.0895 32.2581 47.7419 31.9112 47.7419 31.4839C47.7419 31.0565 48.0895 30.7097 48.5161 30.7097ZM43.0968 26.8387C43.0968 26.4114 43.4444 26.0645 43.871 26.0645C44.2975 26.0645 44.6452 26.4114 44.6452 26.8387C44.6452 27.2661 44.2975 27.6129 43.871 27.6129C43.4444 27.6129 43.0968 27.2661 43.0968 26.8387ZM37.6774 33.8065C37.6774 34.2338 37.3298 34.5806 36.9032 34.5806C36.4766 34.5806 36.129 34.2338 36.129 33.8065C36.129 33.3791 36.4766 33.0323 36.9032 33.0323C37.3298 33.0323 37.6774 33.3791 37.6774 33.8065ZM51.6129 57.8064C48.1979 57.8064 45.4194 55.0279 45.4194 51.6129C45.4194 48.1979 48.1979 45.4194 51.6129 45.4194C55.0279 45.4194 57.8064 48.1979 57.8064 51.6129C57.8064 55.0279 55.0279 57.8064 51.6129 57.8064ZM40.7742 45.6292C40.4034 46.2981 40.0968 47.0049 39.8537 47.7419H39.2258V41.5484H40.7742V45.6292ZM50.8387 40.8137V43.9104C46.9321 44.3006 43.871 47.6057 43.871 51.6129C43.871 52.7455 44.1218 53.8194 44.5608 54.7902L41.8751 56.3409C41.1768 54.9102 40.7742 53.3092 40.7742 51.6129C40.7742 45.8978 45.2235 41.2132 50.8387 40.8137ZM51.6129 62.4516C47.8859 62.4516 44.5925 60.5603 42.6415 57.6865L45.3381 56.1295C46.7455 58.079 49.0302 59.3548 51.6129 59.3548C54.1956 59.3548 56.4803 58.079 57.8877 56.1295L60.5843 57.6865C58.6333 60.5603 55.3399 62.4516 51.6129 62.4516ZM61.3507 56.3409L58.665 54.7902C59.104 53.8194 59.3548 52.7455 59.3548 51.6129C59.3548 47.6057 56.2937 44.2999 52.3871 43.9104V40.8137C58.0023 41.2132 62.4516 45.8978 62.4516 51.6129C62.4516 53.3092 62.049 54.9102 61.3507 56.3409Z" fill="#F64A00"/>
<path d="M51.6129 46.9677C49.0511 46.9677 46.9677 49.0511 46.9677 51.6129C46.9677 54.1747 49.0511 56.2581 51.6129 56.2581C54.1747 56.2581 56.2581 54.1747 56.2581 51.6129C56.2581 49.0511 54.1747 46.9677 51.6129 46.9677ZM51.6129 54.7097C49.905 54.7097 48.5161 53.3208 48.5161 51.6129C48.5161 49.905 49.905 48.5161 51.6129 48.5161C53.3208 48.5161 54.7097 49.905 54.7097 51.6129C54.7097 53.3208 53.3208 54.7097 51.6129 54.7097Z" fill="#F64A00"/>
<path d="M19.0968 24.5161H20.6452V26.0645H19.0968V24.5161Z" fill="#F64A00"/>
<path d="M22.1935 24.5161H33.0323V26.0645H22.1935V24.5161Z" fill="#F64A00"/>
<path d="M19.0968 27.6129H20.6452V29.1613H19.0968V27.6129Z" fill="#F64A00"/>
<path d="M22.1935 27.6129H33.0323V29.1613H22.1935V27.6129Z" fill="#F64A00"/>
<path d="M19.0968 30.7097H20.6452V32.2581H19.0968V30.7097Z" fill="#F64A00"/>
<path d="M22.1935 30.7097H33.0323V32.2581H22.1935V30.7097Z" fill="#F64A00"/>
<path d="M19.0968 33.8065H20.6452V35.3548H19.0968V33.8065Z" fill="#F64A00"/>
<path d="M22.1935 33.8065H33.0323V35.3548H22.1935V33.8065Z" fill="#F64A00"/>
<path d="M19.0968 49.2903H23.7419V41.5484H19.0968V49.2903ZM20.6452 43.0968H22.1935V47.7419H20.6452V43.0968Z" fill="#F64A00"/>
<path d="M25.2903 49.2903H29.9355V43.0968H25.2903V49.2903ZM26.8387 44.6452H28.3871V47.7419H26.8387V44.6452Z" fill="#F64A00"/>
<path d="M31.4839 49.2903H36.129V36.9032H31.4839V49.2903ZM33.0323 38.4516H34.5806V47.7419H33.0323V38.4516Z" fill="#F64A00"/>
</svg>
