<svg width="85" height="85" viewBox="0 0 85 85" fill="none" xmlns="http://www.w3.org/2000/svg">
<rect width="85" height="85" rx="42.5" fill="#FFEEEA"/>
<path d="M39.9721 58.1692C39.7753 57.1819 39.3694 56.2484 38.7817 55.4317C38.1941 54.6149 37.4383 53.9339 36.5655 53.4346C35.7264 52.9572 34.8287 52.5917 33.895 52.3474C34.7273 51.7216 35.3419 50.8494 35.6518 49.8543C35.9617 48.8593 35.9512 47.7918 35.6219 46.803C35.2925 45.8143 34.6609 44.9544 33.8165 44.345C32.9722 43.7357 31.9578 43.4078 30.9171 43.4078C29.8763 43.4078 28.862 43.7357 28.0176 44.345C27.1732 44.9544 26.5416 45.8143 26.2123 46.803C25.8829 47.7918 25.8724 48.8593 26.1823 49.8543C26.4922 50.8494 27.1068 51.7216 27.9391 52.3474C27.0062 52.5919 26.1091 52.9574 25.2707 53.4346C24.398 53.9339 23.6424 54.6148 23.0547 55.4314C22.4671 56.248 22.0611 57.1813 21.8641 58.1684L21.0139 62.4354C20.981 62.5996 21.0071 62.7701 21.0876 62.9168C21.1681 63.0636 21.2978 63.1771 21.4539 63.2373C27.5459 65.5876 34.2925 65.5876 40.3845 63.2373C40.5405 63.1771 40.6703 63.0636 40.7508 62.9168C40.8313 62.7701 40.8574 62.5996 40.8245 62.4354L39.9721 58.1692ZM27.3765 48.3849C27.3765 47.6831 27.5843 46.9971 27.9736 46.4137C28.3628 45.8302 28.9161 45.3754 29.5635 45.1069C30.2108 44.8383 30.9231 44.768 31.6103 44.9049C32.2975 45.0419 32.9288 45.3798 33.4242 45.876C33.9197 46.3722 34.2571 47.0044 34.3938 47.6927C34.5305 48.3809 34.4603 49.0944 34.1922 49.7427C33.9241 50.391 33.47 50.9452 32.8874 51.335C32.3048 51.7249 31.6199 51.933 30.9192 51.933C29.98 51.9319 29.0795 51.5577 28.4154 50.8925C27.7512 50.2274 27.3776 49.3256 27.3765 48.3849ZM22.5209 62.1225L23.2557 58.4466C23.4128 57.6585 23.737 56.9133 24.2062 56.2613C24.6754 55.6093 25.2789 55.0657 25.9757 54.6672C27.4865 53.8214 29.1884 53.3774 30.9192 53.3774C32.6499 53.3774 34.3519 53.8214 35.8626 54.6672C36.5596 55.0657 37.1631 55.6094 37.6324 56.2615C38.1016 56.9137 38.4257 57.659 38.5827 58.4473L39.3175 62.1225C33.8875 64.0704 27.9509 64.0704 22.5209 62.1225Z" fill="#FA360A"/>
<path d="M64.9147 62.4354L64.0645 58.1663C63.8676 57.1791 63.4617 56.2456 62.874 55.4288C62.2864 54.6121 61.5306 53.9311 60.6578 53.4317C59.818 52.9552 58.9195 52.5906 57.9852 52.3474C58.8175 51.7216 59.4321 50.8494 59.742 49.8543C60.0519 48.8593 60.0414 47.7918 59.7121 46.803C59.3827 45.8143 58.7511 44.9544 57.9067 44.345C57.0624 43.7357 56.048 43.4078 55.0073 43.4078C53.9665 43.4078 52.9522 43.7357 52.1078 44.345C51.2634 44.9544 50.6318 45.8143 50.3025 46.803C49.9731 47.7918 49.9626 48.8593 50.2725 49.8543C50.5824 50.8494 51.197 51.7216 52.0293 52.3474C51.0964 52.5919 50.1993 52.9574 49.3609 53.4346C48.4882 53.9339 47.7326 54.6148 47.1449 55.4314C46.5573 56.248 46.1513 57.1813 45.9543 58.1684L45.1041 62.4354C45.0712 62.5996 45.0973 62.7701 45.1778 62.9168C45.2583 63.0636 45.3881 63.1771 45.5441 63.2373C51.6361 65.5876 58.3827 65.5876 64.4747 63.2373C64.6307 63.1771 64.7605 63.0636 64.841 62.9168C64.9215 62.7701 64.9476 62.5996 64.9147 62.4354ZM51.4667 48.3849C51.4667 47.6831 51.6745 46.9971 52.0638 46.4137C52.453 45.8302 53.0063 45.3754 53.6537 45.1069C54.301 44.8383 55.0133 44.768 55.7005 44.9049C56.3877 45.0419 57.019 45.3798 57.5144 45.876C58.0099 46.3722 58.3473 47.0044 58.484 47.6927C58.6207 48.3809 58.5505 49.0944 58.2824 49.7427C58.0143 50.391 57.5602 50.9452 56.9776 51.335C56.395 51.7249 55.7101 51.933 55.0094 51.933C54.0702 51.9319 53.1697 51.5577 52.5056 50.8925C51.8414 50.2274 51.4678 49.3256 51.4667 48.3849ZM46.6111 62.1225L47.3459 58.4466C47.503 57.6585 47.8272 56.9133 48.2964 56.2613C48.7656 55.6093 49.3691 55.0657 50.0659 54.6672C51.5767 53.8214 53.2786 53.3774 55.0094 53.3774C56.7402 53.3774 58.4421 53.8214 59.9528 54.6672C60.6498 55.0657 61.2533 55.6094 61.7226 56.2615C62.1918 56.9137 62.5159 57.659 62.6729 58.4473L63.4077 62.1225C57.9777 64.0704 52.0411 64.0704 46.6111 62.1225Z" fill="#FA360A"/>
<path d="M27.3765 35.6117H30.9192V39.1598C30.9192 39.2916 30.9558 39.4208 31.025 39.5329C31.0942 39.645 31.1932 39.7356 31.3109 39.7945C31.4285 39.8534 31.5603 39.8784 31.6914 39.8666C31.8224 39.8547 31.9476 39.8066 32.0528 39.7275L37.5319 35.6117H50.0496C50.2376 35.6117 50.4178 35.5369 50.5506 35.4038C50.6835 35.2708 50.7582 35.0903 50.7582 34.9021V20.7096C50.7582 20.5214 50.6835 20.3409 50.5506 20.2078C50.4178 20.0748 50.2376 20 50.0496 20H27.3765C27.1886 20 27.0084 20.0748 26.8755 20.2078C26.7426 20.3409 26.668 20.5214 26.668 20.7096V34.9021C26.668 35.0903 26.7426 35.2708 26.8755 35.4038C27.0084 35.5369 27.1886 35.6117 27.3765 35.6117ZM28.085 21.4192H49.3411V34.1924H37.296C37.1427 34.1924 36.9935 34.2422 36.8709 34.3344L32.3363 37.7406V34.9021C32.3363 34.7139 32.2616 34.5334 32.1287 34.4003C31.9959 34.2672 31.8156 34.1924 31.6277 34.1924H28.085V21.4192Z" fill="#FA360A"/>
<path d="M56.6744 42.5369C56.7773 42.625 56.9033 42.6818 57.0374 42.7005C57.1715 42.7192 57.3081 42.699 57.4311 42.6423C57.5541 42.5856 57.6583 42.4949 57.7314 42.3807C57.8045 42.2666 57.8434 42.1339 57.8435 41.9983V38.4502H60.6777C60.8656 38.4502 61.0458 38.3754 61.1787 38.2423C61.3116 38.1093 61.3862 37.9288 61.3862 37.7406V24.2577C61.3862 24.0695 61.3116 23.889 61.1787 23.756C61.0458 23.6229 60.8656 23.5481 60.6777 23.5481H54.3008C54.1129 23.5481 53.9327 23.6229 53.7998 23.756C53.667 23.889 53.5923 24.0695 53.5923 24.2577C53.5923 24.4459 53.667 24.6264 53.7998 24.7595C53.9327 24.8926 54.1129 24.9674 54.3008 24.9674H59.9691V37.0309H57.135C56.9471 37.0309 56.7669 37.1057 56.634 37.2388C56.5011 37.3719 56.4265 37.5523 56.4265 37.7406V40.4556L52.6358 37.2019C52.5077 37.0914 52.3443 37.0307 52.1752 37.0309H41.5472C41.3593 37.0309 41.1791 37.1057 41.0462 37.2388C40.9133 37.3719 40.8387 37.5523 40.8387 37.7406C40.8387 37.9288 40.9133 38.1093 41.0462 38.2423C41.1791 38.3754 41.3593 38.4502 41.5472 38.4502H51.9131L56.6744 42.5369Z" fill="#FA360A"/>
<path d="M34.4619 29.9347C34.6498 29.9347 34.83 29.8599 34.9629 29.7269C35.0957 29.5938 35.1704 29.4133 35.1704 29.2251V26.3866C35.1704 26.1984 35.0957 26.0179 34.9629 25.8848C34.83 25.7517 34.6498 25.677 34.4619 25.677H31.6277C31.4398 25.677 31.2596 25.7517 31.1267 25.8848C30.9938 26.0179 30.9192 26.1984 30.9192 26.3866V29.2251C30.9192 29.4133 30.9938 29.5938 31.1267 29.7269C31.2596 29.8599 31.4398 29.9347 31.6277 29.9347H34.4619ZM32.3363 27.0962H33.7533V28.5155H32.3363V27.0962Z" fill="#FA360A"/>
<path d="M42.9643 29.9347H45.7984C45.9863 29.9347 46.1666 29.8599 46.2994 29.7269C46.4323 29.5938 46.507 29.4133 46.507 29.2251V26.3866C46.507 26.1984 46.4323 26.0179 46.2994 25.8848C46.1666 25.7517 45.9863 25.677 45.7984 25.677H42.9643C42.7764 25.677 42.5962 25.7517 42.4633 25.8848C42.3304 26.0179 42.2558 26.1984 42.2558 26.3866V29.2251C42.2558 29.4133 42.3304 29.5938 42.4633 29.7269C42.5962 29.8599 42.7764 29.9347 42.9643 29.9347ZM43.6728 27.0962H45.0899V28.5155H43.6728V27.0962Z" fill="#FA360A"/>
<path d="M37.296 29.9347H40.1301C40.3181 29.9347 40.4983 29.8599 40.6312 29.7269C40.764 29.5938 40.8387 29.4133 40.8387 29.2251V26.3866C40.8387 26.1984 40.764 26.0179 40.6312 25.8848C40.4983 25.7517 40.3181 25.677 40.1301 25.677H37.296C37.1081 25.677 36.9279 25.7517 36.795 25.8848C36.6621 26.0179 36.5875 26.1984 36.5875 26.3866V29.2251C36.5875 29.4133 36.6621 29.5938 36.795 29.7269C36.9279 29.8599 37.1081 29.9347 37.296 29.9347ZM38.0045 27.0962H39.4216V28.5155H38.0045V27.0962Z" fill="#FA360A"/>
</svg>
