<svg width="172" height="171" viewBox="0 0 172 171" fill="none" xmlns="http://www.w3.org/2000/svg">
<path d="M106.34 32.8864C112.588 32.2298 118.547 35.6706 121.102 41.4093L142.121 88.6185C144.676 94.3572 143.246 101.088 138.577 105.292L100.174 139.87C95.5057 144.074 88.6617 144.793 83.2216 141.652L38.4681 115.814C33.0279 112.673 30.2289 106.386 31.5349 100.242L42.2791 49.694C43.5852 43.5495 48.6993 38.9448 54.9466 38.2881L106.34 32.8864Z" fill="white" stroke="#E8E8E8"/>
<path d="M85.0022 91.6704C85.0022 91.0112 84.8068 90.3669 84.4406 89.8188C84.0744 89.2708 83.5539 88.8436 82.9449 88.5914C82.3359 88.3391 81.6658 88.2731 81.0194 88.4017C80.3729 88.5303 79.7791 88.8477 79.313 89.3138C78.8469 89.7799 78.5295 90.3737 78.4009 91.0202C78.2723 91.6667 78.3383 92.3368 78.5905 92.9457C78.8428 93.5547 79.2699 94.0752 79.818 94.4414C80.3661 94.8076 81.0104 95.0031 81.6695 95.0031C82.5534 95.0031 83.4011 94.6519 84.0261 94.0269C84.6511 93.4019 85.0022 92.5543 85.0022 91.6704ZM80.0032 91.6704C80.0032 91.3408 80.1009 91.0186 80.284 90.7446C80.4671 90.4706 80.7274 90.257 81.0319 90.1309C81.3363 90.0047 81.6714 89.9718 81.9946 90.036C82.3179 90.1003 82.6148 90.259 82.8478 90.4921C83.0809 90.7251 83.2396 91.022 83.3039 91.3453C83.3682 91.6685 83.3352 92.0036 83.209 92.3081C83.0829 92.6125 82.8693 92.8728 82.5953 93.0559C82.3213 93.239 81.9991 93.3367 81.6695 93.3367C81.2276 93.3367 80.8038 93.1612 80.4913 92.8487C80.1788 92.5362 80.0032 92.1123 80.0032 91.6704Z" fill="#B00F0F"/>
<path d="M77.5037 93.3367C77.5037 92.6776 77.3082 92.0332 76.942 91.4852C76.5758 90.9371 76.0553 90.51 75.4463 90.2577C74.8374 90.0055 74.1673 89.9395 73.5208 90.0681C72.8743 90.1967 72.2805 90.5141 71.8144 90.9802C71.3483 91.4462 71.0309 92.0401 70.9023 92.6865C70.7737 93.333 70.8397 94.0031 71.092 94.6121C71.3442 95.2211 71.7714 95.7416 72.3194 96.1078C72.8675 96.474 73.5118 96.6694 74.171 96.6694C75.0549 96.6694 75.9025 96.3183 76.5275 95.6933C77.1525 95.0683 77.5037 94.2206 77.5037 93.3367ZM72.5046 93.3367C72.5046 93.0072 72.6024 92.685 72.7855 92.4109C72.9686 92.1369 73.2288 91.9233 73.5333 91.7972C73.8378 91.6711 74.1728 91.6381 74.4961 91.7024C74.8193 91.7667 75.1162 91.9254 75.3493 92.1584C75.5823 92.3915 75.741 92.6884 75.8053 93.0116C75.8696 93.3349 75.8366 93.6699 75.7105 93.9744C75.5844 94.2789 75.3708 94.5391 75.0968 94.7222C74.8227 94.9053 74.5006 95.0031 74.171 95.0031C73.729 95.0031 73.3052 94.8275 72.9927 94.515C72.6802 94.2025 72.5046 93.7787 72.5046 93.3367Z" fill="#B00F0F"/>
<path d="M66.6724 98.3358C67.3316 98.3358 67.9759 98.1403 68.524 97.7741C69.072 97.4079 69.4992 96.8874 69.7514 96.2784C70.0037 95.6695 70.0697 94.9994 69.9411 94.3529C69.8125 93.7064 69.4951 93.1126 69.029 92.6465C68.5629 92.1804 67.9691 91.863 67.3226 91.7344C66.6761 91.6058 66.006 91.6718 65.397 91.9241C64.7881 92.1763 64.2676 92.6035 63.9014 93.1515C63.5352 93.6996 63.3397 94.3439 63.3397 95.0031C63.3397 95.887 63.6908 96.7346 64.3158 97.3596C64.9408 97.9846 65.7885 98.3358 66.6724 98.3358ZM66.6724 93.3367C67.002 93.3367 67.3242 93.4345 67.5982 93.6176C67.8722 93.8007 68.0858 94.0609 68.2119 94.3654C68.338 94.6699 68.371 95.0049 68.3067 95.3282C68.2424 95.6514 68.0837 95.9483 67.8507 96.1814C67.6177 96.4144 67.3207 96.5731 66.9975 96.6374C66.6743 96.7017 66.3392 96.6687 66.0347 96.5426C65.7302 96.4165 65.47 96.2029 65.2869 95.9288C65.1038 95.6548 65.0061 95.3326 65.0061 95.0031C65.0061 94.5611 65.1816 94.1373 65.4941 93.8248C65.8066 93.5123 66.2305 93.3367 66.6724 93.3367Z" fill="#B00F0F"/>
<path d="M101.666 84.1718C101.666 83.1831 101.373 82.2166 100.823 81.3945C100.274 80.5724 99.4932 79.9317 98.5797 79.5533C97.6663 79.1749 96.6611 79.0759 95.6914 79.2688C94.7217 79.4617 93.8309 79.9378 93.1318 80.637C92.4327 81.3361 91.9566 82.2268 91.7637 83.1965C91.5708 84.1663 91.6698 85.1714 92.0482 86.0849C92.4265 86.9983 93.0673 87.7791 93.8894 88.3284C94.7114 88.8777 95.678 89.1709 96.6667 89.1709C97.9925 89.1709 99.264 88.6442 100.202 87.7067C101.139 86.7692 101.666 85.4976 101.666 84.1718ZM93.334 84.1718C93.334 83.5127 93.5294 82.8683 93.8956 82.3203C94.2618 81.7722 94.7823 81.345 95.3913 81.0928C96.0003 80.8406 96.6704 80.7746 97.3169 80.9032C97.9633 81.0317 98.5572 81.3492 99.0232 81.8152C99.4893 82.2813 99.8067 82.8752 99.9353 83.5216C100.064 84.1681 99.9979 84.8382 99.7457 85.4472C99.4934 86.0562 99.0663 86.5766 98.5182 86.9428C97.9702 87.309 97.3258 87.5045 96.6667 87.5045C95.7828 87.5045 94.9351 87.1534 94.3101 86.5284C93.6851 85.9034 93.334 85.0557 93.334 84.1718Z" fill="#B00F0F"/>
<path d="M107.39 76.7564L104.757 60.7094C104.74 60.6011 104.703 60.4969 104.646 60.4031C104.59 60.3092 104.515 60.2274 104.427 60.1624C104.339 60.0974 104.239 60.0504 104.132 60.0242C104.026 59.998 103.915 59.993 103.807 60.0096L82.3777 63.2839C82.2686 63.3003 82.1637 63.3382 82.0693 63.3954C81.9749 63.4526 81.8928 63.528 81.8278 63.6172C81.7641 63.7069 81.7188 63.8082 81.6945 63.9155C81.6702 64.0227 81.6674 64.1337 81.6862 64.2421L82.1861 67.2665L66.5391 69.8577C66.3755 69.8853 66.2239 69.9612 66.1037 70.0755C65.9835 70.1898 65.9002 70.3374 65.8644 70.4994C65.8286 70.6614 65.8419 70.8304 65.9028 70.9847C65.9636 71.1391 66.0691 71.2717 66.2058 71.3657L74.171 76.8313L68.5137 84.5465C68.4325 84.6695 68.3854 84.8118 68.3771 84.9589C68.3689 85.106 68.3998 85.2527 68.4667 85.384C68.5336 85.5152 68.6341 85.6264 68.758 85.7062C68.8819 85.7859 69.0247 85.8314 69.1719 85.838H69.3052L89.1681 82.5969C89.2779 82.5795 89.3831 82.5404 89.4776 82.4817C89.572 82.423 89.6538 82.3461 89.718 82.2553C89.7802 82.165 89.824 82.0634 89.8469 81.9562C89.8698 81.8489 89.8713 81.7382 89.8513 81.6304L89.418 79.1726L105.59 76.0982L105.707 76.823C105.022 77.0286 104.421 77.449 103.994 78.0221C103.566 78.5952 103.334 79.2907 103.332 80.0057V85.0048C103.332 88.6957 102.241 90.837 96.6167 90.837C90.5678 91.2119 85.7854 94.078 85.0939 97.5024C84.0403 96.9419 82.8628 96.6554 81.6695 96.6692C80.7363 96.6483 79.8091 96.8237 78.9479 97.1839C78.0867 97.5442 77.3108 98.0813 76.6705 98.7605C75.869 98.4723 75.0227 98.3284 74.171 98.3356C73.2377 98.3147 72.3105 98.49 71.4493 98.8503C70.5882 99.2105 69.8123 99.7476 69.1719 100.427C68.3704 100.139 67.5241 99.9947 66.6724 100.002C65.786 99.9603 64.9008 100.104 64.0733 100.425C63.2458 100.745 62.4943 101.234 61.8668 101.862C61.2394 102.489 60.7499 103.241 60.4296 104.068C60.1094 104.896 59.9654 105.781 60.007 106.667V109.167C60.007 109.388 60.0948 109.6 60.251 109.756C60.4073 109.912 60.6192 110 60.8402 110H88.3349C88.7781 109.995 89.2158 109.902 89.6231 109.727C90.0304 109.553 90.3993 109.3 90.7088 108.982C91.0183 108.665 91.2623 108.29 91.4268 107.879C91.5913 107.467 91.6731 107.027 91.6676 106.584V106.342C96.35 104.009 102.299 102.501 104.165 102.501C104.386 102.501 104.598 102.414 104.754 102.257C104.911 102.101 104.998 101.889 104.998 101.668V95.7694C108.006 93.6948 109.997 90.7703 109.997 88.3375V80.0057C109.997 79.2484 109.738 78.5139 109.264 77.9233C108.79 77.3327 108.129 76.9211 107.39 76.7564ZM88.06 81.0889L71.0882 83.8883L76.0456 77.123C76.1118 77.0329 76.1592 76.9304 76.185 76.8216C76.2107 76.7128 76.2143 76.6 76.1956 76.4897C76.1751 76.3801 76.1329 76.2757 76.0714 76.1826C76.0098 76.0896 75.9302 76.0099 75.8373 75.9482L68.8553 71.1658L82.4527 68.9162L84.169 79.3059C84.1874 79.4163 84.2279 79.522 84.288 79.6165C84.3481 79.7109 84.4267 79.7923 84.519 79.8558C84.6606 79.9546 84.8295 80.0071 85.0022 80.0057H85.1605L87.785 79.5058L88.06 81.0889ZM85.6854 78.1978L83.4608 64.8086L103.249 61.7926L105.323 74.4568L85.6854 78.1978ZM74.171 100.002C74.6829 100.003 75.1926 100.07 75.6873 100.202C75.2251 101.181 74.9914 102.252 75.0041 103.335V108.334H69.1719V105.001C69.1392 103.902 69.4605 102.821 70.0884 101.918C70.568 101.298 71.1884 100.8 71.8983 100.467C72.6082 100.134 73.3872 99.9744 74.171 100.002ZM61.6733 106.667C61.6359 106.001 61.7396 105.334 61.9776 104.711C62.2156 104.087 62.5825 103.521 63.0544 103.049C63.5263 102.577 64.0925 102.211 64.716 101.973C65.3394 101.735 66.0061 101.631 66.6724 101.668C67.1843 101.669 67.694 101.737 68.1888 101.868C67.7265 102.847 67.4929 103.918 67.5056 105.001V108.334H61.6733V106.667ZM76.6705 103.335C76.6378 102.235 76.9591 101.155 77.587 100.252C78.0665 99.6314 78.6869 99.1339 79.3968 98.8007C80.1067 98.4675 80.8858 98.3081 81.6695 98.3356C82.8808 98.3169 84.0602 98.7238 85.0022 99.4853V106.584C85.005 107.2 85.1718 107.804 85.4855 108.334H76.6705V103.335ZM108.331 88.3375C108.331 90.2788 106.431 92.8616 103.715 94.6196C103.598 94.6949 103.501 94.7984 103.434 94.9207C103.367 95.0429 103.332 95.1801 103.332 95.3195V100.835C99.2884 101.47 95.3589 102.691 91.6676 104.459V98.3356H90.0013V106.584C90.0013 107.026 89.8257 107.45 89.5132 107.762C89.2007 108.075 88.7769 108.25 88.3349 108.25C87.893 108.25 87.4691 108.075 87.1566 107.762C86.8441 107.45 86.6686 107.026 86.6686 106.584V98.3356C86.6686 95.5194 91.2677 92.8616 96.6667 92.5033C104.007 92.5033 104.998 88.7124 104.998 85.0048V80.0057C104.998 79.5638 105.174 79.14 105.486 78.8275C105.799 78.515 106.223 78.3394 106.665 78.3394C107.107 78.3394 107.531 78.515 107.843 78.8275C108.156 79.14 108.331 79.5638 108.331 80.0057V88.3375Z" fill="#B00F0F"/>
</svg>
