<svg width="172" height="171" viewBox="0 0 172 171" fill="none" xmlns="http://www.w3.org/2000/svg">
<path d="M106.34 32.8864C112.588 32.2298 118.547 35.6706 121.102 41.4093L142.121 88.6185C144.676 94.3572 143.246 101.088 138.577 105.292L100.174 139.87C95.5057 144.074 88.6617 144.793 83.2216 141.652L38.4681 115.814C33.0279 112.673 30.2289 106.386 31.5349 100.242L42.2791 49.694C43.5852 43.5495 48.6993 38.9448 54.9466 38.2881L106.34 32.8864Z" fill="white" stroke="#E8E8E8"/>
<path d="M95.4117 98.6535L97.0782 97.7276C97.5245 97.4796 97.8899 97.1083 98.1307 96.6581C98.3716 96.2078 98.4776 95.6977 98.4361 95.1888C98.3946 94.6799 98.2073 94.1937 97.8968 93.7884C97.5862 93.3831 97.1655 93.0759 96.6849 92.9036C96.8863 92.2495 96.8279 91.543 96.5219 90.9308C96.2158 90.3187 95.6857 89.848 95.0417 89.6167C95.2431 88.9626 95.1847 88.2561 94.8787 87.6439C94.5727 87.0318 94.0426 86.5611 93.3986 86.3298C93.5822 85.7339 93.5506 85.0923 93.3092 84.5174C93.0678 83.9424 92.632 83.4706 92.078 83.1845C92.3722 82.2754 92.3374 81.2918 91.9797 80.4058L91.5839 79.416C91.5035 79.2159 91.3476 79.0554 91.1499 78.9693L109.464 61.415C109.586 61.2984 109.669 61.1472 109.702 60.9819C109.734 60.8167 109.716 60.6453 109.648 60.491C109.58 60.3367 109.466 60.207 109.322 60.1195C109.178 60.032 109.011 59.9909 108.843 60.0017L83.6671 61.6262C83.3645 61.0823 82.8707 60.6701 82.2815 60.4695C81.6923 60.2689 81.0496 60.2943 80.478 60.5406C79.9064 60.7869 79.4466 61.2367 79.1877 61.8028C78.9288 62.3689 78.8892 63.0109 79.0766 63.6045L84.7706 81.6385L78.8836 84.3863C78.5419 84.547 78.2415 84.7836 78.0051 85.078C77.7688 85.3725 77.6028 85.717 77.5198 86.0854L76.1288 92.3459L60 102.025L60.8453 103.434L77.2769 93.5734C77.3725 93.516 77.4555 93.4398 77.5207 93.3493C77.5859 93.2588 77.6321 93.1559 77.6563 93.047L79.1238 86.4419C79.1515 86.3191 79.2068 86.2043 79.2856 86.1061C79.3644 86.008 79.4645 85.9291 79.5784 85.8755L90.381 80.8335L90.4541 81.0161C90.576 81.3209 90.6358 81.6469 90.63 81.9751C90.6242 82.3033 90.553 82.6271 90.4204 82.9274C90.2879 83.2276 90.0967 83.4984 89.8581 83.7238C89.6195 83.9492 89.3383 84.1247 89.031 84.2399L85.6031 85.5257C85.4098 85.5982 85.2509 85.7408 85.1579 85.9252C85.065 86.1096 85.0449 86.3223 85.1016 86.5208C85.5226 87.9851 85.4391 89.5485 84.8646 90.9597C84.2901 92.3709 83.258 93.5479 81.934 94.3016L81.3761 94.6204L82.1913 96.0474L82.7492 95.7285C84.1147 94.9504 85.2358 93.8062 85.9862 92.4251C86.2956 92.9992 86.8073 93.4378 87.422 93.6557C87.2206 94.3098 87.279 95.0163 87.585 95.6285C87.891 96.2406 88.4211 96.7113 89.0651 96.9426C88.9182 97.4223 88.9093 97.9338 89.0397 98.4184C89.17 98.9029 89.4343 99.3409 89.8021 99.6822L89.136 100.126C89.0011 100.216 88.8426 100.264 88.6804 100.264H82.6053C82.4513 100.264 82.3004 100.308 82.1698 100.389L69.0246 108.606L69.8955 110L82.8409 101.908H88.6804C89.1671 101.908 89.6429 101.764 90.0476 101.494L90.867 100.947L92.8449 107.212C93.0459 107.847 93.4907 108.376 94.0817 108.683C94.6727 108.991 95.3614 109.05 95.9965 108.85C96.6316 108.649 97.1611 108.205 97.4685 107.614C97.776 107.023 97.8363 106.334 97.6361 105.699L95.4117 98.6535ZM86.2724 80.9376L80.6435 63.1096C80.6078 62.9965 80.5956 62.8773 80.6077 62.7594C80.6198 62.6414 80.6559 62.5271 80.7138 62.4236C80.7716 62.3201 80.8501 62.2296 80.9443 62.1575C81.0385 62.0855 81.1464 62.0335 81.2614 62.0047C81.4761 61.9514 81.7031 61.9819 81.8961 62.0899C82.0892 62.1979 82.2339 62.3754 82.3008 62.5862L87.8609 80.1961L86.2724 80.9376ZM89.0987 78.659L84.2294 63.2368L106.702 61.7868L89.0987 78.659ZM86.9982 88.8278C87.0325 88.152 86.9854 87.4746 86.8581 86.8101L89.608 85.7786C90.2524 85.5389 90.8258 85.1402 91.2751 84.6197C91.4465 84.697 91.593 84.8204 91.6982 84.9762C91.8035 85.1319 91.8634 85.3139 91.8712 85.5017C91.8791 85.6896 91.8345 85.8759 91.7426 86.0399C91.6507 86.2039 91.515 86.339 91.3506 86.4303L91.2135 86.5065L91.2111 86.5078L87.1675 88.7546C87.1134 88.784 87.0567 88.8085 86.9982 88.8278ZM88.0196 92.1234C87.8298 92.0647 87.6614 91.9515 87.5354 91.7979C87.4094 91.6444 87.3313 91.4571 87.3107 91.2595C87.2902 91.0619 87.3281 90.8626 87.4199 90.6864C87.5116 90.5102 87.6531 90.3648 87.8267 90.2683L87.9643 90.1919L87.9662 90.1909L92.0108 87.9436C92.2459 87.8136 92.523 87.7823 92.7812 87.8565C93.0394 87.9308 93.2576 88.1044 93.3878 88.3394C93.518 88.5744 93.5497 88.8515 93.4758 89.1099C93.402 89.3682 93.2286 89.5866 92.9938 89.7172L92.8567 89.7934L92.8543 89.7947L88.8102 92.0417C88.6909 92.1084 88.5592 92.1501 88.4233 92.1641C88.2873 92.1782 88.15 92.1643 88.0196 92.1234ZM89.6627 95.4103C89.4729 95.3516 89.3046 95.2384 89.1786 95.0848C89.0525 94.9312 88.9744 94.744 88.9539 94.5464C88.9333 94.3488 88.9713 94.1495 89.063 93.9733C89.1548 93.7971 89.2962 93.6517 89.4699 93.5552L89.6075 93.4787L89.6094 93.4777L93.6539 91.2305C93.8891 91.1003 94.1663 91.0689 94.4246 91.143C94.6829 91.2172 94.9012 91.3909 95.0315 91.626C95.1618 91.8611 95.1934 92.1383 95.1194 92.3967C95.0454 92.6552 94.8719 92.8736 94.637 93.0041L94.4999 93.0803L94.4974 93.0815L90.4533 95.3286C90.334 95.3953 90.2024 95.437 90.0664 95.451C89.9305 95.4651 89.7931 95.4512 89.6627 95.4103ZM91.3059 98.6971C91.1161 98.6384 90.9477 98.5253 90.8217 98.3717C90.6957 98.2181 90.6176 98.0309 90.597 97.8333C90.5765 97.6357 90.6144 97.4364 90.7062 97.2602C90.7979 97.0839 90.9394 96.9385 91.1131 96.8421L91.2506 96.7656L91.2526 96.7646L95.2971 94.5173C95.5322 94.3874 95.8093 94.3561 96.0675 94.4303C96.3257 94.5045 96.5439 94.6782 96.6741 94.9132C96.8044 95.1482 96.836 95.4253 96.7621 95.6836C96.6883 95.942 96.5149 96.1604 96.2801 96.291L92.0977 98.6149C91.9783 98.6819 91.8465 98.7237 91.7103 98.7379C91.5741 98.752 91.4365 98.7382 91.3059 98.6971ZM95.999 106.879C95.9415 106.983 95.8631 107.074 95.7689 107.146C95.6746 107.218 95.5665 107.27 95.4512 107.298C95.2365 107.352 95.0096 107.321 94.8165 107.213C94.6234 107.105 94.4787 106.928 94.4118 106.717L92.3768 100.272C92.557 100.217 92.7309 100.143 92.8957 100.051L93.9457 99.4681L96.0692 106.194C96.1054 106.307 96.1178 106.426 96.1057 106.544C96.0936 106.662 96.0573 106.776 95.999 106.879Z" fill="#B00F0F"/>
<path d="M96.2447 80.6036L107.745 75.6723L108.392 77.1827L96.8922 82.114L96.2447 80.6036Z" fill="#B00F0F"/>
<path d="M98.7336 87.0768L99.3234 85.5434L110 89.6523L109.41 91.1856L98.7336 87.0768Z" fill="#B00F0F"/>
<path d="M100.988 95.179L101.997 93.8823L109.388 99.6349L108.379 100.932L100.988 95.179Z" fill="#B00F0F"/>
<path d="M97.5548 100.766L98.8841 99.7993L105.455 108.841L104.126 109.807L97.5548 100.766Z" fill="#B00F0F"/>
<path d="M70.4883 67.1209L71.7091 66.0215L79.1037 74.2354L77.8829 75.3349L70.4883 67.1209Z" fill="#B00F0F"/>
<path d="M63.394 75.554L64.0036 74.0289L76.3209 78.9541L75.7113 80.4792L63.394 75.554Z" fill="#B00F0F"/>
<path d="M60.2716 83.8093L60.574 82.1937L73.721 84.655L73.4186 86.2706L60.2716 83.8093Z" fill="#B00F0F"/>
<path d="M61.8812 92.0655L71.7387 89.5956L72.138 91.1897L62.2805 93.6596L61.8812 92.0655Z" fill="#B00F0F"/>
<path d="M95.7922 69.6417L94.3643 67.6922L95.0294 65.8731C95.0852 65.7205 95.0945 65.5547 95.0561 65.3968C95.0177 65.2389 94.9333 65.0959 94.8137 64.9859C94.694 64.876 94.5445 64.8039 94.3839 64.779C94.2234 64.754 94.059 64.7772 93.9117 64.8457L92.3403 65.5757L90.7777 64.3318C90.6584 64.2367 90.5149 64.1768 90.3634 64.1587C90.2119 64.1406 90.0583 64.1651 89.92 64.2294C89.7816 64.2937 89.6638 64.3952 89.5799 64.5227C89.496 64.6501 89.4493 64.7984 89.4449 64.951L89.3874 66.9476L87.8161 67.6775C87.6687 67.746 87.5449 67.8567 87.4604 67.9955C87.3759 68.1343 87.3345 68.295 87.3413 68.4574C87.3482 68.6198 87.403 68.7765 87.4989 68.9077C87.5948 69.0389 87.7274 69.1388 87.88 69.1946L89.6988 69.8597L90.2673 72.2085C90.3064 72.3703 90.3937 72.5163 90.5176 72.6273C90.6416 72.7384 90.7963 72.8092 90.9613 72.8303C90.996 72.8347 91.031 72.8369 91.066 72.837C91.2145 72.8369 91.3602 72.7966 91.4877 72.7203C91.6151 72.644 91.7195 72.5346 91.7897 72.4037L92.8224 70.4787L94.9593 70.9311C95.1221 70.9656 95.2915 70.9498 95.4451 70.8859C95.5987 70.822 95.7293 70.7129 95.8196 70.5731C95.9098 70.4334 95.9556 70.2695 95.9507 70.1031C95.9458 69.9368 95.8906 69.7759 95.7922 69.6417ZM92.5599 68.7433C92.386 68.7065 92.2048 68.727 92.0436 68.8019C91.8824 68.8768 91.7498 69.002 91.6658 69.1587L91.3584 69.7316L91.1924 69.0457C91.1606 68.9143 91.0968 68.7927 91.0068 68.6918C90.9167 68.5909 90.8031 68.5137 90.6761 68.4673L90.3072 68.3323L90.5401 68.2242C90.6785 68.1599 90.7963 68.0584 90.8802 67.9309C90.9641 67.8035 91.0109 67.6551 91.0153 67.5026L91.0401 66.6411L91.7142 67.1777C91.8336 67.2727 91.9771 67.3327 92.1286 67.3507C92.2801 67.3688 92.4336 67.3444 92.572 67.2801L92.805 67.1718L92.6701 67.5409C92.6236 67.668 92.6092 67.8045 92.6282 67.9385C92.6472 68.0724 92.699 68.1996 92.7789 68.3087L93.1959 68.8779L92.5599 68.7433Z" fill="#B00F0F"/>
</svg>
