<svg width="172" height="171" viewBox="0 0 172 171" fill="none" xmlns="http://www.w3.org/2000/svg">
<path d="M121.102 41.4093L142.121 88.6185C144.676 94.3572 143.246 101.088 138.577 105.292L100.174 139.87C95.5057 144.074 88.6617 144.793 83.2216 141.652L38.4681 115.814C33.0279 112.673 30.2289 106.386 31.5349 100.242L42.2791 49.694C43.5852 43.5495 48.6993 38.9448 54.9466 38.2881L106.34 32.8864C112.588 32.2298 118.547 35.6706 121.102 41.4093Z" fill="white" stroke="#E8E8E8"/>
<path d="M84.9997 60C83.1491 60 81.6648 61.4989 81.6648 63.3299C81.6648 65.161 83.1491 66.6664 84.9997 66.6664C86.8502 66.6664 88.3346 65.161 88.3346 63.3299C88.3346 61.4989 86.8502 60 84.9997 60ZM84.9997 61.6666C85.9105 61.6666 86.668 62.3997 86.668 63.3299C86.668 64.2603 85.9137 64.9998 84.9997 64.9998C84.0856 64.9998 83.3314 64.2603 83.3314 63.3299C83.3314 62.3997 84.0889 61.6666 84.9997 61.6666ZM79.3959 64.9997L68.2372 70.1477C67.2318 70.5895 67.9064 72.1315 68.9354 71.6613L80.0958 66.5134C80.8737 66.1661 80.6718 64.983 79.8012 64.92C79.6613 64.9106 79.5224 64.939 79.3959 64.9997ZM101.064 71.6614C102.093 72.1316 102.768 70.5896 101.762 70.1477L90.6035 64.9998C90.4773 64.9393 90.338 64.9123 90.1982 64.9201C89.3276 64.9831 89.1256 66.1662 89.9037 66.5134L101.064 71.6614ZM82.8155 69.5081C82.1931 69.8095 81.9629 70.2746 81.8259 70.6035C81.6889 70.9323 81.635 71.1182 81.4629 71.3294C81.2907 71.5404 80.9766 71.8102 80.2504 72.1171C79.5215 72.4251 79.0972 72.4686 78.8165 72.4491C78.5359 72.4302 78.3677 72.3452 78.0483 72.2214C77.7288 72.0973 77.2311 71.9382 76.6144 72.1417C76.0573 72.3253 75.5083 72.7678 74.8989 73.3852C74.2379 74.0548 73.8386 74.6075 73.6798 75.1136C73.4871 75.7281 73.6609 76.223 73.7904 76.5393C73.9205 76.8557 74.0071 77.0253 74.0313 77.3026C74.0565 77.5801 74.0187 78.0062 73.7236 78.7365C73.4272 79.4669 73.1594 79.7966 72.9489 79.9783C72.7385 80.1601 72.5581 80.2161 72.2474 80.3478C71.8433 80.5188 71.4389 80.7579 71.1699 81.2771C70.9255 81.7491 70.8255 82.4101 70.833 83.3311C70.8267 84.1772 70.9017 84.8674 71.1699 85.3851C71.4389 85.9042 71.8454 86.1441 72.2474 86.3144C72.5579 86.446 72.7286 86.4989 72.9391 86.6806C73.1495 86.8623 73.4271 87.1953 73.7236 87.9257C74.0146 88.6419 74.0523 89.065 74.0313 89.3416C74.0093 89.6185 73.9286 89.7856 73.8033 90.0854C73.6521 90.4467 73.5113 90.8983 73.6553 91.4509C73.7611 91.8571 73.9759 92.2291 74.3226 92.6504C73.7553 93.5812 73.3094 94.571 72.9993 95.6419C72.3976 94.7527 71.6067 94.0501 70.6687 93.5358C71.2917 92.8064 71.6647 91.8635 71.6647 90.8325C71.6647 88.5412 69.8138 86.6643 67.4997 86.6643C65.1857 86.6643 63.3282 88.5412 63.3282 90.8325C63.3282 91.8647 63.7035 92.806 64.3292 93.5358C62.2352 94.6645 60.8332 96.8752 60.8332 99.4227V100.401C60.8332 102.488 62.5166 104.165 64.5815 104.165H70.4131C71.1841 104.165 71.902 103.935 72.4997 103.531V106.672C72.4997 107.672 72.814 108.652 73.5771 109.297C74.3401 109.942 75.4562 110.143 76.733 109.894C76.7519 109.891 76.7702 109.885 76.7885 109.882L84.9948 107.673L93.2336 109.888C94.5381 110.143 95.6228 109.969 96.4204 109.297C97.1832 108.655 97.4995 107.679 97.4995 106.684V103.534C98.0972 103.938 98.8151 104.166 99.586 104.166H105.418C107.483 104.166 109.166 102.488 109.166 100.401V99.423C109.166 96.8755 107.764 94.6648 105.67 93.5361C106.296 92.8064 106.671 91.865 106.671 90.8328C106.671 88.5415 104.814 86.6646 102.499 86.6646C100.185 86.6646 98.3344 88.5415 98.3344 90.8328C98.3344 91.8638 98.7075 92.8067 99.3305 93.5361C98.399 94.0373 97.5983 94.7563 96.9966 95.6454C96.6863 94.5747 96.2424 93.5749 95.6749 92.6442C96.022 92.2226 96.2381 91.8577 96.3439 91.4513C96.4878 90.8986 96.3469 90.447 96.1959 90.0857C96.0708 89.7859 95.9892 89.6186 95.9678 89.3419C95.9458 89.0654 95.9836 88.6423 96.2755 87.926C96.5719 87.1956 96.8495 86.8626 97.06 86.6809C97.2704 86.4992 97.4411 86.4462 97.7518 86.3147C98.1538 86.1443 98.5603 85.9046 98.8292 85.3854C99.0976 84.8677 99.1731 84.1775 99.1661 83.3314C99.1724 82.4104 99.0739 81.7494 98.8292 81.2774C98.5603 80.7582 98.1559 80.5193 97.7518 80.3481C97.4412 80.2165 97.2608 80.1604 97.0503 79.9786C96.8399 79.7969 96.572 79.4672 96.2756 78.7368C95.9792 78.0065 95.9438 77.5803 95.9679 77.303C95.9931 77.0258 96.0787 76.856 96.2088 76.5396C96.3389 76.2233 96.5124 75.7284 96.3193 75.1139C96.1606 74.6078 95.7613 74.0551 95.1003 73.3855C94.4909 72.7681 93.9419 72.3258 93.3848 72.142C92.7681 71.9386 92.2704 72.0976 91.9509 72.2217C91.6315 72.3458 91.4634 72.4299 91.1827 72.4494C90.9021 72.4683 90.4777 72.4242 89.7488 72.1174C89.0226 71.8106 88.7084 71.5408 88.5362 71.3297C88.364 71.1186 88.3104 70.9326 88.1733 70.6038C88.0363 70.2749 87.8061 69.81 87.1837 69.5084C86.6438 69.2467 85.9963 69.165 84.9996 69.1649C84.0028 69.1647 83.3554 69.2466 82.8155 69.5081ZM63.3333 69.998C61.4827 69.998 60 71.497 60 73.328C60 75.159 61.4827 76.6644 63.3333 76.6644C65.1839 76.6644 66.6682 75.159 66.6682 73.328C66.6682 71.497 65.1839 69.998 63.3333 69.998ZM106.666 69.998C104.815 69.998 103.331 71.497 103.331 73.328C103.331 75.159 104.815 76.6644 106.666 76.6644C108.517 76.6644 109.999 75.159 109.999 73.328C109.999 71.497 108.517 69.998 106.666 69.998ZM86.458 71.0039C86.5726 71.0594 86.584 71.1488 86.6369 71.2496C86.7292 71.471 86.8712 71.9216 87.2456 72.3807C87.62 72.8399 88.1959 73.2747 89.0962 73.6551C89.9938 74.0344 90.7082 74.1567 91.2983 74.1157C91.8884 74.0748 92.3249 73.8681 92.5597 73.7771C92.6992 73.723 92.7694 73.6918 92.8608 73.7217C92.9805 73.7614 93.2844 73.9157 93.9138 74.5534C94.5141 75.1615 94.689 75.4936 94.726 75.6113C94.7512 75.7099 94.7102 75.7971 94.6643 75.9058C94.5855 76.097 94.3591 76.5654 94.3078 77.1541C94.2565 77.7429 94.3651 78.4616 94.731 79.3627C95.0967 80.2638 95.5132 80.8524 95.9614 81.2393C96.4096 81.6262 96.8668 81.7863 97.1007 81.8854C97.233 81.9415 97.2954 81.9465 97.3464 82.0448C97.3974 82.1434 97.5133 82.4695 97.5058 83.3305C97.5121 84.141 97.4147 84.4842 97.3464 84.6163C97.2954 84.7149 97.2028 84.7325 97.1007 84.7757C96.8667 84.8749 96.4096 85.0349 95.9614 85.4218C95.5132 85.8087 95.0967 86.3973 94.731 87.2984C94.3723 88.1821 94.2633 88.8865 94.3078 89.4695C94.3522 90.0525 94.5428 90.4492 94.6577 90.7244C94.7066 90.862 94.7551 90.9392 94.7311 91.0321C94.7248 91.0573 94.6886 91.1461 94.6562 91.2078C93.4209 89.7118 91.8331 88.501 90.029 87.7119C91.0539 86.5382 91.6679 85.0076 91.6679 83.3321C91.6679 79.6601 88.6717 76.6657 84.9997 76.6657C81.3277 76.6657 78.3315 79.6601 78.3315 83.3321C78.3315 85.008 78.945 86.5382 79.9705 87.7119C78.1662 88.5006 76.5782 89.7119 75.3433 91.2078C75.3112 91.1461 75.2753 91.0582 75.2683 91.0321C75.2431 90.9392 75.2935 90.862 75.3417 90.7244C75.4567 90.4491 75.6472 90.0525 75.6916 89.4695C75.736 88.8865 75.6271 88.1821 75.2685 87.2984C74.9027 86.3973 74.4862 85.8087 74.038 85.4218C73.5898 85.035 73.1326 84.8748 72.8987 84.7757C72.7964 84.7325 72.7041 84.7146 72.6531 84.6163C72.5847 84.4844 72.4868 84.141 72.4937 83.3305C72.4874 82.4695 72.602 82.1433 72.6531 82.0448C72.7041 81.9462 72.7664 81.9415 72.8987 81.8854C73.1327 81.7862 73.5898 81.6262 74.038 81.2393C74.4862 80.8524 74.9027 80.2638 75.2685 79.3627C75.6342 78.4616 75.743 77.7429 75.6916 77.1541C75.6403 76.5654 75.4138 76.0969 75.3352 75.9058C75.2905 75.7968 75.247 75.7096 75.2735 75.6113C75.3103 75.4935 75.4854 75.1615 76.0856 74.5534C76.715 73.9158 77.019 73.7612 77.1387 73.7217C77.23 73.6902 77.3003 73.7229 77.4398 73.7771C77.6744 73.8682 78.1111 74.0748 78.7012 74.1157C79.2912 74.1566 80.0056 74.0344 80.9033 73.6551C81.8036 73.2747 82.3795 72.8399 82.7538 72.3807C83.1282 71.9216 83.2704 71.4708 83.3626 71.2496C83.4158 71.1488 83.4268 71.0594 83.5418 71.0039C83.6759 70.9387 84.1149 70.8313 84.9999 70.8313C85.8848 70.8313 86.3237 70.9387 86.458 71.0039ZM63.3333 71.6646C64.2441 71.6646 65.0015 72.3977 65.0015 73.328C65.0015 74.2583 64.2473 74.9979 63.3333 74.9979C62.4192 74.9979 61.6666 74.2583 61.6666 73.328C61.6666 72.3977 62.4225 71.6646 63.3333 71.6646ZM106.666 71.6646C107.577 71.6646 108.333 72.3977 108.333 73.328C108.333 74.2583 107.58 74.9979 106.666 74.9979C105.752 74.9979 104.998 74.2583 104.998 73.328C104.998 72.3977 105.755 71.6646 106.666 71.6646ZM64.8339 78.0218C64.2606 77.9859 63.8235 78.5269 63.9794 79.0797L65.4442 84.6281C65.7 85.7467 67.3826 85.3048 67.0556 84.2049L65.5907 78.6566C65.5044 78.3022 65.1979 78.045 64.8339 78.0218ZM105.165 78.0218C104.801 78.0439 104.495 78.3021 104.409 78.6566L102.944 84.2049C102.617 85.3048 104.299 85.7467 104.555 84.6281L106.02 79.0797C106.176 78.5269 105.739 77.9858 105.165 78.0218ZM84.9997 78.3327C87.7449 78.3327 90.0012 80.5612 90.0012 83.3325C90.0012 86.1039 87.7546 88.334 84.9997 88.334C82.2447 88.334 79.9981 86.1039 79.9981 83.3325C79.9981 80.5612 82.2512 78.3327 84.9997 78.3327ZM67.4999 88.3307C68.8709 88.3307 69.9966 89.4417 69.9966 90.8323C69.9966 92.2228 68.8742 93.3305 67.4999 93.3305C66.1256 93.3305 64.9967 92.2228 64.9967 90.8323C64.9967 89.4417 66.1289 88.3307 67.4999 88.3307ZM102.499 88.3307C103.87 88.3307 105.003 89.4417 105.003 90.8323C105.003 92.2228 103.874 93.3305 102.499 93.3305C101.125 93.3305 100.003 92.2228 100.003 90.8323C100.003 89.4417 101.128 88.3307 102.499 88.3307ZM79.168 102.043V99.1572C79.1428 98.0705 77.5255 98.0705 77.5014 99.1572V102.471L77.2932 102.524C76.2145 102.799 76.6262 104.417 77.705 104.142L90.3025 100.907C91.2634 100.66 92.1988 101.216 92.4428 102.131C92.6906 103.056 92.1543 104.017 91.2074 104.272L76.4127 108.258C76.4095 108.259 76.4095 108.258 76.4063 108.258C75.46 108.441 74.9511 108.274 74.6534 108.024C74.3545 107.771 74.1684 107.335 74.1684 106.671V99.1668C74.1684 94.4159 77.198 90.4071 81.3916 88.9409C82.4292 89.6082 83.6734 90.0005 85 90.0005C86.3256 90.0005 87.5663 89.609 88.6034 88.9426C92.8247 90.4183 95.8331 94.4158 95.8331 99.1668V106.683C95.8332 107.339 95.6454 107.772 95.3465 108.024C95.0489 108.275 94.54 108.441 93.5936 108.258L88.2063 106.808L91.6372 105.884C93.4479 105.396 94.5402 103.538 94.0493 101.706C93.8062 100.798 93.231 100.089 92.4982 99.6551V99.157C92.473 98.0703 90.8557 98.0801 90.8316 99.1854C90.5802 99.1665 90.2015 99.2074 89.8842 99.2889L79.168 102.043ZM88.3346 94.1655C87.2479 94.1907 87.2479 95.808 88.3346 95.8321H90.8313C91.918 95.8069 91.918 94.1896 90.8313 94.1655H88.3346ZM65.8853 94.67C66.3496 94.8725 66.9346 94.9972 67.4999 94.9972C68.0652 94.9972 68.628 94.8724 69.1177 94.67C71.0966 95.3347 72.4998 97.2258 72.4998 99.4225V100.401C72.4998 101.561 71.58 102.499 70.4133 102.499H64.5816C63.4149 102.499 62.5 101.55 62.5 100.401V99.4225C62.5 97.2225 63.9051 95.3357 65.8853 94.67ZM100.882 94.67C101.352 94.8757 101.934 94.9988 102.499 94.9988C103.065 94.9988 103.633 94.8823 104.114 94.67C106.094 95.3357 107.499 97.2225 107.499 99.4225V100.401C107.499 101.55 106.584 102.499 105.418 102.499H99.5861C98.4194 102.499 97.4995 101.55 97.4995 100.401V99.4225C97.4995 97.2258 98.9028 95.3347 100.882 94.67Z" fill="#B00F0F"/>
</svg>
