<svg width="85" height="85" viewBox="0 0 85 85" fill="none" xmlns="http://www.w3.org/2000/svg">
<rect width="85" height="85" rx="42.5" fill="#EAF0FB"/>
<mask id="path-2-inside-1_746_2641" fill="white">
<path d="M35.8468 55.7007L37.0302 54.8762L37.8601 56.0674L36.6767 56.8919L35.8468 55.7007Z"/>
<path d="M38.4802 53.8655L48.3618 46.9808L49.1917 48.172L39.3101 55.0566L38.4802 53.8655Z"/>
<path d="M63.0875 29.8623C62.8465 29.021 62.5105 28.211 62.0852 27.4439L63.1202 25.7723L59.2277 21.8798L57.5561 22.9148C56.789 22.4895 55.979 22.1535 55.1377 21.9125L54.6877 20H49.1832L48.7332 21.9125C47.892 22.1535 47.082 22.4895 46.3148 22.9148L44.6433 21.8798L40.7508 25.7723L41.7858 27.4439C41.3605 28.211 41.0244 29.021 40.7835 29.8623L38.871 30.3123V31.7029C38.5277 31.7893 38.1996 31.9352 37.9158 32.1485L33.0159 35.8226C32.891 35.9162 32.7365 35.9677 32.5804 35.9677H30.8065C31.7508 35.0445 32.3387 33.7598 32.3387 32.3387C32.3387 29.5378 30.059 27.2581 27.2581 27.2581C24.4572 27.2581 22.1774 29.5378 22.1774 32.3387C22.1774 33.9994 22.9816 35.4713 24.2177 36.3989C21.7565 37.3359 20 39.7136 20 42.5V62.0968C20 63.6979 21.3021 65 22.9032 65H65V30.3123L63.0875 29.8623ZM23.629 32.3387C23.629 30.3377 25.257 28.7097 27.2581 28.7097C29.2591 28.7097 30.8871 30.3377 30.8871 32.3387C30.8871 34.3398 29.2591 35.9677 27.2581 35.9677C25.257 35.9677 23.629 34.3398 23.629 32.3387ZM21.4516 42.5C21.4516 39.6991 23.7314 37.4194 26.5323 37.4194H32.5804C33.0493 37.4194 33.5131 37.264 33.8869 36.9831L38.786 33.3091C38.9973 33.1516 39.2578 33.0645 39.5213 33.0645H39.8247C40.499 33.0645 41.0484 33.614 41.0484 34.289C41.0484 34.6693 40.8764 35.0213 40.5759 35.255L35.9757 38.8332C35.3428 39.3253 34.5517 39.5968 33.7475 39.5968H27.9839V47.5806H30.8871C32.0876 47.5806 33.0645 48.5576 33.0645 49.7581V56.2896C33.0645 57.0909 32.4135 57.7419 31.6122 57.7419C31.2246 57.7419 30.8595 57.591 30.5852 57.3166C30.3115 57.0423 30.1606 56.6779 30.1606 56.2903L30.1613 51.9355C30.1613 51.1349 29.5102 50.4839 28.7097 50.4839H23.629C22.4285 50.4839 21.4516 49.5069 21.4516 48.3065V42.5ZM30.8871 46.129H29.4355V41.0484H33.7475C34.8725 41.0484 35.9801 40.6688 36.867 39.9778L40.9555 36.7981C41.1769 37.4498 41.4505 38.082 41.7858 38.6852L40.7508 40.3567L44.6433 44.2492L46.3148 43.2142C46.7714 43.4675 47.2475 43.678 47.7323 43.8667L34.5161 53.0663V49.7581C34.5161 47.757 32.8881 46.129 30.8871 46.129ZM25.8065 51.9355H28.7097L28.709 56.2896C28.709 56.5422 28.7518 56.7853 28.8135 57.0234L25.8065 59.1246V51.9355ZM21.4516 62.0968V51.1908C22.0598 51.6517 22.8089 51.9355 23.629 51.9355H24.3548V62.0968C24.3548 62.8973 23.7038 63.5484 22.9032 63.5484C22.1027 63.5484 21.4516 62.8973 21.4516 62.0968ZM63.5484 63.5484H25.4029C25.6526 63.1194 25.8065 62.6281 25.8065 62.0968V60.8956L29.5226 58.2986C29.5356 58.3124 29.5451 58.3291 29.5589 58.3429C30.1076 58.8916 30.837 59.1935 31.6122 59.1935C33.2133 59.1935 34.5161 57.8907 34.5161 56.2896V54.8344L48.8791 44.8371L49.1832 46.129H54.6877L55.1377 44.2165C55.979 43.9756 56.789 43.6395 57.5561 43.2142L59.2277 44.2492L63.1202 40.3567L62.0852 38.6852C62.5105 37.918 62.8465 37.108 63.0875 36.2668L63.5484 36.1586V63.5484ZM63.5484 34.6671L61.8986 35.0554L61.7927 35.488C61.5488 36.4867 61.1532 37.439 60.619 38.3208L60.3882 38.7004L61.2802 40.1419L59.0135 42.4085L57.5721 41.5165L57.1925 41.7473C56.3106 42.2815 55.3584 42.6771 54.3597 42.921L53.9271 43.0269L53.5381 44.6774H50.3329L49.9446 43.0277L49.512 42.9217C48.5133 42.6778 47.561 42.2823 46.6792 41.7481L46.2996 41.5173L44.8581 42.4093L42.5915 40.1426L43.4835 38.7011L43.2527 38.3215C42.7446 37.484 42.3672 36.581 42.1211 35.636C42.3585 35.2318 42.5 34.7745 42.5 34.289C42.5 32.984 41.5601 31.8981 40.3226 31.6637V31.4627L41.9723 31.0744L42.0783 30.6418C42.3222 29.6431 42.7177 28.6908 43.2519 27.809L43.4827 27.4294L42.5907 25.9879L44.8574 23.7212L46.2989 24.6132L46.6785 24.3824C47.5603 23.8482 48.5126 23.4527 49.5113 23.2088L49.9439 23.1028L50.3329 21.4516H53.5381L53.9264 23.1014L54.359 23.2073C55.3577 23.4512 56.3099 23.8468 57.1918 24.381L57.5714 24.6118L59.0128 23.7198L61.2795 25.9865L60.3875 27.4279L60.6183 27.8075C61.1525 28.6894 61.5481 29.6416 61.7919 30.6403L61.8979 31.0729L63.5484 31.4619V34.6671Z"/>
<path d="M51.9355 24.3548C47.1328 24.3548 43.2258 28.2619 43.2258 33.0645C43.2258 37.8672 47.1328 41.7742 51.9355 41.7742C56.7381 41.7742 60.6452 37.8672 60.6452 33.0645C60.6452 28.2619 56.7381 24.3548 51.9355 24.3548ZM51.9355 40.3226C47.9334 40.3226 44.6774 37.0666 44.6774 33.0645C44.6774 29.0624 47.9334 25.8065 51.9355 25.8065C55.9376 25.8065 59.1935 29.0624 59.1935 33.0645C59.1935 37.0666 55.9376 40.3226 51.9355 40.3226Z"/>
<path d="M51.9355 28.7097C49.5338 28.7097 47.5806 30.6628 47.5806 33.0645C47.5806 35.4662 49.5338 37.4194 51.9355 37.4194C54.3372 37.4194 56.2903 35.4662 56.2903 33.0645C56.2903 30.6628 54.3372 28.7097 51.9355 28.7097ZM51.9355 35.9677C50.3344 35.9677 49.0323 34.6656 49.0323 33.0645C49.0323 31.4634 50.3344 30.1613 51.9355 30.1613C53.5366 30.1613 54.8387 31.4634 54.8387 33.0645C54.8387 34.6656 53.5366 35.9677 51.9355 35.9677Z"/>
<path d="M60.6452 60.6452H62.0968V62.0968H60.6452V60.6452Z"/>
<path d="M60.6452 57.7419H62.0968V59.1935H60.6452V57.7419Z"/>
<path d="M60.6452 54.8387H62.0968V56.2903H60.6452V54.8387Z"/>
<path d="M27.2581 60.6452H28.7097V62.0968H27.2581V60.6452Z"/>
<path d="M30.1613 60.6452H31.6129V62.0968H30.1613V60.6452Z"/>
<path d="M33.0645 60.6452H34.5161V62.0968H33.0645V60.6452Z"/>
</mask>
<path d="M35.8468 55.7007L37.0302 54.8762L37.8601 56.0674L36.6767 56.8919L35.8468 55.7007Z" fill="#0B4DF5"/>
<path d="M38.4802 53.8655L48.3618 46.9808L49.1917 48.172L39.3101 55.0566L38.4802 53.8655Z" fill="#0B4DF5"/>
<path d="M63.0875 29.8623C62.8465 29.021 62.5105 28.211 62.0852 27.4439L63.1202 25.7723L59.2277 21.8798L57.5561 22.9148C56.789 22.4895 55.979 22.1535 55.1377 21.9125L54.6877 20H49.1832L48.7332 21.9125C47.892 22.1535 47.082 22.4895 46.3148 22.9148L44.6433 21.8798L40.7508 25.7723L41.7858 27.4439C41.3605 28.211 41.0244 29.021 40.7835 29.8623L38.871 30.3123V31.7029C38.5277 31.7893 38.1996 31.9352 37.9158 32.1485L33.0159 35.8226C32.891 35.9162 32.7365 35.9677 32.5804 35.9677H30.8065C31.7508 35.0445 32.3387 33.7598 32.3387 32.3387C32.3387 29.5378 30.059 27.2581 27.2581 27.2581C24.4572 27.2581 22.1774 29.5378 22.1774 32.3387C22.1774 33.9994 22.9816 35.4713 24.2177 36.3989C21.7565 37.3359 20 39.7136 20 42.5V62.0968C20 63.6979 21.3021 65 22.9032 65H65V30.3123L63.0875 29.8623ZM23.629 32.3387C23.629 30.3377 25.257 28.7097 27.2581 28.7097C29.2591 28.7097 30.8871 30.3377 30.8871 32.3387C30.8871 34.3398 29.2591 35.9677 27.2581 35.9677C25.257 35.9677 23.629 34.3398 23.629 32.3387ZM21.4516 42.5C21.4516 39.6991 23.7314 37.4194 26.5323 37.4194H32.5804C33.0493 37.4194 33.5131 37.264 33.8869 36.9831L38.786 33.3091C38.9973 33.1516 39.2578 33.0645 39.5213 33.0645H39.8247C40.499 33.0645 41.0484 33.614 41.0484 34.289C41.0484 34.6693 40.8764 35.0213 40.5759 35.255L35.9757 38.8332C35.3428 39.3253 34.5517 39.5968 33.7475 39.5968H27.9839V47.5806H30.8871C32.0876 47.5806 33.0645 48.5576 33.0645 49.7581V56.2896C33.0645 57.0909 32.4135 57.7419 31.6122 57.7419C31.2246 57.7419 30.8595 57.591 30.5852 57.3166C30.3115 57.0423 30.1606 56.6779 30.1606 56.2903L30.1613 51.9355C30.1613 51.1349 29.5102 50.4839 28.7097 50.4839H23.629C22.4285 50.4839 21.4516 49.5069 21.4516 48.3065V42.5ZM30.8871 46.129H29.4355V41.0484H33.7475C34.8725 41.0484 35.9801 40.6688 36.867 39.9778L40.9555 36.7981C41.1769 37.4498 41.4505 38.082 41.7858 38.6852L40.7508 40.3567L44.6433 44.2492L46.3148 43.2142C46.7714 43.4675 47.2475 43.678 47.7323 43.8667L34.5161 53.0663V49.7581C34.5161 47.757 32.8881 46.129 30.8871 46.129ZM25.8065 51.9355H28.7097L28.709 56.2896C28.709 56.5422 28.7518 56.7853 28.8135 57.0234L25.8065 59.1246V51.9355ZM21.4516 62.0968V51.1908C22.0598 51.6517 22.8089 51.9355 23.629 51.9355H24.3548V62.0968C24.3548 62.8973 23.7038 63.5484 22.9032 63.5484C22.1027 63.5484 21.4516 62.8973 21.4516 62.0968ZM63.5484 63.5484H25.4029C25.6526 63.1194 25.8065 62.6281 25.8065 62.0968V60.8956L29.5226 58.2986C29.5356 58.3124 29.5451 58.3291 29.5589 58.3429C30.1076 58.8916 30.837 59.1935 31.6122 59.1935C33.2133 59.1935 34.5161 57.8907 34.5161 56.2896V54.8344L48.8791 44.8371L49.1832 46.129H54.6877L55.1377 44.2165C55.979 43.9756 56.789 43.6395 57.5561 43.2142L59.2277 44.2492L63.1202 40.3567L62.0852 38.6852C62.5105 37.918 62.8465 37.108 63.0875 36.2668L63.5484 36.1586V63.5484ZM63.5484 34.6671L61.8986 35.0554L61.7927 35.488C61.5488 36.4867 61.1532 37.439 60.619 38.3208L60.3882 38.7004L61.2802 40.1419L59.0135 42.4085L57.5721 41.5165L57.1925 41.7473C56.3106 42.2815 55.3584 42.6771 54.3597 42.921L53.9271 43.0269L53.5381 44.6774H50.3329L49.9446 43.0277L49.512 42.9217C48.5133 42.6778 47.561 42.2823 46.6792 41.7481L46.2996 41.5173L44.8581 42.4093L42.5915 40.1426L43.4835 38.7011L43.2527 38.3215C42.7446 37.484 42.3672 36.581 42.1211 35.636C42.3585 35.2318 42.5 34.7745 42.5 34.289C42.5 32.984 41.5601 31.8981 40.3226 31.6637V31.4627L41.9723 31.0744L42.0783 30.6418C42.3222 29.6431 42.7177 28.6908 43.2519 27.809L43.4827 27.4294L42.5907 25.9879L44.8574 23.7212L46.2989 24.6132L46.6785 24.3824C47.5603 23.8482 48.5126 23.4527 49.5113 23.2088L49.9439 23.1028L50.3329 21.4516H53.5381L53.9264 23.1014L54.359 23.2073C55.3577 23.4512 56.3099 23.8468 57.1918 24.381L57.5714 24.6118L59.0128 23.7198L61.2795 25.9865L60.3875 27.4279L60.6183 27.8075C61.1525 28.6894 61.5481 29.6416 61.7919 30.6403L61.8979 31.0729L63.5484 31.4619V34.6671Z" fill="#0B4DF5"/>
<path d="M51.9355 24.3548C47.1328 24.3548 43.2258 28.2619 43.2258 33.0645C43.2258 37.8672 47.1328 41.7742 51.9355 41.7742C56.7381 41.7742 60.6452 37.8672 60.6452 33.0645C60.6452 28.2619 56.7381 24.3548 51.9355 24.3548ZM51.9355 40.3226C47.9334 40.3226 44.6774 37.0666 44.6774 33.0645C44.6774 29.0624 47.9334 25.8065 51.9355 25.8065C55.9376 25.8065 59.1935 29.0624 59.1935 33.0645C59.1935 37.0666 55.9376 40.3226 51.9355 40.3226Z" fill="#0B4DF5"/>
<path d="M51.9355 28.7097C49.5338 28.7097 47.5806 30.6628 47.5806 33.0645C47.5806 35.4662 49.5338 37.4194 51.9355 37.4194C54.3372 37.4194 56.2903 35.4662 56.2903 33.0645C56.2903 30.6628 54.3372 28.7097 51.9355 28.7097ZM51.9355 35.9677C50.3344 35.9677 49.0323 34.6656 49.0323 33.0645C49.0323 31.4634 50.3344 30.1613 51.9355 30.1613C53.5366 30.1613 54.8387 31.4634 54.8387 33.0645C54.8387 34.6656 53.5366 35.9677 51.9355 35.9677Z" fill="#0B4DF5"/>
<path d="M60.6452 60.6452H62.0968V62.0968H60.6452V60.6452Z" fill="#0B4DF5"/>
<path d="M60.6452 57.7419H62.0968V59.1935H60.6452V57.7419Z" fill="#0B4DF5"/>
<path d="M60.6452 54.8387H62.0968V56.2903H60.6452V54.8387Z" fill="#0B4DF5"/>
<path d="M27.2581 60.6452H28.7097V62.0968H27.2581V60.6452Z" fill="#0B4DF5"/>
<path d="M30.1613 60.6452H31.6129V62.0968H30.1613V60.6452Z" fill="#0B4DF5"/>
<path d="M33.0645 60.6452H34.5161V62.0968H33.0645V60.6452Z" fill="#0B4DF5"/>
<path d="M35.8468 55.7007L37.0302 54.8762L37.8601 56.0674L36.6767 56.8919L35.8468 55.7007Z" stroke="#0B4DF5" stroke-width="2" mask="url(#path-2-inside-1_746_2641)"/>
<path d="M38.4802 53.8655L48.3618 46.9808L49.1917 48.172L39.3101 55.0566L38.4802 53.8655Z" stroke="#0B4DF5" stroke-width="2" mask="url(#path-2-inside-1_746_2641)"/>
<path d="M63.0875 29.8623C62.8465 29.021 62.5105 28.211 62.0852 27.4439L63.1202 25.7723L59.2277 21.8798L57.5561 22.9148C56.789 22.4895 55.979 22.1535 55.1377 21.9125L54.6877 20H49.1832L48.7332 21.9125C47.892 22.1535 47.082 22.4895 46.3148 22.9148L44.6433 21.8798L40.7508 25.7723L41.7858 27.4439C41.3605 28.211 41.0244 29.021 40.7835 29.8623L38.871 30.3123V31.7029C38.5277 31.7893 38.1996 31.9352 37.9158 32.1485L33.0159 35.8226C32.891 35.9162 32.7365 35.9677 32.5804 35.9677H30.8065C31.7508 35.0445 32.3387 33.7598 32.3387 32.3387C32.3387 29.5378 30.059 27.2581 27.2581 27.2581C24.4572 27.2581 22.1774 29.5378 22.1774 32.3387C22.1774 33.9994 22.9816 35.4713 24.2177 36.3989C21.7565 37.3359 20 39.7136 20 42.5V62.0968C20 63.6979 21.3021 65 22.9032 65H65V30.3123L63.0875 29.8623ZM23.629 32.3387C23.629 30.3377 25.257 28.7097 27.2581 28.7097C29.2591 28.7097 30.8871 30.3377 30.8871 32.3387C30.8871 34.3398 29.2591 35.9677 27.2581 35.9677C25.257 35.9677 23.629 34.3398 23.629 32.3387ZM21.4516 42.5C21.4516 39.6991 23.7314 37.4194 26.5323 37.4194H32.5804C33.0493 37.4194 33.5131 37.264 33.8869 36.9831L38.786 33.3091C38.9973 33.1516 39.2578 33.0645 39.5213 33.0645H39.8247C40.499 33.0645 41.0484 33.614 41.0484 34.289C41.0484 34.6693 40.8764 35.0213 40.5759 35.255L35.9757 38.8332C35.3428 39.3253 34.5517 39.5968 33.7475 39.5968H27.9839V47.5806H30.8871C32.0876 47.5806 33.0645 48.5576 33.0645 49.7581V56.2896C33.0645 57.0909 32.4135 57.7419 31.6122 57.7419C31.2246 57.7419 30.8595 57.591 30.5852 57.3166C30.3115 57.0423 30.1606 56.6779 30.1606 56.2903L30.1613 51.9355C30.1613 51.1349 29.5102 50.4839 28.7097 50.4839H23.629C22.4285 50.4839 21.4516 49.5069 21.4516 48.3065V42.5ZM30.8871 46.129H29.4355V41.0484H33.7475C34.8725 41.0484 35.9801 40.6688 36.867 39.9778L40.9555 36.7981C41.1769 37.4498 41.4505 38.082 41.7858 38.6852L40.7508 40.3567L44.6433 44.2492L46.3148 43.2142C46.7714 43.4675 47.2475 43.678 47.7323 43.8667L34.5161 53.0663V49.7581C34.5161 47.757 32.8881 46.129 30.8871 46.129ZM25.8065 51.9355H28.7097L28.709 56.2896C28.709 56.5422 28.7518 56.7853 28.8135 57.0234L25.8065 59.1246V51.9355ZM21.4516 62.0968V51.1908C22.0598 51.6517 22.8089 51.9355 23.629 51.9355H24.3548V62.0968C24.3548 62.8973 23.7038 63.5484 22.9032 63.5484C22.1027 63.5484 21.4516 62.8973 21.4516 62.0968ZM63.5484 63.5484H25.4029C25.6526 63.1194 25.8065 62.6281 25.8065 62.0968V60.8956L29.5226 58.2986C29.5356 58.3124 29.5451 58.3291 29.5589 58.3429C30.1076 58.8916 30.837 59.1935 31.6122 59.1935C33.2133 59.1935 34.5161 57.8907 34.5161 56.2896V54.8344L48.8791 44.8371L49.1832 46.129H54.6877L55.1377 44.2165C55.979 43.9756 56.789 43.6395 57.5561 43.2142L59.2277 44.2492L63.1202 40.3567L62.0852 38.6852C62.5105 37.918 62.8465 37.108 63.0875 36.2668L63.5484 36.1586V63.5484ZM63.5484 34.6671L61.8986 35.0554L61.7927 35.488C61.5488 36.4867 61.1532 37.439 60.619 38.3208L60.3882 38.7004L61.2802 40.1419L59.0135 42.4085L57.5721 41.5165L57.1925 41.7473C56.3106 42.2815 55.3584 42.6771 54.3597 42.921L53.9271 43.0269L53.5381 44.6774H50.3329L49.9446 43.0277L49.512 42.9217C48.5133 42.6778 47.561 42.2823 46.6792 41.7481L46.2996 41.5173L44.8581 42.4093L42.5915 40.1426L43.4835 38.7011L43.2527 38.3215C42.7446 37.484 42.3672 36.581 42.1211 35.636C42.3585 35.2318 42.5 34.7745 42.5 34.289C42.5 32.984 41.5601 31.8981 40.3226 31.6637V31.4627L41.9723 31.0744L42.0783 30.6418C42.3222 29.6431 42.7177 28.6908 43.2519 27.809L43.4827 27.4294L42.5907 25.9879L44.8574 23.7212L46.2989 24.6132L46.6785 24.3824C47.5603 23.8482 48.5126 23.4527 49.5113 23.2088L49.9439 23.1028L50.3329 21.4516H53.5381L53.9264 23.1014L54.359 23.2073C55.3577 23.4512 56.3099 23.8468 57.1918 24.381L57.5714 24.6118L59.0128 23.7198L61.2795 25.9865L60.3875 27.4279L60.6183 27.8075C61.1525 28.6894 61.5481 29.6416 61.7919 30.6403L61.8979 31.0729L63.5484 31.4619V34.6671Z" stroke="#0B4DF5" stroke-width="2" mask="url(#path-2-inside-1_746_2641)"/>
<path d="M51.9355 24.3548C47.1328 24.3548 43.2258 28.2619 43.2258 33.0645C43.2258 37.8672 47.1328 41.7742 51.9355 41.7742C56.7381 41.7742 60.6452 37.8672 60.6452 33.0645C60.6452 28.2619 56.7381 24.3548 51.9355 24.3548ZM51.9355 40.3226C47.9334 40.3226 44.6774 37.0666 44.6774 33.0645C44.6774 29.0624 47.9334 25.8065 51.9355 25.8065C55.9376 25.8065 59.1935 29.0624 59.1935 33.0645C59.1935 37.0666 55.9376 40.3226 51.9355 40.3226Z" stroke="#0B4DF5" stroke-width="2" mask="url(#path-2-inside-1_746_2641)"/>
<path d="M51.9355 28.7097C49.5338 28.7097 47.5806 30.6628 47.5806 33.0645C47.5806 35.4662 49.5338 37.4194 51.9355 37.4194C54.3372 37.4194 56.2903 35.4662 56.2903 33.0645C56.2903 30.6628 54.3372 28.7097 51.9355 28.7097ZM51.9355 35.9677C50.3344 35.9677 49.0323 34.6656 49.0323 33.0645C49.0323 31.4634 50.3344 30.1613 51.9355 30.1613C53.5366 30.1613 54.8387 31.4634 54.8387 33.0645C54.8387 34.6656 53.5366 35.9677 51.9355 35.9677Z" stroke="#0B4DF5" stroke-width="2" mask="url(#path-2-inside-1_746_2641)"/>
<path d="M60.6452 60.6452H62.0968V62.0968H60.6452V60.6452Z" stroke="#0B4DF5" stroke-width="2" mask="url(#path-2-inside-1_746_2641)"/>
<path d="M60.6452 57.7419H62.0968V59.1935H60.6452V57.7419Z" stroke="#0B4DF5" stroke-width="2" mask="url(#path-2-inside-1_746_2641)"/>
<path d="M60.6452 54.8387H62.0968V56.2903H60.6452V54.8387Z" stroke="#0B4DF5" stroke-width="2" mask="url(#path-2-inside-1_746_2641)"/>
<path d="M27.2581 60.6452H28.7097V62.0968H27.2581V60.6452Z" stroke="#0B4DF5" stroke-width="2" mask="url(#path-2-inside-1_746_2641)"/>
<path d="M30.1613 60.6452H31.6129V62.0968H30.1613V60.6452Z" stroke="#0B4DF5" stroke-width="2" mask="url(#path-2-inside-1_746_2641)"/>
<path d="M33.0645 60.6452H34.5161V62.0968H33.0645V60.6452Z" stroke="#0B4DF5" stroke-width="2" mask="url(#path-2-inside-1_746_2641)"/>
</svg>
