<svg width="85" height="85" viewBox="0 0 85 85" fill="none" xmlns="http://www.w3.org/2000/svg">
<rect width="85" height="85" rx="42.5" fill="#EAF0FB"/>
<path d="M62.3014 42.4999C61.95 42.4986 61.6052 42.5959 61.3062 42.7807C61.0073 42.9655 60.7661 43.2305 60.6102 43.5454L57.2299 50.3052L55.1517 52.3835L54.4767 52.7217L55.5807 50.7889C55.8587 50.3054 55.9416 49.7339 55.8124 49.1912C55.6832 48.6486 55.3516 48.1758 54.8855 47.8694C54.4194 47.563 53.8539 47.4461 53.3045 47.5427C52.7551 47.6393 52.2634 47.942 51.9297 48.3889L48.2464 53.3C48.1981 53.3644 48.1606 53.4364 48.1354 53.513L46.6354 58.013C46.6192 58.0596 46.6081 58.1079 46.6024 58.157L45.8524 64.157C45.8392 64.2625 45.8486 64.3696 45.88 64.4712C45.9113 64.5728 45.9639 64.6666 46.0343 64.7463C46.1046 64.826 46.1911 64.8898 46.2881 64.9336C46.385 64.9773 46.4901 65 46.5964 65H53.3464C53.5453 65 53.7361 64.921 53.8768 64.7803C54.0174 64.6397 54.0964 64.4489 54.0964 64.25V61.3025C54.0964 61.179 54.1269 61.0575 54.1851 60.9486C54.2433 60.8398 54.3275 60.747 54.4302 60.6785L58.2627 58.124C58.345 58.0691 58.4156 57.9985 58.4704 57.9162L61.4704 53.4162C61.5111 53.356 61.5425 53.29 61.5634 53.2205L64.1097 44.9472C64.1968 44.6643 64.2163 44.3648 64.1666 44.073C64.1169 43.7812 63.9993 43.5051 63.8234 43.2671C63.6475 43.029 63.4181 42.8355 63.1538 42.7023C62.8894 42.569 62.5975 42.4997 62.3014 42.4999ZM62.6764 44.5062L60.1617 52.6745L57.3057 56.9592L53.5984 59.4305C53.2899 59.6356 53.0369 59.9139 52.8621 60.2405C52.6872 60.5672 52.596 60.932 52.5964 61.3025V63.5H47.4461L48.0814 58.4172L49.5214 54.1025L53.1319 49.2897C53.2368 49.1489 53.3915 49.0535 53.5643 49.023C53.7372 48.9925 53.9152 49.0292 54.0619 49.1255C54.2087 49.2219 54.3131 49.3706 54.3538 49.5414C54.3945 49.7122 54.3684 49.892 54.2809 50.0442L51.9454 54.125C51.8627 54.2648 51.8276 54.4277 51.8454 54.5891C51.8633 54.7506 51.933 54.9019 52.0442 55.0203C52.1555 55.1387 52.3021 55.2178 52.4622 55.2457C52.6222 55.2736 52.787 55.2488 52.9317 55.175L55.9317 53.675C56.0038 53.6388 56.0697 53.5912 56.1267 53.534L58.3767 51.284C58.4339 51.227 58.4815 51.1611 58.5177 51.089L61.9519 44.2197C61.9835 44.1538 62.0331 44.0982 62.0949 44.0593C62.1568 44.0204 62.2284 43.9998 62.3014 43.9999C62.3627 43.9998 62.4232 44.0141 62.478 44.0416C62.5327 44.0691 62.5803 44.1091 62.6167 44.1584C62.6532 44.2076 62.6776 44.2648 62.688 44.3252C62.6984 44.3856 62.6944 44.4476 62.6764 44.5062Z" fill="#0B4DF5"/>
<path d="M37.5574 58.013L36.0574 53.513C36.0322 53.4364 35.9947 53.3644 35.9464 53.3L32.2631 48.3889C31.9294 47.942 31.4376 47.6393 30.8882 47.5427C30.3389 47.4461 29.7733 47.563 29.3072 47.8694C28.8411 48.1758 28.5096 48.6486 28.3804 49.1912C28.2512 49.7339 28.3341 50.3054 28.6121 50.7889L29.7161 52.7225L29.0411 52.3842L26.9628 50.3059L23.5826 43.5454C23.3701 43.1214 23.006 42.7926 22.5625 42.6244C22.119 42.4561 21.6285 42.4606 21.1882 42.637C20.7479 42.8133 20.3899 43.1487 20.1852 43.5766C19.9805 44.0045 19.944 44.4937 20.0831 44.9472L22.6293 53.2205C22.6503 53.29 22.6816 53.356 22.7223 53.4162L25.7223 57.9162C25.7772 57.9985 25.8478 58.0691 25.9301 58.124L29.7626 60.6785C29.8653 60.747 29.9495 60.8398 30.0077 60.9487C30.0659 61.0575 30.0964 61.179 30.0963 61.3025V64.25C30.0963 64.4489 30.1754 64.6397 30.316 64.7803C30.4567 64.921 30.6474 65 30.8463 65H37.5964C37.7027 65 37.8078 64.9773 37.9047 64.9336C38.0016 64.8898 38.0881 64.826 38.1585 64.7463C38.2288 64.6666 38.2814 64.5728 38.3128 64.4712C38.3442 64.3696 38.3536 64.2625 38.3404 64.157L37.5904 58.157C37.5846 58.1079 37.5736 58.0596 37.5574 58.013ZM31.5963 63.5V61.3025C31.5973 60.9315 31.5062 60.5661 31.3314 60.2388C31.1565 59.9116 30.9033 59.6329 30.5943 59.4275L26.8871 56.9562L24.0311 52.6745L21.5178 44.5062C21.4999 44.4477 21.4959 44.3858 21.5062 44.3255C21.5165 44.2653 21.5408 44.2082 21.5771 44.159C21.6134 44.1098 21.6607 44.0698 21.7153 44.0421C21.7699 44.0145 21.8301 44.0001 21.8913 43.9999C21.964 43.9995 22.0353 44.0195 22.0971 44.0577C22.1589 44.0959 22.2087 44.1507 22.2408 44.2159L25.6751 51.0852C25.7113 51.1574 25.7589 51.2232 25.8161 51.2802L28.0661 53.5302C28.1231 53.5874 28.1889 53.635 28.2611 53.6712L31.2611 55.1712C31.4054 55.244 31.5694 55.2682 31.7285 55.2402C31.8877 55.2122 32.0336 55.1336 32.1445 55.016C32.2553 54.8984 32.3252 54.7481 32.3438 54.5875C32.3623 54.427 32.3285 54.2647 32.2473 54.125L29.9141 50.0404C29.8266 49.8883 29.8005 49.7084 29.8412 49.5377C29.8819 49.3669 29.9863 49.2181 30.1331 49.1218C30.2798 49.0254 30.4578 48.9888 30.6307 49.0193C30.8035 49.0498 30.9582 49.1452 31.0631 49.2859L34.6714 54.1025L36.1091 58.4172L36.7466 63.5H31.5963Z" fill="#0B4DF5"/>
<path d="M29.3463 45.4999H54.8464C55.0453 45.4999 55.2361 45.4209 55.3768 45.2803C55.5174 45.1396 55.5964 44.9488 55.5964 44.7499V38.7499C55.5964 38.1532 55.3594 37.5809 54.9374 37.1589C54.5155 36.737 53.9432 36.4999 53.3464 36.4999H53.0599C53.5224 36.0995 53.8515 35.5673 54.003 34.9747C54.1545 34.382 54.1212 33.7572 53.9075 33.184C53.6939 32.6108 53.3101 32.1166 52.8077 31.7676C52.3052 31.4187 51.7081 31.2317 51.0964 31.2317C50.4847 31.2317 49.8876 31.4187 49.3851 31.7676C48.8827 32.1166 48.4989 32.6108 48.2853 33.184C48.0717 33.7572 48.0384 34.382 48.1899 34.9747C48.3413 35.5673 48.6704 36.0995 49.1329 36.4999H48.8464C48.4885 36.5023 48.1364 36.5913 47.8204 36.7594C47.5827 36.2359 47.1995 35.7918 46.7166 35.4799C46.2337 35.1679 45.6713 35.0013 45.0964 34.9999H44.1919C44.7412 34.5648 45.1415 33.9695 45.3371 33.2966C45.5328 32.6237 45.5142 31.9066 45.2838 31.2448C45.0535 30.583 44.6229 30.0093 44.0517 29.6033C43.4805 29.1973 42.7971 28.9792 42.0964 28.9792C41.3956 28.9792 40.7122 29.1973 40.1411 29.6033C39.5699 30.0093 39.1393 30.583 38.9089 31.2448C38.6786 31.9066 38.6599 32.6237 38.8556 33.2966C39.0513 33.9695 39.4515 34.5648 40.0009 34.9999H39.0964C38.5215 35.0013 37.9591 35.1679 37.4761 35.4799C36.9932 35.7918 36.6101 36.2359 36.3724 36.7594C36.0563 36.5913 35.7043 36.5023 35.3464 36.4999H35.0599C35.5224 36.0995 35.8514 35.5673 36.0029 34.9747C36.1544 34.382 36.1211 33.7572 35.9075 33.184C35.6938 32.6108 35.3101 32.1166 34.8076 31.7676C34.3052 31.4187 33.7081 31.2317 33.0963 31.2317C32.4846 31.2317 31.8875 31.4187 31.3851 31.7676C30.8826 32.1166 30.4989 32.6108 30.2852 33.184C30.0716 33.7572 30.0383 34.382 30.1898 34.9747C30.3413 35.5673 30.6703 36.0995 31.1328 36.4999H30.8463C30.2496 36.4999 29.6773 36.737 29.2553 37.1589C28.8334 37.5809 28.5963 38.1532 28.5963 38.7499V44.7499C28.5963 44.9488 28.6753 45.1396 28.816 45.2803C28.9567 45.4209 29.1474 45.4999 29.3463 45.4999ZM51.0964 32.7499C51.3931 32.7499 51.6831 32.8379 51.9298 33.0027C52.1764 33.1675 52.3687 33.4018 52.4822 33.6759C52.5958 33.95 52.6255 34.2516 52.5676 34.5425C52.5097 34.8335 52.3669 35.1008 52.1571 35.3106C51.9473 35.5203 51.68 35.6632 51.389 35.7211C51.0981 35.779 50.7965 35.7492 50.5224 35.6357C50.2483 35.5222 50.014 35.3299 49.8492 35.0832C49.6844 34.8366 49.5964 34.5466 49.5964 34.2499C49.5964 33.8521 49.7544 33.4705 50.0357 33.1892C50.3171 32.9079 50.6986 32.7499 51.0964 32.7499ZM48.0964 38.7499C48.0964 38.551 48.1754 38.3602 48.3161 38.2196C48.4567 38.0789 48.6475 37.9999 48.8464 37.9999H53.3464C53.5453 37.9999 53.7361 38.0789 53.8768 38.2196C54.0174 38.3602 54.0964 38.551 54.0964 38.7499V43.9999H48.0964V38.7499ZM42.0964 30.4999C42.4672 30.4999 42.8297 30.6098 43.1381 30.8159C43.4464 31.0219 43.6867 31.3147 43.8287 31.6573C43.9706 32 44.0077 32.377 43.9354 32.7407C43.863 33.1044 43.6844 33.4385 43.4222 33.7007C43.16 33.9629 42.8259 34.1415 42.4622 34.2139C42.0985 34.2862 41.7215 34.2491 41.3788 34.1072C41.0362 33.9652 40.7434 33.7249 40.5374 33.4166C40.3313 33.1082 40.2214 32.7457 40.2214 32.3749C40.2214 31.8776 40.4189 31.4007 40.7705 31.0491C41.1222 30.6974 41.5991 30.4999 42.0964 30.4999ZM37.5964 37.9999C37.5964 37.6021 37.7544 37.2205 38.0357 36.9392C38.317 36.6579 38.6985 36.4999 39.0964 36.4999H45.0964C45.4942 36.4999 45.8757 36.6579 46.1571 36.9392C46.4384 37.2205 46.5964 37.6021 46.5964 37.9999V43.9999H37.5964V37.9999ZM33.0963 32.7499C33.393 32.7499 33.683 32.8379 33.9297 33.0027C34.1764 33.1675 34.3686 33.4018 34.4822 33.6759C34.5957 33.95 34.6254 34.2516 34.5675 34.5425C34.5097 34.8335 34.3668 35.1008 34.157 35.3106C33.9472 35.5203 33.68 35.6632 33.389 35.7211C33.098 35.779 32.7964 35.7492 32.5223 35.6357C32.2482 35.5222 32.014 35.3299 31.8491 35.0832C31.6843 34.8366 31.5963 34.5466 31.5963 34.2499C31.5963 33.8521 31.7544 33.4705 32.0357 33.1892C32.317 32.9079 32.6985 32.7499 33.0963 32.7499ZM30.0963 38.7499C30.0963 38.551 30.1754 38.3602 30.316 38.2196C30.4567 38.0789 30.6474 37.9999 30.8463 37.9999H35.3464C35.5453 37.9999 35.736 38.0789 35.8767 38.2196C36.0173 38.3602 36.0964 38.551 36.0964 38.7499V43.9999H30.0963V38.7499Z" fill="#0B4DF5"/>
<path d="M24.8463 29.7499V36.4999H26.3463V30.3079L33.3116 28.2184C33.4662 28.1721 33.6017 28.0771 33.698 27.9477C33.7943 27.8183 33.8464 27.6612 33.8463 27.4999V24.0604L35.5661 25.7801L36.6266 24.7196L33.6266 21.7196C33.486 21.579 33.2952 21.5 33.0963 21.5C32.8975 21.5 32.7067 21.579 32.5661 21.7196L29.5661 24.7196L30.6266 25.7801L32.3463 24.0604V26.9419L25.3811 29.0314C25.2265 29.0777 25.091 29.1726 24.9947 29.302C24.8983 29.4315 24.8463 29.5885 24.8463 29.7499Z" fill="#0B4DF5"/>
<path d="M42.8464 26.7499V22.5603L44.5661 24.2801L45.6266 23.2196L42.6266 20.2196C42.486 20.079 42.2953 20 42.0964 20C41.8975 20 41.7068 20.079 41.5661 20.2196L38.5661 23.2196L39.6266 24.2801L41.3464 22.5603V26.7499H42.8464Z" fill="#0B4DF5"/>
<path d="M53.5662 25.7801L54.6267 24.7196L51.6267 21.7196C51.486 21.579 51.2953 21.5 51.0964 21.5C50.8975 21.5 50.7068 21.579 50.5662 21.7196L47.5661 24.7196L48.6267 25.7801L50.3464 24.0604V27.4999C50.3465 27.6572 50.3961 27.8105 50.4882 27.9381C50.5803 28.0657 50.7101 28.1611 50.8594 28.2109L57.0964 30.2906V36.4999H58.5964V29.7499C58.5963 29.5925 58.5467 29.4392 58.4546 29.3116C58.3626 29.184 58.2327 29.0886 58.0834 29.0389L51.8464 26.9591V24.0604L53.5662 25.7801Z" fill="#0B4DF5"/>
</svg>
