<svg width="181" height="49" viewBox="0 0 181 49" fill="none" xmlns="http://www.w3.org/2000/svg">
<path d="M30.9007 8.04791L41.6153 7.88378L29.6133 1.14453L30.9007 8.04791Z" fill="#1C2539"/>
<path d="M14.6622 48.2093L0.75 41.793L13.5698 41.5966L14.6622 48.2093Z" fill="#1C2539"/>
<path d="M29.5993 1.13681L50.8839 39.8619L44.6661 47.7267L23.637 8.82017L29.5993 1.13681Z" fill="url(#paint0_linear_746_3107)"/>
<path d="M21.2529 12.467L35.8178 40.1012L29.8589 47.962L14.9067 19.867L21.2529 12.467Z" fill="url(#paint1_linear_746_3107)"/>
<path d="M12.1625 24.3946L20.7725 41.0052L14.6739 48.2045L6.18534 31.362L12.1625 24.3946Z" fill="url(#paint2_linear_746_3107)"/>
<path d="M65.8301 30.8437V3.50586H88.4121V8.42752H71.8849V14.8709H82.8632V19.6383H71.8849V30.849H65.8301V30.8437Z" fill="#1C2539"/>
<path d="M94.3358 8.07073C93.4432 8.07073 92.6814 7.77277 92.0389 7.17153C91.3965 6.57029 91.0781 5.85732 91.0781 5.02196C91.0781 4.16001 91.3965 3.44171 92.0389 2.85643C92.6814 2.27116 93.4432 1.97852 94.3358 1.97852C95.2568 1.97852 96.0244 2.27116 96.6497 2.85643C97.2751 3.44171 97.5878 4.16533 97.5878 5.02196C97.5878 5.85732 97.2751 6.57029 96.6497 7.17153C96.0244 7.77277 95.2568 8.07073 94.3358 8.07073ZM91.4988 30.8434V10.497H97.2183V30.8487H91.4988V30.8434Z" fill="#1C2539"/>
<path d="M101.682 30.8462V10.4997H107.401V12.1811C109.044 10.803 111.074 10.1113 113.496 10.1113C115.19 10.1113 116.691 10.4572 117.981 11.1489C119.278 11.8406 120.284 12.7877 121.006 14.0008C121.728 15.2139 122.092 16.6239 122.092 18.2414V30.8568H116.372V19.0235C116.372 17.6933 115.969 16.6452 115.161 15.879C114.354 15.1128 113.257 14.7244 111.864 14.7244C110.892 14.7244 110.028 14.9 109.277 15.2511C108.527 15.6023 107.901 16.1025 107.401 16.7569V30.8568H101.682V30.8462Z" fill="#1C2539"/>
<path d="M126.43 30.8445V3.50662L132.149 2.60742V12.1368C133.872 10.8599 135.907 10.2214 138.244 10.2214C140.302 10.2214 142.167 10.6896 143.838 11.626C145.51 12.5625 146.834 13.8182 147.823 15.3931C148.813 16.968 149.307 18.7345 149.307 20.6872C149.307 22.6399 148.807 24.4064 147.806 25.9813C146.806 27.5563 145.453 28.8066 143.759 29.7324C142.059 30.6582 140.171 31.1211 138.085 31.1211C136.999 31.1211 135.941 30.9775 134.912 30.6902C133.883 30.4028 132.934 29.9878 132.075 29.4398V30.8445H126.43ZM137.323 26.5879C138.517 26.5879 139.597 26.3272 140.558 25.8057C141.518 25.2843 142.275 24.582 142.832 23.6987C143.389 22.8155 143.668 21.8099 143.668 20.6925C143.668 19.5752 143.389 18.5642 142.832 17.665C142.275 16.7658 141.518 16.0635 140.558 15.558C139.597 15.0526 138.517 14.7972 137.323 14.7972C136.265 14.7972 135.299 14.9621 134.423 15.2867C133.548 15.6113 132.786 16.1008 132.149 16.7499V24.6778C132.763 25.279 133.519 25.7472 134.423 26.0824C135.327 26.4176 136.294 26.5879 137.323 26.5879Z" fill="#1C2539"/>
<path d="M155.607 8.07073C154.715 8.07073 153.953 7.77277 153.31 7.17153C152.668 6.57029 152.35 5.85732 152.35 5.02196C152.35 4.16001 152.668 3.44171 153.31 2.85643C153.947 2.27116 154.715 1.97852 155.607 1.97852C156.528 1.97852 157.296 2.27116 157.921 2.85643C158.547 3.44171 158.859 4.16533 158.859 5.02196C158.859 5.85732 158.547 6.57029 157.921 7.17153C157.296 7.77277 156.523 8.07073 155.607 8.07073ZM152.77 30.8434V10.497H158.49V30.8487H152.77V30.8434Z" fill="#1C2539"/>
<path d="M161.826 30.8459V27.0575L172.759 14.9848H161.906V10.4941H180.059V14.2825L169.126 26.3499H180.355V30.8406H161.826V30.8459Z" fill="#1C2539"/>
<path d="M66.4199 46.8739V37.5062H70.7948C71.459 37.5062 72.0365 37.6088 72.5274 37.814C73.0183 38.0192 73.3985 38.3092 73.6681 38.6839C73.9376 39.0497 74.0723 39.4824 74.0723 39.982C74.0723 40.437 73.9472 40.8384 73.6969 41.1864C73.4467 41.5343 73.0953 41.8109 72.6429 42.0161C73.2108 42.2035 73.6536 42.4889 73.9713 42.8726C74.2985 43.2473 74.4622 43.6889 74.4622 44.1974C74.4622 44.7417 74.3178 45.2145 74.029 45.616C73.7499 46.0174 73.3456 46.3297 72.8162 46.5527C72.2964 46.7669 71.6852 46.8739 70.9825 46.8739H66.4199ZM67.936 41.4808H70.7082C71.2761 41.4808 71.7285 41.3559 72.0654 41.1061C72.4023 40.8563 72.5707 40.5173 72.5707 40.089C72.5707 39.6608 72.4023 39.3218 72.0654 39.072C71.7285 38.8222 71.2761 38.6973 70.7082 38.6973H67.936V41.4808ZM67.936 45.6829H70.867C71.5023 45.6829 72.0028 45.5446 72.3686 45.268C72.744 44.9915 72.9317 44.6167 72.9317 44.1439C72.9317 43.68 72.744 43.3097 72.3686 43.0332C72.0028 42.7477 71.5023 42.6049 70.867 42.6049H67.936V45.6829Z" fill="#1C2539"/>
<path d="M78.6368 47.0077C78.0689 47.0077 77.5684 46.8962 77.1352 46.6732C76.7021 46.4501 76.3652 46.1379 76.1245 45.7364C75.8839 45.326 75.7636 44.8576 75.7636 44.3313V40.0623H77.193V44.1038C77.193 44.6391 77.3566 45.0628 77.6839 45.3751C78.0208 45.6873 78.4684 45.8435 79.0267 45.8435C79.4213 45.8435 79.7726 45.7676 80.0807 45.616C80.3887 45.4554 80.639 45.2323 80.8315 44.9468V40.0623H82.2753V46.8739H80.8315V46.178C80.2636 46.7312 79.532 47.0077 78.6368 47.0077Z" fill="#1C2539"/>
<path d="M86.5113 47.0077C85.876 47.0077 85.2792 46.923 84.721 46.7535C84.1723 46.575 83.6958 46.3252 83.2915 46.0041L84.0857 45.1208C84.4611 45.3974 84.8461 45.6115 85.2407 45.7632C85.645 45.9059 86.0541 45.9773 86.468 45.9773C86.9878 45.9773 87.4113 45.8836 87.7386 45.6963C88.0659 45.5089 88.2295 45.2636 88.2295 44.9602C88.2295 44.7104 88.1333 44.5142 87.9407 44.3714C87.7482 44.2287 87.4498 44.1305 87.0455 44.077L85.7172 43.903C84.9857 43.8049 84.437 43.5952 84.0712 43.274C83.7054 42.9529 83.5226 42.5246 83.5226 41.9893C83.5226 41.5789 83.6429 41.2221 83.8835 40.9187C84.1242 40.6065 84.4611 40.3656 84.8942 40.1961C85.3274 40.0177 85.8327 39.9284 86.4103 39.9284C86.9397 39.9284 87.4498 39.9998 87.9407 40.1426C88.4316 40.2853 88.9033 40.5083 89.3557 40.8117L88.6193 41.6949C88.2151 41.4451 87.8204 41.2622 87.4354 41.1462C87.06 41.0303 86.6798 40.9723 86.2947 40.9723C85.852 40.9723 85.4958 41.0615 85.2263 41.2399C84.9568 41.4094 84.822 41.6325 84.822 41.909C84.822 42.1588 84.9135 42.3551 85.0964 42.4979C85.2889 42.6317 85.6017 42.7254 86.0349 42.7789L87.3632 42.9529C88.0947 43.051 88.6482 43.2607 89.0236 43.5818C89.399 43.8941 89.5867 44.3179 89.5867 44.8532C89.5867 45.2636 89.452 45.6338 89.1824 45.9639C88.9129 46.2851 88.5472 46.5394 88.0851 46.7267C87.6231 46.9141 87.0985 47.0077 86.5113 47.0077Z" fill="#1C2539"/>
<path d="M90.6962 46.8739V40.0623H92.1401V46.8739H90.6962ZM91.4182 38.9649C91.1775 38.9649 90.9706 38.8846 90.7973 38.724C90.624 38.5545 90.5374 38.3582 90.5374 38.1352C90.5374 37.9032 90.624 37.7114 90.7973 37.5597C90.9706 37.3992 91.1775 37.3189 91.4182 37.3189C91.6684 37.3189 91.8802 37.3992 92.0535 37.5597C92.2267 37.7114 92.3133 37.9032 92.3133 38.1352C92.3133 38.3582 92.2267 38.5545 92.0535 38.724C91.8802 38.8846 91.6684 38.9649 91.4182 38.9649Z" fill="#1C2539"/>
<path d="M93.8406 46.8739V40.0623H95.2844V40.7581C95.8523 40.205 96.5887 39.9284 97.4935 39.9284C98.0614 39.9284 98.5571 40.04 98.9807 40.263C99.4138 40.486 99.7507 40.7983 99.9914 41.1998C100.242 41.6012 100.367 42.0652 100.367 42.5915V46.8739H98.9229V42.819C98.9229 42.2837 98.7593 41.8644 98.432 41.5611C98.1144 41.2488 97.6668 41.0927 97.0892 41.0927C96.7042 41.0927 96.3577 41.1685 96.0496 41.3202C95.7416 41.4719 95.4865 41.6905 95.2844 41.9759V46.8739H93.8406Z" fill="#1C2539"/>
<path d="M105.556 46.9944C104.834 46.9944 104.179 46.8382 103.592 46.526C103.015 46.2137 102.553 45.7899 102.206 45.2546C101.869 44.7193 101.701 44.1216 101.701 43.4614C101.701 42.8101 101.864 42.2213 102.192 41.6949C102.519 41.1596 102.962 40.7358 103.52 40.4236C104.078 40.1024 104.699 39.9418 105.382 39.9418C106.066 39.9418 106.672 40.1024 107.202 40.4236C107.731 40.7358 108.15 41.1641 108.458 41.7083C108.775 42.2436 108.934 42.8503 108.934 43.5283V43.903H103.144C103.221 44.2777 103.371 44.6123 103.592 44.9067C103.823 45.2011 104.112 45.4331 104.458 45.6026C104.815 45.7721 105.2 45.8569 105.613 45.8569C105.97 45.8569 106.311 45.8078 106.639 45.7096C106.975 45.6026 107.255 45.4509 107.476 45.2546L108.4 46.0977C107.967 46.4011 107.519 46.6286 107.057 46.7802C106.605 46.923 106.104 46.9944 105.556 46.9944ZM103.159 42.8993H107.505C107.447 42.5425 107.312 42.2302 107.101 41.9626C106.898 41.686 106.643 41.4719 106.335 41.3202C106.037 41.1596 105.71 41.0793 105.354 41.0793C104.988 41.0793 104.651 41.1552 104.343 41.3068C104.035 41.4585 103.775 41.6726 103.563 41.9492C103.361 42.2168 103.226 42.5336 103.159 42.8993Z" fill="#1C2539"/>
<path d="M112.907 47.0077C112.271 47.0077 111.675 46.923 111.116 46.7535C110.568 46.575 110.091 46.3252 109.687 46.0041L110.481 45.1208C110.856 45.3974 111.241 45.6115 111.636 45.7632C112.04 45.9059 112.449 45.9773 112.863 45.9773C113.383 45.9773 113.807 45.8836 114.134 45.6963C114.461 45.5089 114.625 45.2636 114.625 44.9602C114.625 44.7104 114.529 44.5142 114.336 44.3714C114.144 44.2287 113.845 44.1305 113.441 44.077L112.113 43.903C111.381 43.8049 110.832 43.5952 110.467 43.274C110.101 42.9529 109.918 42.5246 109.918 41.9893C109.918 41.5789 110.038 41.2221 110.279 40.9187C110.52 40.6065 110.856 40.3656 111.29 40.1961C111.723 40.0177 112.228 39.9284 112.806 39.9284C113.335 39.9284 113.845 39.9998 114.336 40.1426C114.827 40.2853 115.299 40.5083 115.751 40.8117L115.015 41.6949C114.61 41.4451 114.216 41.2622 113.831 41.1462C113.455 41.0303 113.075 40.9723 112.69 40.9723C112.247 40.9723 111.891 41.0615 111.622 41.2399C111.352 41.4094 111.217 41.6325 111.217 41.909C111.217 42.1588 111.309 42.3551 111.492 42.4979C111.684 42.6317 111.997 42.7254 112.43 42.7789L113.759 42.9529C114.49 43.051 115.044 43.2607 115.419 43.5818C115.794 43.8941 115.982 44.3179 115.982 44.8532C115.982 45.2636 115.847 45.6338 115.578 45.9639C115.308 46.2851 114.943 46.5394 114.481 46.7267C114.018 46.9141 113.494 47.0077 112.907 47.0077Z" fill="#1C2539"/>
<path d="M119.618 47.0077C118.983 47.0077 118.386 46.923 117.828 46.7535C117.279 46.575 116.803 46.3252 116.399 46.0041L117.193 45.1208C117.568 45.3974 117.953 45.6115 118.348 45.7632C118.752 45.9059 119.161 45.9773 119.575 45.9773C120.095 45.9773 120.518 45.8836 120.846 45.6963C121.173 45.5089 121.337 45.2636 121.337 44.9602C121.337 44.7104 121.24 44.5142 121.048 44.3714C120.855 44.2287 120.557 44.1305 120.153 44.077L118.824 43.903C118.093 43.8049 117.544 43.5952 117.178 43.274C116.812 42.9529 116.63 42.5246 116.63 41.9893C116.63 41.5789 116.75 41.2221 116.991 40.9187C117.231 40.6065 117.568 40.3656 118.001 40.1961C118.434 40.0177 118.94 39.9284 119.517 39.9284C120.047 39.9284 120.557 39.9998 121.048 40.1426C121.539 40.2853 122.01 40.5083 122.463 40.8117L121.726 41.6949C121.322 41.4451 120.927 41.2622 120.542 41.1462C120.167 41.0303 119.787 40.9723 119.402 40.9723C118.959 40.9723 118.603 41.0615 118.333 41.2399C118.064 41.4094 117.929 41.6325 117.929 41.909C117.929 42.1588 118.021 42.3551 118.203 42.4979C118.396 42.6317 118.709 42.7254 119.142 42.7789L120.47 42.9529C121.202 43.051 121.755 43.2607 122.131 43.5818C122.506 43.8941 122.694 44.3179 122.694 44.8532C122.694 45.2636 122.559 45.6338 122.289 45.9639C122.02 46.2851 121.654 46.5394 121.192 46.7267C120.73 46.9141 120.206 47.0077 119.618 47.0077Z" fill="#1C2539"/>
<path d="M130.416 47.0077C129.607 47.0077 128.828 46.8605 128.077 46.5661C127.326 46.2717 126.662 45.8569 126.084 45.3216L127.008 44.3313C127.557 44.8309 128.115 45.2011 128.683 45.442C129.261 45.6829 129.862 45.8033 130.488 45.8033C130.979 45.8033 131.407 45.7409 131.773 45.616C132.149 45.4821 132.437 45.2948 132.639 45.0539C132.842 44.813 132.943 44.5409 132.943 44.2376C132.943 43.8183 132.784 43.4971 132.466 43.274C132.149 43.051 131.624 42.8815 130.892 42.7655L129.203 42.5112C128.279 42.3596 127.586 42.083 127.124 41.6815C126.671 41.2801 126.445 40.7448 126.445 40.0756C126.445 39.5403 126.599 39.072 126.907 38.6705C127.215 38.2601 127.649 37.9434 128.207 37.7203C128.775 37.4973 129.429 37.3858 130.17 37.3858C130.902 37.3858 131.619 37.4973 132.322 37.7203C133.034 37.9345 133.674 38.2467 134.242 38.6571L133.405 39.7277C132.317 38.9604 131.215 38.5768 130.098 38.5768C129.655 38.5768 129.27 38.6348 128.943 38.7508C128.616 38.8668 128.361 39.0318 128.178 39.2459C127.995 39.4511 127.904 39.692 127.904 39.9686C127.904 40.3522 128.043 40.6466 128.322 40.8518C128.601 41.0481 129.063 41.1908 129.708 41.2801L131.34 41.5343C132.408 41.6949 133.193 41.9849 133.693 42.4042C134.194 42.8235 134.444 43.3989 134.444 44.1305C134.444 44.7015 134.276 45.2056 133.939 45.6427C133.602 46.071 133.13 46.4055 132.524 46.6464C131.917 46.8873 131.215 47.0077 130.416 47.0077Z" fill="#1C2539"/>
<path d="M139.311 47.0077C138.598 47.0077 137.949 46.8516 137.361 46.5394C136.784 46.2271 136.327 45.8033 135.99 45.268C135.653 44.7327 135.484 44.135 135.484 43.4748C135.484 42.8146 135.653 42.2168 135.99 41.6815C136.327 41.1462 136.784 40.7225 137.361 40.4102C137.949 40.089 138.598 39.9284 139.311 39.9284C140.033 39.9284 140.682 40.089 141.26 40.4102C141.837 40.7225 142.295 41.1462 142.632 41.6815C142.968 42.2168 143.137 42.8146 143.137 43.4748C143.137 44.135 142.968 44.7327 142.632 45.268C142.295 45.8033 141.837 46.2271 141.26 46.5394C140.682 46.8516 140.033 47.0077 139.311 47.0077ZM139.311 45.8301C139.763 45.8301 140.172 45.7275 140.538 45.5223C140.904 45.3082 141.192 45.0227 141.404 44.6658C141.616 44.309 141.722 43.9075 141.722 43.4614C141.722 43.0242 141.611 42.6317 141.39 42.2837C141.178 41.9269 140.889 41.6414 140.524 41.4273C140.167 41.2132 139.763 41.1061 139.311 41.1061C138.858 41.1061 138.449 41.2132 138.083 41.4273C137.727 41.6414 137.438 41.9269 137.217 42.2837C137.005 42.6317 136.899 43.0242 136.899 43.4614C136.899 43.9075 137.005 44.309 137.217 44.6658C137.429 45.0227 137.718 45.3082 138.083 45.5223C138.449 45.7275 138.858 45.8301 139.311 45.8301Z" fill="#1C2539"/>
<path d="M144.502 46.8739V37.5062L145.946 37.252V46.8739H144.502Z" fill="#1C2539"/>
<path d="M150.491 47.0077C149.923 47.0077 149.422 46.8962 148.989 46.6732C148.556 46.4501 148.219 46.1379 147.979 45.7364C147.738 45.326 147.618 44.8576 147.618 44.3313V40.0623H149.047V44.1038C149.047 44.6391 149.211 45.0628 149.538 45.3751C149.875 45.6873 150.322 45.8435 150.881 45.8435C151.275 45.8435 151.627 45.7676 151.935 45.616C152.243 45.4554 152.493 45.2323 152.686 44.9468V40.0623H154.129V46.8739H152.686V46.178C152.118 46.7312 151.386 47.0077 150.491 47.0077Z" fill="#1C2539"/>
<path d="M158.986 46.9944C158.274 46.9944 157.73 46.8427 157.355 46.5394C156.979 46.2271 156.792 45.7766 156.792 45.1877V41.1864H155.232V40.0623H156.792V38.3225L158.221 38.0014V40.0623H160.387V41.1864H158.221V44.8799C158.221 45.2279 158.303 45.4777 158.467 45.6294C158.64 45.7721 158.919 45.8435 159.304 45.8435C159.506 45.8435 159.684 45.8301 159.838 45.8033C160.002 45.7766 160.175 45.7364 160.358 45.6829V46.807C160.165 46.8695 159.939 46.9141 159.679 46.9408C159.429 46.9765 159.198 46.9944 158.986 46.9944Z" fill="#1C2539"/>
<path d="M161.451 46.8739V40.0623H162.894V46.8739H161.451ZM162.172 38.9649C161.932 38.9649 161.725 38.8846 161.552 38.724C161.378 38.5545 161.292 38.3582 161.292 38.1352C161.292 37.9032 161.378 37.7114 161.552 37.5597C161.725 37.3992 161.932 37.3189 162.172 37.3189C162.423 37.3189 162.634 37.3992 162.808 37.5597C162.981 37.7114 163.068 37.9032 163.068 38.1352C163.068 38.3582 162.981 38.5545 162.808 38.724C162.634 38.8846 162.423 38.9649 162.172 38.9649Z" fill="#1C2539"/>
<path d="M168.089 47.0077C167.377 47.0077 166.727 46.8516 166.14 46.5394C165.562 46.2271 165.105 45.8033 164.768 45.268C164.431 44.7327 164.263 44.135 164.263 43.4748C164.263 42.8146 164.431 42.2168 164.768 41.6815C165.105 41.1462 165.562 40.7225 166.14 40.4102C166.727 40.089 167.377 39.9284 168.089 39.9284C168.811 39.9284 169.461 40.089 170.038 40.4102C170.616 40.7225 171.073 41.1462 171.41 41.6815C171.747 42.2168 171.915 42.8146 171.915 43.4748C171.915 44.135 171.747 44.7327 171.41 45.268C171.073 45.8033 170.616 46.2271 170.038 46.5394C169.461 46.8516 168.811 47.0077 168.089 47.0077ZM168.089 45.8301C168.541 45.8301 168.95 45.7275 169.316 45.5223C169.682 45.3082 169.971 45.0227 170.183 44.6658C170.394 44.309 170.5 43.9075 170.5 43.4614C170.5 43.0242 170.39 42.6317 170.168 42.2837C169.956 41.9269 169.668 41.6414 169.302 41.4273C168.946 41.2132 168.541 41.1061 168.089 41.1061C167.637 41.1061 167.227 41.2132 166.862 41.4273C166.506 41.6414 166.217 41.9269 165.995 42.2837C165.784 42.6317 165.678 43.0242 165.678 43.4614C165.678 43.9075 165.784 44.309 165.995 44.6658C166.207 45.0227 166.496 45.3082 166.862 45.5223C167.227 45.7275 167.637 45.8301 168.089 45.8301Z" fill="#1C2539"/>
<path d="M173.281 46.8739V40.0623H174.724V40.7581C175.292 40.205 176.029 39.9284 176.933 39.9284C177.501 39.9284 177.997 40.04 178.421 40.263C178.854 40.486 179.191 40.7983 179.431 41.1998C179.682 41.6012 179.807 42.0652 179.807 42.5915V46.8739H178.363V42.819C178.363 42.2837 178.199 41.8644 177.872 41.5611C177.554 41.2488 177.107 41.0927 176.529 41.0927C176.144 41.0927 175.798 41.1685 175.49 41.3202C175.182 41.4719 174.927 41.6905 174.724 41.9759V46.8739H173.281Z" fill="#1C2539"/>
<defs>
<linearGradient id="paint0_linear_746_3107" x1="36.7976" y1="1.02651" x2="37.5148" y2="47.8362" gradientUnits="userSpaceOnUse">
<stop offset="0.244792" stop-color="#5264F3"/>
<stop offset="1" stop-color="#2B38A4"/>
</linearGradient>
<linearGradient id="paint1_linear_746_3107" x1="25.0132" y1="12.4094" x2="25.5588" y2="48.0279" gradientUnits="userSpaceOnUse">
<stop offset="0.244792" stop-color="#5264F3"/>
<stop offset="1" stop-color="#2B38A4"/>
</linearGradient>
<linearGradient id="paint2_linear_746_3107" x1="13.2445" y1="24.3781" x2="13.6097" y2="48.2208" gradientUnits="userSpaceOnUse">
<stop offset="0.244792" stop-color="#5264F3"/>
<stop offset="1" stop-color="#2B38A4"/>
</linearGradient>
</defs>
</svg>
