<svg width="181" height="49" viewBox="0 0 181 49" fill="none" xmlns="http://www.w3.org/2000/svg">
<path d="M30.9007 8.04791L41.6153 7.88378L29.6133 1.14453L30.9007 8.04791Z" fill="white"/>
<path d="M14.6622 48.2093L0.75 41.793L13.5698 41.5966L14.6622 48.2093Z" fill="white"/>
<path d="M29.5993 1.13681L50.8839 39.8619L44.6661 47.7267L23.637 8.82017L29.5993 1.13681Z" fill="url(#paint0_linear_746_2745)"/>
<path d="M21.2529 12.467L35.8178 40.1012L29.8589 47.962L14.9067 19.867L21.2529 12.467Z" fill="url(#paint1_linear_746_2745)"/>
<path d="M12.1625 24.3946L20.7725 41.0052L14.6739 48.2045L6.18534 31.362L12.1625 24.3946Z" fill="url(#paint2_linear_746_2745)"/>
<path d="M65.8301 30.8398V3.50195H88.4121V8.42361H71.8849V14.867H82.8632V19.6344H71.8849V30.8451H65.8301V30.8398Z" fill="white"/>
<path d="M94.3358 8.06683C93.4432 8.06683 92.6814 7.76887 92.0389 7.16763C91.3965 6.56639 91.0781 5.85341 91.0781 5.01806C91.0781 4.1561 91.3965 3.43781 92.0389 2.85253C92.6814 2.26725 93.4432 1.97461 94.3358 1.97461C95.2568 1.97461 96.0244 2.26725 96.6497 2.85253C97.2751 3.43781 97.5878 4.16142 97.5878 5.01806C97.5878 5.85341 97.2751 6.56639 96.6497 7.16763C96.0244 7.76887 95.2568 8.06683 94.3358 8.06683ZM91.4988 30.8395V10.4931H97.2183V30.8448H91.4988V30.8395Z" fill="white"/>
<path d="M101.682 30.8423V10.4958H107.401V12.1772C109.044 10.7991 111.074 10.1074 113.496 10.1074C115.19 10.1074 116.691 10.4533 117.981 11.145C119.278 11.8367 120.284 12.7837 121.006 13.9969C121.728 15.21 122.092 16.62 122.092 18.2375V30.8529H116.372V19.0196C116.372 17.6894 115.969 16.6413 115.161 15.8751C114.354 15.1089 113.257 14.7205 111.864 14.7205C110.892 14.7205 110.028 14.8961 109.277 15.2472C108.527 15.5984 107.901 16.0985 107.401 16.753V30.8529H101.682V30.8423Z" fill="white"/>
<path d="M126.43 30.8406V3.50272L132.149 2.60352V12.1329C133.872 10.8559 135.907 10.2175 138.244 10.2175C140.302 10.2175 142.167 10.6857 143.838 11.6221C145.51 12.5586 146.834 13.8143 147.823 15.3892C148.813 16.9641 149.307 18.7306 149.307 20.6833C149.307 22.636 148.807 24.4025 147.806 25.9774C146.806 27.5523 145.453 28.8027 143.759 29.7285C142.059 30.6543 140.171 31.1172 138.085 31.1172C136.999 31.1172 135.941 30.9736 134.912 30.6863C133.883 30.3989 132.934 29.9839 132.075 29.4359V30.8406H126.43ZM137.323 26.584C138.517 26.584 139.597 26.3233 140.558 25.8018C141.518 25.2804 142.275 24.5781 142.832 23.6948C143.389 22.8116 143.668 21.806 143.668 20.6886C143.668 19.5713 143.389 18.5603 142.832 17.6611C142.275 16.7619 141.518 16.0596 140.558 15.5541C139.597 15.0487 138.517 14.7933 137.323 14.7933C136.265 14.7933 135.299 14.9582 134.423 15.2828C133.548 15.6073 132.786 16.0969 132.149 16.746V24.6738C132.763 25.2751 133.519 25.7433 134.423 26.0785C135.327 26.4137 136.294 26.584 137.323 26.584Z" fill="white"/>
<path d="M155.607 8.06683C154.715 8.06683 153.953 7.76887 153.31 7.16763C152.668 6.56639 152.35 5.85341 152.35 5.01806C152.35 4.1561 152.668 3.43781 153.31 2.85253C153.947 2.26725 154.715 1.97461 155.607 1.97461C156.528 1.97461 157.296 2.26725 157.921 2.85253C158.547 3.43781 158.859 4.16142 158.859 5.01806C158.859 5.85341 158.547 6.56639 157.921 7.16763C157.296 7.76887 156.523 8.06683 155.607 8.06683ZM152.77 30.8395V10.4931H158.49V30.8448H152.77V30.8395Z" fill="white"/>
<path d="M161.826 30.842V27.0536L172.759 14.9809H161.906V10.4902H180.059V14.2786L169.126 26.346H180.355V30.8366H161.826V30.842Z" fill="white"/>
<path d="M66.4199 46.87V37.5023H70.7948C71.459 37.5023 72.0365 37.6049 72.5274 37.8101C73.0183 38.0153 73.3985 38.3053 73.6681 38.68C73.9376 39.0458 74.0723 39.4785 74.0723 39.9781C74.0723 40.4331 73.9472 40.8345 73.6969 41.1825C73.4467 41.5304 73.0953 41.807 72.6429 42.0122C73.2108 42.1995 73.6536 42.485 73.9713 42.8687C74.2985 43.2434 74.4622 43.685 74.4622 44.1935C74.4622 44.7377 74.3178 45.2106 74.029 45.6121C73.7499 46.0135 73.3456 46.3258 72.8162 46.5488C72.2964 46.763 71.6852 46.87 70.9825 46.87H66.4199ZM67.936 41.4769H70.7082C71.2761 41.4769 71.7285 41.352 72.0654 41.1022C72.4023 40.8524 72.5707 40.5134 72.5707 40.0851C72.5707 39.6569 72.4023 39.3179 72.0654 39.0681C71.7285 38.8183 71.2761 38.6933 70.7082 38.6933H67.936V41.4769ZM67.936 45.679H70.867C71.5023 45.679 72.0028 45.5407 72.3686 45.2641C72.744 44.9876 72.9317 44.6128 72.9317 44.14C72.9317 43.6761 72.744 43.3058 72.3686 43.0293C72.0028 42.7438 71.5023 42.601 70.867 42.601H67.936V45.679Z" fill="white"/>
<path d="M78.6368 47.0038C78.0689 47.0038 77.5684 46.8923 77.1352 46.6693C76.7021 46.4462 76.3652 46.134 76.1245 45.7325C75.8839 45.3221 75.7636 44.8537 75.7636 44.3274V40.0584H77.193V44.0998C77.193 44.6351 77.3566 45.0589 77.6839 45.3712C78.0208 45.6834 78.4684 45.8396 79.0267 45.8396C79.4213 45.8396 79.7726 45.7637 80.0807 45.6121C80.3887 45.4515 80.639 45.2284 80.8315 44.9429V40.0584H82.2753V46.87H80.8315V46.1741C80.2636 46.7273 79.532 47.0038 78.6368 47.0038Z" fill="white"/>
<path d="M86.5113 47.0038C85.876 47.0038 85.2792 46.9191 84.721 46.7496C84.1723 46.5711 83.6958 46.3213 83.2915 46.0002L84.0857 45.1169C84.4611 45.3935 84.8461 45.6076 85.2407 45.7593C85.645 45.902 86.0541 45.9734 86.468 45.9734C86.9878 45.9734 87.4113 45.8797 87.7386 45.6924C88.0659 45.505 88.2295 45.2597 88.2295 44.9563C88.2295 44.7065 88.1333 44.5102 87.9407 44.3675C87.7482 44.2248 87.4498 44.1266 87.0455 44.0731L85.7172 43.8991C84.9857 43.801 84.437 43.5913 84.0712 43.2701C83.7054 42.949 83.5226 42.5207 83.5226 41.9854C83.5226 41.575 83.6429 41.2182 83.8835 40.9148C84.1242 40.6026 84.4611 40.3617 84.8942 40.1922C85.3274 40.0137 85.8327 39.9245 86.4103 39.9245C86.9397 39.9245 87.4498 39.9959 87.9407 40.1387C88.4316 40.2814 88.9033 40.5044 89.3557 40.8078L88.6193 41.691C88.2151 41.4412 87.8204 41.2583 87.4354 41.1423C87.06 41.0264 86.6798 40.9684 86.2947 40.9684C85.852 40.9684 85.4958 41.0576 85.2263 41.236C84.9568 41.4055 84.822 41.6286 84.822 41.9051C84.822 42.1549 84.9135 42.3512 85.0964 42.494C85.2889 42.6278 85.6017 42.7215 86.0349 42.775L87.3632 42.949C88.0947 43.0471 88.6482 43.2568 89.0236 43.5779C89.399 43.8902 89.5867 44.314 89.5867 44.8493C89.5867 45.2597 89.452 45.6299 89.1824 45.96C88.9129 46.2812 88.5472 46.5355 88.0851 46.7228C87.6231 46.9102 87.0985 47.0038 86.5113 47.0038Z" fill="white"/>
<path d="M90.6962 46.87V40.0584H92.1401V46.87H90.6962ZM91.4182 38.961C91.1775 38.961 90.9706 38.8807 90.7973 38.7201C90.624 38.5506 90.5374 38.3543 90.5374 38.1313C90.5374 37.8993 90.624 37.7075 90.7973 37.5558C90.9706 37.3953 91.1775 37.315 91.4182 37.315C91.6684 37.315 91.8802 37.3953 92.0535 37.5558C92.2267 37.7075 92.3133 37.8993 92.3133 38.1313C92.3133 38.3543 92.2267 38.5506 92.0535 38.7201C91.8802 38.8807 91.6684 38.961 91.4182 38.961Z" fill="white"/>
<path d="M93.8406 46.87V40.0584H95.2844V40.7542C95.8523 40.2011 96.5887 39.9245 97.4935 39.9245C98.0614 39.9245 98.5571 40.0361 98.9807 40.2591C99.4138 40.4821 99.7507 40.7944 99.9914 41.1959C100.242 41.5973 100.367 42.0613 100.367 42.5876V46.87H98.9229V42.8151C98.9229 42.2798 98.7593 41.8605 98.432 41.5572C98.1144 41.2449 97.6668 41.0888 97.0892 41.0888C96.7042 41.0888 96.3577 41.1646 96.0496 41.3163C95.7416 41.468 95.4865 41.6866 95.2844 41.972V46.87H93.8406Z" fill="white"/>
<path d="M105.556 46.9905C104.834 46.9905 104.179 46.8343 103.592 46.5221C103.015 46.2098 102.553 45.786 102.206 45.2507C101.869 44.7154 101.701 44.1177 101.701 43.4575C101.701 42.8062 101.864 42.2174 102.192 41.691C102.519 41.1557 102.962 40.7319 103.52 40.4197C104.078 40.0985 104.699 39.9379 105.382 39.9379C106.066 39.9379 106.672 40.0985 107.202 40.4197C107.731 40.7319 108.15 41.1602 108.458 41.7044C108.775 42.2397 108.934 42.8464 108.934 43.5244V43.8991H103.144C103.221 44.2738 103.371 44.6084 103.592 44.9028C103.823 45.1972 104.112 45.4292 104.458 45.5987C104.815 45.7682 105.2 45.8529 105.613 45.8529C105.97 45.8529 106.311 45.8039 106.639 45.7057C106.975 45.5987 107.255 45.447 107.476 45.2507L108.4 46.0938C107.967 46.3972 107.519 46.6247 107.057 46.7763C106.605 46.9191 106.104 46.9905 105.556 46.9905ZM103.159 42.8954H107.505C107.447 42.5386 107.312 42.2263 107.101 41.9587C106.898 41.6821 106.643 41.468 106.335 41.3163C106.037 41.1557 105.71 41.0754 105.354 41.0754C104.988 41.0754 104.651 41.1513 104.343 41.3029C104.035 41.4546 103.775 41.6687 103.563 41.9453C103.361 42.2129 103.226 42.5296 103.159 42.8954Z" fill="white"/>
<path d="M112.907 47.0038C112.271 47.0038 111.675 46.9191 111.116 46.7496C110.568 46.5711 110.091 46.3213 109.687 46.0002L110.481 45.1169C110.856 45.3935 111.241 45.6076 111.636 45.7593C112.04 45.902 112.449 45.9734 112.863 45.9734C113.383 45.9734 113.807 45.8797 114.134 45.6924C114.461 45.505 114.625 45.2597 114.625 44.9563C114.625 44.7065 114.529 44.5102 114.336 44.3675C114.144 44.2248 113.845 44.1266 113.441 44.0731L112.113 43.8991C111.381 43.801 110.832 43.5913 110.467 43.2701C110.101 42.949 109.918 42.5207 109.918 41.9854C109.918 41.575 110.038 41.2182 110.279 40.9148C110.52 40.6026 110.856 40.3617 111.29 40.1922C111.723 40.0137 112.228 39.9245 112.806 39.9245C113.335 39.9245 113.845 39.9959 114.336 40.1387C114.827 40.2814 115.299 40.5044 115.751 40.8078L115.015 41.691C114.61 41.4412 114.216 41.2583 113.831 41.1423C113.455 41.0264 113.075 40.9684 112.69 40.9684C112.247 40.9684 111.891 41.0576 111.622 41.236C111.352 41.4055 111.217 41.6286 111.217 41.9051C111.217 42.1549 111.309 42.3512 111.492 42.494C111.684 42.6278 111.997 42.7215 112.43 42.775L113.759 42.949C114.49 43.0471 115.044 43.2568 115.419 43.5779C115.794 43.8902 115.982 44.314 115.982 44.8493C115.982 45.2597 115.847 45.6299 115.578 45.96C115.308 46.2812 114.943 46.5355 114.481 46.7228C114.018 46.9102 113.494 47.0038 112.907 47.0038Z" fill="white"/>
<path d="M119.618 47.0038C118.983 47.0038 118.386 46.9191 117.828 46.7496C117.279 46.5711 116.803 46.3213 116.399 46.0002L117.193 45.1169C117.568 45.3935 117.953 45.6076 118.348 45.7593C118.752 45.902 119.161 45.9734 119.575 45.9734C120.095 45.9734 120.518 45.8797 120.846 45.6924C121.173 45.505 121.337 45.2597 121.337 44.9563C121.337 44.7065 121.24 44.5102 121.048 44.3675C120.855 44.2248 120.557 44.1266 120.153 44.0731L118.824 43.8991C118.093 43.801 117.544 43.5913 117.178 43.2701C116.812 42.949 116.63 42.5207 116.63 41.9854C116.63 41.575 116.75 41.2182 116.991 40.9148C117.231 40.6026 117.568 40.3617 118.001 40.1922C118.434 40.0137 118.94 39.9245 119.517 39.9245C120.047 39.9245 120.557 39.9959 121.048 40.1387C121.539 40.2814 122.01 40.5044 122.463 40.8078L121.726 41.691C121.322 41.4412 120.927 41.2583 120.542 41.1423C120.167 41.0264 119.787 40.9684 119.402 40.9684C118.959 40.9684 118.603 41.0576 118.333 41.236C118.064 41.4055 117.929 41.6286 117.929 41.9051C117.929 42.1549 118.021 42.3512 118.203 42.494C118.396 42.6278 118.709 42.7215 119.142 42.775L120.47 42.949C121.202 43.0471 121.755 43.2568 122.131 43.5779C122.506 43.8902 122.694 44.314 122.694 44.8493C122.694 45.2597 122.559 45.6299 122.289 45.96C122.02 46.2812 121.654 46.5355 121.192 46.7228C120.73 46.9102 120.206 47.0038 119.618 47.0038Z" fill="white"/>
<path d="M130.416 47.0038C129.607 47.0038 128.828 46.8566 128.077 46.5622C127.326 46.2678 126.662 45.8529 126.084 45.3177L127.008 44.3274C127.557 44.827 128.115 45.1972 128.683 45.4381C129.261 45.679 129.862 45.7994 130.488 45.7994C130.979 45.7994 131.407 45.737 131.773 45.6121C132.149 45.4782 132.437 45.2909 132.639 45.05C132.842 44.8091 132.943 44.537 132.943 44.2337C132.943 43.8144 132.784 43.4932 132.466 43.2701C132.149 43.0471 131.624 42.8776 130.892 42.7616L129.203 42.5073C128.279 42.3557 127.586 42.0791 127.124 41.6776C126.671 41.2762 126.445 40.7409 126.445 40.0717C126.445 39.5364 126.599 39.0681 126.907 38.6666C127.215 38.2562 127.649 37.9395 128.207 37.7164C128.775 37.4934 129.429 37.3819 130.17 37.3819C130.902 37.3819 131.619 37.4934 132.322 37.7164C133.034 37.9306 133.674 38.2428 134.242 38.6532L133.405 39.7238C132.317 38.9565 131.215 38.5729 130.098 38.5729C129.655 38.5729 129.27 38.6309 128.943 38.7469C128.616 38.8629 128.361 39.0279 128.178 39.242C127.995 39.4472 127.904 39.6881 127.904 39.9647C127.904 40.3483 128.043 40.6427 128.322 40.8479C128.601 41.0442 129.063 41.1869 129.708 41.2762L131.34 41.5304C132.408 41.691 133.193 41.981 133.693 42.4003C134.194 42.8196 134.444 43.395 134.444 44.1266C134.444 44.6976 134.276 45.2017 133.939 45.6388C133.602 46.0671 133.13 46.4016 132.524 46.6425C131.917 46.8834 131.215 47.0038 130.416 47.0038Z" fill="white"/>
<path d="M139.311 47.0038C138.598 47.0038 137.949 46.8477 137.361 46.5355C136.784 46.2232 136.327 45.7994 135.99 45.2641C135.653 44.7288 135.484 44.1311 135.484 43.4709C135.484 42.8107 135.653 42.2129 135.99 41.6776C136.327 41.1423 136.784 40.7186 137.361 40.4063C137.949 40.0851 138.598 39.9245 139.311 39.9245C140.033 39.9245 140.682 40.0851 141.26 40.4063C141.837 40.7186 142.295 41.1423 142.632 41.6776C142.968 42.2129 143.137 42.8107 143.137 43.4709C143.137 44.1311 142.968 44.7288 142.632 45.2641C142.295 45.7994 141.837 46.2232 141.26 46.5355C140.682 46.8477 140.033 47.0038 139.311 47.0038ZM139.311 45.8262C139.763 45.8262 140.172 45.7236 140.538 45.5184C140.904 45.3043 141.192 45.0188 141.404 44.6619C141.616 44.305 141.722 43.9036 141.722 43.4575C141.722 43.0203 141.611 42.6278 141.39 42.2798C141.178 41.923 140.889 41.6375 140.524 41.4234C140.167 41.2092 139.763 41.1022 139.311 41.1022C138.858 41.1022 138.449 41.2092 138.083 41.4234C137.727 41.6375 137.438 41.923 137.217 42.2798C137.005 42.6278 136.899 43.0203 136.899 43.4575C136.899 43.9036 137.005 44.305 137.217 44.6619C137.429 45.0188 137.718 45.3043 138.083 45.5184C138.449 45.7236 138.858 45.8262 139.311 45.8262Z" fill="white"/>
<path d="M144.502 46.87V37.5023L145.946 37.248V46.87H144.502Z" fill="white"/>
<path d="M150.491 47.0038C149.923 47.0038 149.422 46.8923 148.989 46.6693C148.556 46.4462 148.219 46.134 147.979 45.7325C147.738 45.3221 147.618 44.8537 147.618 44.3274V40.0584H149.047V44.0998C149.047 44.6351 149.211 45.0589 149.538 45.3712C149.875 45.6834 150.322 45.8396 150.881 45.8396C151.275 45.8396 151.627 45.7637 151.935 45.6121C152.243 45.4515 152.493 45.2284 152.686 44.9429V40.0584H154.129V46.87H152.686V46.1741C152.118 46.7273 151.386 47.0038 150.491 47.0038Z" fill="white"/>
<path d="M158.986 46.9905C158.274 46.9905 157.73 46.8388 157.355 46.5355C156.979 46.2232 156.792 45.7727 156.792 45.1838V41.1825H155.232V40.0584H156.792V38.3186L158.221 37.9975V40.0584H160.387V41.1825H158.221V44.876C158.221 45.224 158.303 45.4738 158.467 45.6254C158.64 45.7682 158.919 45.8396 159.304 45.8396C159.506 45.8396 159.684 45.8262 159.838 45.7994C160.002 45.7727 160.175 45.7325 160.358 45.679V46.8031C160.165 46.8656 159.939 46.9102 159.679 46.9369C159.429 46.9726 159.198 46.9905 158.986 46.9905Z" fill="white"/>
<path d="M161.451 46.87V40.0584H162.894V46.87H161.451ZM162.172 38.961C161.932 38.961 161.725 38.8807 161.552 38.7201C161.378 38.5506 161.292 38.3543 161.292 38.1313C161.292 37.8993 161.378 37.7075 161.552 37.5558C161.725 37.3953 161.932 37.315 162.172 37.315C162.423 37.315 162.634 37.3953 162.808 37.5558C162.981 37.7075 163.068 37.8993 163.068 38.1313C163.068 38.3543 162.981 38.5506 162.808 38.7201C162.634 38.8807 162.423 38.961 162.172 38.961Z" fill="white"/>
<path d="M168.089 47.0038C167.377 47.0038 166.727 46.8477 166.14 46.5355C165.562 46.2232 165.105 45.7994 164.768 45.2641C164.431 44.7288 164.263 44.1311 164.263 43.4709C164.263 42.8107 164.431 42.2129 164.768 41.6776C165.105 41.1423 165.562 40.7186 166.14 40.4063C166.727 40.0851 167.377 39.9245 168.089 39.9245C168.811 39.9245 169.461 40.0851 170.038 40.4063C170.616 40.7186 171.073 41.1423 171.41 41.6776C171.747 42.2129 171.915 42.8107 171.915 43.4709C171.915 44.1311 171.747 44.7288 171.41 45.2641C171.073 45.7994 170.616 46.2232 170.038 46.5355C169.461 46.8477 168.811 47.0038 168.089 47.0038ZM168.089 45.8262C168.541 45.8262 168.95 45.7236 169.316 45.5184C169.682 45.3043 169.971 45.0188 170.183 44.6619C170.394 44.305 170.5 43.9036 170.5 43.4575C170.5 43.0203 170.39 42.6278 170.168 42.2798C169.956 41.923 169.668 41.6375 169.302 41.4234C168.946 41.2092 168.541 41.1022 168.089 41.1022C167.637 41.1022 167.227 41.2092 166.862 41.4234C166.506 41.6375 166.217 41.923 165.995 42.2798C165.784 42.6278 165.678 43.0203 165.678 43.4575C165.678 43.9036 165.784 44.305 165.995 44.6619C166.207 45.0188 166.496 45.3043 166.862 45.5184C167.227 45.7236 167.637 45.8262 168.089 45.8262Z" fill="white"/>
<path d="M173.281 46.87V40.0584H174.724V40.7542C175.292 40.2011 176.029 39.9245 176.933 39.9245C177.501 39.9245 177.997 40.0361 178.421 40.2591C178.854 40.4821 179.191 40.7944 179.431 41.1959C179.682 41.5973 179.807 42.0613 179.807 42.5876V46.87H178.363V42.8151C178.363 42.2798 178.199 41.8605 177.872 41.5572C177.554 41.2449 177.107 41.0888 176.529 41.0888C176.144 41.0888 175.798 41.1646 175.49 41.3163C175.182 41.468 174.927 41.6866 174.724 41.972V46.87H173.281Z" fill="white"/>
<defs>
<linearGradient id="paint0_linear_746_2745" x1="36.7976" y1="1.02651" x2="37.5148" y2="47.8362" gradientUnits="userSpaceOnUse">
<stop offset="0.244792" stop-color="#5264F3"/>
<stop offset="1" stop-color="#2B38A4"/>
</linearGradient>
<linearGradient id="paint1_linear_746_2745" x1="25.0132" y1="12.4094" x2="25.5588" y2="48.0279" gradientUnits="userSpaceOnUse">
<stop offset="0.244792" stop-color="#5264F3"/>
<stop offset="1" stop-color="#2B38A4"/>
</linearGradient>
<linearGradient id="paint2_linear_746_2745" x1="13.2445" y1="24.3781" x2="13.6097" y2="48.2208" gradientUnits="userSpaceOnUse">
<stop offset="0.244792" stop-color="#5264F3"/>
<stop offset="1" stop-color="#2B38A4"/>
</linearGradient>
</defs>
</svg>
