<svg width="181" height="51" viewBox="0 0 181 51" fill="none" xmlns="http://www.w3.org/2000/svg">
<path d="M30.8948 7.69703L41.6153 7.51571L29.6133 0.449219L30.8948 7.69703Z" fill="#1C2539"/>
<path d="M14.6623 49.9036L0.75 43.1797L13.5757 42.9628L14.6623 49.9036Z" fill="#1C2539"/>
<path d="M29.6092 0.445263L50.8909 41.1194L44.6556 49.3889L23.63 8.52391L29.6092 0.445263Z" fill="url(#paint0_linear_190_16)"/>
<path d="M21.2633 12.351L35.825 41.3764L29.8491 49.6415L14.9 20.1322L21.2633 12.351Z" fill="url(#paint1_linear_190_16)"/>
<path d="M12.1719 24.8848L20.7791 42.3314L14.6643 49.9012L6.17899 32.2108L12.1719 24.8848Z" fill="url(#paint2_linear_190_16)"/>
<path d="M65.8301 31.6646V2.92578H88.4121V8.09967H71.8849V14.8733H82.8632V19.885H71.8849V31.6702H65.8301V31.6646Z" fill="#1C2539"/>
<path d="M94.3358 7.72475C93.4432 7.72475 92.6814 7.41152 92.0389 6.77947C91.3965 6.14741 91.0781 5.3979 91.0781 4.51973C91.0781 3.61361 91.3965 2.8585 92.0389 2.24322C92.6814 1.62795 93.4432 1.32031 94.3358 1.32031C95.2568 1.32031 96.0244 1.62795 96.6497 2.24322C97.2751 2.8585 97.5878 3.6192 97.5878 4.51973C97.5878 5.3979 97.2751 6.14741 96.6497 6.77947C96.0244 7.41152 95.2568 7.72475 94.3358 7.72475ZM91.4988 31.6645V10.2753H97.2183V31.6701H91.4988V31.6645Z" fill="#1C2539"/>
<path d="M101.682 31.6647V10.2755H107.401V12.043C109.044 10.5943 111.074 9.86719 113.496 9.86719C115.19 9.86719 116.691 10.2308 117.981 10.9579C119.278 11.685 120.284 12.6807 121.006 13.956C121.728 15.2313 122.092 16.7135 122.092 18.4139V31.6758H116.372V19.2361C116.372 17.8378 115.969 16.7359 115.161 15.9304C114.354 15.125 113.257 14.7167 111.864 14.7167C110.892 14.7167 110.028 14.9012 109.277 15.2704C108.527 15.6396 107.901 16.1654 107.401 16.8533V31.6758H101.682V31.6647Z" fill="#1C2539"/>
<path d="M126.43 31.6646V2.92575L132.149 1.98047V11.9982C133.872 10.6558 135.907 9.98462 138.244 9.98462C140.302 9.98462 142.167 10.4768 143.838 11.4613C145.51 12.4457 146.834 13.7658 147.823 15.4214C148.813 17.077 149.307 18.9341 149.307 20.9868C149.307 23.0396 148.807 24.8966 147.806 26.5523C146.806 28.2079 145.453 29.5224 143.759 30.4956C142.059 31.4689 140.171 31.9555 138.085 31.9555C136.999 31.9555 135.941 31.8045 134.912 31.5024C133.883 31.2004 132.934 30.7641 132.075 30.188V31.6646H126.43ZM137.323 27.1899C138.517 27.1899 139.597 26.9158 140.558 26.3677C141.518 25.8195 142.275 25.0812 142.832 24.1527C143.389 23.2242 143.668 22.167 143.668 20.9924C143.668 19.8178 143.389 18.7551 142.832 17.8098C142.275 16.8645 141.518 16.1262 140.558 15.5948C139.597 15.0634 138.517 14.7949 137.323 14.7949C136.265 14.7949 135.299 14.9683 134.423 15.3095C133.548 15.6507 132.786 16.1653 132.149 16.8477V25.1819C132.763 25.8139 133.519 26.3062 134.423 26.6585C135.327 27.0109 136.294 27.1899 137.323 27.1899Z" fill="#1C2539"/>
<path d="M155.607 7.72475C154.715 7.72475 153.953 7.41152 153.31 6.77947C152.668 6.14741 152.35 5.3979 152.35 4.51973C152.35 3.61361 152.668 2.8585 153.31 2.24322C153.947 1.62795 154.715 1.32031 155.607 1.32031C156.528 1.32031 157.296 1.62795 157.921 2.24322C158.547 2.8585 158.859 3.6192 158.859 4.51973C158.859 5.3979 158.547 6.14741 157.921 6.77947C157.296 7.41152 156.523 7.72475 155.607 7.72475ZM152.77 31.6645V10.2753H158.49V31.6701H152.77V31.6645Z" fill="#1C2539"/>
<path d="M161.826 31.6643V27.6818L172.759 14.9904H161.906V10.2695H180.059V14.252L169.126 26.9379H180.355V31.6587H161.826V31.6643Z" fill="#1C2539"/>
<path d="M66.4199 48.5192V38.6697H70.7948C71.459 38.6697 72.0365 38.7776 72.5274 38.9933C73.0183 39.2091 73.3985 39.5139 73.6681 39.9079C73.9376 40.2925 74.0723 40.7475 74.0723 41.2728C74.0723 41.7512 73.9472 42.1733 73.6969 42.5392C73.4467 42.905 73.0953 43.1958 72.6429 43.4115C73.2108 43.6085 73.6536 43.9087 73.9713 44.3121C74.2985 44.7061 74.4622 45.1704 74.4622 45.7051C74.4622 46.2773 74.3178 46.7745 74.029 47.1966C73.7499 47.6187 73.3456 47.947 72.8162 48.1815C72.2964 48.4067 71.6852 48.5192 70.9825 48.5192H66.4199ZM67.936 42.8487H70.7082C71.2761 42.8487 71.7285 42.7174 72.0654 42.4547C72.4023 42.1921 72.5707 41.8356 72.5707 41.3854C72.5707 40.9351 72.4023 40.5786 72.0654 40.316C71.7285 40.0533 71.2761 39.922 70.7082 39.922H67.936V42.8487ZM67.936 47.2669H70.867C71.5023 47.2669 72.0028 47.1215 72.3686 46.8308C72.744 46.54 72.9317 46.146 72.9317 45.6488C72.9317 45.161 72.744 44.7717 72.3686 44.4809C72.0028 44.1808 71.5023 44.0307 70.867 44.0307H67.936V47.2669Z" fill="#1C2539"/>
<path d="M78.6368 48.66C78.0689 48.66 77.5684 48.5427 77.1352 48.3082C76.7021 48.0737 76.3652 47.7454 76.1245 47.3232C75.8839 46.8917 75.7636 46.3992 75.7636 45.8458V41.3572H77.193V45.6066C77.193 46.1694 77.3566 46.615 77.6839 46.9433C78.0208 47.2716 78.4684 47.4358 79.0267 47.4358C79.4213 47.4358 79.7726 47.3561 80.0807 47.1966C80.3887 47.0277 80.639 46.7932 80.8315 46.4931V41.3572H82.2753V48.5192H80.8315V47.7876C80.2636 48.3692 79.532 48.66 78.6368 48.66Z" fill="#1C2539"/>
<path d="M86.5113 48.66C85.876 48.66 85.2792 48.5708 84.721 48.3926C84.1723 48.205 83.6958 47.9423 83.2915 47.6046L84.0857 46.676C84.4611 46.9668 84.8461 47.1919 85.2407 47.3514C85.645 47.5015 86.0541 47.5765 86.468 47.5765C86.9878 47.5765 87.4113 47.478 87.7386 47.281C88.0659 47.084 88.2295 46.8261 88.2295 46.5071C88.2295 46.2445 88.1333 46.0381 87.9407 45.888C87.7482 45.7379 87.4498 45.6347 87.0455 45.5784L85.7172 45.3955C84.9857 45.2923 84.437 45.0719 84.0712 44.7342C83.7054 44.3965 83.5226 43.9462 83.5226 43.3834C83.5226 42.9519 83.6429 42.5767 83.8835 42.2577C84.1242 41.9294 84.4611 41.6761 84.8942 41.4979C85.3274 41.3103 85.8327 41.2165 86.4103 41.2165C86.9397 41.2165 87.4498 41.2915 87.9407 41.4416C88.4316 41.5917 88.9033 41.8262 89.3557 42.1452L88.6193 43.0738C88.2151 42.8112 87.8204 42.6189 87.4354 42.4969C87.06 42.375 86.6798 42.314 86.2947 42.314C85.852 42.314 85.4958 42.4078 85.2263 42.5954C84.9568 42.7737 84.822 43.0082 84.822 43.299C84.822 43.5616 84.9135 43.768 85.0964 43.9181C85.2889 44.0588 85.6017 44.1573 86.0349 44.2136L87.3632 44.3965C88.0947 44.4997 88.6482 44.7201 89.0236 45.0578C89.399 45.3861 89.5867 45.8317 89.5867 46.3946C89.5867 46.8261 89.452 47.2154 89.1824 47.5624C88.9129 47.9001 88.5472 48.1675 88.0851 48.3645C87.6231 48.5615 87.0985 48.66 86.5113 48.66Z" fill="#1C2539"/>
<path d="M90.6962 48.5192V41.3572H92.1401V48.5192H90.6962ZM91.4182 40.2034C91.1775 40.2034 90.9706 40.119 90.7973 39.9501C90.624 39.7719 90.5374 39.5655 90.5374 39.331C90.5374 39.0871 90.624 38.8854 90.7973 38.726C90.9706 38.5571 91.1775 38.4727 91.4182 38.4727C91.6684 38.4727 91.8802 38.5571 92.0535 38.726C92.2267 38.8854 92.3133 39.0871 92.3133 39.331C92.3133 39.5655 92.2267 39.7719 92.0535 39.9501C91.8802 40.119 91.6684 40.2034 91.4182 40.2034Z" fill="#1C2539"/>
<path d="M93.8406 48.5192V41.3572H95.2844V42.0889C95.8523 41.5073 96.5887 41.2165 97.4935 41.2165C98.0614 41.2165 98.5571 41.3338 98.9807 41.5683C99.4138 41.8028 99.7507 42.1311 99.9914 42.5532C100.242 42.9754 100.367 43.4631 100.367 44.0166V48.5192H98.9229V44.2558C98.9229 43.693 98.7593 43.2521 98.432 42.9331C98.1144 42.6048 97.6668 42.4407 97.0892 42.4407C96.7042 42.4407 96.3577 42.5204 96.0496 42.6799C95.7416 42.8393 95.4865 43.0692 95.2844 43.3693V48.5192H93.8406Z" fill="#1C2539"/>
<path d="M105.556 48.6459C104.834 48.6459 104.179 48.4817 103.592 48.1534C103.015 47.8251 102.553 47.3795 102.206 46.8167C101.869 46.2538 101.701 45.6254 101.701 44.9312C101.701 44.2464 101.864 43.6273 102.192 43.0738C102.519 42.511 102.962 42.0654 103.52 41.7371C104.078 41.3994 104.699 41.2306 105.382 41.2306C106.066 41.2306 106.672 41.3994 107.202 41.7371C107.731 42.0654 108.15 42.5157 108.458 43.0879C108.775 43.6508 108.934 44.2886 108.934 45.0015V45.3955H103.144C103.221 45.7895 103.371 46.1413 103.592 46.4508C103.823 46.7604 104.112 47.0043 104.458 47.1825C104.815 47.3608 105.2 47.4499 105.613 47.4499C105.97 47.4499 106.311 47.3983 106.639 47.2951C106.975 47.1825 107.255 47.0231 107.476 46.8167L108.4 47.7031C107.967 48.0221 107.519 48.2613 107.057 48.4208C106.605 48.5708 106.104 48.6459 105.556 48.6459ZM103.159 44.3402H107.505C107.447 43.965 107.312 43.6367 107.101 43.3553C106.898 43.0645 106.643 42.8393 106.335 42.6799C106.037 42.511 105.71 42.4266 105.354 42.4266C104.988 42.4266 104.651 42.5063 104.343 42.6658C104.035 42.8253 103.775 43.0504 103.563 43.3412C103.361 43.6226 103.226 43.9556 103.159 44.3402Z" fill="#1C2539"/>
<path d="M112.907 48.66C112.271 48.66 111.675 48.5708 111.116 48.3926C110.568 48.205 110.091 47.9423 109.687 47.6046L110.481 46.676C110.856 46.9668 111.241 47.1919 111.636 47.3514C112.04 47.5015 112.449 47.5765 112.863 47.5765C113.383 47.5765 113.807 47.478 114.134 47.281C114.461 47.084 114.625 46.8261 114.625 46.5071C114.625 46.2445 114.529 46.0381 114.336 45.888C114.144 45.7379 113.845 45.6347 113.441 45.5784L112.113 45.3955C111.381 45.2923 110.832 45.0719 110.467 44.7342C110.101 44.3965 109.918 43.9462 109.918 43.3834C109.918 42.9519 110.038 42.5767 110.279 42.2577C110.52 41.9294 110.856 41.6761 111.29 41.4979C111.723 41.3103 112.228 41.2165 112.806 41.2165C113.335 41.2165 113.845 41.2915 114.336 41.4416C114.827 41.5917 115.299 41.8262 115.751 42.1452L115.015 43.0738C114.61 42.8112 114.216 42.6189 113.831 42.4969C113.455 42.375 113.075 42.314 112.69 42.314C112.247 42.314 111.891 42.4078 111.622 42.5954C111.352 42.7737 111.217 43.0082 111.217 43.299C111.217 43.5616 111.309 43.768 111.492 43.9181C111.684 44.0588 111.997 44.1573 112.43 44.2136L113.759 44.3965C114.49 44.4997 115.044 44.7201 115.419 45.0578C115.794 45.3861 115.982 45.8317 115.982 46.3946C115.982 46.8261 115.847 47.2154 115.578 47.5624C115.308 47.9001 114.943 48.1675 114.481 48.3645C114.018 48.5615 113.494 48.66 112.907 48.66Z" fill="#1C2539"/>
<path d="M119.618 48.66C118.983 48.66 118.386 48.5708 117.828 48.3926C117.279 48.205 116.803 47.9423 116.399 47.6046L117.193 46.676C117.568 46.9668 117.953 47.1919 118.348 47.3514C118.752 47.5015 119.161 47.5765 119.575 47.5765C120.095 47.5765 120.518 47.478 120.846 47.281C121.173 47.084 121.337 46.8261 121.337 46.5071C121.337 46.2445 121.24 46.0381 121.048 45.888C120.855 45.7379 120.557 45.6347 120.153 45.5784L118.824 45.3955C118.093 45.2923 117.544 45.0719 117.178 44.7342C116.812 44.3965 116.63 43.9462 116.63 43.3834C116.63 42.9519 116.75 42.5767 116.991 42.2577C117.231 41.9294 117.568 41.6761 118.001 41.4979C118.434 41.3103 118.94 41.2165 119.517 41.2165C120.047 41.2165 120.557 41.2915 121.048 41.4416C121.539 41.5917 122.01 41.8262 122.463 42.1452L121.726 43.0738C121.322 42.8112 120.927 42.6189 120.542 42.4969C120.167 42.375 119.787 42.314 119.402 42.314C118.959 42.314 118.603 42.4078 118.333 42.5954C118.064 42.7737 117.929 43.0082 117.929 43.299C117.929 43.5616 118.021 43.768 118.203 43.9181C118.396 44.0588 118.709 44.1573 119.142 44.2136L120.47 44.3965C121.202 44.4997 121.755 44.7201 122.131 45.0578C122.506 45.3861 122.694 45.8317 122.694 46.3946C122.694 46.8261 122.559 47.2154 122.289 47.5624C122.02 47.9001 121.654 48.1675 121.192 48.3645C120.73 48.5615 120.206 48.66 119.618 48.66Z" fill="#1C2539"/>
<path d="M130.416 48.66C129.607 48.66 128.828 48.5052 128.077 48.1956C127.326 47.8861 126.662 47.4499 126.084 46.887L127.008 45.8458C127.557 46.3711 128.115 46.7604 128.683 47.0137C129.261 47.2669 129.862 47.3936 130.488 47.3936C130.979 47.3936 131.407 47.3279 131.773 47.1966C132.149 47.0559 132.437 46.8589 132.639 46.6056C132.842 46.3523 132.943 46.0662 132.943 45.7473C132.943 45.3064 132.784 44.9687 132.466 44.7342C132.149 44.4997 131.624 44.3215 130.892 44.1995L129.203 43.9322C128.279 43.7727 127.586 43.4819 127.124 43.0598C126.671 42.6377 126.445 42.0748 126.445 41.3713C126.445 40.8084 126.599 40.316 126.907 39.8938C127.215 39.4623 127.649 39.1293 128.207 38.8948C128.775 38.6603 129.429 38.5431 130.17 38.5431C130.902 38.5431 131.619 38.6603 132.322 38.8948C133.034 39.12 133.674 39.4483 134.242 39.8798L133.405 41.0054C132.317 40.1987 131.215 39.7954 130.098 39.7954C129.655 39.7954 129.27 39.8563 128.943 39.9783C128.616 40.1002 128.361 40.2738 128.178 40.4989C127.995 40.7146 127.904 40.9679 127.904 41.2587C127.904 41.6621 128.043 41.9716 128.322 42.1874C128.601 42.3938 129.063 42.5438 129.708 42.6377L131.34 42.905C132.408 43.0738 133.193 43.3787 133.693 43.8196C134.194 44.2605 134.444 44.8655 134.444 45.6347C134.444 46.2351 134.276 46.7651 133.939 47.2247C133.602 47.675 133.13 48.0268 132.524 48.28C131.917 48.5333 131.215 48.66 130.416 48.66Z" fill="#1C2539"/>
<path d="M139.311 48.66C138.598 48.66 137.949 48.4958 137.361 48.1675C136.784 47.8392 136.327 47.3936 135.99 46.8308C135.653 46.2679 135.484 45.6394 135.484 44.9453C135.484 44.2511 135.653 43.6226 135.99 43.0598C136.327 42.4969 136.784 42.0514 137.361 41.7231C137.949 41.3854 138.598 41.2165 139.311 41.2165C140.033 41.2165 140.682 41.3854 141.26 41.7231C141.837 42.0514 142.295 42.4969 142.632 43.0598C142.968 43.6226 143.137 44.2511 143.137 44.9453C143.137 45.6394 142.968 46.2679 142.632 46.8308C142.295 47.3936 141.837 47.8392 141.26 48.1675C140.682 48.4958 140.033 48.66 139.311 48.66ZM139.311 47.4217C139.763 47.4217 140.172 47.3138 140.538 47.0981C140.904 46.873 141.192 46.5728 141.404 46.1976C141.616 45.8223 141.722 45.4002 141.722 44.9312C141.722 44.4715 141.611 44.0588 141.39 43.693C141.178 43.3177 140.889 43.0176 140.524 42.7924C140.167 42.5673 139.763 42.4547 139.311 42.4547C138.858 42.4547 138.449 42.5673 138.083 42.7924C137.727 43.0176 137.438 43.3177 137.217 43.693C137.005 44.0588 136.899 44.4715 136.899 44.9312C136.899 45.4002 137.005 45.8223 137.217 46.1976C137.429 46.5728 137.718 46.873 138.083 47.0981C138.449 47.3138 138.858 47.4217 139.311 47.4217Z" fill="#1C2539"/>
<path d="M144.502 48.5192V38.6697L145.946 38.4023V48.5192H144.502Z" fill="#1C2539"/>
<path d="M150.491 48.66C149.923 48.66 149.422 48.5427 148.989 48.3082C148.556 48.0737 148.219 47.7454 147.979 47.3232C147.738 46.8917 147.618 46.3992 147.618 45.8458V41.3572H149.047V45.6066C149.047 46.1694 149.211 46.615 149.538 46.9433C149.875 47.2716 150.322 47.4358 150.881 47.4358C151.275 47.4358 151.627 47.3561 151.935 47.1966C152.243 47.0277 152.493 46.7932 152.686 46.4931V41.3572H154.129V48.5192H152.686V47.7876C152.118 48.3692 151.386 48.66 150.491 48.66Z" fill="#1C2539"/>
<path d="M158.986 48.6459C158.274 48.6459 157.73 48.4864 157.355 48.1675C156.979 47.8392 156.792 47.3654 156.792 46.7463V42.5392H155.232V41.3572H156.792V39.528L158.221 39.1903V41.3572H160.387V42.5392H158.221V46.4227C158.221 46.7885 158.303 47.0512 158.467 47.2107C158.64 47.3608 158.919 47.4358 159.304 47.4358C159.506 47.4358 159.684 47.4217 159.838 47.3936C160.002 47.3654 160.175 47.3232 160.358 47.2669V48.4489C160.165 48.5146 159.939 48.5615 159.679 48.5896C159.429 48.6271 159.198 48.6459 158.986 48.6459Z" fill="#1C2539"/>
<path d="M161.451 48.5192V41.3572H162.894V48.5192H161.451ZM162.172 40.2034C161.932 40.2034 161.725 40.119 161.552 39.9501C161.378 39.7719 161.292 39.5655 161.292 39.331C161.292 39.0871 161.378 38.8854 161.552 38.726C161.725 38.5571 161.932 38.4727 162.172 38.4727C162.423 38.4727 162.634 38.5571 162.808 38.726C162.981 38.8854 163.068 39.0871 163.068 39.331C163.068 39.5655 162.981 39.7719 162.808 39.9501C162.634 40.119 162.423 40.2034 162.172 40.2034Z" fill="#1C2539"/>
<path d="M168.089 48.66C167.377 48.66 166.727 48.4958 166.14 48.1675C165.562 47.8392 165.105 47.3936 164.768 46.8308C164.431 46.2679 164.263 45.6394 164.263 44.9453C164.263 44.2511 164.431 43.6226 164.768 43.0598C165.105 42.4969 165.562 42.0514 166.14 41.7231C166.727 41.3854 167.377 41.2165 168.089 41.2165C168.811 41.2165 169.461 41.3854 170.038 41.7231C170.616 42.0514 171.073 42.4969 171.41 43.0598C171.747 43.6226 171.915 44.2511 171.915 44.9453C171.915 45.6394 171.747 46.2679 171.41 46.8308C171.073 47.3936 170.616 47.8392 170.038 48.1675C169.461 48.4958 168.811 48.66 168.089 48.66ZM168.089 47.4217C168.541 47.4217 168.95 47.3138 169.316 47.0981C169.682 46.873 169.971 46.5728 170.183 46.1976C170.394 45.8223 170.5 45.4002 170.5 44.9312C170.5 44.4715 170.39 44.0588 170.168 43.693C169.956 43.3177 169.668 43.0176 169.302 42.7924C168.946 42.5673 168.541 42.4547 168.089 42.4547C167.637 42.4547 167.227 42.5673 166.862 42.7924C166.506 43.0176 166.217 43.3177 165.995 43.693C165.784 44.0588 165.678 44.4715 165.678 44.9312C165.678 45.4002 165.784 45.8223 165.995 46.1976C166.207 46.5728 166.496 46.873 166.862 47.0981C167.227 47.3138 167.637 47.4217 168.089 47.4217Z" fill="#1C2539"/>
<path d="M173.281 48.5192V41.3572H174.724V42.0889C175.292 41.5073 176.029 41.2165 176.933 41.2165C177.501 41.2165 177.997 41.3338 178.421 41.5683C178.854 41.8028 179.191 42.1311 179.431 42.5532C179.682 42.9754 179.807 43.4631 179.807 44.0166V48.5192H178.363V44.2558C178.363 43.693 178.199 43.2521 177.872 42.9331C177.554 42.6048 177.107 42.4407 176.529 42.4407C176.144 42.4407 175.798 42.5204 175.49 42.6799C175.182 42.8393 174.927 43.0692 174.724 43.3693V48.5192H173.281Z" fill="#1C2539"/>
<defs>
<linearGradient id="paint0_linear_190_16" x1="36.8192" y1="0.323311" x2="37.6511" y2="49.5073" gradientUnits="userSpaceOnUse">
<stop offset="0.244792" stop-color="#045DE3"/>
<stop offset="1" stop-color="#003E9C"/>
</linearGradient>
<linearGradient id="paint1_linear_190_16" x1="25.0297" y1="12.2873" x2="25.6624" y2="49.7123" gradientUnits="userSpaceOnUse">
<stop offset="0.244792" stop-color="#045DE3"/>
<stop offset="1" stop-color="#003E9C"/>
</linearGradient>
<linearGradient id="paint2_linear_190_16" x1="13.2555" y1="24.8664" x2="13.679" y2="49.9179" gradientUnits="userSpaceOnUse">
<stop offset="0.244792" stop-color="#045DE3"/>
<stop offset="1" stop-color="#003E9C"/>
</linearGradient>
</defs>
</svg>
