<svg width="181" height="50" viewBox="0 0 181 50" fill="none" xmlns="http://www.w3.org/2000/svg">
<path d="M30.8949 7.59656L41.6153 7.41565L29.6133 0.357422L30.8949 7.59656Z" fill="#1C2539"/>
<path d="M14.6622 49.7611L0.75 43.0449L13.5755 42.8285L14.6622 49.7611Z" fill="#1C2539"/>
<path d="M29.609 0.355657L50.8909 40.9877L44.6559 49.2484L23.6302 8.42573L29.609 0.355657Z" fill="url(#paint0_linear_461_172)"/>
<path d="M21.2631 12.2477L35.8248 41.2431L29.8494 49.4994L14.9001 20.0207L21.2631 12.2477Z" fill="url(#paint1_linear_461_172)"/>
<path d="M12.1717 24.7678L20.779 42.1963L14.6645 49.7582L6.17912 32.0861L12.1717 24.7678Z" fill="url(#paint2_linear_461_172)"/>
<path d="M65.8301 31.5406V2.83203H88.4121V8.00047H71.8849V14.7669H82.8632V19.7733H71.8849V31.5462H65.8301V31.5406Z" fill="#1C2539"/>
<path d="M94.3358 7.6262C93.4432 7.6262 92.6814 7.3133 92.0389 6.68192C91.3965 6.05053 91.0781 5.3018 91.0781 4.42457C91.0781 3.51939 91.3965 2.76508 92.0389 2.15045C92.6814 1.53583 93.4432 1.22852 94.3358 1.22852C95.2568 1.22852 96.0244 1.53583 96.6497 2.15045C97.2751 2.76508 97.5878 3.52498 97.5878 4.42457C97.5878 5.3018 97.2751 6.05053 96.6497 6.68192C96.0244 7.3133 95.2568 7.6262 94.3358 7.6262ZM91.4988 31.5407V10.1741H97.2183V31.5463H91.4988V31.5407Z" fill="#1C2539"/>
<path d="M101.682 31.5401V10.1735H107.401V11.9392C109.044 10.492 111.074 9.76562 113.496 9.76562C115.19 9.76562 116.691 10.1288 117.981 10.8552C119.278 11.5816 120.284 12.5761 121.006 13.8501C121.728 15.124 122.092 16.6047 122.092 18.3033V31.5513H116.372V19.1247C116.372 17.7278 115.969 16.6271 115.161 15.8225C114.354 15.0179 113.257 14.61 111.864 14.61C110.892 14.61 110.028 14.7944 109.277 15.1632C108.527 15.5319 107.901 16.0571 107.401 16.7444V31.5513H101.682V31.5401Z" fill="#1C2539"/>
<path d="M126.43 31.5415V2.83296L132.149 1.88867V11.8959C133.872 10.5549 135.907 9.88438 138.244 9.88438C140.302 9.88438 142.167 10.3761 143.838 11.3595C145.51 12.3429 146.834 13.6615 147.823 15.3154C148.813 16.9693 149.307 18.8244 149.307 20.875C149.307 22.9256 148.807 24.7807 147.806 26.4346C146.806 28.0885 145.453 29.4015 143.759 30.3737C142.059 31.346 140.171 31.8321 138.085 31.8321C136.999 31.8321 135.941 31.6812 134.912 31.3795C133.883 31.0778 132.934 30.6419 132.075 30.0664V31.5415H126.43ZM137.323 27.0715C138.517 27.0715 139.597 26.7977 140.558 26.2502C141.518 25.7026 142.275 24.965 142.832 24.0375C143.389 23.11 143.668 22.054 143.668 20.8806C143.668 19.7072 143.389 18.6456 142.832 17.7013C142.275 16.757 141.518 16.0195 140.558 15.4886C139.597 14.9578 138.517 14.6896 137.323 14.6896C136.265 14.6896 135.299 14.8628 134.423 15.2037C133.548 15.5445 132.786 16.0586 132.149 16.7402V25.0656C132.763 25.697 133.519 26.1887 134.423 26.5407C135.327 26.8927 136.294 27.0715 137.323 27.0715Z" fill="#1C2539"/>
<path d="M155.607 7.6262C154.715 7.6262 153.953 7.3133 153.31 6.68192C152.668 6.05053 152.35 5.3018 152.35 4.42457C152.35 3.51939 152.668 2.76508 153.31 2.15045C153.947 1.53583 154.715 1.22852 155.607 1.22852C156.528 1.22852 157.296 1.53583 157.921 2.15045C158.547 2.76508 158.859 3.52498 158.859 4.42457C158.859 5.3018 158.547 6.05053 157.921 6.68192C157.296 7.3133 156.523 7.6262 155.607 7.6262ZM152.77 31.5407V10.1741H158.49V31.5463H152.77V31.5407Z" fill="#1C2539"/>
<path d="M161.826 31.5402V27.5619L172.759 14.8838H161.906V10.168H180.059V14.1463L169.126 26.8187H180.355V31.5346H161.826V31.5402Z" fill="#1C2539"/>
<path d="M66.4199 48.3759V38.5385H70.7948C71.459 38.5385 72.0365 38.6462 72.5274 38.8617C73.0183 39.0772 73.3985 39.3817 73.6681 39.7752C73.9376 40.1593 74.0723 40.6137 74.0723 41.1384C74.0723 41.6162 73.9472 42.0378 73.6969 42.4032C73.4467 42.7686 73.0953 43.059 72.6429 43.2745C73.2108 43.4713 73.6536 43.7711 73.9713 44.1739C74.2985 44.5674 74.4622 45.0312 74.4622 45.5652C74.4622 46.1367 74.3178 46.6333 74.029 47.0549C73.7499 47.4765 73.3456 47.8044 72.8162 48.0386C72.2964 48.2635 71.6852 48.3759 70.9825 48.3759H66.4199ZM67.936 42.7124H70.7082C71.2761 42.7124 71.7285 42.5812 72.0654 42.3189C72.4023 42.0565 72.5707 41.7005 72.5707 41.2508C72.5707 40.8011 72.4023 40.4451 72.0654 40.1828C71.7285 39.9204 71.2761 39.7893 70.7082 39.7893H67.936V42.7124ZM67.936 47.1251H70.867C71.5023 47.1251 72.0028 46.9799 72.3686 46.6895C72.744 46.3991 72.9317 46.0056 72.9317 45.509C72.9317 45.0218 72.744 44.633 72.3686 44.3426C72.0028 44.0428 71.5023 43.8929 70.867 43.8929H67.936V47.1251Z" fill="#1C2539"/>
<path d="M78.6368 48.5164C78.0689 48.5164 77.5684 48.3993 77.1352 48.1651C76.7021 47.9309 76.3652 47.603 76.1245 47.1814C75.8839 46.7504 75.7636 46.2585 75.7636 45.7057V41.2227H77.193V45.4668C77.193 46.029 77.3566 46.474 77.6839 46.8019C78.0208 47.1298 78.4684 47.2938 79.0267 47.2938C79.4213 47.2938 79.7726 47.2142 80.0807 47.0549C80.3887 46.8862 80.639 46.652 80.8315 46.3522V41.2227H82.2753V48.3759H80.8315V47.6451C80.2636 48.226 79.532 48.5164 78.6368 48.5164Z" fill="#1C2539"/>
<path d="M86.5113 48.5164C85.876 48.5164 85.2792 48.4274 84.721 48.2494C84.1723 48.062 83.6958 47.7997 83.2915 47.4624L84.0857 46.5349C84.4611 46.8253 84.8461 47.0502 85.2407 47.2095C85.645 47.3594 86.0541 47.4343 86.468 47.4343C86.9878 47.4343 87.4113 47.3359 87.7386 47.1392C88.0659 46.9425 88.2295 46.6848 88.2295 46.3663C88.2295 46.1039 88.1333 45.8978 87.9407 45.7479C87.7482 45.598 87.4498 45.4949 87.0455 45.4387L85.7172 45.256C84.9857 45.153 84.437 44.9328 84.0712 44.5955C83.7054 44.2582 83.5226 43.8085 83.5226 43.2464C83.5226 42.8154 83.6429 42.4407 83.8835 42.1221C84.1242 41.7942 84.4611 41.5412 84.8942 41.3632C85.3274 41.1759 85.8327 41.0822 86.4103 41.0822C86.9397 41.0822 87.4498 41.1571 87.9407 41.307C88.4316 41.4569 88.9033 41.6912 89.3557 42.0097L88.6193 42.9372C88.2151 42.6749 87.8204 42.4828 87.4354 42.361C87.06 42.2392 86.6798 42.1783 86.2947 42.1783C85.852 42.1783 85.4958 42.272 85.2263 42.4594C84.9568 42.6374 84.822 42.8716 84.822 43.1621C84.822 43.4244 84.9135 43.6305 85.0964 43.7804C85.2889 43.921 85.6017 44.0193 86.0349 44.0756L87.3632 44.2582C88.0947 44.3613 88.6482 44.5815 89.0236 44.9188C89.399 45.2467 89.5867 45.6917 89.5867 46.2538C89.5867 46.6848 89.452 47.0736 89.1824 47.4203C88.9129 47.7576 88.5472 48.0246 88.0851 48.2213C87.6231 48.4181 87.0985 48.5164 86.5113 48.5164Z" fill="#1C2539"/>
<path d="M90.6962 48.3759V41.2227H92.1401V48.3759H90.6962ZM91.4182 40.0703C91.1775 40.0703 90.9706 39.986 90.7973 39.8174C90.624 39.6394 90.5374 39.4332 90.5374 39.199C90.5374 38.9554 90.624 38.754 90.7973 38.5947C90.9706 38.4261 91.1775 38.3418 91.4182 38.3418C91.6684 38.3418 91.8802 38.4261 92.0535 38.5947C92.2267 38.754 92.3133 38.9554 92.3133 39.199C92.3133 39.4332 92.2267 39.6394 92.0535 39.8174C91.8802 39.986 91.6684 40.0703 91.4182 40.0703Z" fill="#1C2539"/>
<path d="M93.8406 48.3759V41.2227H95.2844V41.9535C95.8523 41.3726 96.5887 41.0822 97.4935 41.0822C98.0614 41.0822 98.5571 41.1993 98.9807 41.4335C99.4138 41.6677 99.7507 41.9956 99.9914 42.4172C100.242 42.8388 100.367 43.326 100.367 43.8788V48.3759H98.9229V44.1177C98.9229 43.5556 98.7593 43.1152 98.432 42.7967C98.1144 42.4688 97.6668 42.3048 97.0892 42.3048C96.7042 42.3048 96.3577 42.3845 96.0496 42.5437C95.7416 42.703 95.4865 42.9325 95.2844 43.2323V48.3759H93.8406Z" fill="#1C2539"/>
<path d="M105.556 48.5024C104.834 48.5024 104.179 48.3384 103.592 48.0105C103.015 47.6826 102.553 47.2376 102.206 46.6754C101.869 46.1133 101.701 45.4856 101.701 44.7923C101.701 44.1083 101.864 43.49 102.192 42.9372C102.519 42.3751 102.962 41.9301 103.52 41.6021C104.078 41.2649 104.699 41.0962 105.382 41.0962C106.066 41.0962 106.672 41.2649 107.202 41.6021C107.731 41.9301 108.15 42.3798 108.458 42.9513C108.775 43.5134 108.934 44.1505 108.934 44.8625V45.256H103.144C103.221 45.6495 103.371 46.0009 103.592 46.31C103.823 46.6192 104.112 46.8628 104.458 47.0408C104.815 47.2188 105.2 47.3078 105.613 47.3078C105.97 47.3078 106.311 47.2563 106.639 47.1533C106.975 47.0408 107.255 46.8816 107.476 46.6754L108.4 47.5608C107.967 47.8793 107.519 48.1183 107.057 48.2775C106.605 48.4274 106.104 48.5024 105.556 48.5024ZM103.159 44.202H107.505C107.447 43.8273 107.312 43.4994 107.101 43.2183C106.898 42.9279 106.643 42.703 106.335 42.5437C106.037 42.3751 105.71 42.2908 105.354 42.2908C104.988 42.2908 104.651 42.3704 104.343 42.5297C104.035 42.6889 103.775 42.9138 103.563 43.2042C103.361 43.4853 103.226 43.8179 103.159 44.202Z" fill="#1C2539"/>
<path d="M112.907 48.5164C112.271 48.5164 111.675 48.4274 111.116 48.2494C110.568 48.062 110.091 47.7997 109.687 47.4624L110.481 46.5349C110.856 46.8253 111.241 47.0502 111.636 47.2095C112.04 47.3594 112.449 47.4343 112.863 47.4343C113.383 47.4343 113.807 47.3359 114.134 47.1392C114.461 46.9425 114.625 46.6848 114.625 46.3663C114.625 46.1039 114.529 45.8978 114.336 45.7479C114.144 45.598 113.845 45.4949 113.441 45.4387L112.113 45.256C111.381 45.153 110.832 44.9328 110.467 44.5955C110.101 44.2582 109.918 43.8085 109.918 43.2464C109.918 42.8154 110.038 42.4407 110.279 42.1221C110.52 41.7942 110.856 41.5412 111.29 41.3632C111.723 41.1759 112.228 41.0822 112.806 41.0822C113.335 41.0822 113.845 41.1571 114.336 41.307C114.827 41.4569 115.299 41.6912 115.751 42.0097L115.015 42.9372C114.61 42.6749 114.216 42.4828 113.831 42.361C113.455 42.2392 113.075 42.1783 112.69 42.1783C112.247 42.1783 111.891 42.272 111.622 42.4594C111.352 42.6374 111.217 42.8716 111.217 43.1621C111.217 43.4244 111.309 43.6305 111.492 43.7804C111.684 43.921 111.997 44.0193 112.43 44.0756L113.759 44.2582C114.49 44.3613 115.044 44.5815 115.419 44.9188C115.794 45.2467 115.982 45.6917 115.982 46.2538C115.982 46.6848 115.847 47.0736 115.578 47.4203C115.308 47.7576 114.943 48.0246 114.481 48.2213C114.018 48.4181 113.494 48.5164 112.907 48.5164Z" fill="#1C2539"/>
<path d="M119.618 48.5164C118.983 48.5164 118.386 48.4274 117.828 48.2494C117.279 48.062 116.803 47.7997 116.399 47.4624L117.193 46.5349C117.568 46.8253 117.953 47.0502 118.348 47.2095C118.752 47.3594 119.161 47.4343 119.575 47.4343C120.095 47.4343 120.518 47.3359 120.846 47.1392C121.173 46.9425 121.337 46.6848 121.337 46.3663C121.337 46.1039 121.24 45.8978 121.048 45.7479C120.855 45.598 120.557 45.4949 120.153 45.4387L118.824 45.256C118.093 45.153 117.544 44.9328 117.178 44.5955C116.812 44.2582 116.63 43.8085 116.63 43.2464C116.63 42.8154 116.75 42.4407 116.991 42.1221C117.231 41.7942 117.568 41.5412 118.001 41.3632C118.434 41.1759 118.94 41.0822 119.517 41.0822C120.047 41.0822 120.557 41.1571 121.048 41.307C121.539 41.4569 122.01 41.6912 122.463 42.0097L121.726 42.9372C121.322 42.6749 120.927 42.4828 120.542 42.361C120.167 42.2392 119.787 42.1783 119.402 42.1783C118.959 42.1783 118.603 42.272 118.333 42.4594C118.064 42.6374 117.929 42.8716 117.929 43.1621C117.929 43.4244 118.021 43.6305 118.203 43.7804C118.396 43.921 118.709 44.0193 119.142 44.0756L120.47 44.2582C121.202 44.3613 121.755 44.5815 122.131 44.9188C122.506 45.2467 122.694 45.6917 122.694 46.2538C122.694 46.6848 122.559 47.0736 122.289 47.4203C122.02 47.7576 121.654 48.0246 121.192 48.2213C120.73 48.4181 120.206 48.5164 119.618 48.5164Z" fill="#1C2539"/>
<path d="M130.416 48.5164C129.607 48.5164 128.828 48.3618 128.077 48.0527C127.326 47.7435 126.662 47.3078 126.084 46.7457L127.008 45.7057C127.557 46.2304 128.115 46.6192 128.683 46.8722C129.261 47.1251 129.862 47.2516 130.488 47.2516C130.979 47.2516 131.407 47.186 131.773 47.0549C132.149 46.9143 132.437 46.7176 132.639 46.4646C132.842 46.2117 132.943 45.9259 132.943 45.6074C132.943 45.167 132.784 44.8298 132.466 44.5955C132.149 44.3613 131.624 44.1833 130.892 44.0615L129.203 43.7945C128.279 43.6352 127.586 43.3448 127.124 42.9232C126.671 42.5016 126.445 41.9394 126.445 41.2368C126.445 40.6746 126.599 40.1828 126.907 39.7611C127.215 39.3302 127.649 38.9976 128.207 38.7634C128.775 38.5291 129.429 38.412 130.17 38.412C130.902 38.412 131.619 38.5291 132.322 38.7634C133.034 38.9882 133.674 39.3161 134.242 39.7471L133.405 40.8714C132.317 40.0656 131.215 39.6628 130.098 39.6628C129.655 39.6628 129.27 39.7237 128.943 39.8455C128.616 39.9673 128.361 40.1406 128.178 40.3654C127.995 40.5809 127.904 40.8339 127.904 41.1243C127.904 41.5272 128.043 41.8364 128.322 42.0519C128.601 42.258 129.063 42.4079 129.708 42.5016L131.34 42.7686C132.408 42.9372 133.193 43.2417 133.693 43.6821C134.194 44.1224 134.444 44.7267 134.444 45.4949C134.444 46.0946 134.276 46.6239 133.939 47.083C133.602 47.5327 133.13 47.884 132.524 48.137C131.917 48.39 131.215 48.5164 130.416 48.5164Z" fill="#1C2539"/>
<path d="M139.311 48.5164C138.598 48.5164 137.949 48.3525 137.361 48.0246C136.784 47.6967 136.327 47.2516 135.99 46.6895C135.653 46.1274 135.484 45.4996 135.484 44.8063C135.484 44.113 135.653 43.4853 135.99 42.9232C136.327 42.361 136.784 41.916 137.361 41.5881C137.949 41.2508 138.598 41.0822 139.311 41.0822C140.033 41.0822 140.682 41.2508 141.26 41.5881C141.837 41.916 142.295 42.361 142.632 42.9232C142.968 43.4853 143.137 44.113 143.137 44.8063C143.137 45.4996 142.968 46.1274 142.632 46.6895C142.295 47.2516 141.837 47.6967 141.26 48.0246C140.682 48.3525 140.033 48.5164 139.311 48.5164ZM139.311 47.2797C139.763 47.2797 140.172 47.172 140.538 46.9565C140.904 46.7317 141.192 46.4318 141.404 46.0571C141.616 45.6823 141.722 45.2607 141.722 44.7923C141.722 44.3332 141.611 43.921 141.39 43.5556C141.178 43.1808 140.889 42.881 140.524 42.6562C140.167 42.4313 139.763 42.3189 139.311 42.3189C138.858 42.3189 138.449 42.4313 138.083 42.6562C137.727 42.881 137.438 43.1808 137.217 43.5556C137.005 43.921 136.899 44.3332 136.899 44.7923C136.899 45.2607 137.005 45.6823 137.217 46.0571C137.429 46.4318 137.718 46.7317 138.083 46.9565C138.449 47.172 138.858 47.2797 139.311 47.2797Z" fill="#1C2539"/>
<path d="M144.502 48.3759V38.5385L145.946 38.2715V48.3759H144.502Z" fill="#1C2539"/>
<path d="M150.491 48.5164C149.923 48.5164 149.422 48.3993 148.989 48.1651C148.556 47.9309 148.219 47.603 147.979 47.1814C147.738 46.7504 147.618 46.2585 147.618 45.7057V41.2227H149.047V45.4668C149.047 46.029 149.211 46.474 149.538 46.8019C149.875 47.1298 150.322 47.2938 150.881 47.2938C151.275 47.2938 151.627 47.2142 151.935 47.0549C152.243 46.8862 152.493 46.652 152.686 46.3522V41.2227H154.129V48.3759H152.686V47.6451C152.118 48.226 151.386 48.5164 150.491 48.5164Z" fill="#1C2539"/>
<path d="M158.986 48.5024C158.274 48.5024 157.73 48.3431 157.355 48.0246C156.979 47.6967 156.792 47.2235 156.792 46.6052V42.4032H155.232V41.2227H156.792V39.3958L158.221 39.0585V41.2227H160.387V42.4032H158.221V46.2819C158.221 46.6473 158.303 46.9097 158.467 47.0689C158.64 47.2188 158.919 47.2938 159.304 47.2938C159.506 47.2938 159.684 47.2797 159.838 47.2516C160.002 47.2235 160.175 47.1814 160.358 47.1251V48.3056C160.165 48.3712 159.939 48.4181 159.679 48.4462C159.429 48.4836 159.198 48.5024 158.986 48.5024Z" fill="#1C2539"/>
<path d="M161.451 48.3759V41.2227H162.894V48.3759H161.451ZM162.172 40.0703C161.932 40.0703 161.725 39.986 161.552 39.8174C161.378 39.6394 161.292 39.4332 161.292 39.199C161.292 38.9554 161.378 38.754 161.552 38.5947C161.725 38.4261 161.932 38.3418 162.172 38.3418C162.423 38.3418 162.634 38.4261 162.808 38.5947C162.981 38.754 163.068 38.9554 163.068 39.199C163.068 39.4332 162.981 39.6394 162.808 39.8174C162.634 39.986 162.423 40.0703 162.172 40.0703Z" fill="#1C2539"/>
<path d="M168.089 48.5164C167.377 48.5164 166.727 48.3525 166.14 48.0246C165.562 47.6967 165.105 47.2516 164.768 46.6895C164.431 46.1274 164.263 45.4996 164.263 44.8063C164.263 44.113 164.431 43.4853 164.768 42.9232C165.105 42.361 165.562 41.916 166.14 41.5881C166.727 41.2508 167.377 41.0822 168.089 41.0822C168.811 41.0822 169.461 41.2508 170.038 41.5881C170.616 41.916 171.073 42.361 171.41 42.9232C171.747 43.4853 171.915 44.113 171.915 44.8063C171.915 45.4996 171.747 46.1274 171.41 46.6895C171.073 47.2516 170.616 47.6967 170.038 48.0246C169.461 48.3525 168.811 48.5164 168.089 48.5164ZM168.089 47.2797C168.541 47.2797 168.95 47.172 169.316 46.9565C169.682 46.7317 169.971 46.4318 170.183 46.0571C170.394 45.6823 170.5 45.2607 170.5 44.7923C170.5 44.3332 170.39 43.921 170.168 43.5556C169.956 43.1808 169.668 42.881 169.302 42.6562C168.946 42.4313 168.541 42.3189 168.089 42.3189C167.637 42.3189 167.227 42.4313 166.862 42.6562C166.506 42.881 166.217 43.1808 165.995 43.5556C165.784 43.921 165.678 44.3332 165.678 44.7923C165.678 45.2607 165.784 45.6823 165.995 46.0571C166.207 46.4318 166.496 46.7317 166.862 46.9565C167.227 47.172 167.637 47.2797 168.089 47.2797Z" fill="#1C2539"/>
<path d="M173.281 48.3759V41.2227H174.724V41.9535C175.292 41.3726 176.029 41.0822 176.933 41.0822C177.501 41.0822 177.997 41.1993 178.421 41.4335C178.854 41.6677 179.191 41.9956 179.431 42.4172C179.682 42.8388 179.807 43.326 179.807 43.8788V48.3759H178.363V44.1177C178.363 43.5556 178.199 43.1152 177.872 42.7967C177.554 42.4688 177.107 42.3048 176.529 42.3048C176.144 42.3048 175.798 42.3845 175.49 42.5437C175.182 42.703 174.927 42.9325 174.724 43.2323V48.3759H173.281Z" fill="#1C2539"/>
<defs>
<linearGradient id="paint0_linear_461_172" x1="36.8187" y1="0.233983" x2="37.6479" y2="49.3667" gradientUnits="userSpaceOnUse">
<stop offset="0.244792" stop-color="#FF4D00"/>
<stop offset="1" stop-color="#A91E00"/>
</linearGradient>
<linearGradient id="paint1_linear_461_172" x1="25.0293" y1="12.1842" x2="25.6601" y2="49.5701" gradientUnits="userSpaceOnUse">
<stop offset="0.244792" stop-color="#FF4D00"/>
<stop offset="1" stop-color="#A91E00"/>
</linearGradient>
<linearGradient id="paint2_linear_461_172" x1="13.2553" y1="24.7495" x2="13.6775" y2="49.7748" gradientUnits="userSpaceOnUse">
<stop offset="0.244792" stop-color="#FF4D00"/>
<stop offset="1" stop-color="#A91E00"/>
</linearGradient>
</defs>
</svg>
