<svg width="181" height="50" viewBox="0 0 181 50" fill="none" xmlns="http://www.w3.org/2000/svg">
<path d="M30.8949 7.59656L41.6153 7.41565L29.6133 0.357422L30.8949 7.59656Z" fill="white"/>
<path d="M14.6622 49.7611L0.75 43.0449L13.5755 42.8285L14.6622 49.7611Z" fill="white"/>
<path d="M29.607 0.355657L50.889 40.9877L44.654 49.2484L23.6282 8.42573L29.607 0.355657Z" fill="url(#paint0_linear_546_2985)"/>
<path d="M21.2631 12.2477L35.8248 41.2431L29.8494 49.4994L14.9001 20.0207L21.2631 12.2477Z" fill="url(#paint1_linear_546_2985)"/>
<path d="M12.1697 24.7678L20.777 42.1963L14.6626 49.7582L6.17717 32.0861L12.1697 24.7678Z" fill="url(#paint2_linear_546_2985)"/>
<path d="M66.0391 31.5386V2.83008H88.6211V7.99851H72.0939V14.765H83.0722V19.7714H72.0939V31.5442H66.0391V31.5386Z" fill="white"/>
<path d="M94.5468 7.62425C93.6542 7.62425 92.8923 7.31135 92.2499 6.67996C91.6074 6.04857 91.2891 5.29985 91.2891 4.42261C91.2891 3.51744 91.6074 2.76313 92.2499 2.1485C92.8923 1.53388 93.6542 1.22656 94.5468 1.22656C95.4678 1.22656 96.2353 1.53388 96.8607 2.1485C97.4861 2.76313 97.7987 3.52303 97.7987 4.42261C97.7987 5.29985 97.4861 6.04857 96.8607 6.67996C96.2353 7.31135 95.4678 7.62425 94.5468 7.62425ZM91.7098 31.5387V10.1721H97.4292V31.5443H91.7098V31.5387Z" fill="white"/>
<path d="M101.891 31.5382V10.1716H107.61V11.9372C109.253 10.49 111.283 9.76367 113.705 9.76367C115.399 9.76367 116.9 10.1269 118.19 10.8532C119.487 11.5796 120.493 12.5742 121.215 13.8481C121.937 15.1221 122.301 16.6028 122.301 18.3014V31.5493H116.581V19.1227C116.581 17.7259 116.178 16.6251 115.37 15.8205C114.563 15.0159 113.466 14.608 112.073 14.608C111.101 14.608 110.237 14.7924 109.486 15.1612C108.736 15.53 108.11 16.0552 107.61 16.7425V31.5493H101.891V31.5382Z" fill="white"/>
<path d="M126.641 31.5396V2.83101L132.36 1.88672V11.8939C134.083 10.5529 136.118 9.88243 138.455 9.88243C140.513 9.88243 142.378 10.3741 144.049 11.3575C145.721 12.3409 147.045 13.6596 148.034 15.3135C149.024 16.9674 149.518 18.8224 149.518 20.873C149.518 22.9237 149.018 24.7787 148.017 26.4326C147.017 28.0865 145.664 29.3996 143.969 30.3718C142.27 31.344 140.382 31.8301 138.295 31.8301C137.21 31.8301 136.152 31.6793 135.123 31.3775C134.094 31.0758 133.145 30.64 132.286 30.0645V31.5396H126.641ZM137.534 27.0696C138.728 27.0696 139.808 26.7958 140.769 26.2482C141.729 25.7006 142.486 24.9631 143.043 24.0356C143.6 23.108 143.878 22.052 143.878 20.8786C143.878 19.7053 143.6 18.6436 143.043 17.6993C142.486 16.7551 141.729 16.0175 140.769 15.4867C139.808 14.9559 138.728 14.6877 137.534 14.6877C136.476 14.6877 135.51 14.8609 134.634 15.2017C133.759 15.5426 132.997 16.0566 132.36 16.7383V25.0637C132.974 25.6951 133.73 26.1868 134.634 26.5388C135.538 26.8908 136.505 27.0696 137.534 27.0696Z" fill="white"/>
<path d="M155.812 7.62425C154.92 7.62425 154.158 7.31135 153.516 6.67996C152.873 6.04857 152.555 5.29985 152.555 4.42261C152.555 3.51744 152.873 2.76313 153.516 2.1485C154.152 1.53388 154.92 1.22656 155.812 1.22656C156.733 1.22656 157.501 1.53388 158.126 2.1485C158.752 2.76313 159.064 3.52303 159.064 4.42261C159.064 5.29985 158.752 6.04857 158.126 6.67996C157.501 7.31135 156.728 7.62425 155.812 7.62425ZM152.975 31.5387V10.1721H158.695V31.5443H152.975V31.5387Z" fill="white"/>
<path d="M162.035 31.5382V27.5599L172.968 14.8819H162.115V10.166H180.268V14.1443L169.335 26.8168H180.564V31.5326H162.035V31.5382Z" fill="white"/>
<path d="M66.625 48.3739V38.5365H70.9999C71.664 38.5365 72.2416 38.6443 72.7325 38.8598C73.2234 39.0753 73.6036 39.3798 73.8731 39.7732C74.1426 40.1574 74.2774 40.6118 74.2774 41.1364C74.2774 41.6142 74.1523 42.0359 73.902 42.4012C73.6517 42.7666 73.3004 43.0571 72.848 43.2726C73.4159 43.4693 73.8587 43.7691 74.1763 44.172C74.5036 44.5655 74.6672 45.0292 74.6672 45.5633C74.6672 46.1348 74.5229 46.6313 74.2341 47.0529C73.9549 47.4745 73.5507 47.8024 73.0213 48.0367C72.5015 48.2615 71.8902 48.3739 71.1876 48.3739H66.625ZM68.141 42.7104H70.9132C71.4812 42.7104 71.9336 42.5793 72.2705 42.3169C72.6074 42.0546 72.7758 41.6986 72.7758 41.2489C72.7758 40.7991 72.6074 40.4431 72.2705 40.1808C71.9336 39.9185 71.4812 39.7873 70.9132 39.7873H68.141V42.7104ZM68.141 47.1232H71.0721C71.7074 47.1232 72.2079 46.978 72.5737 46.6875C72.9491 46.3971 73.1368 46.0036 73.1368 45.507C73.1368 45.0199 72.9491 44.6311 72.5737 44.3406C72.2079 44.0408 71.7074 43.8909 71.0721 43.8909H68.141V47.1232Z" fill="white"/>
<path d="M78.8419 48.5145C78.274 48.5145 77.7734 48.3974 77.3403 48.1631C76.9071 47.9289 76.5702 47.601 76.3296 47.1794C76.089 46.7484 75.9686 46.2566 75.9686 45.7038V41.2208H77.398V45.4649C77.398 46.027 77.5617 46.4721 77.889 46.8C78.2258 47.1279 78.6734 47.2918 79.2317 47.2918C79.6264 47.2918 79.9777 47.2122 80.2857 47.0529C80.5938 46.8843 80.844 46.6501 81.0365 46.3503V41.2208H82.4804V48.3739H81.0365V47.6432C80.4686 48.224 79.7371 48.5145 78.8419 48.5145Z" fill="white"/>
<path d="M86.7164 48.5145C86.0811 48.5145 85.4843 48.4255 84.926 48.2475C84.3774 48.0601 83.9009 47.7978 83.4966 47.4605L84.2907 46.5329C84.6661 46.8234 85.0512 47.0482 85.4458 47.2075C85.8501 47.3574 86.2592 47.4324 86.6731 47.4324C87.1929 47.4324 87.6164 47.334 87.9437 47.1372C88.271 46.9405 88.4346 46.6829 88.4346 46.3643C88.4346 46.102 88.3383 45.8959 88.1458 45.746C87.9533 45.5961 87.6549 45.493 87.2506 45.4368L85.9223 45.2541C85.1907 45.151 84.6421 44.9309 84.2763 44.5936C83.9105 44.2563 83.7276 43.8066 83.7276 43.2444C83.7276 42.8135 83.848 42.4387 84.0886 42.1202C84.3292 41.7923 84.6661 41.5393 85.0993 41.3613C85.5324 41.1739 86.0378 41.0802 86.6153 41.0802C87.1447 41.0802 87.6549 41.1552 88.1458 41.3051C88.6367 41.455 89.1084 41.6892 89.5608 42.0077L88.8244 42.9353C88.4201 42.6729 88.0255 42.4809 87.6405 42.3591C87.2651 42.2373 86.8849 42.1764 86.4998 42.1764C86.057 42.1764 85.7009 42.2701 85.4314 42.4575C85.1619 42.6355 85.0271 42.8697 85.0271 43.1601C85.0271 43.4225 85.1185 43.6286 85.3014 43.7785C85.4939 43.919 85.8068 44.0174 86.2399 44.0736L87.5683 44.2563C88.2998 44.3594 88.8533 44.5795 89.2287 44.9168C89.6041 45.2447 89.7918 45.6897 89.7918 46.2519C89.7918 46.6829 89.657 47.0717 89.3875 47.4183C89.118 47.7556 88.7522 48.0226 88.2902 48.2194C87.8282 48.4161 87.3036 48.5145 86.7164 48.5145Z" fill="white"/>
<path d="M90.9013 48.3739V41.2208H92.3452V48.3739H90.9013ZM91.6232 40.0684C91.3826 40.0684 91.1756 39.9841 91.0024 39.8154C90.8291 39.6374 90.7425 39.4313 90.7425 39.1971C90.7425 38.9535 90.8291 38.752 91.0024 38.5928C91.1756 38.4241 91.3826 38.3398 91.6232 38.3398C91.8735 38.3398 92.0853 38.4241 92.2585 38.5928C92.4318 38.752 92.5184 38.9535 92.5184 39.1971C92.5184 39.4313 92.4318 39.6374 92.2585 39.8154C92.0853 39.9841 91.8735 40.0684 91.6232 40.0684Z" fill="white"/>
<path d="M94.0456 48.3739V41.2208H95.4895V41.9515C96.0574 41.3707 96.7938 41.0802 97.6986 41.0802C98.2665 41.0802 98.7622 41.1973 99.1857 41.4316C99.6189 41.6658 99.9558 41.9937 100.196 42.4153C100.447 42.8369 100.572 43.3241 100.572 43.8769V48.3739H99.128V44.1158C99.128 43.5536 98.9644 43.1133 98.6371 42.7947C98.3194 42.4668 97.8718 42.3029 97.2943 42.3029C96.9093 42.3029 96.5627 42.3825 96.2547 42.5418C95.9467 42.701 95.6916 42.9306 95.4895 43.2304V48.3739H94.0456Z" fill="white"/>
<path d="M105.761 48.5004C105.039 48.5004 104.384 48.3365 103.797 48.0086C103.22 47.6806 102.758 47.2356 102.411 46.6735C102.074 46.1113 101.906 45.4836 101.906 44.7903C101.906 44.1064 102.069 43.488 102.397 42.9353C102.724 42.3731 103.167 41.9281 103.725 41.6002C104.283 41.2629 104.904 41.0943 105.588 41.0943C106.271 41.0943 106.877 41.2629 107.407 41.6002C107.936 41.9281 108.355 42.3778 108.663 42.9493C108.981 43.5115 109.139 44.1486 109.139 44.8606V45.2541H103.35C103.427 45.6476 103.576 45.9989 103.797 46.3081C104.028 46.6173 104.317 46.8609 104.663 47.0389C105.02 47.2169 105.405 47.3059 105.819 47.3059C106.175 47.3059 106.516 47.2544 106.844 47.1513C107.181 47.0389 107.46 46.8796 107.681 46.6735L108.605 47.5588C108.172 47.8774 107.724 48.1163 107.262 48.2756C106.81 48.4255 106.309 48.5004 105.761 48.5004ZM103.364 44.2001H107.71C107.652 43.8253 107.517 43.4974 107.306 43.2163C107.104 42.9259 106.848 42.701 106.54 42.5418C106.242 42.3731 105.915 42.2888 105.559 42.2888C105.193 42.2888 104.856 42.3684 104.548 42.5277C104.24 42.687 103.98 42.9118 103.768 43.2023C103.566 43.4834 103.431 43.816 103.364 44.2001Z" fill="white"/>
<path d="M113.112 48.5145C112.476 48.5145 111.88 48.4255 111.321 48.2475C110.773 48.0601 110.296 47.7978 109.892 47.4605L110.686 46.5329C111.062 46.8234 111.447 47.0482 111.841 47.2075C112.245 47.3574 112.655 47.4324 113.068 47.4324C113.588 47.4324 114.012 47.334 114.339 47.1372C114.666 46.9405 114.83 46.6829 114.83 46.3643C114.83 46.102 114.734 45.8959 114.541 45.746C114.349 45.5961 114.05 45.493 113.646 45.4368L112.318 45.2541C111.586 45.151 111.037 44.9309 110.672 44.5936C110.306 44.2563 110.123 43.8066 110.123 43.2444C110.123 42.8135 110.243 42.4387 110.484 42.1202C110.725 41.7923 111.062 41.5393 111.495 41.3613C111.928 41.1739 112.433 41.0802 113.011 41.0802C113.54 41.0802 114.05 41.1552 114.541 41.3051C115.032 41.455 115.504 41.6892 115.956 42.0077L115.22 42.9353C114.816 42.6729 114.421 42.4809 114.036 42.3591C113.66 42.2373 113.28 42.1764 112.895 42.1764C112.452 42.1764 112.096 42.2701 111.827 42.4575C111.557 42.6355 111.422 42.8697 111.422 43.1601C111.422 43.4225 111.514 43.6286 111.697 43.7785C111.889 43.919 112.202 44.0174 112.635 44.0736L113.964 44.2563C114.695 44.3594 115.249 44.5795 115.624 44.9168C115.999 45.2447 116.187 45.6897 116.187 46.2519C116.187 46.6829 116.052 47.0717 115.783 47.4183C115.513 47.7556 115.148 48.0226 114.686 48.2194C114.224 48.4161 113.699 48.5145 113.112 48.5145Z" fill="white"/>
<path d="M119.823 48.5145C119.188 48.5145 118.591 48.4255 118.033 48.2475C117.484 48.0601 117.008 47.7978 116.604 47.4605L117.398 46.5329C117.773 46.8234 118.158 47.0482 118.553 47.2075C118.957 47.3574 119.366 47.4324 119.78 47.4324C120.3 47.4324 120.723 47.334 121.051 47.1372C121.378 46.9405 121.542 46.6829 121.542 46.3643C121.542 46.102 121.445 45.8959 121.253 45.746C121.06 45.5961 120.762 45.493 120.358 45.4368L119.029 45.2541C118.298 45.151 117.749 44.9309 117.383 44.5936C117.018 44.2563 116.835 43.8066 116.835 43.2444C116.835 42.8135 116.955 42.4387 117.196 42.1202C117.436 41.7923 117.773 41.5393 118.206 41.3613C118.639 41.1739 119.145 41.0802 119.722 41.0802C120.252 41.0802 120.762 41.1552 121.253 41.3051C121.744 41.455 122.215 41.6892 122.668 42.0077L121.931 42.9353C121.527 42.6729 121.133 42.4809 120.748 42.3591C120.372 42.2373 119.992 42.1764 119.607 42.1764C119.164 42.1764 118.808 42.2701 118.538 42.4575C118.269 42.6355 118.134 42.8697 118.134 43.1601C118.134 43.4225 118.226 43.6286 118.408 43.7785C118.601 43.919 118.914 44.0174 119.347 44.0736L120.675 44.2563C121.407 44.3594 121.96 44.5795 122.336 44.9168C122.711 45.2447 122.899 45.6897 122.899 46.2519C122.899 46.6829 122.764 47.0717 122.495 47.4183C122.225 47.7556 121.859 48.0226 121.397 48.2194C120.935 48.4161 120.411 48.5145 119.823 48.5145Z" fill="white"/>
<path d="M130.621 48.5145C129.812 48.5145 129.033 48.3599 128.282 48.0507C127.531 47.7415 126.867 47.3059 126.289 46.7438L127.213 45.7038C127.762 46.2285 128.32 46.6173 128.888 46.8702C129.466 47.1232 130.067 47.2497 130.693 47.2497C131.184 47.2497 131.612 47.1841 131.978 47.0529C132.354 46.9124 132.642 46.7156 132.844 46.4627C133.047 46.2097 133.148 45.924 133.148 45.6054C133.148 45.1651 132.989 44.8278 132.671 44.5936C132.354 44.3594 131.829 44.1813 131.097 44.0595L129.408 43.7925C128.484 43.6333 127.791 43.3428 127.329 42.9212C126.877 42.4996 126.65 41.9375 126.65 41.2348C126.65 40.6727 126.804 40.1808 127.112 39.7592C127.42 39.3282 127.854 38.9956 128.412 38.7614C128.98 38.5272 129.634 38.4101 130.376 38.4101C131.107 38.4101 131.824 38.5272 132.527 38.7614C133.239 38.9863 133.879 39.3142 134.447 39.7451L133.61 40.8694C132.522 40.0637 131.42 39.6608 130.303 39.6608C129.861 39.6608 129.476 39.7217 129.148 39.8435C128.821 39.9653 128.566 40.1386 128.383 40.3635C128.2 40.579 128.109 40.8319 128.109 41.1224C128.109 41.5252 128.248 41.8344 128.527 42.0499C128.807 42.256 129.269 42.4059 129.913 42.4996L131.545 42.7666C132.613 42.9353 133.398 43.2398 133.898 43.6801C134.399 44.1204 134.649 44.7247 134.649 45.493C134.649 46.0926 134.481 46.622 134.144 47.081C133.807 47.5307 133.335 47.8821 132.729 48.135C132.123 48.388 131.42 48.5145 130.621 48.5145Z" fill="white"/>
<path d="M139.516 48.5145C138.803 48.5145 138.154 48.3505 137.567 48.0226C136.989 47.6947 136.532 47.2497 136.195 46.6875C135.858 46.1254 135.69 45.4977 135.69 44.8044C135.69 44.1111 135.858 43.4834 136.195 42.9212C136.532 42.3591 136.989 41.9141 137.567 41.5861C138.154 41.2489 138.803 41.0802 139.516 41.0802C140.238 41.0802 140.887 41.2489 141.465 41.5861C142.042 41.9141 142.5 42.3591 142.837 42.9212C143.174 43.4834 143.342 44.1111 143.342 44.8044C143.342 45.4977 143.174 46.1254 142.837 46.6875C142.5 47.2497 142.042 47.6947 141.465 48.0226C140.887 48.3505 140.238 48.5145 139.516 48.5145ZM139.516 47.2778C139.968 47.2778 140.377 47.17 140.743 46.9546C141.109 46.7297 141.398 46.4299 141.609 46.0551C141.821 45.6804 141.927 45.2588 141.927 44.7903C141.927 44.3312 141.816 43.919 141.595 43.5536C141.383 43.1789 141.094 42.8791 140.729 42.6542C140.372 42.4293 139.968 42.3169 139.516 42.3169C139.063 42.3169 138.654 42.4293 138.288 42.6542C137.932 42.8791 137.644 43.1789 137.422 43.5536C137.21 43.919 137.105 44.3312 137.105 44.7903C137.105 45.2588 137.21 45.6804 137.422 46.0551C137.634 46.4299 137.923 46.7297 138.288 46.9546C138.654 47.17 139.063 47.2778 139.516 47.2778Z" fill="white"/>
<path d="M144.707 48.3739V38.5365L146.151 38.2695V48.3739H144.707Z" fill="white"/>
<path d="M150.696 48.5145C150.128 48.5145 149.628 48.3974 149.194 48.1631C148.761 47.9289 148.424 47.601 148.184 47.1794C147.943 46.7484 147.823 46.2566 147.823 45.7038V41.2208H149.252V45.4649C149.252 46.027 149.416 46.4721 149.743 46.8C150.08 47.1279 150.528 47.2918 151.086 47.2918C151.48 47.2918 151.832 47.2122 152.14 47.0529C152.448 46.8843 152.698 46.6501 152.891 46.3503V41.2208H154.335V48.3739H152.891V47.6432C152.323 48.224 151.591 48.5145 150.696 48.5145Z" fill="white"/>
<path d="M159.191 48.5004C158.479 48.5004 157.935 48.3412 157.56 48.0226C157.184 47.6947 156.997 47.2216 156.997 46.6032V42.4012H155.437V41.2208H156.997V39.3938L158.426 39.0565V41.2208H160.592V42.4012H158.426V46.28C158.426 46.6454 158.508 46.9077 158.672 47.067C158.845 47.2169 159.124 47.2918 159.509 47.2918C159.711 47.2918 159.889 47.2778 160.043 47.2497C160.207 47.2216 160.38 47.1794 160.563 47.1232V48.3037C160.371 48.3693 160.144 48.4161 159.884 48.4442C159.634 48.4817 159.403 48.5004 159.191 48.5004Z" fill="white"/>
<path d="M161.656 48.3739V41.2208H163.099V48.3739H161.656ZM162.378 40.0684C162.137 40.0684 161.93 39.9841 161.757 39.8154C161.583 39.6374 161.497 39.4313 161.497 39.1971C161.497 38.9535 161.583 38.752 161.757 38.5928C161.93 38.4241 162.137 38.3398 162.378 38.3398C162.628 38.3398 162.84 38.4241 163.013 38.5928C163.186 38.752 163.273 38.9535 163.273 39.1971C163.273 39.4313 163.186 39.6374 163.013 39.8154C162.84 39.9841 162.628 40.0684 162.378 40.0684Z" fill="white"/>
<path d="M168.294 48.5145C167.582 48.5145 166.932 48.3505 166.345 48.0226C165.767 47.6947 165.31 47.2497 164.973 46.6875C164.636 46.1254 164.468 45.4977 164.468 44.8044C164.468 44.1111 164.636 43.4834 164.973 42.9212C165.31 42.3591 165.767 41.9141 166.345 41.5861C166.932 41.2489 167.582 41.0802 168.294 41.0802C169.016 41.0802 169.666 41.2489 170.243 41.5861C170.821 41.9141 171.278 42.3591 171.615 42.9212C171.952 43.4834 172.12 44.1111 172.12 44.8044C172.12 45.4977 171.952 46.1254 171.615 46.6875C171.278 47.2497 170.821 47.6947 170.243 48.0226C169.666 48.3505 169.016 48.5145 168.294 48.5145ZM168.294 47.2778C168.746 47.2778 169.156 47.17 169.521 46.9546C169.887 46.7297 170.176 46.4299 170.388 46.0551C170.599 45.6804 170.705 45.2588 170.705 44.7903C170.705 44.3312 170.595 43.919 170.373 43.5536C170.161 43.1789 169.873 42.8791 169.507 42.6542C169.151 42.4293 168.746 42.3169 168.294 42.3169C167.842 42.3169 167.433 42.4293 167.067 42.6542C166.711 42.8791 166.422 43.1789 166.2 43.5536C165.989 43.919 165.883 44.3312 165.883 44.7903C165.883 45.2588 165.989 45.6804 166.2 46.0551C166.412 46.4299 166.701 46.7297 167.067 46.9546C167.433 47.17 167.842 47.2778 168.294 47.2778Z" fill="white"/>
<path d="M173.486 48.3739V41.2208H174.929V41.9515C175.497 41.3707 176.234 41.0802 177.139 41.0802C177.706 41.0802 178.202 41.1973 178.626 41.4316C179.059 41.6658 179.396 41.9937 179.636 42.4153C179.887 42.8369 180.012 43.3241 180.012 43.8769V48.3739H178.568V44.1158C178.568 43.5536 178.404 43.1133 178.077 42.7947C177.759 42.4668 177.312 42.3029 176.734 42.3029C176.349 42.3029 176.003 42.3825 175.695 42.5418C175.387 42.701 175.132 42.9306 174.929 43.2304V48.3739H173.486Z" fill="white"/>
<defs>
<linearGradient id="paint0_linear_546_2985" x1="36.8168" y1="0.233983" x2="37.6459" y2="49.3667" gradientUnits="userSpaceOnUse">
<stop offset="0.244792" stop-color="#DF0A0A"/>
<stop offset="1" stop-color="#9C0000"/>
</linearGradient>
<linearGradient id="paint1_linear_546_2985" x1="25.0293" y1="12.1842" x2="25.6601" y2="49.5701" gradientUnits="userSpaceOnUse">
<stop offset="0.244792" stop-color="#DF0A0A"/>
<stop offset="1" stop-color="#9C0000"/>
</linearGradient>
<linearGradient id="paint2_linear_546_2985" x1="13.2533" y1="24.7495" x2="13.6755" y2="49.7748" gradientUnits="userSpaceOnUse">
<stop offset="0.244792" stop-color="#DF0A0A"/>
<stop offset="1" stop-color="#9C0000"/>
</linearGradient>
</defs>
</svg>
