<svg width="75" height="75" viewBox="0 0 75 75" fill="none" xmlns="http://www.w3.org/2000/svg">
<circle cx="37.5" cy="37.5" r="37.5" fill="white"/>
<path d="M37.5005 29.0332C35.0104 29.0332 32.9844 31.0593 32.9844 33.5493C32.9844 36.0394 35.0104 38.0655 37.5005 38.0655C39.9906 38.0655 42.0166 36.0394 42.0166 33.5493C42.0166 31.0593 39.9906 29.0332 37.5005 29.0332ZM37.5005 36.9364C35.6325 36.9364 34.1134 35.4173 34.1134 33.5493C34.1134 31.6813 35.6325 30.1622 37.5005 30.1622C39.3685 30.1622 40.8876 31.6813 40.8876 33.5493C40.8876 35.4173 39.3685 36.9364 37.5005 36.9364Z" fill="#F64A00"/>
<path d="M37.5003 31.291C36.2549 31.291 35.2422 32.3038 35.2422 33.5491C35.2422 34.7944 36.2549 35.8071 37.5003 35.8071C38.7456 35.8071 39.7583 34.7944 39.7583 33.5491C39.7583 32.3038 38.7456 31.291 37.5003 31.291ZM37.5003 34.6781C36.8776 34.6781 36.3712 34.1717 36.3712 33.5491C36.3712 32.9264 36.8776 32.42 37.5003 32.42C38.1229 32.42 38.6293 32.9264 38.6293 33.5491C38.6293 34.1717 38.1229 34.6781 37.5003 34.6781Z" fill="#F64A00"/>
<path d="M52.1774 30.7258C50.8147 30.7258 49.6744 31.6973 49.4119 32.9839H48.1993C48.0677 30.461 47.0708 28.1505 45.4727 26.3734L46.521 25.3251C46.8574 25.5238 47.2435 25.6452 47.6613 25.6452C48.9066 25.6452 49.9194 24.6324 49.9194 23.3871C49.9194 22.1418 48.9066 21.129 47.6613 21.129C46.416 21.129 45.4032 22.1418 45.4032 23.3871C45.4032 23.8048 45.5246 24.191 45.7233 24.5269L44.6716 25.5785C43.2756 24.3202 41.5453 23.421 39.6113 23.036C39.7016 22.7927 39.7581 22.5324 39.7581 22.2581C39.7581 21.0127 38.7453 20 37.5 20C36.2547 20 35.2419 21.0127 35.2419 22.2581C35.2419 22.5324 35.2984 22.7927 35.3887 23.036C33.4552 23.421 31.725 24.3202 30.329 25.5785L29.2773 24.5269C29.4754 24.191 29.5968 23.8048 29.5968 23.3871C29.5968 22.1418 28.584 21.129 27.3387 21.129C26.0934 21.129 25.0806 22.1418 25.0806 23.3871C25.0806 24.6324 26.0934 25.6452 27.3387 25.6452C27.7565 25.6452 28.1426 25.5238 28.4785 25.3251L29.5268 26.3734C27.9286 28.1505 26.9317 30.461 26.8002 32.9833H25.5876C25.3256 31.6973 24.1853 30.7258 22.8226 30.7258C21.2662 30.7258 20 31.992 20 33.5484C20 35.1048 21.2662 36.371 22.8226 36.371C24.1853 36.371 25.3256 35.3994 25.5881 34.1129H26.8007C26.9294 36.5629 27.8812 38.887 29.5307 40.72L28.479 41.7717C28.1426 41.573 27.7565 41.4516 27.3387 41.4516C26.0934 41.4516 25.0806 42.4644 25.0806 43.7097C25.0806 44.955 26.0934 45.9677 27.3387 45.9677C28.584 45.9677 29.5968 44.955 29.5968 43.7097C29.5968 43.2919 29.4754 42.9058 29.2767 42.5699L30.2906 41.556L31.6065 42.991C32.3674 43.8209 32.8326 44.8635 32.9511 45.9711C32.0327 45.9892 31.2903 46.7389 31.2903 47.6613C31.2903 48.0965 31.4602 48.49 31.7306 48.7903C31.4597 49.0906 31.2903 49.4841 31.2903 49.9194C31.2903 50.8531 32.0502 51.6129 32.9839 51.6129H33.029C33.3045 53.5249 34.949 55 36.9355 55H38.0645C40.051 55 41.6955 53.5249 41.971 51.6129H42.0161C42.9498 51.6129 43.7097 50.8531 43.7097 49.9194C43.7097 49.4841 43.5398 49.0906 43.2694 48.7903C43.5403 48.49 43.7097 48.0965 43.7097 47.6613C43.7097 46.7389 42.9673 45.9892 42.0489 45.9711C42.1674 44.8635 42.6326 43.8215 43.3935 42.991L44.7094 41.556L45.7233 42.5699C45.5246 42.9058 45.4032 43.2919 45.4032 43.7097C45.4032 44.955 46.416 45.9677 47.6613 45.9677C48.9066 45.9677 49.9194 44.955 49.9194 43.7097C49.9194 42.4644 48.9066 41.4516 47.6613 41.4516C47.2435 41.4516 46.8574 41.573 46.5215 41.7717L45.4698 40.72C47.1188 38.887 48.0711 36.5629 48.1998 34.1129H49.4124C49.6749 35.3994 50.8147 36.371 52.178 36.371C53.7344 36.371 55.0006 35.1048 55.0006 33.5484C55.0006 31.992 53.7338 30.7258 52.1774 30.7258V30.7258ZM22.8226 35.2419C21.8889 35.2419 21.129 34.4821 21.129 33.5484C21.129 32.6147 21.8889 31.8548 22.8226 31.8548C23.7563 31.8548 24.5161 32.6147 24.5161 33.5484C24.5161 34.4821 23.7563 35.2419 22.8226 35.2419ZM47.0702 32.9839H44.8387V31.4552L43.8079 31.091C43.7729 31.0024 43.7362 30.9138 43.6973 30.8252L44.1692 29.8384L43.0887 28.7573L44.6756 27.1705C46.0694 28.7415 46.9415 30.7704 47.0702 32.9839V32.9839ZM42.8352 35.3785C42.7619 35.5931 42.6715 35.8104 42.566 36.0255L42.4452 36.271L42.8059 37.0241L40.9757 38.8543L40.2221 38.4941L39.976 38.6149C39.7643 38.7194 39.5464 38.8097 39.329 38.8842L39.0705 38.9728L38.7939 39.7581H36.2061L35.929 38.9723L35.6704 38.8836C35.4531 38.8091 35.2352 38.7188 35.0235 38.6144L34.7773 38.4935L34.0237 38.8537L32.1935 37.0235L32.5543 36.2705L32.4335 36.0249C32.3279 35.8098 32.2376 35.5925 32.1642 35.378L32.0761 35.1194L31.2903 34.8423V32.254L32.0767 31.9768L32.1648 31.7182C32.2381 31.5037 32.3285 31.2864 32.434 31.0713L32.5548 30.8257L32.1941 30.0727L34.0243 28.2425L34.7779 28.6027L35.024 28.4819C35.2357 28.3774 35.4536 28.2871 35.671 28.2126L35.9295 28.124L36.2061 27.3387H38.7939L39.071 28.1245L39.3296 28.2131C39.5469 28.2877 39.7648 28.378 39.9765 28.4824L40.2227 28.6032L40.9763 28.2431L42.8065 30.0732L42.4457 30.8263L42.5665 31.0719C42.6721 31.2869 42.7624 31.5043 42.8358 31.7188L42.9239 31.9773L43.7097 32.2545V34.8428L42.9233 35.12L42.8352 35.3785ZM37.5 48.2258C36.8773 48.2258 36.371 47.7194 36.371 47.0968C36.371 46.4741 36.8773 45.9677 37.5 45.9677C38.1227 45.9677 38.629 46.4741 38.629 47.0968C38.629 47.7194 38.1227 48.2258 37.5 48.2258ZM47.6613 22.2581C48.284 22.2581 48.7903 22.7644 48.7903 23.3871C48.7903 24.0098 48.284 24.5161 47.6613 24.5161C47.0386 24.5161 46.5323 24.0098 46.5323 23.3871C46.5323 22.7644 47.0386 22.2581 47.6613 22.2581ZM42.2899 27.9602L41.2094 26.8792L40.2221 27.3511C40.1346 27.3122 40.0454 27.2755 39.9562 27.2405L39.5932 26.2097H38.0645V24.436C38.3547 24.3603 38.6206 24.2299 38.8537 24.0544C40.7781 24.3259 42.5022 25.1591 43.8717 26.3785L42.2899 27.9602ZM37.5 21.129C38.1227 21.129 38.629 21.6354 38.629 22.2581C38.629 22.8807 38.1227 23.3871 37.5 23.3871C36.8773 23.3871 36.371 22.8807 36.371 22.2581C36.371 21.6354 36.8773 21.129 37.5 21.129ZM36.1463 24.0544C36.3794 24.2299 36.6453 24.3603 36.9355 24.436V26.2097H35.4068L35.0432 27.2405C34.954 27.2755 34.8654 27.3122 34.7773 27.3511L33.79 26.8792L32.7095 27.9602L31.1277 26.3785C32.4978 25.1591 34.2219 24.3259 36.1463 24.0544V24.0544ZM27.3387 24.5161C26.716 24.5161 26.2097 24.0098 26.2097 23.3871C26.2097 22.7644 26.716 22.2581 27.3387 22.2581C27.9614 22.2581 28.4677 22.7644 28.4677 23.3871C28.4677 24.0098 27.9614 24.5161 27.3387 24.5161ZM30.325 27.1716L31.9119 28.7585L30.8314 29.8395L31.3033 30.8263C31.2644 30.9149 31.2271 31.0035 31.1927 31.0922L30.1613 31.4552V32.9839H27.9298C28.0585 30.7704 28.9306 28.7415 30.325 27.1716V27.1716ZM27.9298 34.1129H30.1613V35.6416L31.1921 36.0057C31.2271 36.0944 31.2638 36.183 31.3027 36.2716L30.8308 37.2584L31.9113 38.3394L30.3306 39.9201C28.8934 38.301 28.0556 36.2637 27.9298 34.1129V34.1129ZM27.3387 44.8387C26.716 44.8387 26.2097 44.3323 26.2097 43.7097C26.2097 43.087 26.716 42.5806 27.3387 42.5806C27.9614 42.5806 28.4677 43.087 28.4677 43.7097C28.4677 44.3323 27.9614 44.8387 27.3387 44.8387ZM31.0899 40.7567L32.7101 39.1365L33.7906 40.2176L34.7779 39.7456C34.8654 39.7846 34.9546 39.8213 35.0438 39.8563L35.4068 40.8871H36.9355V44.9189C36.3467 45.0719 35.8556 45.4546 35.5558 45.9677H34.0864C33.9633 44.5773 33.3898 43.2665 32.4385 42.2278L31.0899 40.7567ZM32.9839 47.0968H35.2419C35.2419 47.51 35.3616 47.8922 35.5558 48.2258H32.9839C32.6723 48.2258 32.4194 47.9723 32.4194 47.6613C32.4194 47.3502 32.6723 47.0968 32.9839 47.0968ZM38.0645 53.871H36.9355C35.5727 53.871 34.4324 52.8994 34.1699 51.6129H40.8301C40.5676 52.8994 39.4273 53.871 38.0645 53.871ZM42.0161 50.4839H32.9839C32.6723 50.4839 32.4194 50.2304 32.4194 49.9194C32.4194 49.6083 32.6723 49.3548 32.9839 49.3548H42.0161C42.3277 49.3548 42.5806 49.6083 42.5806 49.9194C42.5806 50.2304 42.3277 50.4839 42.0161 50.4839ZM42.5806 47.6613C42.5806 47.9723 42.3277 48.2258 42.0161 48.2258H39.4442C39.6384 47.8922 39.7581 47.51 39.7581 47.0968H42.0161C42.3277 47.0968 42.5806 47.3502 42.5806 47.6613ZM42.5615 42.2278C41.6102 43.2665 41.0361 44.5773 40.9136 45.9677H39.4442C39.145 45.4546 38.6533 45.0719 38.0645 44.9189V40.8871H39.5932L39.9568 39.8563C40.046 39.8213 40.1346 39.7846 40.2227 39.7456L41.21 40.2176L42.2905 39.1365L43.9106 40.7567L42.5615 42.2278ZM47.6613 42.5806C48.284 42.5806 48.7903 43.087 48.7903 43.7097C48.7903 44.3323 48.284 44.8387 47.6613 44.8387C47.0386 44.8387 46.5323 44.3323 46.5323 43.7097C46.5323 43.087 47.0386 42.5806 47.6613 42.5806ZM44.6688 39.919L43.0881 38.3383L44.1686 37.2573L43.6967 36.2705C43.7356 36.1819 43.7729 36.0932 43.8073 36.0046L44.8387 35.6416V34.1129H47.0702C46.9444 36.2637 46.1066 38.301 44.6688 39.919V39.919ZM52.1774 35.2419C51.2437 35.2419 50.4839 34.4821 50.4839 33.5484C50.4839 32.6147 51.2437 31.8548 52.1774 31.8548C53.1111 31.8548 53.871 32.6147 53.871 33.5484C53.871 34.4821 53.1111 35.2419 52.1774 35.2419Z" fill="#F64A00"/>
</svg>
