<svg width="75" height="75" viewBox="0 0 75 75" fill="none" xmlns="http://www.w3.org/2000/svg">
<circle cx="37.5" cy="37.5" r="37.5" fill="white"/>
<path d="M54.7158 41.3731L54.7076 41.3597C54.3341 40.791 53.764 40.3802 53.1064 40.2057C52.4488 40.0312 51.75 40.1055 51.1437 40.4142L47.406 42.3262C46.9586 41.6974 46.3 41.2505 45.5504 41.067C44.8008 40.8834 44.0103 40.9755 43.323 41.3264L38.6164 43.7389C38.3707 43.8651 38.0981 43.9301 37.8219 43.9284C37.5457 43.9267 37.274 43.8583 37.0298 43.729L33.8217 42.0258C32.6077 41.3777 31.2377 41.0786 29.864 41.1618C28.4903 41.245 27.1665 41.7072 26.0395 42.4971L25.6767 40.7694C25.6609 40.6942 25.6304 40.6229 25.5869 40.5595C25.5435 40.4961 25.4879 40.442 25.4235 40.4001C25.359 40.3583 25.287 40.3296 25.2114 40.3157C25.1358 40.3018 25.0583 40.3029 24.9831 40.3191L20.4603 41.2949C20.3097 41.3274 20.1781 41.4181 20.0942 41.5473C20.0103 41.6765 19.9808 41.8336 20.0123 41.9844L22.6459 54.5327C22.6727 54.6643 22.7442 54.7825 22.8481 54.8676C22.952 54.9526 23.0821 54.9991 23.2163 54.9994C23.2575 54.9992 23.2985 54.9949 23.3388 54.9865L27.864 54.0124C28.0148 53.9801 28.1467 53.8893 28.2307 53.76C28.3148 53.6307 28.3442 53.4734 28.3126 53.3224L28.0792 52.199L29.6255 51.8665C30.0761 51.7705 30.5397 51.7527 30.9963 51.814L38.2693 52.6114C39.7793 52.8114 41.3102 52.4521 42.5734 51.6011L54.2235 43.785C54.6045 43.527 54.8693 43.1302 54.9613 42.6794C55.0533 42.2286 54.9652 41.7597 54.7158 41.3731ZM23.6672 53.7196L21.2728 42.3134L24.6559 41.5842L27.0521 52.9911L23.6672 53.7196ZM53.5743 42.8179L41.9248 50.634C40.8914 51.3265 39.6404 51.6169 38.4076 51.4506L31.1351 50.6533C30.5498 50.5749 29.9554 50.5986 29.3782 50.7233L27.8372 51.0546L26.2996 43.7389L26.698 43.4613C27.6494 42.7921 28.7678 42.4 29.9288 42.3285C31.0897 42.2571 32.2477 42.5091 33.274 43.0565L36.4821 44.7597C36.892 44.9777 37.3485 45.0933 37.8127 45.0964C38.2769 45.0996 38.735 44.9902 39.1478 44.7778L43.8567 42.3624C44.3272 42.1219 44.8722 42.0711 45.379 42.2207C45.8859 42.3703 46.316 42.7087 46.5806 43.1661C46.6587 43.3 46.6807 43.4592 46.6421 43.6093C46.6034 43.7593 46.5071 43.8881 46.3742 43.9676L39.8845 47.8173C38.7497 48.4948 37.3974 48.7089 36.1088 48.4152L30.2549 47.0153L29.9837 48.1504L35.8434 49.5503C37.4251 49.9126 39.0855 49.6512 40.4794 48.8206L46.9697 44.9708C47.2354 44.8112 47.4539 44.5839 47.603 44.3121C47.752 44.0403 47.8261 43.7338 47.8178 43.4239L51.6728 41.4513C52.0219 41.274 52.424 41.2312 52.8026 41.3312C53.1812 41.4311 53.5098 41.6667 53.726 41.9931L53.7324 42.0036C53.8163 42.1335 53.8468 42.2908 53.8173 42.4426C53.7878 42.5944 53.7007 42.7289 53.5743 42.8179Z" fill="#F64A00"/>
<path d="M23.7745 42.9734L22.6328 43.2129L22.8721 44.3535L24.0138 44.114L23.7745 42.9734Z" fill="#F64A00"/>
<path d="M31.0833 35.166C30.9286 35.166 30.7802 35.2275 30.6708 35.3369C30.5615 35.4462 30.5 35.5946 30.5 35.7493V39.2491C30.5 39.4038 30.5615 39.5521 30.6708 39.6615C30.7802 39.7709 30.9286 39.8323 31.0833 39.8323H33.4165C33.5712 39.8323 33.7195 39.7709 33.8289 39.6615C33.9383 39.5521 33.9997 39.4038 33.9997 39.2491V35.7493C33.9997 35.5946 33.9383 35.4462 33.8289 35.3369C33.7195 35.2275 33.5712 35.166 33.4165 35.166H31.0833ZM32.8332 38.6658H31.6666V36.3326H32.8332V38.6658Z" fill="#F64A00"/>
<path d="M36.3313 31.082C36.1766 31.082 36.0283 31.1435 35.9189 31.2529C35.8095 31.3623 35.748 31.5106 35.748 31.6653V39.2481C35.748 39.4028 35.8095 39.5512 35.9189 39.6606C36.0283 39.7699 36.1766 39.8314 36.3313 39.8314H38.6645C38.8192 39.8314 38.9676 39.7699 39.077 39.6606C39.1863 39.5512 39.2478 39.4028 39.2478 39.2481V31.6653C39.2478 31.5106 39.1863 31.3623 39.077 31.2529C38.9676 31.1435 38.8192 31.082 38.6645 31.082H36.3313ZM38.0812 38.6648H36.9146V32.2486H38.0812V38.6648Z" fill="#F64A00"/>
<path d="M41.5833 32.834C41.4286 32.834 41.2802 32.8954 41.1708 33.0048C41.0615 33.1142 41 33.2626 41 33.4173V39.2502C41 39.4049 41.0615 39.5532 41.1708 39.6626C41.2802 39.772 41.4286 39.8335 41.5833 39.8335H43.9165C44.0712 39.8335 44.2195 39.772 44.3289 39.6626C44.4383 39.5532 44.4997 39.4049 44.4997 39.2502V33.4173C44.4997 33.2626 44.4383 33.1142 44.3289 33.0048C44.2195 32.8954 44.0712 32.834 43.9165 32.834H41.5833ZM43.3332 38.6669H42.1666V34.0006H43.3332V38.6669Z" fill="#F64A00"/>
<path d="M46.8313 29.916C46.6766 29.916 46.5283 29.9775 46.4189 30.0869C46.3095 30.1962 46.248 30.3446 46.248 30.4993V39.2487C46.248 39.4034 46.3095 39.5517 46.4189 39.6611C46.5283 39.7705 46.6766 39.832 46.8313 39.832H49.1645C49.3192 39.832 49.4676 39.7705 49.577 39.6611C49.6863 39.5517 49.7478 39.4034 49.7478 39.2487V30.4993C49.7478 30.3446 49.6863 30.1962 49.577 30.0869C49.4676 29.9775 49.3192 29.916 49.1645 29.916H46.8313ZM48.5812 38.6654H47.4146V31.0826H48.5812V38.6654Z" fill="#F64A00"/>
<path d="M31.0824 26.0744L34.753 29.745C34.8624 29.8544 35.0107 29.9158 35.1654 29.9158C35.3201 29.9158 35.4684 29.8544 35.5778 29.745L42.1649 23.1579L47.0021 27.9952C47.1115 28.1045 47.2598 28.1659 47.4145 28.1659C47.5692 28.1659 47.7175 28.1045 47.8269 27.9952L53.8307 21.9914V23.4997H54.9973V20.5833C54.9973 20.4286 54.9358 20.2802 54.8265 20.1708C54.7171 20.0615 54.5687 20 54.414 20H51.4975V21.1666H53.0059L47.4145 26.758L42.5773 21.9208C42.4679 21.8114 42.3196 21.75 42.1649 21.75C42.0102 21.75 41.8619 21.8114 41.7525 21.9208L35.1654 28.5079L31.4948 24.8372C31.3854 24.7279 31.237 24.6665 31.0824 24.6665C30.9277 24.6665 30.7794 24.7279 30.67 24.8372L22.5039 33.0033L23.3287 33.8281L31.0824 26.0744Z" fill="#F64A00"/>
</svg>
