<svg width="75" height="75" viewBox="0 0 75 75" fill="none" xmlns="http://www.w3.org/2000/svg">
<circle cx="37.5" cy="37.5" r="37.5" fill="white"/>
<path d="M47.9167 55H28.0833C27.0007 54.9988 25.9629 54.5682 25.1973 53.8027C24.4318 53.0371 24.0012 51.9993 24 50.9167V24.0833C24.0012 23.0007 24.4318 21.9629 25.1973 21.1973C25.9629 20.4318 27.0007 20.0012 28.0833 20H47.9167C48.9993 20.0012 50.0371 20.4318 50.8027 21.1973C51.5682 21.9629 51.9988 23.0007 52 24.0833V50.9167C51.9988 51.9993 51.5682 53.0371 50.8027 53.8027C50.0371 54.5682 48.9993 54.9988 47.9167 55ZM28.0833 21.1667C27.3101 21.1676 26.5687 21.4752 26.022 22.022C25.4752 22.5687 25.1676 23.3101 25.1667 24.0833V50.9167C25.1676 51.6899 25.4752 52.4313 26.022 52.978C26.5687 53.5248 27.3101 53.8324 28.0833 53.8333H47.9167C48.6899 53.8324 49.4313 53.5248 49.978 52.978C50.5248 52.4313 50.8324 51.6899 50.8333 50.9167V24.0833C50.8324 23.3101 50.5248 22.5687 49.978 22.022C49.4313 21.4752 48.6899 21.1676 47.9167 21.1667H28.0833Z" fill="#F64A00"/>
<path d="M39.75 52.6673H36.25C35.7859 52.6673 35.3408 52.4829 35.0126 52.1548C34.6844 51.8266 34.5 51.3814 34.5 50.9173V48.584C34.5 48.1199 34.6844 47.6747 35.0126 47.3465C35.3408 47.0184 35.7859 46.834 36.25 46.834H39.75C40.2141 46.834 40.6592 47.0184 40.9874 47.3465C41.3156 47.6747 41.5 48.1199 41.5 48.584V50.9173C41.5 51.3814 41.3156 51.8266 40.9874 52.1548C40.6592 52.4829 40.2141 52.6673 39.75 52.6673ZM36.25 48.0007C36.0953 48.0007 35.9469 48.0621 35.8375 48.1715C35.7281 48.2809 35.6667 48.4293 35.6667 48.584V50.9173C35.6667 51.072 35.7281 51.2204 35.8375 51.3298C35.9469 51.4392 36.0953 51.5007 36.25 51.5007H39.75C39.9047 51.5007 40.0531 51.4392 40.1625 51.3298C40.2719 51.2204 40.3333 51.072 40.3333 50.9173V48.584C40.3333 48.4293 40.2719 48.2809 40.1625 48.1715C40.0531 48.0621 39.9047 48.0007 39.75 48.0007H36.25Z" fill="#F64A00"/>
<path d="M31.584 52.6673H28.084C27.6199 52.6673 27.1747 52.4829 26.8465 52.1548C26.5184 51.8266 26.334 51.3814 26.334 50.9173V48.584C26.334 48.1199 26.5184 47.6747 26.8465 47.3465C27.1747 47.0184 27.6199 46.834 28.084 46.834H31.584C32.0481 46.834 32.4932 47.0184 32.8214 47.3465C33.1496 47.6747 33.334 48.1199 33.334 48.584V50.9173C33.334 51.3814 33.1496 51.8266 32.8214 52.1548C32.4932 52.4829 32.0481 52.6673 31.584 52.6673ZM28.084 48.0007C27.9293 48.0007 27.7809 48.0621 27.6715 48.1715C27.5621 48.2809 27.5007 48.4293 27.5007 48.584V50.9173C27.5007 51.072 27.5621 51.2204 27.6715 51.3298C27.7809 51.4392 27.9293 51.5007 28.084 51.5007H31.584C31.7387 51.5007 31.8871 51.4392 31.9965 51.3298C32.1059 51.2204 32.1673 51.072 32.1673 50.9173V48.584C32.1673 48.4293 32.1059 48.2809 31.9965 48.1715C31.8871 48.0621 31.7387 48.0007 31.584 48.0007H28.084Z" fill="#F64A00"/>
<path d="M47.916 52.6673H44.416C43.9519 52.6673 43.5068 52.4829 43.1786 52.1548C42.8504 51.8266 42.666 51.3814 42.666 50.9173V41.584C42.666 41.1199 42.8504 40.6747 43.1786 40.3465C43.5068 40.0184 43.9519 39.834 44.416 39.834H47.916C48.3801 39.834 48.8253 40.0184 49.1535 40.3465C49.4816 40.6747 49.666 41.1199 49.666 41.584V50.9173C49.666 51.3814 49.4816 51.8266 49.1535 52.1548C48.8253 52.4829 48.3801 52.6673 47.916 52.6673ZM44.416 41.0007C44.2613 41.0007 44.1129 41.0621 44.0035 41.1715C43.8941 41.2809 43.8327 41.4293 43.8327 41.584V50.9173C43.8327 51.072 43.8941 51.2204 44.0035 51.3298C44.1129 51.4392 44.2613 51.5007 44.416 51.5007H47.916C48.0707 51.5007 48.2191 51.4392 48.3285 51.3298C48.4379 51.2204 48.4993 51.072 48.4993 50.9173V41.584C48.4993 41.4293 48.4379 41.2809 48.3285 41.1715C48.2191 41.0621 48.0707 41.0007 47.916 41.0007H44.416Z" fill="#F64A00"/>
<path d="M39.75 45.6673H36.25C35.7859 45.6673 35.3408 45.4829 35.0126 45.1548C34.6844 44.8266 34.5 44.3814 34.5 43.9173V41.584C34.5 41.1199 34.6844 40.6747 35.0126 40.3465C35.3408 40.0184 35.7859 39.834 36.25 39.834H39.75C40.2141 39.834 40.6592 40.0184 40.9874 40.3465C41.3156 40.6747 41.5 41.1199 41.5 41.584V43.9173C41.5 44.3814 41.3156 44.8266 40.9874 45.1548C40.6592 45.4829 40.2141 45.6673 39.75 45.6673ZM36.25 41.0007C36.0953 41.0007 35.9469 41.0621 35.8375 41.1715C35.7281 41.2809 35.6667 41.4293 35.6667 41.584V43.9173C35.6667 44.072 35.7281 44.2204 35.8375 44.3298C35.9469 44.4392 36.0953 44.5007 36.25 44.5007H39.75C39.9047 44.5007 40.0531 44.4392 40.1625 44.3298C40.2719 44.2204 40.3333 44.072 40.3333 43.9173V41.584C40.3333 41.4293 40.2719 41.2809 40.1625 41.1715C40.0531 41.0621 39.9047 41.0007 39.75 41.0007H36.25Z" fill="#F64A00"/>
<path d="M31.584 45.6673H28.084C27.6199 45.6673 27.1747 45.4829 26.8465 45.1548C26.5184 44.8266 26.334 44.3814 26.334 43.9173V41.584C26.334 41.1199 26.5184 40.6747 26.8465 40.3465C27.1747 40.0184 27.6199 39.834 28.084 39.834H31.584C32.0481 39.834 32.4932 40.0184 32.8214 40.3465C33.1496 40.6747 33.334 41.1199 33.334 41.584V43.9173C33.334 44.3814 33.1496 44.8266 32.8214 45.1548C32.4932 45.4829 32.0481 45.6673 31.584 45.6673ZM28.084 41.0007C27.9293 41.0007 27.7809 41.0621 27.6715 41.1715C27.5621 41.2809 27.5007 41.4293 27.5007 41.584V43.9173C27.5007 44.072 27.5621 44.2204 27.6715 44.3298C27.7809 44.4392 27.9293 44.5007 28.084 44.5007H31.584C31.7387 44.5007 31.8871 44.4392 31.9965 44.3298C32.1059 44.2204 32.1673 44.072 32.1673 43.9173V41.584C32.1673 41.4293 32.1059 41.2809 31.9965 41.1715C31.8871 41.0621 31.7387 41.0007 31.584 41.0007H28.084Z" fill="#F64A00"/>
<path d="M39.75 38.6673H36.25C35.7859 38.6673 35.3408 38.4829 35.0126 38.1548C34.6844 37.8266 34.5 37.3814 34.5 36.9173V34.584C34.5 34.1199 34.6844 33.6747 35.0126 33.3465C35.3408 33.0184 35.7859 32.834 36.25 32.834H39.75C40.2141 32.834 40.6592 33.0184 40.9874 33.3465C41.3156 33.6747 41.5 34.1199 41.5 34.584V36.9173C41.5 37.3814 41.3156 37.8266 40.9874 38.1548C40.6592 38.4829 40.2141 38.6673 39.75 38.6673ZM36.25 34.0007C36.0953 34.0007 35.9469 34.0621 35.8375 34.1715C35.7281 34.2809 35.6667 34.4293 35.6667 34.584V36.9173C35.6667 37.072 35.7281 37.2204 35.8375 37.3298C35.9469 37.4392 36.0953 37.5007 36.25 37.5007H39.75C39.9047 37.5007 40.0531 37.4392 40.1625 37.3298C40.2719 37.2204 40.3333 37.072 40.3333 36.9173V34.584C40.3333 34.4293 40.2719 34.2809 40.1625 34.1715C40.0531 34.0621 39.9047 34.0007 39.75 34.0007H36.25Z" fill="#F64A00"/>
<path d="M31.584 38.6673H28.084C27.6199 38.6673 27.1747 38.4829 26.8465 38.1548C26.5184 37.8266 26.334 37.3814 26.334 36.9173V34.584C26.334 34.1199 26.5184 33.6747 26.8465 33.3465C27.1747 33.0184 27.6199 32.834 28.084 32.834H31.584C32.0481 32.834 32.4932 33.0184 32.8214 33.3465C33.1496 33.6747 33.334 34.1199 33.334 34.584V36.9173C33.334 37.3814 33.1496 37.8266 32.8214 38.1548C32.4932 38.4829 32.0481 38.6673 31.584 38.6673ZM28.084 34.0007C27.9293 34.0007 27.7809 34.0621 27.6715 34.1715C27.5621 34.2809 27.5007 34.4293 27.5007 34.584V36.9173C27.5007 37.072 27.5621 37.2204 27.6715 37.3298C27.7809 37.4392 27.9293 37.5007 28.084 37.5007H31.584C31.7387 37.5007 31.8871 37.4392 31.9965 37.3298C32.1059 37.2204 32.1673 37.072 32.1673 36.9173V34.584C32.1673 34.4293 32.1059 34.2809 31.9965 34.1715C31.8871 34.0621 31.7387 34.0007 31.584 34.0007H28.084Z" fill="#F64A00"/>
<path d="M47.916 38.6673H44.416C43.9519 38.6673 43.5068 38.4829 43.1786 38.1548C42.8504 37.8266 42.666 37.3814 42.666 36.9173V34.584C42.666 34.1199 42.8504 33.6747 43.1786 33.3465C43.5068 33.0184 43.9519 32.834 44.416 32.834H47.916C48.3801 32.834 48.8253 33.0184 49.1535 33.3465C49.4816 33.6747 49.666 34.1199 49.666 34.584V36.9173C49.666 37.3814 49.4816 37.8266 49.1535 38.1548C48.8253 38.4829 48.3801 38.6673 47.916 38.6673ZM44.416 34.0007C44.2613 34.0007 44.1129 34.0621 44.0035 34.1715C43.8941 34.2809 43.8327 34.4293 43.8327 34.584V36.9173C43.8327 37.072 43.8941 37.2204 44.0035 37.3298C44.1129 37.4392 44.2613 37.5007 44.416 37.5007H47.916C48.0707 37.5007 48.2191 37.4392 48.3285 37.3298C48.4379 37.2204 48.4993 37.072 48.4993 36.9173V34.584C48.4993 34.4293 48.4379 34.2809 48.3285 34.1715C48.2191 34.0621 48.0707 34.0007 47.916 34.0007H44.416Z" fill="#F64A00"/>
<path d="M47.9173 30.5007H28.084C27.6199 30.5007 27.1747 30.3163 26.8465 29.9881C26.5184 29.6599 26.334 29.2148 26.334 28.7507V24.084C26.334 23.6199 26.5184 23.1747 26.8465 22.8465C27.1747 22.5184 27.6199 22.334 28.084 22.334H47.9173C48.3814 22.334 48.8266 22.5184 49.1548 22.8465C49.4829 23.1747 49.6673 23.6199 49.6673 24.084V28.7507C49.6673 29.2148 49.4829 29.6599 49.1548 29.9881C48.8266 30.3163 48.3814 30.5007 47.9173 30.5007ZM28.084 23.5007C27.9293 23.5007 27.7809 23.5621 27.6715 23.6715C27.5621 23.7809 27.5007 23.9293 27.5007 24.084V28.7507C27.5007 28.9054 27.5621 29.0537 27.6715 29.1631C27.7809 29.2725 27.9293 29.334 28.084 29.334H47.9173C48.072 29.334 48.2204 29.2725 48.3298 29.1631C48.4392 29.0537 48.5007 28.9054 48.5007 28.7507V24.084C48.5007 23.9293 48.4392 23.7809 48.3298 23.6715C48.2204 23.5621 48.072 23.5007 47.9173 23.5007H28.084Z" fill="#F64A00"/>
<path d="M46.166 28.7507C45.7019 28.7507 45.2568 28.5663 44.9286 28.2381C44.6004 27.9099 44.416 27.4648 44.416 27.0007V25.834C44.416 25.3699 44.6004 24.9247 44.9286 24.5965C45.2568 24.2684 45.7019 24.084 46.166 24.084C46.6301 24.084 47.0753 24.2684 47.4035 24.5965C47.7316 24.9247 47.916 25.3699 47.916 25.834V27.0007C47.916 27.4648 47.7316 27.9099 47.4035 28.2381C47.0753 28.5663 46.6301 28.7507 46.166 28.7507ZM46.166 25.2507C46.0113 25.2507 45.8629 25.3121 45.7535 25.4215C45.6441 25.5309 45.5827 25.6793 45.5827 25.834V27.0007C45.5827 27.1554 45.6441 27.3037 45.7535 27.4131C45.8629 27.5225 46.0113 27.584 46.166 27.584C46.3207 27.584 46.4691 27.5225 46.5785 27.4131C46.6879 27.3037 46.7493 27.1554 46.7493 27.0007V25.834C46.7493 25.6793 46.6879 25.5309 46.5785 25.4215C46.4691 25.3121 46.3207 25.2507 46.166 25.2507Z" fill="#F64A00"/>
</svg>
