<svg width="100" height="100" viewBox="0 0 100 100" fill="none" xmlns="http://www.w3.org/2000/svg">
<path d="M71.0604 49.8146H56.3164C55.4535 49.8146 54.7539 50.5143 54.7539 51.3771V98.4373C54.7539 99.3002 55.4535 99.9998 56.3164 99.9998H71.0604C71.9232 99.9998 72.6229 99.3002 72.6229 98.4373V51.3771C72.6229 50.5143 71.9234 49.8146 71.0604 49.8146ZM69.4979 96.8748H57.8789V52.9396H69.4979V96.8748ZM43.6832 55.96H28.9393C28.0764 55.96 27.3768 56.6596 27.3768 57.5225V98.4375C27.3768 99.3004 28.0764 100 28.9393 100H43.6832C44.5461 100 45.2457 99.3004 45.2457 98.4375V57.5225C45.2457 56.6594 44.5463 55.96 43.6832 55.96ZM42.1207 96.875H30.5018V59.085H42.1207V96.875ZM16.3064 30.4742H1.5625C0.699609 30.4742 0 31.1738 0 32.0367V98.4371C0 99.3 0.699609 99.9996 1.5625 99.9996H16.3064C17.1693 99.9996 17.8689 99.3 17.8689 98.4371V32.0367C17.8689 31.1736 17.1693 30.4742 16.3064 30.4742ZM14.7439 96.8746H3.125V33.5992H14.7439V96.8746ZM98.4375 68.0693H83.6937C82.8309 68.0693 82.1312 68.769 82.1312 69.6318V98.4371C82.1312 99.3 82.8309 99.9996 83.6937 99.9996H98.4375C99.3004 99.9996 100 99.3 100 98.4371V69.6318C100 68.7688 99.3004 68.0693 98.4375 68.0693ZM96.875 96.8746H85.2562V71.1943H96.875V96.8746ZM82.641 55.1629C81.7816 55.0852 81.1479 54.3254 81.2258 53.466C81.3035 52.6066 82.0656 51.9729 82.9227 52.0508L85.908 52.3209L63.382 34.7809L36.7928 43.3984C36.2318 43.5803 35.6166 43.4309 35.2016 43.0121L7.825 15.4018C7.21738 14.7889 7.22168 13.7996 7.83437 13.1922C8.44707 12.5848 9.43652 12.5887 10.0439 13.2016L36.7438 40.1295L63.2066 31.5525C63.6994 31.3928 64.2395 31.4877 64.6484 31.8061L88.1285 50.0891L86.8859 46.0209C86.6338 45.1955 87.0984 44.3223 87.9238 44.0701C88.7492 43.8178 89.6225 44.2826 89.8746 45.108L92.5602 53.9C92.7121 54.3975 92.6064 54.9379 92.2785 55.3416C91.9803 55.7086 91.5338 55.9189 91.066 55.9189C91.0191 55.9189 90.9723 55.9168 90.925 55.9125L82.641 55.1629ZM45.8313 20.4506C46.0684 20.1766 46.1516 19.8697 46.1014 19.4561C46.0137 18.7338 45.5633 17.8473 42.8352 17.3996C38.4926 16.6865 37.4773 14.4016 37.3906 12.6105C37.2723 10.1754 38.925 8.13672 41.5127 7.49531V6.83066C41.5127 5.96777 42.2123 5.26816 43.0752 5.26816C43.9381 5.26816 44.6377 5.96777 44.6377 6.83066V7.47754C46.3154 7.87344 47.9033 8.9543 48.7395 10.9461C49.0734 11.7418 48.6994 12.6576 47.9037 12.9916C47.1076 13.3256 46.1922 12.9514 45.8582 12.1559C45.21 10.6123 43.6209 10.2164 42.333 10.5082C42.0166 10.5801 40.4414 11.0113 40.5117 12.4588C40.5303 12.8428 40.5797 13.8621 43.3412 14.3156C46.9186 14.9027 48.891 16.5055 49.2033 19.0793C49.36 20.3695 49.0111 21.5506 48.1945 22.4947C47.3793 23.4371 46.102 24.1018 44.6375 24.3785V24.9879C44.6375 25.8508 43.9379 26.5504 43.075 26.5504C42.2121 26.5504 41.5125 25.8508 41.5125 24.9879V24.3527C39.2361 23.8564 37.4937 22.3014 36.9564 20.1463C36.7477 19.309 37.2572 18.4609 38.0945 18.2521C38.9326 18.0432 39.7799 18.5529 39.9887 19.3902C40.3699 20.9191 41.9695 21.4256 43.2252 21.3965C44.3172 21.3705 45.3645 20.9904 45.8313 20.4506ZM43.075 31.8186C51.8475 31.8186 58.9844 24.6816 58.9844 15.9092C58.9844 7.13672 51.8475 0 43.075 0C34.3025 0 27.1656 7.13691 27.1656 15.9094C27.1656 24.6818 34.3027 31.8186 43.075 31.8186ZM43.075 3.125C50.1244 3.125 55.8594 8.85996 55.8594 15.9094C55.8594 22.9588 50.1244 28.6938 43.075 28.6938C36.0256 28.6938 30.2906 22.9588 30.2906 15.9094C30.2906 8.85996 36.0258 3.125 43.075 3.125Z" fill="#3D4351"/>
</svg>
