<svg width="90" height="90" viewBox="0 0 90 90" fill="none" xmlns="http://www.w3.org/2000/svg">
<rect width="90" height="90" rx="45" fill="#DF0A0A"/>
<g clip-path="url(#clip0_807_2)">
<path d="M63.0781 46.2789V32.4906C65.4596 32.1475 67.2969 30.0993 67.2969 27.625C67.2969 24.9116 65.0891 22.7031 62.375 22.7031C59.6609 22.7031 57.4531 24.9116 57.4531 27.625H23.7031V55.75H44.8327C45.1984 61.6253 50.0816 66.2969 56.0469 66.2969C62.2498 66.2969 67.2969 61.2498 67.2969 55.0469C67.2969 51.5038 65.6466 48.3426 63.0781 46.2789ZM62.375 24.1094C64.3135 24.1094 65.8906 25.6865 65.8906 27.625C65.8906 29.5635 64.3135 31.1406 62.375 31.1406C60.4365 31.1406 58.8594 29.5635 58.8594 27.625C58.8594 25.6865 60.4365 24.1094 62.375 24.1094ZM25.1094 29.0312H57.6605C57.8286 29.5923 58.0958 30.1091 58.4389 30.5676L54.1386 34.8679C53.863 34.7357 53.5592 34.6562 53.2344 34.6562C52.9095 34.6562 52.6058 34.7357 52.3309 34.8679L50.9141 33.4511C51.0455 33.1755 51.125 32.8717 51.125 32.5469C51.125 31.3839 50.1786 30.4375 49.0156 30.4375C47.8527 30.4375 46.9062 31.3839 46.9062 32.5469C46.9062 32.8717 46.9857 33.1755 47.1179 33.4504L43.5917 36.9766C43.3161 36.8451 43.0123 36.7656 42.6875 36.7656C41.5245 36.7656 40.5781 37.712 40.5781 38.875C40.5781 40.038 41.5245 40.9844 42.6875 40.9844C43.8505 40.9844 44.7969 40.038 44.7969 38.875C44.7969 38.5502 44.7174 38.2464 44.5852 37.9715L48.1114 34.4453C48.387 34.5768 48.6908 34.6562 49.0156 34.6562C49.3405 34.6562 49.6442 34.5768 49.9191 34.4446L51.3359 35.8614C51.2045 36.137 51.125 36.4408 51.125 36.7656C51.125 37.9286 52.0714 38.875 53.2344 38.875C54.3973 38.875 55.3438 37.9286 55.3438 36.7656C55.3438 36.4408 55.2643 36.137 55.1321 35.8621L59.4331 31.5618C60.0765 32.0441 60.8401 32.3711 61.6719 32.4913V45.3198C60.0146 44.3573 58.0972 43.7969 56.0469 43.7969C52.6859 43.7969 49.6723 45.2861 47.6094 47.631V44.5H43.3906V52.9375H45.0022C44.915 53.3966 44.8623 53.867 44.8327 54.3438H25.1094V29.0312ZM53.2344 36.0625C53.6218 36.0625 53.9375 36.3775 53.9375 36.7656C53.9375 37.1538 53.6218 37.4688 53.2344 37.4688C52.847 37.4688 52.5312 37.1538 52.5312 36.7656C52.5312 36.3775 52.847 36.0625 53.2344 36.0625ZM48.3125 32.5469C48.3125 32.1587 48.6282 31.8438 49.0156 31.8438C49.403 31.8438 49.7188 32.1587 49.7188 32.5469C49.7188 32.935 49.403 33.25 49.0156 33.25C48.6282 33.25 48.3125 32.935 48.3125 32.5469ZM43.3906 38.875C43.3906 39.2631 43.0749 39.5781 42.6875 39.5781C42.3001 39.5781 41.9844 39.2631 41.9844 38.875C41.9844 38.4869 42.3001 38.1719 42.6875 38.1719C43.0749 38.1719 43.3906 38.4869 43.3906 38.875ZM56.0469 60.6719C52.9454 60.6719 50.4219 58.1484 50.4219 55.0469C50.4219 51.9454 52.9454 49.4219 56.0469 49.4219C59.1484 49.4219 61.6719 51.9454 61.6719 55.0469C61.6719 58.1484 59.1484 60.6719 56.0469 60.6719ZM46.2031 49.6124C45.8663 50.2199 45.5879 50.8619 45.3671 51.5312H44.7969V45.9062H46.2031V49.6124ZM55.3438 45.239V48.0515C51.7958 48.4059 49.0156 51.4075 49.0156 55.0469C49.0156 56.0755 49.2434 57.0508 49.6421 57.9325L47.203 59.3409C46.5688 58.0415 46.2031 56.5874 46.2031 55.0469C46.2031 49.8564 50.244 45.6018 55.3438 45.239ZM56.0469 64.8906C52.662 64.8906 49.6709 63.1729 47.8991 60.5629L50.348 59.1489C51.6263 60.9194 53.7013 62.0781 56.0469 62.0781C58.3925 62.0781 60.4674 60.9194 61.7457 59.1489L64.1947 60.5629C62.4228 63.1729 59.4317 64.8906 56.0469 64.8906ZM64.8908 59.3409L62.4516 57.9325C62.8503 57.0508 63.0781 56.0755 63.0781 55.0469C63.0781 51.4075 60.298 48.4052 56.75 48.0515V45.239C61.8498 45.6018 65.8906 49.8564 65.8906 55.0469C65.8906 56.5874 65.525 58.0415 64.8908 59.3409Z" fill="white"/>
<path d="M56.0469 50.8281C53.7202 50.8281 51.8281 52.7202 51.8281 55.0469C51.8281 57.3735 53.7202 59.2656 56.0469 59.2656C58.3735 59.2656 60.2656 57.3735 60.2656 55.0469C60.2656 52.7202 58.3735 50.8281 56.0469 50.8281ZM56.0469 57.8594C54.4958 57.8594 53.2344 56.598 53.2344 55.0469C53.2344 53.4958 54.4958 52.2344 56.0469 52.2344C57.598 52.2344 58.8594 53.4958 58.8594 55.0469C58.8594 56.598 57.598 57.8594 56.0469 57.8594Z" fill="white"/>
<path d="M26.5156 30.4375H27.9219V31.8438H26.5156V30.4375Z" fill="white"/>
<path d="M29.3281 30.4375H39.1719V31.8438H29.3281V30.4375Z" fill="white"/>
<path d="M26.5156 33.25H27.9219V34.6562H26.5156V33.25Z" fill="white"/>
<path d="M29.3281 33.25H39.1719V34.6562H29.3281V33.25Z" fill="white"/>
<path d="M26.5156 36.0625H27.9219V37.4688H26.5156V36.0625Z" fill="white"/>
<path d="M29.3281 36.0625H39.1719V37.4688H29.3281V36.0625Z" fill="white"/>
<path d="M26.5156 38.875H27.9219V40.2812H26.5156V38.875Z" fill="white"/>
<path d="M29.3281 38.875H39.1719V40.2812H29.3281V38.875Z" fill="white"/>
<path d="M26.5156 52.9375H30.7344V45.9062H26.5156V52.9375ZM27.9219 47.3125H29.3281V51.5312H27.9219V47.3125Z" fill="white"/>
<path d="M32.1406 52.9375H36.3594V47.3125H32.1406V52.9375ZM33.5469 48.7188H34.9531V51.5312H33.5469V48.7188Z" fill="white"/>
<path d="M37.7656 52.9375H41.9844V41.6875H37.7656V52.9375ZM39.1719 43.0938H40.5781V51.5312H39.1719V43.0938Z" fill="white"/>
</g>
<defs>
<clipPath id="clip0_807_2">
<rect width="45" height="45" fill="white" transform="translate(23 22)"/>
</clipPath>
</defs>
</svg>
