<svg width="90" height="90" viewBox="0 0 90 90" fill="none" xmlns="http://www.w3.org/2000/svg">
<rect width="90" height="90" rx="45" fill="#DF0A0A"/>
<path d="M49.0156 59.9688H47.6094V53.0781C47.6094 52.8916 47.5353 52.7128 47.4034 52.5809C47.2716 52.4491 47.0927 52.375 46.9062 52.375C46.7198 52.375 46.5409 52.4491 46.4091 52.5809C46.2772 52.7128 46.2031 52.8916 46.2031 53.0781V59.9688H27.9219V45.9062H33.7719C33.9584 45.9062 34.1372 45.8322 34.2691 45.7003C34.4009 45.5684 34.475 45.3896 34.475 45.2031C34.475 45.0166 34.4009 44.8378 34.2691 44.7059C34.1372 44.5741 33.9584 44.5 33.7719 44.5H27.2188C27.0323 44.5 26.8534 44.5741 26.7216 44.7059C26.5897 44.8378 26.5156 45.0166 26.5156 45.2031V59.9688H25.1094C24.9229 59.9688 24.7441 60.0428 24.6122 60.1747C24.4803 60.3066 24.4062 60.4854 24.4062 60.6719V62.0781C24.4062 63.0105 24.7766 63.9047 25.436 64.564C26.0953 65.2234 26.9895 65.5938 27.9219 65.5938H46.2031C47.1355 65.5938 48.0297 65.2234 48.689 64.564C49.3484 63.9047 49.7188 63.0105 49.7188 62.0781V60.6719C49.7188 60.4854 49.6447 60.3066 49.5128 60.1747C49.3809 60.0428 49.2021 59.9688 49.0156 59.9688ZM48.3125 62.0781C48.3125 62.6376 48.0903 63.1741 47.6947 63.5697C47.2991 63.9653 46.7626 64.1875 46.2031 64.1875H44.7969V63.4844C44.7969 63.2979 44.7228 63.1191 44.5909 62.9872C44.4591 62.8553 44.2802 62.7812 44.0938 62.7812C43.9073 62.7812 43.7284 62.8553 43.5966 62.9872C43.4647 63.1191 43.3906 63.2979 43.3906 63.4844V64.1875H30.7344V63.4844C30.7344 63.2979 30.6603 63.1191 30.5284 62.9872C30.3966 62.8553 30.2177 62.7812 30.0312 62.7812C29.8448 62.7812 29.6659 62.8553 29.5341 62.9872C29.4022 63.1191 29.3281 63.2979 29.3281 63.4844V64.1875H27.9219C27.3624 64.1875 26.8259 63.9653 26.4303 63.5697C26.0347 63.1741 25.8125 62.6376 25.8125 62.0781V61.375H48.3125V62.0781Z" fill="white"/>
<path d="M60.9688 27.625H62.375C62.5615 27.625 62.7403 27.5509 62.8722 27.4191C63.004 27.2872 63.0781 27.1084 63.0781 26.9219C63.0781 26.7354 63.004 26.5566 62.8722 26.4247C62.7403 26.2928 62.5615 26.2188 62.375 26.2188H60.9688C60.4093 26.2188 59.8728 26.441 59.4772 26.8366C59.0816 27.2322 58.8594 27.7687 58.8594 28.3281V29.0312H58.1562C57.9698 29.0312 57.7909 29.1053 57.6591 29.2372C57.5272 29.3691 57.4531 29.5479 57.4531 29.7344C57.4531 29.9209 57.5272 30.0997 57.6591 30.2316C57.7909 30.3634 57.9698 30.4375 58.1562 30.4375H58.8594V32.5469C58.8594 32.7334 58.9335 32.9122 59.0653 33.0441C59.1972 33.1759 59.376 33.25 59.5625 33.25C59.749 33.25 59.9278 33.1759 60.0597 33.0441C60.1915 32.9122 60.2656 32.7334 60.2656 32.5469V30.4375H60.9688C61.1552 30.4375 61.3341 30.3634 61.4659 30.2316C61.5978 30.0997 61.6719 29.9209 61.6719 29.7344C61.6719 29.5479 61.5978 29.3691 61.4659 29.2372C61.3341 29.1053 61.1552 29.0312 60.9688 29.0312H60.2656V28.3281C60.2656 28.1416 60.3397 27.9628 60.4716 27.8309C60.6034 27.6991 60.7823 27.625 60.9688 27.625Z" fill="white"/>
<path d="M64.4844 23.4062H56.0469C55.4874 23.4062 54.9509 23.6285 54.5553 24.0241C54.1597 24.4197 53.9375 24.9562 53.9375 25.5156V26.9219C53.9375 27.1084 54.0116 27.2872 54.1434 27.4191C54.2753 27.5509 54.4541 27.625 54.6406 27.625C54.8271 27.625 55.0059 27.5509 55.1378 27.4191C55.2697 27.2872 55.3438 27.1084 55.3438 26.9219V25.5156C55.3438 25.3291 55.4178 25.1503 55.5497 25.0184C55.6816 24.8866 55.8604 24.8125 56.0469 24.8125H64.4844C64.6709 24.8125 64.8497 24.8866 64.9816 25.0184C65.1134 25.1503 65.1875 25.3291 65.1875 25.5156V33.9531C65.1875 34.1396 65.1134 34.3184 64.9816 34.4503C64.8497 34.5822 64.6709 34.6562 64.4844 34.6562H56.0469C55.8604 34.6562 55.6816 34.5822 55.5497 34.4503C55.4178 34.3184 55.3438 34.1396 55.3438 33.9531V29.7344C55.3438 29.5479 55.2697 29.3691 55.1378 29.2372C55.0059 29.1053 54.8271 29.0312 54.6406 29.0312C54.4541 29.0312 54.2753 29.1053 54.1434 29.2372C54.0116 29.3691 53.9375 29.5479 53.9375 29.7344V33.9531C53.9375 34.5126 54.1597 35.0491 54.5553 35.4447C54.9509 35.8403 55.4874 36.0625 56.0469 36.0625H64.4844C65.0438 36.0625 65.5803 35.8403 65.9759 35.4447C66.3715 35.0491 66.5938 34.5126 66.5938 33.9531V25.5156C66.5938 24.9562 66.3715 24.4197 65.9759 24.0241C65.5803 23.6285 65.0438 23.4062 64.4844 23.4062V23.4062Z" fill="white"/>
<path d="M57.4531 51.5313C57.4531 52.0875 57.6181 52.6313 57.9271 53.0938C58.2362 53.5563 58.6754 53.9168 59.1893 54.1297C59.7032 54.3425 60.2688 54.3982 60.8143 54.2897C61.3599 54.1812 61.861 53.9133 62.2544 53.52C62.6477 53.1267 62.9156 52.6255 63.0241 52.0799C63.1326 51.5344 63.0769 50.9689 62.864 50.455C62.6512 49.941 62.2907 49.5018 61.8282 49.1927C61.3657 48.8837 60.8219 48.7188 60.2656 48.7188C59.5197 48.7188 58.8043 49.0151 58.2769 49.5425C57.7494 50.07 57.4531 50.7853 57.4531 51.5313ZM61.6719 51.5313C61.6719 51.8094 61.5894 52.0813 61.4349 52.3125C61.2804 52.5438 61.0607 52.724 60.8038 52.8305C60.5468 52.9369 60.2641 52.9647 59.9913 52.9105C59.7185 52.8562 59.4679 52.7223 59.2713 52.5256C59.0746 52.329 58.9407 52.0784 58.8864 51.8056C58.8321 51.5328 58.86 51.2501 58.9664 50.9931C59.0729 50.7361 59.2531 50.5165 59.4844 50.362C59.7156 50.2075 59.9875 50.125 60.2656 50.125C60.6386 50.125 60.9963 50.2732 61.26 50.5369C61.5237 50.8006 61.6719 51.1583 61.6719 51.5313Z" fill="white"/>
<path d="M64.4844 45.2031H56.0469C55.4874 45.2031 54.9509 45.4254 54.5553 45.8209C54.1597 46.2165 53.9375 46.7531 53.9375 47.3125V55.75C53.9375 56.3094 54.1597 56.846 54.5553 57.2416C54.9509 57.6371 55.4874 57.8594 56.0469 57.8594H64.4844C65.0438 57.8594 65.5803 57.6371 65.9759 57.2416C66.3715 56.846 66.5938 56.3094 66.5938 55.75V54.3438C66.5938 54.1573 66.5197 53.9784 66.3878 53.8466C66.2559 53.7147 66.0771 53.6406 65.8906 53.6406C65.7041 53.6406 65.5253 53.7147 65.3934 53.8466C65.2616 53.9784 65.1875 54.1573 65.1875 54.3438V55.75C65.1875 55.9365 65.1134 56.1153 64.9816 56.2472C64.8497 56.379 64.6709 56.4531 64.4844 56.4531H56.0469C55.8604 56.4531 55.6816 56.379 55.5497 56.2472C55.4178 56.1153 55.3438 55.9365 55.3438 55.75V47.3125C55.3438 47.126 55.4178 46.9472 55.5497 46.8153C55.6816 46.6835 55.8604 46.6094 56.0469 46.6094H64.4844C64.6709 46.6094 64.8497 46.6835 64.9816 46.8153C65.1134 46.9472 65.1875 47.126 65.1875 47.3125V51.5312C65.1875 51.7177 65.2616 51.8966 65.3934 52.0284C65.5253 52.1603 65.7041 52.2344 65.8906 52.2344C66.0771 52.2344 66.2559 52.1603 66.3878 52.0284C66.5197 51.8966 66.5938 51.7177 66.5938 51.5312V47.3125C66.5938 46.7531 66.3715 46.2165 65.9759 45.8209C65.5803 45.4254 65.0438 45.2031 64.4844 45.2031V45.2031Z" fill="white"/>
<path d="M40.2055 31.7381C40.3174 31.8075 40.4465 31.844 40.5781 31.8436C40.6882 31.8429 40.7966 31.8164 40.8945 31.7662L45.1133 29.6569C45.2285 29.5979 45.3251 29.5082 45.3926 29.3978C45.4601 29.2874 45.4958 29.1605 45.4958 29.0311C45.4958 28.9017 45.4601 28.7748 45.3926 28.6644C45.3251 28.5539 45.2285 28.4643 45.1133 28.4053L40.8945 26.2959C40.7875 26.242 40.6684 26.2163 40.5487 26.2213C40.4289 26.2263 40.3125 26.2619 40.2103 26.3246C40.1082 26.3873 40.0237 26.4751 39.965 26.5796C39.9064 26.6841 39.8754 26.8018 39.875 26.9217V31.1404C39.8748 31.2599 39.905 31.3775 39.9628 31.4821C40.0206 31.5867 40.1041 31.6748 40.2055 31.7381V31.7381ZM41.2813 28.0608L43.2219 29.0311L41.2813 30.0014V28.0608Z" fill="white"/>
<path d="M41.9844 35.3594C43.236 35.3594 44.4594 34.9882 45.5001 34.2929C46.5407 33.5976 47.3518 32.6092 47.8308 31.4529C48.3098 30.2966 48.4351 29.0242 48.1909 27.7967C47.9467 26.5692 47.344 25.4416 46.459 24.5566C45.574 23.6716 44.4465 23.0689 43.2189 22.8247C41.9914 22.5805 40.719 22.7059 39.5627 23.1848C38.4064 23.6638 37.4181 24.4749 36.7227 25.5155C36.0274 26.5562 35.6562 27.7797 35.6562 29.0313C35.6562 30.7096 36.323 32.3192 37.5097 33.5059C38.6965 34.6927 40.3061 35.3594 41.9844 35.3594V35.3594ZM41.9844 24.1094C42.9578 24.1094 43.9094 24.398 44.7188 24.9389C45.5282 25.4797 46.1591 26.2484 46.5316 27.1477C46.9041 28.0471 47.0016 29.0367 46.8117 29.9915C46.6218 30.9462 46.153 31.8232 45.4647 32.5115C44.7763 33.1999 43.8993 33.6686 42.9446 33.8586C41.9898 34.0485 41.0002 33.951 40.1009 33.5785C39.2015 33.2059 38.4328 32.5751 37.892 31.7657C37.3512 30.9563 37.0625 30.0047 37.0625 29.0313C37.0625 27.7259 37.5811 26.474 38.5041 25.551C39.4271 24.6279 40.679 24.1094 41.9844 24.1094V24.1094Z" fill="white"/>
<path d="M49.0156 38.1719C49.1248 38.1719 49.2324 38.1465 49.3301 38.0977C49.4277 38.0488 49.5126 37.978 49.5781 37.8906L51.6875 35.0781C51.7994 34.9289 51.8474 34.7414 51.8211 34.5568C51.7947 34.3722 51.6961 34.2056 51.5469 34.0938C51.3977 33.9819 51.2102 33.9338 51.0256 33.9602C50.841 33.9866 50.6744 34.0852 50.5625 34.2344L48.4531 37.0469C48.3412 37.1961 48.2932 37.3836 48.3196 37.5682C48.3459 37.7528 48.4446 37.9194 48.5938 38.0313C48.7155 38.1225 48.8635 38.1719 49.0156 38.1719Z" fill="white"/>
<path d="M50.5625 40.7031C50.628 40.7905 50.7129 40.8613 50.8106 40.9102C50.9082 40.959 51.0158 40.9844 51.125 40.9844C51.2771 40.9844 51.4252 40.935 51.5469 40.8438L54.3594 38.7344C54.5086 38.6225 54.6072 38.4559 54.6336 38.2713C54.6599 38.0867 54.6119 37.8992 54.5 37.75C54.3881 37.6008 54.2216 37.5022 54.037 37.4758C53.8523 37.4494 53.6648 37.4975 53.5156 37.6094L50.7031 39.7188C50.5539 39.8306 50.4553 39.9972 50.4289 40.1818C50.4026 40.3664 50.4506 40.554 50.5625 40.7031V40.7031Z" fill="white"/>
<path d="M57.4527 42.2509C57.436 42.1577 57.4006 42.0688 57.3487 41.9896C57.2968 41.9104 57.2295 41.8425 57.1507 41.79C57.0719 41.7374 56.9833 41.7014 56.8902 41.6839C56.7971 41.6665 56.7014 41.668 56.609 41.6884L53.0934 42.3915C53.001 42.4008 52.9114 42.4281 52.8296 42.472C52.7479 42.5158 52.6755 42.5754 52.6168 42.6472C52.4981 42.7923 52.4419 42.9785 52.4605 43.165C52.4792 43.3515 52.5712 43.5229 52.7162 43.6416C52.8612 43.7603 53.0475 43.8164 53.234 43.7978H53.3746L56.8902 43.0947C56.9834 43.078 57.0723 43.0426 57.1515 42.9907C57.2307 42.9388 57.2987 42.8714 57.3512 42.7926C57.4037 42.7138 57.4398 42.6252 57.4572 42.5321C57.4747 42.439 57.4732 42.3434 57.4527 42.2509Z" fill="white"/>
<path d="M25.1094 42.3906H33.5469C33.7334 42.3906 33.9122 42.3165 34.0441 42.1847C34.1759 42.0528 34.25 41.874 34.25 41.6875V30.4375C34.25 30.251 34.1759 30.0722 34.0441 29.9403C33.9122 29.8085 33.7334 29.7344 33.5469 29.7344H25.1094C24.9229 29.7344 24.7441 29.8085 24.6122 29.9403C24.4803 30.0722 24.4062 30.251 24.4062 30.4375V41.6875C24.4062 41.874 24.4803 42.0528 24.6122 42.1847C24.7441 42.3165 24.9229 42.3906 25.1094 42.3906ZM25.8125 31.1406H32.8438V40.9844H25.8125V31.1406Z" fill="white"/>
<path d="M30.7344 32.5469H29.3281C29.1416 32.5469 28.9628 32.621 28.8309 32.7528C28.6991 32.8847 28.625 33.0635 28.625 33.25C28.625 33.4365 28.6991 33.6153 28.8309 33.7472C28.9628 33.879 29.1416 33.9531 29.3281 33.9531H30.7344C30.9209 33.9531 31.0997 33.879 31.2316 33.7472C31.3634 33.6153 31.4375 33.4365 31.4375 33.25C31.4375 33.0635 31.3634 32.8847 31.2316 32.7528C31.0997 32.621 30.9209 32.5469 30.7344 32.5469Z" fill="white"/>
<path d="M30.7344 35.3594H27.9219C27.7354 35.3594 27.5566 35.4335 27.4247 35.5653C27.2928 35.6972 27.2188 35.876 27.2188 36.0625C27.2188 36.249 27.2928 36.4278 27.4247 36.5597C27.5566 36.6915 27.7354 36.7656 27.9219 36.7656H30.7344C30.9209 36.7656 31.0997 36.6915 31.2316 36.5597C31.3634 36.4278 31.4375 36.249 31.4375 36.0625C31.4375 35.876 31.3634 35.6972 31.2316 35.5653C31.0997 35.4335 30.9209 35.3594 30.7344 35.3594Z" fill="white"/>
<path d="M30.7344 38.1719H27.9219C27.7354 38.1719 27.5566 38.246 27.4247 38.3778C27.2928 38.5097 27.2188 38.6885 27.2188 38.875C27.2188 39.0615 27.2928 39.2403 27.4247 39.3722C27.5566 39.504 27.7354 39.5781 27.9219 39.5781H30.7344C30.9209 39.5781 31.0997 39.504 31.2316 39.3722C31.3634 39.2403 31.4375 39.0615 31.4375 38.875C31.4375 38.6885 31.3634 38.5097 31.2316 38.3778C31.0997 38.246 30.9209 38.1719 30.7344 38.1719Z" fill="white"/>
<path d="M48.3964 42.1797C48.3503 42.0994 48.2887 42.029 48.2153 41.9724C48.1419 41.9159 48.0581 41.8743 47.9687 41.8502C47.8792 41.826 47.7859 41.8197 47.694 41.8316C47.6021 41.8435 47.5135 41.8734 47.4332 41.9196C47.3528 41.9658 47.2824 42.0273 47.2258 42.1007C47.1693 42.1741 47.1277 42.2579 47.1036 42.3473C47.0794 42.4368 47.0731 42.5301 47.085 42.622C47.0969 42.7139 47.1268 42.8025 47.173 42.8829L50.2738 48.2477L39.0238 52.4665C39.0238 52.4665 39.0238 52.4665 38.9746 52.4665H38.9183L37.0902 53.5212L35.8738 54.2243C35.7136 54.3169 35.5368 54.3769 35.3534 54.4011C35.17 54.4252 34.9837 54.4129 34.805 54.3649C34.4462 54.268 34.1403 54.0328 33.9542 53.711L32.548 51.2782C32.3826 50.9599 32.345 50.5904 32.443 50.2453C32.5411 49.9003 32.7673 49.6057 33.0753 49.4219L35.5082 48.0157L37.266 51.0602C37.3279 51.1675 37.4171 51.2565 37.5245 51.3183C37.632 51.38 37.7538 51.4123 37.8777 51.4118C38.0013 51.4123 38.1229 51.3801 38.2302 51.3186C38.3375 51.2571 38.4267 51.1684 38.4887 51.0614C38.5508 50.9545 38.5835 50.833 38.5836 50.7094C38.5837 50.5857 38.5512 50.4642 38.4894 50.3571L36.6753 47.2212L45.4996 39.9438L45.7878 40.443C45.834 40.5234 45.8955 40.5938 45.9689 40.6504C46.0423 40.7069 46.1262 40.7484 46.2156 40.7726C46.305 40.7968 46.3984 40.8031 46.4903 40.7912C46.5821 40.7792 46.6708 40.7494 46.7511 40.7032C46.8315 40.657 46.9019 40.5955 46.9585 40.5221C47.015 40.4487 47.0565 40.3649 47.0807 40.2754C47.1049 40.186 47.1112 40.0926 47.0992 40.0008C47.0873 39.9089 47.0574 39.8202 47.0113 39.7399L46.3082 38.5235C46.2566 38.4354 46.1865 38.3596 46.1028 38.3013C46.019 38.243 45.9235 38.2037 45.823 38.186C45.7219 38.1669 45.6179 38.1703 45.5183 38.1958C45.4187 38.2213 45.3259 38.2684 45.2464 38.3337L35.4027 46.4477L32.4074 48.1774C31.8698 48.4905 31.4513 48.973 31.2172 49.5493C30.9831 50.1256 30.9467 50.7633 31.1136 51.3626L30.4105 51.7633C30.0482 51.9714 29.7559 52.2823 29.5705 52.6567C29.3852 53.0311 29.3152 53.4521 29.3694 53.8664C29.4236 54.2806 29.5996 54.6694 29.8751 54.9835C30.1506 55.2975 30.5131 55.5228 30.9167 55.6305C31.0957 55.6779 31.2801 55.7016 31.4652 55.7008C31.8351 55.6993 32.1983 55.6024 32.5199 55.4196L33.223 55.0188C33.5608 55.3677 33.9855 55.6202 34.4535 55.7501C34.6937 55.8173 34.9423 55.8504 35.1917 55.8485C35.686 55.8496 36.1715 55.7185 36.598 55.4688L37.2097 55.1172L38.616 57.5571C38.8954 58.0403 39.355 58.393 39.8941 58.538C40.4331 58.6829 41.0076 58.6083 41.4917 58.3305C41.7319 58.1921 41.9425 58.0078 42.1114 57.7879C42.2803 57.5681 42.4042 57.3172 42.476 57.0494C42.5478 56.7817 42.5662 56.5024 42.53 56.2276C42.4938 55.9528 42.4038 55.6877 42.2652 55.4477L40.9855 53.2188L51.5324 49.2602C51.628 49.2243 51.7147 49.1679 51.7863 49.095C51.858 49.0222 51.9129 48.9346 51.9472 48.8383C51.9814 48.7432 51.9948 48.6419 51.9863 48.5412C51.9778 48.4405 51.9477 48.3428 51.898 48.2547L48.3964 42.1797ZM31.7886 54.1962C31.7086 54.2424 31.6201 54.2725 31.5284 54.2845C31.4367 54.2966 31.3436 54.2905 31.2542 54.2665C31.0741 54.2197 30.9199 54.1034 30.8253 53.943C30.7791 53.863 30.749 53.7745 30.737 53.6828C30.7249 53.5911 30.731 53.498 30.755 53.4087C30.779 53.3189 30.8206 53.2347 30.8773 53.1611C30.934 53.0875 31.0048 53.0259 31.0855 52.9797L31.6972 52.6282L32.4003 53.8446L31.7886 54.1962ZM41.0417 56.1649C41.088 56.245 41.1181 56.3334 41.1301 56.4251C41.1422 56.5168 41.1361 56.61 41.1121 56.6993C41.0619 56.878 40.9431 57.0297 40.7816 57.1212C40.621 57.2134 40.4305 57.2386 40.2514 57.1912C40.0724 57.1438 39.9193 57.0277 39.8253 56.868L38.4191 54.4282L39.5863 53.7602H39.6425L41.0417 56.1649Z" fill="white"/>
</svg>
