<svg width="90" height="90" viewBox="0 0 90 90" fill="none" xmlns="http://www.w3.org/2000/svg">
<rect width="90" height="90" rx="45" fill="#DF0A0A"/>
<g clip-path="url(#clip0_807_4)">
<path d="M34.3382 21.3164C32.812 21.3164 31.5703 22.565 31.5703 24.0997C31.5703 25.6344 32.812 26.883 34.3382 26.883C35.8645 26.883 37.1062 25.6344 37.1062 24.0997C37.1062 22.565 35.8645 21.3164 34.3382 21.3164V21.3164ZM34.3382 25.5664C33.534 25.5664 32.8796 24.9085 32.8796 24.0997C32.8796 23.2909 33.534 22.633 34.3382 22.633C35.1426 22.633 35.7969 23.2909 35.7969 24.0997C35.7968 24.9085 35.1425 25.5664 34.3382 25.5664V25.5664Z" fill="white"/>
<path d="M37.1065 36.5648V34.0197C37.1065 33.656 36.8135 33.3613 36.4519 33.3613H29.7836C29.4219 33.3613 29.1289 33.656 29.1289 34.0197V36.5648C29.1289 36.9286 29.4219 37.2233 29.7836 37.2233H36.452C36.8135 37.2233 37.1065 36.9286 37.1065 36.5648V36.5648ZM35.7972 35.9064H30.4382V34.6782H35.7973V35.9064H35.7972Z" fill="white"/>
<path d="M64.7028 22.44H60.5473C59.8236 22.44 59.1924 22.8449 58.8654 23.4411H41.4228V23.0238C41.4228 22.7125 41.206 22.4439 40.903 22.3797L39.3077 22.0421C39.3048 22.035 39.302 22.028 39.299 22.021L40.1896 20.6482C40.3588 20.3874 40.3231 20.0433 40.1041 19.8233L38.5913 18.3023C38.3724 18.0822 38.0302 18.0462 37.7708 18.2164L36.4051 19.1118C36.3981 19.1089 36.3912 19.106 36.3843 19.103L36.0484 17.4991C35.9847 17.1945 35.7174 16.9766 35.4078 16.9766H33.2682C32.9586 16.9766 32.6914 17.1945 32.6276 17.4991L32.2917 19.103C32.2848 19.1059 32.2779 19.1088 32.2709 19.1118L30.9053 18.2164C30.646 18.0463 30.3037 18.0824 30.0847 18.3023L28.5719 19.8232C28.3529 20.0433 28.3173 20.3875 28.4864 20.6482L29.3771 22.0211C29.3742 22.0281 29.3713 22.035 29.3684 22.0421L27.773 22.3797C27.47 22.4438 27.2532 22.7125 27.2532 23.0238V23.4411H27.2358C25.499 23.4411 24.0859 24.8616 24.0859 26.6078V47.0813C24.0859 48.8274 25.499 50.2481 27.2358 50.2481H29.716C30.0325 52.5414 32.036 54.2825 34.3378 54.2825C35.0165 54.2825 35.6612 54.1349 36.2436 53.872L34.7629 59.6967C34.1749 62.0092 37.8397 62.7948 38.4046 60.5742L41.0297 50.2482H43.161V60.1355C43.161 61.0991 43.965 61.9073 44.9234 61.9073C45.882 61.9073 46.6859 61.0991 46.6859 60.1355V50.2481H48.8174L51.4424 60.574C52.0067 62.7941 55.6722 62.0098 55.0841 59.6965L52.6822 50.2481H62.6113C64.3481 50.2481 65.7612 48.8275 65.7612 47.0813V32.8603C65.7612 32.4967 65.4681 32.2021 65.1065 32.2021C64.7449 32.2021 64.4518 32.4967 64.4518 32.8603V47.0813C64.4518 48.1017 63.6262 48.9317 62.6113 48.9317L38.9592 48.9318C38.6398 46.6549 36.6896 44.8974 34.3379 44.8974C32.036 44.8974 30.0326 46.6382 29.7161 48.9317H27.2358C26.2209 48.9317 25.3953 48.1017 25.3953 47.0813V27.9652H28.3833C28.396 28.1159 28.4592 28.2621 28.5719 28.3754L30.0847 29.8962C30.3036 30.1162 30.6457 30.1522 30.9053 29.9821L32.2708 29.0867C32.2778 29.0896 32.2848 29.0925 32.2917 29.0955L32.6276 30.6994C32.6914 31.004 32.9586 31.222 33.2682 31.222H35.4078C35.7174 31.222 35.9846 31.004 36.0484 30.6994L36.3843 29.0955C36.3912 29.0926 36.3982 29.0897 36.4052 29.0867L37.7708 29.9821C38.0303 30.1523 38.3726 30.1162 38.5913 29.8962L40.1041 28.3754C40.2168 28.2621 40.2799 28.1159 40.2926 27.9652H58.3934L52.2905 34.1008L49.1558 30.9502C48.6678 30.4575 47.8572 30.4578 47.3685 30.9492L45.3335 32.995C45.0777 33.2521 45.0777 33.6688 45.3334 33.9258C45.5891 34.1827 46.0036 34.1829 46.2592 33.9259L48.2617 31.9128L51.3973 35.0645C51.8855 35.555 52.6958 35.5564 53.1837 35.0644L62.0931 26.1073C62.2803 25.919 62.3362 25.636 62.2349 25.39C62.1336 25.144 61.8948 24.9837 61.6301 24.9837H60.5471C59.7597 24.9837 59.7605 23.7564 60.5471 23.7564H64.7026C65.0297 23.7564 65.2958 24.0235 65.2958 24.3518V28.5295C65.2958 28.8647 65.0182 29.1437 64.6849 29.1437C64.3481 29.1437 64.0741 28.8682 64.0741 28.5295V27.4417C64.0741 27.1756 63.9146 26.9355 63.6699 26.8337C63.4252 26.7316 63.1437 26.788 62.9565 26.9763L52.2909 37.698L49.1549 34.546C48.6631 34.0518 47.8623 34.0515 47.3685 34.5461L41.9956 39.9486C41.4456 40.5024 40.5748 39.6412 41.1325 39.0801L44.0774 36.1196C44.3331 35.8624 44.3331 35.4458 44.0774 35.1888C43.8218 34.9319 43.4072 34.9317 43.1516 35.1888L40.2067 38.1493C39.4439 38.9163 39.4752 40.1959 40.2629 40.9312C41.0086 41.6274 42.2028 41.6033 42.922 40.879L48.2618 35.5098L51.3974 38.6614C51.8835 39.1518 52.697 39.1535 53.1837 38.6623L62.8171 28.9781C63.0187 29.8271 63.7797 30.4602 64.685 30.4602C65.7309 30.4602 66.6052 29.5815 66.6052 28.5297V24.3518C66.6053 23.2976 65.7518 22.44 64.7028 22.44V22.44ZM37.136 60.248C36.9908 60.8191 35.8665 60.6713 36.0315 60.0226L37.9197 52.5952C38.4647 51.9398 38.8349 51.1333 38.9591 50.2482H39.6783L37.136 60.248ZM45.3766 60.1354C45.3766 60.7215 44.4703 60.7224 44.4703 60.1354V50.2481H45.3766V60.1354ZM53.8156 60.0225C53.9802 60.6697 52.8562 60.8185 52.7111 60.248L50.1689 50.2481H51.3308L53.8156 60.0225ZM33.5799 46.2997C33.8274 46.2427 34.0825 46.2137 34.3379 46.2137C36.1896 46.2137 37.696 47.7277 37.6966 49.5888L37.6966 49.5899L37.6966 49.5911C37.696 51.4522 36.1895 52.9661 34.3379 52.9661C32.5005 52.9661 30.9796 51.4356 30.9796 49.5898C30.9796 48.0073 32.0492 46.6543 33.5799 46.2997V46.2997ZM25.3953 26.6078C25.3953 25.5875 26.2209 24.7574 27.2358 24.7574H27.2532V25.1747C27.2532 25.486 27.47 25.7546 27.773 25.8188L29.3684 26.1565C29.3712 26.1635 29.3741 26.1704 29.3771 26.1774L29.0712 26.6489H25.3953V26.6078ZM38.0411 28.5877L36.8181 27.7857C36.374 27.4947 35.285 27.954 35.1772 28.4693L34.8765 29.9054H33.7995L33.4988 28.4693C33.3897 27.9477 32.2965 27.4981 31.8579 27.7857L30.6349 28.5877L29.8732 27.8221L30.671 26.5925C30.9603 26.1461 30.5036 25.0513 29.9911 24.9429L28.5625 24.6406V23.5579L29.9911 23.2555C30.51 23.1458 30.9568 22.0469 30.671 21.6059L29.8732 20.3764L30.6349 19.6106L31.8579 20.4126C32.302 20.7036 33.391 20.2444 33.4988 19.7291L33.7996 18.2929H34.8766L35.1773 19.7291C35.2864 20.2507 36.3795 20.7001 36.8182 20.4126L38.0412 19.6106L38.8028 20.3764L38.005 21.6059C37.7155 22.0522 38.1725 23.1472 38.685 23.2555L40.1135 23.5579V24.6407L38.685 24.943C38.1663 25.0526 37.719 26.1517 38.005 26.5926L38.8028 27.8221L38.0411 28.5877ZM60.1015 26.248L59.7028 26.6488H39.6048L39.299 26.1774C39.3019 26.1704 39.3048 26.1634 39.3077 26.1564L40.903 25.8187C41.206 25.7546 41.4228 25.4859 41.4228 25.1747V24.7573H58.6667C58.813 25.4833 59.3843 26.0775 60.1015 26.248V26.248Z" fill="white"/>
<path d="M61.1207 44.5332H48.7133C48.3516 44.5332 48.0586 44.8282 48.0586 45.1922C48.0586 45.5562 48.3516 45.8511 48.7133 45.8511H61.1207C61.4823 45.8511 61.7754 45.5562 61.7754 45.1922C61.7754 44.8282 61.4822 44.5332 61.1207 44.5332V44.5332Z" fill="white"/>
<path d="M61.1199 41.6465H53.764C53.4024 41.6465 53.1094 41.9414 53.1094 42.3054C53.1094 42.6694 53.4024 42.9644 53.764 42.9644H61.1199C61.4816 42.9644 61.7746 42.6694 61.7746 42.3054C61.7746 41.9414 61.4815 41.6465 61.1199 41.6465Z" fill="white"/>
<path d="M29.7836 38.4062C29.4219 38.4062 29.1289 38.7012 29.1289 39.0652C29.1289 39.4292 29.4219 39.7242 29.7836 39.7242H34.3386C34.7003 39.7242 34.9933 39.4292 34.9933 39.0652C34.9933 38.7012 34.7003 38.4062 34.3386 38.4062H29.7836Z" fill="white"/>
<path d="M34.3383 51.1376C34.6999 51.1376 34.9929 50.8429 34.9929 50.4791V48.7033C34.9929 48.3396 34.6999 48.0449 34.3383 48.0449C33.9766 48.0449 33.6836 48.3396 33.6836 48.7033V50.4791C33.6836 50.8428 33.9766 51.1376 34.3383 51.1376Z" fill="white"/>
</g>
<defs>
<clipPath id="clip0_807_4">
<rect width="44.6917" height="44.9307" fill="white" transform="translate(23 16.9766)"/>
</clipPath>
</defs>
</svg>
