<svg width="90" height="90" viewBox="0 0 90 90" fill="none" xmlns="http://www.w3.org/2000/svg">
<rect width="90" height="90" fill="#F64A00"/>
<path d="M58.1807 62.9712C57.684 63.2418 57.1804 63.5211 56.6704 63.8038C52.3551 66.1964 47.464 68.9083 42.7631 68.4885L26.1155 67.0023C26.0938 67.0004 26.0721 66.9994 26.0503 66.9994H21.4677V58.7609H26.0502C26.2237 58.7609 26.3917 58.6993 26.5241 58.5873C26.5371 58.5764 27.8485 57.4745 29.845 56.4374C30.2047 56.2506 30.3447 55.8075 30.158 55.4479C29.9711 55.0883 29.5282 54.9481 29.1684 55.135C27.485 56.0095 26.2639 56.9201 25.7906 57.2932H20.7339C20.3286 57.2932 20 57.6218 20 58.0271V67.7333C20 68.1386 20.3285 68.4672 20.7339 68.4672H26.0175L42.6326 69.9505C43.0079 69.984 43.3823 70 43.7568 70C48.5216 70 53.2102 67.4006 57.3821 65.0876C57.8889 64.8067 58.3894 64.5291 58.8829 64.2601C59.2388 64.0661 59.3701 63.6204 59.1762 63.2646C58.9823 62.9085 58.5367 62.7773 58.1807 62.9712Z" fill="white"/>
<path d="M69.4334 54.8424C68.6531 53.8081 67.2937 53.4509 66.1203 53.9421C66.0903 53.4728 65.9315 53.0156 65.6531 52.6259C64.9193 51.5987 63.5243 51.2677 62.4082 51.856L60.6629 52.7758C60.6405 52.366 60.5196 51.9626 60.3041 51.6065C59.6078 50.4554 58.1365 50.0557 56.9543 50.6964L55.6498 51.4037C55.6263 50.8965 55.4545 50.4022 55.148 49.9849C54.383 48.944 52.9981 48.6238 51.8548 49.2235L42.4371 54.1629C41.378 53.7563 38.0018 52.6566 34.0572 53.391C33.3767 53.5177 32.6757 53.7009 31.9733 53.9358C31.5889 54.0643 31.3815 54.48 31.5099 54.8644C31.6386 55.2488 32.0545 55.4561 32.4386 55.3278C33.0769 55.1144 33.7118 54.9483 34.3258 54.8339C38.5367 54.0498 42.1403 55.625 42.1752 55.6406C42.2698 55.683 42.3722 55.705 42.4759 55.705H52.2786C52.9751 55.705 53.5417 56.2733 53.5417 56.9717C53.5417 57.6083 53.0667 58.1486 52.437 58.2283L40.0127 59.802C39.6451 59.8486 39.3699 60.1617 39.3711 60.5321C39.3721 60.9027 39.6493 61.2142 40.0171 61.2585L45.2937 61.8946C50.4051 62.5105 55.486 61.5135 59.9873 59.0112L66.5812 55.3456C67.1612 55.0434 67.8669 55.203 68.2616 55.7263C68.7548 56.3488 68.5404 57.347 67.8342 57.7106L60.7593 61.566C59.9134 62.0106 60.6384 63.3235 61.4616 62.8548L68.5365 58.9993C69.2535 58.6087 69.7637 57.9265 69.9363 57.1277C70.1091 56.3281 69.9258 55.4951 69.4334 54.8424ZM52.5366 50.5232C53.0325 50.2631 53.6332 50.4022 53.9654 50.854C54.3734 51.3802 54.1881 52.2149 53.595 52.5177L50.4231 54.2373H45.4552L52.5366 50.5232ZM53.204 54.3992L57.6538 51.9867C58.1459 51.72 58.7583 51.8868 59.0484 52.3662C59.3645 52.8627 59.1666 53.5796 58.6398 53.8421L54.7802 55.8763C54.4804 55.1926 53.9095 54.6543 53.204 54.3992ZM59.2742 57.7283C55.2378 59.9723 50.7052 60.928 46.1257 60.5071L52.6214 59.6843C53.8265 59.5318 54.7687 58.6003 54.9694 57.4356L63.0925 53.1543C63.5622 52.9068 64.1496 53.0462 64.4588 53.4789C64.8331 53.9763 64.6593 54.7525 64.1077 55.0413L59.2742 57.7283Z" fill="white"/>
<path d="M37.0889 39.9398C37.9177 39.9398 38.7151 39.7605 39.4587 39.4069C39.8247 39.2329 39.9803 38.795 39.8062 38.429C39.6322 38.0631 39.1946 37.9073 38.8283 38.0814C38.2833 38.3406 37.698 38.472 37.0889 38.472C34.8525 38.472 33.033 36.6525 33.033 34.4161C33.033 32.1797 34.8525 30.3602 37.0889 30.3602C39.3254 30.3602 41.1449 32.1797 41.1449 34.4161C41.1449 35.1009 40.9712 35.7773 40.6428 36.3724C40.447 36.7273 40.5758 37.1737 40.9307 37.3695C41.2857 37.5653 41.7321 37.4364 41.9278 37.0816C42.3757 36.2699 42.6126 35.3482 42.6126 34.416C42.6126 31.3702 40.1346 28.8924 37.0889 28.8924C34.0432 28.8924 31.5653 31.3702 31.5653 34.416C31.5653 37.4618 34.0432 39.9398 37.0889 39.9398Z" fill="white"/>
<path d="M25.6296 36.598L27.1506 36.8266C27.3989 37.857 27.8033 38.833 28.3574 39.7386L27.4431 40.9764C27.011 41.5614 27.0707 42.359 27.5849 42.8731L28.632 43.9203C29.1462 44.4344 29.9439 44.4941 30.5288 44.0621L31.7665 43.1478C32.6721 43.7019 33.648 44.1064 34.6785 44.3547L34.9072 45.8757C35.0153 46.5948 35.6216 47.1166 36.3486 47.1166H37.8294C38.5565 47.1166 39.1628 46.5948 39.2708 45.8756L39.4994 44.3547C40.5298 44.1064 41.5057 43.7019 42.4114 43.1478L43.6492 44.0622C44.234 44.4941 45.0318 44.4345 45.5458 43.9204L46.5929 42.8733C47.1072 42.3592 47.1668 41.5615 46.7348 40.9765L45.8206 39.7388C46.3747 38.8332 46.7791 37.8573 47.0274 36.8268L48.5483 36.5982C49.2673 36.4901 49.7893 35.884 49.7893 35.1567V35.1501H54.1444V44.5038C54.1444 45.4474 54.9121 46.2152 55.8558 46.2152H58.9909C59.3266 47.7111 60.6645 48.8325 62.2602 48.8325C64.108 48.8325 65.6114 47.3291 65.6114 45.4812C65.6114 43.6334 64.1081 42.1299 62.2602 42.1299C60.6644 42.1299 59.3265 43.2514 58.9908 44.7474H55.8557C55.7213 44.7474 55.612 44.6381 55.612 44.5038V35.1501H58.9908C59.3265 36.6461 60.6644 37.7675 62.2602 37.7675C64.108 37.7675 65.6114 36.2642 65.6114 34.4163C65.6114 32.5683 64.1081 31.065 62.2602 31.065C60.6645 31.065 59.3266 32.1864 58.9908 33.6823H55.6122V24.3288C55.6122 24.1944 55.7215 24.0851 55.8559 24.0851H58.991C59.3267 25.5811 60.6646 26.7025 62.2604 26.7025C64.1082 26.7025 65.6116 25.1992 65.6116 23.3513C65.6116 21.5033 64.1081 20 62.2603 20C60.6646 20 59.3267 21.1214 58.9909 22.6174H55.8558C54.9121 22.6174 54.1444 23.3851 54.1444 24.3287V33.6822H49.7893V33.6758C49.7893 32.9487 49.2674 32.3425 48.5484 32.2344L47.0274 32.0057C46.779 30.9753 46.3747 29.9994 45.8206 29.0937L46.7348 27.856C47.1668 27.2711 47.1073 26.4733 46.593 25.9593L45.5459 24.9121C45.0319 24.3979 44.2341 24.3384 43.6492 24.7703L42.4115 25.6846C41.5057 25.1305 40.5298 24.726 39.4995 24.4777L39.2709 22.9567C39.1629 22.2377 38.5566 21.7157 37.8295 21.7157H36.3486C35.6216 21.7157 35.0153 22.2376 34.9072 22.9567L34.6785 24.4777C33.6481 24.7261 32.6722 25.1305 31.7665 25.6846L30.5288 24.7703C29.944 24.3383 29.1462 24.3978 28.632 24.9121L27.5849 25.9591C27.0707 26.4732 27.011 27.271 27.4431 27.8558L28.3573 29.0935C27.8032 29.9992 27.3987 30.9752 27.1505 32.0055L25.6295 32.2342C24.9104 32.3423 24.3886 32.9485 24.3886 33.6756V35.1563C24.3886 35.8838 24.9105 36.4899 25.6296 36.598ZM62.2603 43.5975C63.2988 43.5975 64.1438 44.4424 64.1438 45.481C64.1438 46.5196 63.2988 47.3645 62.2603 47.3645C61.2217 47.3645 60.3768 46.5196 60.3768 45.481C60.3768 44.4424 61.2217 43.5975 62.2603 43.5975ZM62.2603 32.5326C63.2988 32.5326 64.1438 33.3775 64.1438 34.4161C64.1438 35.4547 63.2988 36.2996 62.2603 36.2996C61.2217 36.2996 60.3768 35.4547 60.3768 34.4161C60.3768 33.3775 61.2217 32.5326 62.2603 32.5326ZM62.2603 21.4677C63.2988 21.4677 64.1438 22.3126 64.1438 23.3512C64.1438 24.3897 63.2988 25.2347 62.2603 25.2347C61.2217 25.2347 60.3768 24.3897 60.3768 23.3512C60.3768 22.3127 61.2217 21.4677 62.2603 21.4677ZM25.8562 33.6843L27.8706 33.3815C28.1796 33.3351 28.4253 33.0981 28.4828 32.7911C28.7064 31.5984 29.1681 30.4845 29.8549 29.4801C30.0311 29.2222 30.025 28.881 29.8393 28.6298L28.6288 26.9908L29.6637 25.956L31.3026 27.1667C31.5538 27.3522 31.8949 27.3585 32.1528 27.1822C33.1573 26.4954 34.2713 26.0338 35.4638 25.81C35.7709 25.7525 36.0078 25.5068 36.0543 25.1978L36.3571 23.1835H37.8206L38.1234 25.1978C38.1699 25.5068 38.4068 25.7525 38.7138 25.81C39.9064 26.0337 41.0205 26.4954 42.0249 27.1822C42.2828 27.3586 42.6239 27.3522 42.8752 27.1667L44.5141 25.956L45.549 26.9908L44.3384 28.6299C44.1529 28.881 44.1466 29.2222 44.3229 29.4802C45.0097 30.4846 45.4713 31.5985 45.6951 32.7913C45.7527 33.0983 45.9984 33.3352 46.3073 33.3817L48.3216 33.6845V35.148L46.3073 35.4508C45.9984 35.4972 45.7527 35.7342 45.6951 36.0413C45.4713 37.234 45.0097 38.348 44.3229 39.3524C44.1466 39.6102 44.1528 39.9514 44.3384 40.2026L45.5491 41.8416L44.5142 42.8764L42.8752 41.6658C42.6241 41.4802 42.2829 41.474 42.025 41.6503C41.0206 42.3372 39.9066 42.7988 38.7138 43.0225C38.4068 43.0801 38.1699 43.3258 38.1234 43.6347L37.8206 45.6491H36.3571L36.0543 43.6347C36.0078 43.3258 35.7709 43.0801 35.4638 43.0225C34.2711 42.7988 33.1571 42.3372 32.1527 41.6503C31.8949 41.4741 31.5538 41.4802 31.3025 41.6658L29.6636 42.8764L28.6287 41.8416L29.8393 40.2026C30.0249 39.9514 30.0311 39.6101 29.8549 39.3524C29.168 38.348 28.7064 37.2341 28.4828 36.0414C28.4252 35.7343 28.1796 35.4973 27.8706 35.4509L25.8562 35.1481V33.6843Z" fill="white"/>
</svg>
