<svg width="90" height="90" viewBox="0 0 90 90" fill="none" xmlns="http://www.w3.org/2000/svg">
<rect width="90" height="90" fill="#F64A00"/>
<path d="M40.4845 30.4317L39.4593 35.4101C39.3974 35.7105 39.5171 36.0195 39.7653 36.1998C40.0135 36.3801 40.3442 36.3985 40.6109 36.2468L45.0289 33.7334L49.4468 36.2468C49.567 36.3151 49.7003 36.3489 49.8331 36.3489C49.995 36.3489 50.1562 36.2987 50.2925 36.1997C50.5408 36.0194 50.6604 35.7104 50.5985 35.41L49.5734 30.4316L53.3289 27.0065C53.5556 26.7998 53.6403 26.4795 53.5456 26.1877C53.4508 25.896 53.194 25.6867 52.889 25.6526L47.8375 25.0891L45.7408 20.4591C45.6142 20.1795 45.3357 20 45.0289 20C44.7221 20 44.4437 20.1795 44.3171 20.4591L42.2202 25.0893L37.1687 25.6528C36.8638 25.6868 36.607 25.8961 36.5122 26.1879C36.4173 26.4798 36.5021 26.8 36.7288 27.0067L40.4845 30.4317ZM42.8353 26.5931C43.1092 26.5625 43.3468 26.3899 43.4605 26.1389L45.0289 22.6755L46.5974 26.1388C46.7111 26.3898 46.9486 26.5624 47.2226 26.593L51.0012 27.0144L48.192 29.5763C47.9883 29.762 47.8976 30.0414 47.9532 30.3112L48.72 34.0351L45.4154 32.1551C45.2956 32.087 45.1623 32.0529 45.029 32.0529C44.8957 32.0529 44.7625 32.087 44.6426 32.1551L41.338 34.0351L42.1049 30.3113C42.1604 30.0414 42.0697 29.7621 41.8661 29.5764L39.0569 27.0145L42.8353 26.5931ZM24.3435 37.3014C24.2816 37.602 24.4013 37.9108 24.6495 38.0911C24.8977 38.2714 25.2284 38.2899 25.4952 38.1381L28.8745 36.2156L32.2538 38.1381C32.374 38.2065 32.5072 38.2403 32.6401 38.2403C32.8019 38.2403 32.9632 38.1901 33.0994 38.091C33.3477 37.9107 33.4674 37.6018 33.4055 37.3013L32.6213 33.4933L35.4939 30.8735C35.7206 30.6668 35.8053 30.3465 35.7106 30.0547C35.6158 29.763 35.3589 29.5537 35.054 29.5196L31.1901 29.0885L29.5863 25.5471C29.4597 25.2676 29.1814 25.088 28.8745 25.088C28.5676 25.088 28.2892 25.2675 28.1626 25.5471L26.5587 29.0887L22.6948 29.5197C22.3899 29.5537 22.1331 29.763 22.0383 30.0548C21.9434 30.3467 22.0282 30.667 22.2549 30.8736L25.1275 33.4934L24.3435 37.3014ZM24.5829 30.8816L27.1738 30.5926C27.4477 30.562 27.6853 30.3895 27.799 30.1384L28.8745 27.7636L29.95 30.1383C30.0636 30.3894 30.3012 30.562 30.5752 30.5925L33.1661 30.8815L31.2398 32.6382C31.0362 32.824 30.9454 33.1032 31.001 33.3731L31.5268 35.9266L29.2609 34.6375C29.141 34.5693 29.0078 34.5353 28.8745 34.5353C28.7411 34.5353 28.6079 34.5694 28.4881 34.6375L26.2221 35.9267L26.7479 33.3732C26.8035 33.1032 26.7128 32.824 26.5091 32.6383L24.5829 30.8816ZM68.0195 30.0548C67.9246 29.7631 67.6678 29.5538 67.3629 29.5197L63.499 29.0886L61.8952 25.5471C61.7686 25.2676 61.4903 25.088 61.1834 25.088C60.8765 25.088 60.5981 25.2675 60.4715 25.5471L58.8676 29.0887L55.0038 29.5198C54.6988 29.5538 54.442 29.7631 54.3472 30.0549C54.2524 30.3468 54.3371 30.667 54.5638 30.8737L57.4364 33.4935L56.6523 37.3015C56.5904 37.6021 56.7101 37.9109 56.9583 38.0912C57.2065 38.2715 57.5372 38.29 57.804 38.1382L61.1833 36.2157L64.5626 38.1382C64.6828 38.2066 64.8161 38.2404 64.9489 38.2404C65.1107 38.2404 65.272 38.1902 65.4083 38.0911C65.6565 37.9108 65.7762 37.6019 65.7143 37.3014L64.9301 33.4934L67.8027 30.8736C68.0295 30.6669 68.1143 30.3466 68.0195 30.0548ZM63.5487 32.6383C63.3451 32.8241 63.2544 33.1033 63.3099 33.3732L63.8357 35.9267L61.5698 34.6376C61.4499 34.5694 61.3167 34.5354 61.1834 34.5354C61.0501 34.5354 60.9168 34.5695 60.797 34.6376L58.5311 35.9267L59.0568 33.3732C59.1124 33.1032 59.0217 32.824 58.818 32.6383L56.8918 30.8816L59.4827 30.5927C59.7567 30.5621 59.9942 30.3896 60.1079 30.1385L61.1834 27.7637L62.2589 30.1385C62.3726 30.3896 62.6101 30.5621 62.8841 30.5927L65.475 30.8817L63.5487 32.6383ZM61.7052 40.7703C61.5407 40.3459 61.0074 40.1498 60.608 40.3638L56.6707 42.4712C55.7688 42.9405 54.8372 42.6022 53.3922 42.0115C51.4128 41.2023 48.7325 40.1096 45.2425 42.2739C42.7048 40.7724 40.5369 41.2831 38.7761 41.699C37.421 42.0192 36.3507 42.272 35.3158 41.6895C35.2975 41.6793 35.2789 41.6697 35.2599 41.661L30.1164 39.2881C29.7267 39.1083 29.2646 39.2767 29.0819 39.6652C29.0819 39.6652 23.72 51.0735 23.7098 51.0955C23.5218 51.4955 23.7156 51.9873 24.1241 52.1523C24.1934 52.1822 28.922 54.3107 29.3729 54.4859C29.7508 54.6325 29.8683 55.0664 30.0301 55.9533C30.1167 56.4279 30.2058 56.9144 30.4057 57.3569L29.6354 58.797C28.85 60.2657 29.4057 62.0996 30.8744 62.8851C31.3268 63.1271 31.8138 63.2417 32.294 63.2417C32.3596 63.2417 32.425 63.2394 32.4902 63.2352C32.2414 64.5035 32.8316 65.8412 34.0293 66.4818C34.9088 66.9522 36.1337 66.9204 36.9914 66.4168C37.2508 67.0322 37.7138 67.5661 38.3473 67.905C39.1833 68.3522 40.204 68.3723 41.061 67.9709C41.3002 68.6675 41.7919 69.2792 42.4911 69.6532C43.8003 70.3535 45.5092 69.9659 46.3789 68.7372L47.4419 69.3218C47.9024 69.5751 48.4006 69.6952 48.8925 69.6952C49.9592 69.6952 50.9949 69.1297 51.5443 68.1309C51.8947 67.4939 51.9895 66.7832 51.8633 66.1178C52.8683 66.0607 53.8237 65.5043 54.3435 64.5592C54.6383 64.0232 54.7503 63.4332 54.7012 62.8612C54.842 62.8812 54.9833 62.8923 55.1242 62.8923C56.1909 62.8923 57.2265 62.3267 57.7759 61.3279C58.1097 60.7212 58.2088 60.0452 58.1053 59.4046C58.3631 59.3998 58.6228 59.3627 58.8787 59.2901C59.6657 59.0664 60.3153 58.5503 60.7076 57.837C61.043 57.2272 61.1408 56.5453 61.0322 55.8995L65.9479 53.8036C66.3356 53.6384 66.5223 53.1954 66.37 52.8025C66.3696 52.8026 61.7202 40.8088 61.7052 40.7703ZM31.6113 61.5072C30.9025 61.1282 30.6343 60.2431 31.0133 59.5341C31.0133 59.5341 32.4344 56.8772 32.4353 56.8756C32.8084 56.1781 33.7134 55.906 34.4095 56.2783C35.1066 56.651 35.3789 57.5541 35.0064 58.2507L33.5819 60.9136C33.2014 61.6191 32.3187 61.8856 31.6113 61.5072ZM35.8759 65.211C35.5015 65.3246 35.1075 65.2864 34.7662 65.104C34.0574 64.7248 33.7892 63.8398 34.1683 63.1309C34.1683 63.1309 36.0978 59.5237 36.0987 59.522C36.4596 58.8473 37.3952 58.5708 38.0693 58.9312C38.7658 59.3036 39.0384 60.2072 38.6661 60.9036L36.7394 64.5059C36.5568 64.8472 36.2502 65.0976 35.8759 65.211ZM40.1938 66.6341C39.8193 66.7474 39.4253 66.7095 39.0842 66.5271C38.3754 66.148 38.1072 65.2628 38.4862 64.5539L40.0441 61.6407V61.6406C40.2266 61.2994 40.5332 61.0491 40.9075 60.9357C41.2819 60.8222 41.6761 60.8603 42.0184 61.0434C42.3579 61.2242 42.6075 61.5297 42.7212 61.9037C42.8354 62.2795 42.7978 62.6744 42.6152 63.0158L41.0572 65.9291C40.8748 66.2703 40.5681 66.5207 40.1938 66.6341ZM44.3375 68.3824C43.9631 68.4959 43.5691 68.4578 43.2278 68.2754C42.519 67.8963 42.2508 67.0112 42.6299 66.3022C42.6299 66.3022 43.9923 63.7546 43.9932 63.7529C44.3668 63.0542 45.269 62.7819 45.9674 63.1557C46.652 63.5222 46.9392 64.4267 46.5642 65.1281L45.2008 67.6775C45.0186 68.0187 44.7119 68.269 44.3375 68.3824ZM50.1748 67.3778C49.7874 68.0821 48.8992 68.3399 48.1947 67.9525L47.1371 67.3709L47.9424 65.865C48.1421 65.4916 48.2578 65.0882 48.2892 64.6769L49.5911 65.3928L49.5981 65.3967C50.3024 65.7867 50.5611 66.6754 50.1748 67.3778ZM59.3379 57.0839C58.9645 57.7628 58.0439 58.046 57.3658 57.6629L51.8139 54.527C51.4383 54.3146 50.9615 54.4473 50.7493 54.823C50.537 55.1988 50.6696 55.6754 51.0453 55.8877C51.0453 55.8877 55.8058 58.5804 55.8249 58.5911C56.5291 58.9876 56.7899 59.8774 56.4064 60.5749C56.019 61.2792 55.1307 61.537 54.4264 61.1496L48.3787 57.7699C48.0027 57.5582 47.5261 57.6914 47.3145 58.0676C47.1028 58.4437 47.2362 58.9202 47.6122 59.1318L52.3925 61.8222C53.0968 62.2187 53.3576 63.1085 52.974 63.806C52.5866 64.5102 51.6985 64.7682 50.9941 64.3807L47.596 62.5019C47.3509 62.2078 47.05 61.9612 46.7036 61.7768C45.9943 61.3975 45.1775 61.3178 44.4037 61.5522C44.3547 61.567 44.3063 61.583 44.2585 61.6001C44.2459 61.5496 44.232 61.4992 44.2168 61.4489C43.9815 60.6752 43.4618 60.0413 42.7546 59.6645C42.0454 59.2852 41.2284 59.2053 40.4547 59.4399C40.4056 59.4547 40.3572 59.4707 40.3093 59.4878C40.2967 59.4373 40.2829 59.3869 40.2676 59.3367C40.0323 58.563 39.5127 57.929 38.8053 57.5522C38.1431 57.1981 37.4069 57.1174 36.7257 57.2693C36.7059 57.073 36.6667 56.877 36.6079 56.6836C36.3726 55.9099 35.8529 55.2759 35.1456 54.8992C34.4363 54.5199 33.6196 54.44 32.8457 54.6746C32.3365 54.8289 31.888 55.1074 31.5323 55.4814C31.3651 54.5919 31.0885 53.475 29.9385 53.0286C29.4886 52.8538 27.0379 51.7495 25.7214 51.1563C25.6263 51.1135 25.5404 51.0747 25.4626 51.0397L30.1663 41.0318L34.5781 43.0671C36.1349 43.9284 37.6601 43.5681 39.1355 43.2196C40.6613 42.8592 42.1156 42.5157 43.8329 43.2956C43.4333 43.6272 43.0353 43.9917 42.6427 44.3886C41.1304 45.9168 39.1974 47.3597 36.8976 48.6771C36.7051 48.7874 36.5685 48.9742 36.522 49.1912C36.4755 49.4081 36.5233 49.6345 36.6536 49.814C39.6733 53.975 43.2454 52.5288 46.1157 51.3669C48.0269 50.5931 49.6775 49.9249 51.0084 50.6834L58.7532 55.0977C59.457 55.4995 59.7194 56.3902 59.3379 57.0839ZM60.3904 54.4742C60.157 54.1853 59.8674 53.9346 59.5268 53.7404L51.7821 49.3262C51.1043 48.9399 50.4062 48.7871 49.6968 48.7871C48.3244 48.7871 46.9111 49.3592 45.5291 49.9186C42.9038 50.9814 40.6085 51.9108 38.4633 49.5684C40.5431 48.3067 42.3198 46.9367 43.7533 45.4882C44.3845 44.8503 45.0256 44.3049 45.6587 43.8674C48.6844 41.7756 50.777 42.6309 52.8009 43.4582C54.2762 44.0612 55.8018 44.6849 57.3999 43.8534L60.5671 42.1583L64.6391 52.6627L60.3904 54.4742Z" fill="white"/>
</svg>
