<svg width="90" height="90" viewBox="0 0 90 90" fill="none" xmlns="http://www.w3.org/2000/svg">
<rect width="90" height="90" fill="#F64A00"/>
<path d="M42.0554 62.3746C41.6508 62.3746 41.3229 62.7026 41.3229 63.107V69.2675C41.3229 69.672 41.6508 69.9999 42.0554 69.9999C42.46 69.9999 42.7878 69.672 42.7878 69.2675V63.107C42.7878 62.7025 42.4599 62.3746 42.0554 62.3746Z" fill="white"/>
<path d="M31.3694 63.0813C30.9657 63.0476 30.612 63.3466 30.578 63.7497L30.1193 69.2061C30.0854 69.6091 30.3847 69.9634 30.7877 69.9973C30.8086 69.999 30.8294 69.9999 30.85 69.9999C31.2267 69.9999 31.5469 69.7111 31.579 69.3288L32.0378 63.8725C32.0716 63.4695 31.7724 63.1152 31.3694 63.0813Z" fill="white"/>
<path d="M42.0554 45.6618C42.7771 45.6618 43.4732 45.3584 43.9652 44.8292C44.2407 44.533 44.2238 44.0695 43.9276 43.794C43.6314 43.5186 43.168 43.5354 42.8925 43.8317C42.6734 44.0672 42.3762 44.1969 42.0554 44.1969C41.7346 44.1969 41.4372 44.0671 41.2182 43.8316C40.9428 43.5354 40.4794 43.5185 40.1829 43.7941C39.8868 44.0696 39.87 44.533 40.1454 44.8293C40.6375 45.3583 41.3337 45.6618 42.0554 45.6618Z" fill="white"/>
<path d="M66.7052 49.8975C66.508 49.5444 66.062 49.418 65.7086 49.6151C65.3555 49.8122 65.2291 50.2584 65.4261 50.6117C66.0402 51.7114 66.3647 52.9629 66.3647 54.2311C66.3647 56.7359 65.1146 59.0568 63.0209 60.4394C61.9205 61.1659 61.1936 62.3091 60.9914 63.5877H56.8672C56.6675 62.3057 55.9485 61.1677 54.8596 60.4546C52.8057 59.1092 51.5476 56.8444 51.4944 54.3961C51.4054 50.3027 54.6594 46.8938 58.7481 46.7972C60.4274 46.7574 62.0181 47.2624 63.3575 48.2572C63.6822 48.4984 64.141 48.4306 64.3822 48.1059C64.6234 47.7812 64.5555 47.3224 64.2308 47.0812C62.6269 45.89 60.7203 45.2853 58.7134 45.3328C54.4291 45.434 50.9103 48.5728 50.1709 52.6397H46.7362V48.7446C49.4516 47.7249 51.4331 45.1965 51.6573 42.1856H53.3118C55.3947 42.1856 57.0893 40.491 57.0893 38.4081V36.2218C57.0893 34.1388 55.3947 32.4443 53.3118 32.4443H53.0257C53.1662 32.1312 53.2441 31.784 53.2441 31.4189V26.6416C53.2441 24.0424 51.13 21.9277 48.5311 21.9277H47.8296C47.5427 21.4192 47.1427 20.9844 46.6537 20.6532C46.0227 20.2259 45.2867 20 44.5255 20H32.7647C31.6947 20 30.8243 20.87 30.8243 21.9394V31.4189C30.8243 31.7827 30.9041 32.1302 31.0473 32.4443H30.7987C28.7157 32.4443 27.0211 34.1389 27.0211 36.2218V38.4081C27.0211 40.4911 28.7157 42.1856 30.7987 42.1856H32.4532C32.6776 45.1968 34.6594 47.7253 37.3751 48.7449V52.6397H31.7862C28.4014 52.6397 25.5148 55.0586 24.9226 58.3913L23.0115 69.1393C22.9406 69.5375 23.206 69.9178 23.6043 69.9886C23.6476 69.9963 23.6909 70 23.7333 70C24.0816 70 24.3905 69.7506 24.4535 69.3957L26.3647 58.6476C26.8324 56.0151 29.1125 54.1044 31.7861 54.1044H37.374V69.2675C37.374 69.672 37.7019 69.9999 38.1065 69.9999C38.511 69.9999 38.8389 69.672 38.8389 69.2675V60.2852L41.3229 57.5917V59.6724C41.3229 60.0769 41.6508 60.4048 42.0554 60.4048C42.46 60.4048 42.7878 60.0769 42.7878 59.6724V57.5913L45.2716 60.2852V69.2676C45.2716 69.6721 45.5994 70 46.004 70C46.4086 70 46.7364 69.6721 46.7364 69.2676V54.1044H50.0295C49.9632 57.0645 51.5277 60.0505 54.0571 61.68C54.9344 62.2547 55.4584 63.2411 55.4588 64.3191V67.6102C55.4588 68.9279 56.5309 70 57.8487 70H60.009C61.3268 70 62.3989 68.9279 62.3989 67.6102V64.3201C62.3989 63.2467 62.9333 62.2529 63.8283 61.6618C66.3338 60.0073 67.8298 57.2294 67.8298 54.2312C67.8296 52.7135 67.4408 51.215 66.7052 49.8975ZM55.6246 36.2218V38.4081C55.6246 39.6834 54.5871 40.7208 53.3119 40.7208H51.681V33.9092H53.3119C54.5871 33.9092 55.6246 34.9466 55.6246 36.2218ZM32.2892 21.9394C32.2892 21.6777 32.5026 21.4648 32.7647 21.4648H44.5255C44.9928 21.4648 45.4448 21.6036 45.8326 21.8662C46.2199 22.1285 46.5164 22.497 46.69 22.9318C46.8012 23.2102 47.0705 23.3927 47.3702 23.3927H48.5313C50.3223 23.3927 51.7795 24.8502 51.7795 26.6417V31.419C51.7795 31.6984 51.6683 31.9519 51.4869 32.1373C50.8677 29.9194 48.8304 28.2871 46.4177 28.2871C46.0131 28.2871 45.6852 28.615 45.6852 29.0195C45.6852 29.424 46.0131 29.7519 46.4177 29.7519C48.5122 29.7519 50.2163 31.456 50.2163 33.5506V34.5372C49.414 33.802 48.346 33.3526 47.1747 33.3526C45.1267 33.3526 43.3946 34.7263 42.8485 36.6004C42.4623 36.4486 41.8837 36.355 41.2618 36.5991C40.7152 34.7258 38.9835 33.3526 36.9359 33.3526C35.7647 33.3526 34.6967 33.802 33.8944 34.5372V33.5506C33.8944 31.4559 35.5985 29.7519 37.6931 29.7519H42.9727C43.3773 29.7519 43.7052 29.424 43.7052 29.0195C43.7052 28.615 43.3773 28.2871 42.9727 28.2871H37.6931C35.2696 28.2871 33.2247 29.9339 32.6154 32.1668C32.4148 31.9787 32.2891 31.7118 32.2891 31.419L32.2892 21.9394ZM50.2162 37.8589C50.2162 39.5359 48.8517 40.9004 47.1746 40.9004C45.4975 40.9004 44.1331 39.5359 44.1331 37.8589C44.1331 36.1818 45.4975 34.8174 47.1746 34.8174C48.8518 34.8175 50.2162 36.1818 50.2162 37.8589ZM36.9359 40.9004C35.2589 40.9004 33.8944 39.536 33.8944 37.859C33.8944 36.1819 35.2589 34.8175 36.9359 34.8175C38.6131 34.8175 39.9775 36.1818 39.9775 37.859C39.9775 39.5361 38.6131 40.9004 36.9359 40.9004ZM41.4424 38.5156C41.4424 38.18 41.7153 37.9071 42.06 37.9071C42.3955 37.9071 42.6684 38.18 42.6684 38.5156V40.601C42.6684 40.9366 42.3954 41.2095 42.06 41.2095H42.0508C41.7152 41.2095 41.4424 40.9366 41.4424 40.601V38.5156ZM28.4861 38.4081V36.2218C28.4861 34.9466 29.5236 33.9092 30.7988 33.9092H32.4297V40.7208H30.7988C29.5236 40.7208 28.4861 39.6833 28.4861 38.4081ZM33.8944 41.6153C33.8944 41.5405 33.8944 41.3613 33.8944 41.1806C34.6966 41.9158 35.7647 42.3652 36.9359 42.3652C38.1406 42.3652 39.2355 41.8891 40.0449 41.1163C40.2749 42.0106 41.0857 42.6744 42.0508 42.6744H42.06C43.025 42.6744 43.8357 42.0106 44.0658 41.1164C44.8751 41.8891 45.97 42.3652 47.1747 42.3652C48.346 42.3652 49.414 41.9158 50.2163 41.1806C50.4401 44.6915 47.6224 47.7747 44.0682 47.7634H40.0427C36.6525 47.7634 33.8944 45.0054 33.8944 41.6153ZM40.0427 49.2283H44.0682C44.4776 49.2283 44.8794 49.1948 45.2716 49.1322V52.955L42.0558 54.8649L38.8399 52.955V49.1323C39.2319 49.1949 39.6334 49.2283 40.0427 49.2283ZM38.8389 54.6582L40.9043 55.8849L38.8389 58.1244V54.6582ZM43.207 55.8849L45.2716 54.6588V58.1241L43.207 55.8849ZM60.9338 67.6101C60.9338 68.1201 60.5189 68.5351 60.0089 68.5351H57.8485C57.3383 68.5351 56.9234 68.1201 56.9234 67.6101V65.0526H60.9338L60.9338 67.6101Z" fill="white"/>
<path d="M63.1435 51.2074C62.7791 51.0324 62.3414 51.186 62.1663 51.5506L60.4046 55.2198L58.1256 53.4332C57.9532 53.2981 57.7296 53.2473 57.5158 53.2945C57.302 53.3416 57.1205 53.4821 57.0212 53.6771L55.245 57.1627C55.0613 57.5232 55.2047 57.9642 55.565 58.1479C55.6716 58.2022 55.7851 58.2279 55.8969 58.2279C56.1635 58.2279 56.4207 58.0817 56.5501 57.8279L57.9221 55.1351L60.2182 56.9351C60.3929 57.072 60.6204 57.1222 60.8364 57.072C61.0526 57.0215 61.2342 56.8758 61.3303 56.6757L63.4867 52.1848C63.6619 51.8201 63.5083 51.3825 63.1435 51.2074Z" fill="white"/>
</svg>
