<svg width="90" height="90" viewBox="0 0 90 90" fill="none" xmlns="http://www.w3.org/2000/svg">
<rect width="90" height="90" rx="45" fill="#0B4DF5"/>
<g clip-path="url(#clip0_905_9)">
<path d="M34.3382 27.3398C32.812 27.3398 31.5703 28.5884 31.5703 30.1231C31.5703 31.6578 32.812 32.9065 34.3382 32.9065C35.8645 32.9065 37.1062 31.6578 37.1062 30.1231C37.1062 28.5884 35.8645 27.3398 34.3382 27.3398ZM34.3382 31.5899C33.534 31.5899 32.8796 30.9319 32.8796 30.1231C32.8796 29.3144 33.534 28.6564 34.3382 28.6564C35.1426 28.6564 35.7969 29.3144 35.7969 30.1231C35.7968 30.9319 35.1425 31.5899 34.3382 31.5899Z" fill="white"/>
<path d="M37.1065 42.5883V40.0432C37.1065 39.6795 36.8135 39.3848 36.4519 39.3848H29.7836C29.4219 39.3848 29.1289 39.6795 29.1289 40.0432V42.5883C29.1289 42.952 29.4219 43.2467 29.7836 43.2467H36.452C36.8135 43.2467 37.1065 42.952 37.1065 42.5883ZM35.7972 41.9299H30.4382V40.7016H35.7973V41.9299H35.7972Z" fill="white"/>
<path d="M64.7028 28.4635H60.5473C59.8236 28.4635 59.1924 28.8684 58.8654 29.4645H41.4228V29.0472C41.4228 28.7359 41.206 28.4673 40.903 28.4032L39.3077 28.0655C39.3048 28.0585 39.302 28.0515 39.299 28.0444L40.1896 26.6716C40.3588 26.4109 40.3231 26.0667 40.1041 25.8467L38.5913 24.3257C38.3724 24.1056 38.0302 24.0696 37.7708 24.2398L36.4051 25.1353C36.3981 25.1324 36.3912 25.1295 36.3843 25.1265L36.0484 23.5226C35.9847 23.218 35.7174 23 35.4078 23H33.2682C32.9586 23 32.6914 23.218 32.6276 23.5226L32.2917 25.1265C32.2848 25.1294 32.2779 25.1323 32.2709 25.1353L30.9053 24.2398C30.646 24.0697 30.3037 24.1058 30.0847 24.3257L28.5719 25.8466C28.3529 26.0668 28.3173 26.411 28.4864 26.6716L29.3771 28.0445C29.3742 28.0515 29.3713 28.0585 29.3684 28.0655L27.773 28.4032C27.47 28.4672 27.2532 28.7359 27.2532 29.0472V29.4645H27.2358C25.499 29.4645 24.0859 30.8851 24.0859 32.6312V53.1048C24.0859 54.8508 25.499 56.2715 27.2358 56.2715H29.716C30.0325 58.5648 32.036 60.306 34.3378 60.306C35.0165 60.306 35.6612 60.1584 36.2436 59.8955L34.7629 65.7201C34.1749 68.0326 37.8397 68.8182 38.4046 66.5977L41.0297 56.2717H43.161V66.1589C43.161 67.1225 43.965 67.9308 44.9234 67.9308C45.882 67.9308 46.6859 67.1225 46.6859 66.1589V56.2715H48.8174L51.4424 66.5974C52.0067 68.8175 55.6722 68.0333 55.0841 65.7199L52.6822 56.2715H62.6113C64.3481 56.2715 65.7612 54.8509 65.7612 53.1048V38.8837C65.7612 38.5201 65.4681 38.2255 65.1065 38.2255C64.7449 38.2255 64.4518 38.5201 64.4518 38.8837V53.1048C64.4518 54.1251 63.6262 54.9552 62.6113 54.9552L38.9592 54.9553C38.6398 52.6784 36.6896 50.9208 34.3379 50.9208C32.036 50.9208 30.0326 52.6616 29.7161 54.9552H27.2358C26.2209 54.9552 25.3953 54.1251 25.3953 53.1048V33.9886H28.3833C28.396 34.1393 28.4592 34.2855 28.5719 34.3988L30.0847 35.9197C30.3036 36.1396 30.6457 36.1757 30.9053 36.0056L32.2708 35.1101C32.2778 35.113 32.2848 35.1159 32.2917 35.1189L32.6276 36.7228C32.6914 37.0274 32.9586 37.2454 33.2682 37.2454H35.4078C35.7174 37.2454 35.9846 37.0274 36.0484 36.7228L36.3843 35.1189C36.3912 35.116 36.3982 35.1131 36.4052 35.1101L37.7708 36.0056C38.0303 36.1757 38.3726 36.1397 38.5913 35.9197L40.1041 34.3988C40.2168 34.2855 40.2799 34.1393 40.2926 33.9886H58.3934L52.2905 40.1242L49.1558 36.9736C48.6678 36.481 47.8572 36.4812 47.3685 36.9726L45.3335 39.0185C45.0777 39.2755 45.0777 39.6923 45.3334 39.9492C45.5891 40.2062 46.0036 40.2063 46.2592 39.9493L48.2617 37.9363L51.3973 41.0879C51.8855 41.5784 52.6958 41.5799 53.1837 41.0878L62.0931 32.1308C62.2803 31.9424 62.3362 31.6594 62.2349 31.4134C62.1336 31.1675 61.8948 31.0071 61.6301 31.0071H60.5471C59.7597 31.0071 59.7605 29.7798 60.5471 29.7798H64.7026C65.0297 29.7798 65.2958 30.0469 65.2958 30.3752V34.553C65.2958 34.8881 65.0182 35.1672 64.6849 35.1672C64.3481 35.1672 64.0741 34.8916 64.0741 34.553V33.4652C64.0741 33.199 63.9146 32.9589 63.6699 32.8571C63.4252 32.755 63.1437 32.8115 62.9565 32.9997L52.2909 43.7215L49.1549 40.5695C48.6631 40.0752 47.8622 40.075 47.3685 40.5696L41.9956 45.972C41.4456 46.5259 40.5748 45.6646 41.1325 45.1035L44.0774 42.143C44.3331 41.8859 44.3331 41.4692 44.0774 41.2122C43.8218 40.9553 43.4072 40.9552 43.1516 41.2122L40.2067 44.1727C39.4439 44.9398 39.4752 46.2193 40.2629 46.9546C41.0086 47.6508 42.2028 47.6267 42.922 46.9024L48.2618 41.5333L51.3974 44.6848C51.8835 45.1752 52.697 45.177 53.1837 44.6857L62.8171 35.0016C63.0187 35.8505 63.7797 36.4837 64.685 36.4837C65.7309 36.4837 66.6053 35.6049 66.6053 34.5531V30.3752C66.6053 29.321 65.7518 28.4635 64.7028 28.4635ZM37.136 66.2715C36.9908 66.8425 35.8665 66.6947 36.0315 66.046L37.9197 58.6186C38.4647 57.9633 38.8349 57.1568 38.9591 56.2716H39.6783L37.136 66.2715ZM45.3766 66.1588C45.3766 66.7449 44.4703 66.7459 44.4703 66.1588V56.2715H45.3766V66.1588ZM53.8156 66.046C53.9802 66.6931 52.8562 66.842 52.7111 66.2715L50.1689 56.2715H51.3308L53.8156 66.046ZM33.5799 52.3231C33.8274 52.2661 34.0825 52.2371 34.3379 52.2371C36.1896 52.2371 37.696 53.7511 37.6966 55.6122L37.6966 55.6133L37.6966 55.6145C37.696 57.4756 36.1895 58.9896 34.3379 58.9896C32.5005 58.9896 30.9796 57.459 30.9796 55.6133C30.9796 54.0308 32.0492 52.6778 33.5799 52.3231ZM25.3953 32.6312C25.3953 31.6109 26.2209 30.7808 27.2358 30.7808H27.2532V31.1982C27.2532 31.5094 27.47 31.7781 27.773 31.8422L29.3684 32.1799C29.3712 32.1869 29.3741 32.1939 29.3771 32.2009L29.0712 32.6723H25.3953V32.6312ZM38.0411 34.6112L36.8181 33.8092C36.374 33.5182 35.285 33.9775 35.1772 34.4928L34.8765 35.9289H33.7995L33.4988 34.4928C33.3897 33.9712 32.2965 33.5216 31.8579 33.8092L30.6349 34.6112L29.8732 33.8455L30.671 32.616C30.9603 32.1695 30.5036 31.0747 29.9911 30.9663L28.5625 30.664V29.5813L29.9911 29.279C30.51 29.1693 30.9568 28.0703 30.671 27.6294L29.8732 26.3998L30.6349 25.6341L31.8579 26.4361C32.302 26.7271 33.391 26.2678 33.4988 25.7525L33.7996 24.3163H34.8766L35.1773 25.7525C35.2864 26.2741 36.3795 26.7235 36.8182 26.4361L38.0412 25.6341L38.8028 26.3998L38.005 27.6294C37.7155 28.0757 38.1725 29.1707 38.685 29.279L40.1135 29.5813V30.6641L38.685 30.9664C38.1663 31.076 37.719 32.1752 38.005 32.616L38.8028 33.8456L38.0411 34.6112ZM60.1015 32.2714L59.7028 32.6722H39.6048L39.299 32.2009C39.3019 32.1939 39.3048 32.1868 39.3077 32.1798L40.903 31.8421C41.206 31.7781 41.4228 31.5094 41.4228 31.1981V30.7807H58.6667C58.813 31.5067 59.3843 32.1009 60.1015 32.2714Z" fill="white"/>
<path d="M61.1207 50.5566H48.7133C48.3516 50.5566 48.0586 50.8516 48.0586 51.2156C48.0586 51.5796 48.3516 51.8745 48.7133 51.8745H61.1207C61.4823 51.8745 61.7754 51.5796 61.7754 51.2156C61.7754 50.8516 61.4822 50.5566 61.1207 50.5566Z" fill="white"/>
<path d="M61.1199 47.6699H53.764C53.4024 47.6699 53.1094 47.9649 53.1094 48.3289C53.1094 48.6929 53.4024 48.9878 53.764 48.9878H61.1199C61.4816 48.9878 61.7746 48.6929 61.7746 48.3289C61.7746 47.9649 61.4815 47.6699 61.1199 47.6699Z" fill="white"/>
<path d="M29.7836 44.4297C29.4219 44.4297 29.1289 44.7246 29.1289 45.0886C29.1289 45.4526 29.4219 45.7476 29.7836 45.7476H34.3386C34.7003 45.7476 34.9933 45.4526 34.9933 45.0886C34.9933 44.7246 34.7003 44.4297 34.3386 44.4297H29.7836Z" fill="white"/>
<path d="M34.3383 57.161C34.6999 57.161 34.9929 56.8663 34.9929 56.5026V54.7268C34.9929 54.3631 34.6999 54.0684 34.3383 54.0684C33.9766 54.0684 33.6836 54.3631 33.6836 54.7268V56.5026C33.6836 56.8662 33.9766 57.161 34.3383 57.161Z" fill="white"/>
</g>
<defs>
<clipPath id="clip0_905_9">
<rect width="44.6917" height="44.9307" fill="white" transform="translate(23 23)"/>
</clipPath>
</defs>
</svg>
