<svg width="90" height="90" viewBox="0 0 90 90" fill="none" xmlns="http://www.w3.org/2000/svg">
<rect width="90" height="90" rx="45" fill="#0B4DF5"/>
<g clip-path="url(#clip0_905_10)">
<path d="M38.6236 32.5663C38.4943 32.9642 38.6216 33.3906 38.9477 33.6528L41.8512 35.9865L40.8739 39.5811C40.7642 39.9847 40.912 40.4045 41.2506 40.6507C41.5893 40.8965 42.034 40.9073 42.384 40.6783L45.5007 38.638L48.6175 40.6783C48.7855 40.7883 48.9753 40.843 49.1647 40.843C49.37 40.843 49.5749 40.7787 49.7508 40.6507C50.0896 40.4047 50.2374 39.9847 50.1275 39.5811L49.1502 35.9866L52.0535 33.653C52.3798 33.3909 52.5071 32.9644 52.3777 32.5663C52.2484 32.1682 51.8948 31.8979 51.4768 31.8777L47.7562 31.6963L46.4339 28.2139C46.2855 27.8227 45.9191 27.5698 45.5006 27.5698C45.0822 27.5698 44.7158 27.8226 44.5674 28.2138L43.2451 31.6964L39.5247 31.8777C39.1066 31.8979 38.7529 32.1682 38.6236 32.5663ZM43.5803 33.0878C43.9769 33.0685 44.3241 32.8162 44.4648 32.4451L45.5005 29.7174L46.5362 32.4454C46.6772 32.8163 47.0246 33.0685 47.4208 33.0878L50.335 33.23L48.0607 35.0578C47.7512 35.3066 47.6187 35.7149 47.7229 36.0977L48.4883 38.9132L46.047 37.3151C45.881 37.2065 45.6907 37.1522 45.5005 37.1522C45.3102 37.1522 45.1197 37.2066 44.9536 37.3152L42.5125 38.9132L43.278 36.0979C43.3822 35.7148 43.2496 35.3065 42.94 35.0578L40.6659 33.23L43.5803 33.0878ZM44.7974 25.2834V22.7031C44.7974 22.3148 45.1122 22 45.5005 22C45.8888 22 46.2037 22.3148 46.2037 22.7031V25.2834C46.2037 25.6717 45.8888 25.9865 45.5005 25.9865C45.1122 25.9865 44.7974 25.6717 44.7974 25.2834ZM49.0794 29.4493C48.8196 29.1607 48.8429 28.7161 49.1314 28.4563L52.0067 25.8672C52.2954 25.6073 52.7399 25.6306 52.9998 25.9192C53.2596 26.2078 53.2363 26.6524 52.9478 26.9122L50.0724 29.5013C49.938 29.6223 49.7697 29.6819 49.602 29.6819C49.4098 29.6819 49.2182 29.6035 49.0794 29.4493ZM38.0013 25.9192C38.2611 25.6306 38.7056 25.6073 38.9944 25.8672L41.8698 28.4563C42.1583 28.7161 42.1816 29.1607 41.9218 29.4493C41.783 29.6034 41.5914 29.6819 41.399 29.6819C41.2314 29.6819 41.0632 29.6223 40.9287 29.5013L38.0533 26.9122C37.7647 26.6524 37.7415 26.2078 38.0013 25.9192ZM54.5211 33.6528L57.4246 35.9865L56.4473 39.5811C56.3376 39.9847 56.4854 40.4045 56.824 40.6507C57.1625 40.8965 57.6072 40.9072 57.9575 40.6783L61.0741 38.638L64.1909 40.6783C64.359 40.7883 64.5487 40.843 64.7381 40.843C64.9434 40.843 65.1483 40.7787 65.3242 40.6507C65.6628 40.4049 65.8107 39.9851 65.7009 39.5811L64.7236 35.9866L67.6269 33.653C67.9532 33.391 68.0804 32.9644 67.9511 32.5663C67.8218 32.1682 67.4681 31.8979 67.0503 31.8777L63.3296 31.6963L62.0075 28.2139C61.859 27.8227 61.4926 27.5698 61.0741 27.5698C60.6556 27.5698 60.2892 27.8226 60.1407 28.2138L58.8186 31.6963L55.0982 31.8776C54.68 31.8978 54.3263 32.1682 54.1971 32.5663C54.0677 32.9644 54.1949 33.3909 54.5211 33.6528ZM59.1536 33.0878C59.5503 33.0685 59.8976 32.8162 60.0384 32.445L61.0741 29.7173L62.1096 32.4449C62.2505 32.8162 62.5978 33.0685 62.9943 33.0878L65.9085 33.2299L63.6345 35.0576C63.3248 35.3063 63.1921 35.7146 63.2964 36.0977L64.0618 38.9131L61.6206 37.315C61.4544 37.2064 61.2642 37.1521 61.0739 37.1521C60.8835 37.1521 60.6931 37.2065 60.5271 37.3151L58.086 38.9131L58.8515 36.0978C58.9556 35.7149 58.8231 35.3066 58.5135 35.0577L56.2394 33.2299L59.1536 33.0878ZM23.3741 33.6528L26.2776 35.9865L25.3003 39.5811C25.1906 39.9847 25.3384 40.4045 25.677 40.6507C26.0157 40.8965 26.4604 40.9073 26.8104 40.6783L29.9271 38.638L33.0439 40.6783C33.2119 40.7883 33.4017 40.843 33.5911 40.843C33.7964 40.843 34.0013 40.7787 34.1772 40.6507C34.5158 40.4049 34.6636 39.9851 34.5539 39.5811L33.5766 35.9866L36.4799 33.653C36.806 33.3912 36.9333 32.9647 36.804 32.5659C36.6745 32.168 36.3208 31.8978 35.9032 31.8776L32.1826 31.6962L30.8604 28.2139C30.712 27.8227 30.3456 27.5698 29.9271 27.5698C29.5086 27.5698 29.1422 27.8226 28.9937 28.2138L27.6716 31.6963L23.9512 31.8776C23.5331 31.8978 23.1794 32.1682 23.0502 32.5659C22.9206 32.9641 23.0478 33.3908 23.3741 33.6528ZM28.0066 33.0878C28.4033 33.0685 28.7506 32.8162 28.8914 32.445L29.927 29.7173L30.9626 32.4449C31.1035 32.8162 31.4508 33.0685 31.8473 33.0878L34.7615 33.2299L32.4875 35.0576C32.1778 35.3063 32.0451 35.7146 32.1494 36.0977L32.9148 38.9131L30.4735 37.315C30.3074 37.2064 30.1171 37.1521 29.9269 37.1521C29.7365 37.1521 29.5461 37.2065 29.3801 37.3151L26.939 38.9131L27.7045 36.0978C27.8086 35.7149 27.6761 35.3066 27.3665 35.0577L25.0923 33.2299L28.0066 33.0878ZM67.8899 59.3476C67.3951 57.75 66.3819 56.3154 65.0365 55.308C64.3925 54.8257 63.6911 54.4501 62.9512 54.1841C63.977 53.3791 64.6379 52.1293 64.6379 50.7271C64.6379 48.3043 62.6668 46.3333 60.2441 46.3333C57.8213 46.3333 55.8502 48.3043 55.8502 50.7271C55.8502 52.1276 56.5095 53.3762 57.5333 54.1813C56.1612 54.6711 54.9457 55.5315 54.0149 56.691C53.5798 56.0823 53.0779 55.517 52.5138 55.0068C51.377 53.9787 50.0429 53.2238 48.6062 52.7775C50.1297 51.7675 51.137 50.0381 51.137 48.0772C51.137 44.9693 48.6084 42.4409 45.5006 42.4409C42.3928 42.4409 39.8643 44.9693 39.8643 48.0772C39.8643 50.0381 40.8714 51.7675 42.395 52.7775C40.9582 53.2237 39.6241 53.9787 38.4873 55.0068C37.9231 55.517 37.4213 56.0823 36.9863 56.6909C36.0556 55.5313 34.84 54.6709 33.4679 54.1811C34.4915 53.3759 35.151 52.1273 35.151 50.7269C35.151 48.3041 33.1799 46.333 30.7572 46.333C28.3344 46.333 26.3632 48.3041 26.3632 50.7269C26.3632 52.1289 27.0242 53.3788 28.0499 54.1839C27.31 54.4498 26.6086 54.8255 25.9645 55.3077C24.6191 56.315 23.6059 57.7497 23.1111 59.3473C22.8825 60.0852 23.0092 60.8341 23.4677 61.4562C23.9261 62.0781 24.6041 62.4205 25.3767 62.4205H35.0968V63.6895C35.0968 65.515 36.5818 67.0001 38.4073 67.0001H52.5938C54.4192 67.0001 55.9043 65.515 55.9044 63.6895V62.4209H65.6244C66.3971 62.4209 67.0751 62.0784 67.5334 61.4566C67.9918 60.8345 68.1185 60.0855 67.8899 59.3476ZM60.2441 47.7396C61.8914 47.7396 63.2317 49.0798 63.2317 50.7271C63.2317 52.3746 61.8914 53.7148 60.2441 53.7148C58.5967 53.7148 57.2564 52.3746 57.2564 50.7271C57.2564 49.0798 58.5967 47.7396 60.2441 47.7396ZM41.2705 48.0772C41.2705 45.7447 43.1682 43.8471 45.5006 43.8471C47.8331 43.8471 49.7307 45.7447 49.7307 48.0772C49.7307 50.4089 47.8343 52.3059 45.5029 52.3071C45.5021 52.3071 45.5012 52.3071 45.5005 52.3071C45.4998 52.3071 45.4991 52.3071 45.4983 52.3071C43.1669 52.3058 41.2705 50.4088 41.2705 48.0772ZM30.7572 47.7392C32.4045 47.7392 33.7447 49.0795 33.7447 50.7268C33.7447 52.3742 32.4045 53.7145 30.7572 53.7145C29.1097 53.7145 27.7695 52.3742 27.7695 50.7268C27.7695 49.0795 29.1097 47.7392 30.7572 47.7392ZM35.1881 61.0142H25.3768C25.0532 61.0142 24.7918 60.8822 24.5997 60.6217C24.4076 60.3612 24.3588 60.0724 24.4545 59.7633C25.3144 56.9864 27.8474 55.1207 30.7572 55.1207C32.9582 55.1207 34.9633 56.1842 36.1964 57.9844C35.7089 58.9316 35.3675 59.9524 35.1881 61.0142ZM54.4982 63.6894C54.4981 64.7395 53.6438 65.5938 52.5938 65.5938H38.4073C37.3573 65.5938 36.503 64.7395 36.503 63.6894V61.7556C37.0121 57.1687 40.8726 53.7145 45.4983 53.7134C45.4991 53.7134 45.4998 53.7135 45.5006 53.7135C45.5014 53.7135 45.5022 53.7134 45.5029 53.7134C50.1285 53.7146 53.9889 57.1687 54.4982 61.7556V63.6894ZM66.4015 60.6221C66.2094 60.8825 65.9481 61.0146 65.6244 61.0146H55.8132C55.6337 59.9527 55.2923 58.9318 54.8048 57.9846C56.0381 56.1844 58.0431 55.1211 60.244 55.1211C63.1538 55.1211 65.6867 56.9868 66.5467 59.7637C66.6424 60.0726 66.5935 60.3614 66.4015 60.6221Z" fill="white"/>
</g>
<defs>
<clipPath id="clip0_905_10">
<rect width="45" height="45" fill="white" transform="translate(23 22)"/>
</clipPath>
</defs>
</svg>
